<?xml version="1.0" encoding="UTF-8" standalone="no"?>
<!-- Created with Inkscape (http://www.inkscape.org/) -->

<svg
   width="210mm"
   height="297mm"
   viewBox="0 0 210 297"
   version="1.1"
   id="svg1"
   inkscape:version="1.4.2 (f4327f4, 2025-05-13)"
   sodipodi:docname="arrowAsset.svg"
   inkscape:export-filename="arrowAsset.png"
   inkscape:export-xdpi="96"
   inkscape:export-ydpi="96"
   xmlns:inkscape="http://www.inkscape.org/namespaces/inkscape"
   xmlns:sodipodi="http://sodipodi.sourceforge.net/DTD/sodipodi-0.dtd"
   xmlns="http://www.w3.org/2000/svg"
   xmlns:svg="http://www.w3.org/2000/svg">
  <sodipodi:namedview
     id="namedview1"
     pagecolor="#ffffff"
     bordercolor="#000000"
     borderopacity="0.25"
     inkscape:showpageshadow="2"
     inkscape:pageopacity="0.0"
     inkscape:pagecheckerboard="0"
     inkscape:deskcolor="#d1d1d1"
     inkscape:document-units="mm"
     inkscape:zoom="2.1442755"
     inkscape:cx="229.91449"
     inkscape:cy="633.54732"
     inkscape:window-width="1920"
     inkscape:window-height="1111"
     inkscape:window-x="-9"
     inkscape:window-y="-9"
     inkscape:window-maximized="1"
     inkscape:current-layer="layer1" />
  <defs
     id="defs1" />
  <g
     inkscape:label="Vrstva 1"
     inkscape:groupmode="layer"
     id="layer1">
    <path
       style="fill:#000000;stroke:#000000;stroke-width:0.264583"
       id="path2"
       d="m 83.918448,189.78529 c 0,-1.00735 0,-2.01469 0,-3.02204 0,-0.96988 0,-1.93976 0,-2.90964 0,-0.99701 0,-1.99403 0,-2.99104 0,-1.07943 0,-2.15886 0,-3.23828 0,-0.88369 0,-1.76737 0,-2.65106 0,-0.86353 0,-1.72706 0,-2.59059 0,-0.80818 0,-1.61636 0,-2.42454 0,-0.78841 0,-1.57682 0,-2.36523 0,-0.93094 0,-1.86188 0,-2.79282 0,-0.90358 0,-1.80716 0,-2.71074 0,-0.79885 0,-1.59771 0,-2.39656 0,-0.85669 0,-1.71337 0,-2.57006 0,-0.85425 0,-1.7085 0,-2.56275 0,-0.79074 0,-1.58149 0,-2.37223 -0.02707,-0.38733 0.06292,-0.79556 -0.05917,-1.1746 -0.03848,-0.11949 -0.114168,-0.22361 -0.171254,-0.33541 0,0 -1.99734,0.10311 -1.99734,0.10311 v 0 c 0.05629,0.0881 0.13239,0.16643 0.168855,0.26446 0.134882,0.3626 0.02315,0.76973 0.05891,1.14244 0,0.79074 0,1.58149 0,2.37223 0,0.85425 0,1.7085 0,2.56275 0,0.85669 0,1.71337 0,2.57006 0,0.79885 0,1.59771 0,2.39656 0,0.90358 0,1.80716 0,2.71074 0,0.93094 0,1.86188 0,2.79282 0,0.78841 0,1.57682 0,2.36523 0,0.80818 0,1.61636 0,2.42454 0,0.86353 0,1.72706 0,2.59059 0,0.88369 0,1.76737 0,2.65106 0,1.07942 0,2.15885 0,3.23828 0,0.99701 0,1.99403 0,2.99104 0,0.96988 0,1.93976 0,2.90964 0,1.00735 0,2.01469 0,3.02204 z" />
    <path
       style="fill:#000000;stroke:#000000;stroke-width:0.264583"
       id="path3"
       d="m 89.347632,188.33412 c 0,-0.83935 0,-1.67871 0,-2.51806 0,-0.91334 0,-1.82667 0,-2.74001 0,-0.83462 0,-1.66925 0,-2.50388 0,-0.99706 0,-1.99413 0,-2.9912 0,-1.07168 0,-2.14336 0,-3.21504 0,-0.86919 0,-1.73839 0,-2.60758 0,-1.11192 0,-2.22384 0,-3.33576 0,-0.99349 0,-1.98697 0,-2.98045 0,-1.16723 0,-2.33447 0,-3.5017 -0.05361,-1.04333 0.096,-2.10561 -0.05916,-3.14112 -0.186941,-0.71749 -0.319045,-1.44169 -0.378907,-2.18037 -0.05856,-0.95433 -0.05635,-1.91108 -0.05877,-2.86682 0.01521,-0.76009 -0.114411,-1.51251 -0.176668,-2.26846 -0.103296,-0.4296 -0.03953,-0.23262 -0.180827,-0.59421 0,0 -1.998469,0.0782 -1.998469,0.0782 v 0 c 0.140375,0.3211 0.07694,0.14493 0.179364,0.53232 0.06119,0.7508 0.190605,1.49787 0.176601,2.25261 0.0024,0.96091 5.29e-4,1.9228 0.05884,2.88232 0.05898,0.74346 0.184386,1.4745 0.379082,2.19524 0.165566,1.02269 -0.003,2.0788 0.05892,3.11025 0,1.16723 0,2.33447 0,3.5017 0,0.99348 0,1.98696 0,2.98045 0,1.11192 0,2.22384 0,3.33576 0,0.86919 0,1.73839 0,2.60758 0,1.07168 0,2.14336 0,3.21504 0,0.99707 0,1.99414 0,2.9912 0,0.83463 0,1.66926 0,2.50388 0,0.91334 0,1.82667 0,2.74001 0,0.83935 0,1.67871 0,2.51806 z" />
    <path
       style="fill:#000000;stroke:#000000;stroke-width:0.264583"
       id="path4"
       d="m 89.347632,189.56803 c 0,-0.70255 0,-1.4051 0,-2.10765 0,0 -1.999999,0 -1.999999,0 v 0 c 0,0.70255 0,1.4051 0,2.10765 z" />
    <path
       style="fill:#000000;stroke:#000000;stroke-width:0.264583"
       id="path5"
       d="m 75.975781,156.69289 c 0.733284,-0.58811 1.502825,-1.12028 2.198198,-1.75506 0.729085,-0.76255 1.474538,-1.50688 2.224902,-2.24861 0.676693,-0.58563 1.390851,-1.12716 2.067354,-1.71593 0.470836,-0.35828 0.855879,-0.80708 1.30807,-1.18715 0,0 -1.992614,-0.17173 -1.992614,-0.17173 v 0 c -0.441925,0.38997 -0.840935,0.82617 -1.308097,1.18748 -0.682276,0.58549 -1.40295,1.12537 -2.068417,1.72875 -0.752462,0.73623 -1.481773,1.49341 -2.224175,2.2397 -0.695934,0.61625 -1.449245,1.15774 -2.194171,1.71261 z" />
    <path
       style="fill:#000000;stroke:#000000;stroke-width:0.264583"
       id="path6"
       d="m 76.021453,155.69998 c 0.01678,-0.66747 -0.04793,-1.33854 0.05899,-2.00149 0.05947,-0.36875 0.214495,-0.95628 0.304757,-1.31748 0.266235,-1.08263 0.568709,-2.16337 1.03563,-3.17808 0.426418,-0.87108 0.926375,-1.6999 1.424011,-2.53089 0.566965,-1.09251 1.123278,-2.19074 1.692852,-3.28223 0.580898,-1.17006 1.301567,-2.2612 1.985907,-3.37151 0.549685,-0.70918 1.037039,-1.46308 1.616771,-2.14814 0.596572,-0.54204 1.141822,-1.13374 1.766707,-1.64405 0.265652,-0.20993 0.580303,-0.32397 0.91807,-0.35014 0.0932,-0.007 0.373703,0.009 0.280239,0.011 -1.726301,0.0373 -2.246548,-0.11664 -1.371653,0.0959 0.688075,0.25086 1.138825,0.81371 1.61604,1.3394 0.563137,0.74637 1.168512,1.4469 1.707314,2.21257 0.538226,0.77491 0.995527,1.59609 1.474253,2.40642 0.384162,0.65884 0.739667,1.33414 1.116775,1.99753 0.473678,0.81858 0.841356,1.69112 1.208034,2.56101 0.316315,0.90306 0.64947,1.79274 1.062392,2.65667 0.384366,0.79463 0.617046,1.62385 0.734166,2.49499 0.238935,0.9304 0.412105,1.86892 0.50932,2.82429 0.0053,0.73925 0.169323,1.50697 0.0572,2.24342 -0.01315,0.0227 -0.01408,0.0615 -0.03948,0.068 -0.02498,0.006 -0.09134,-0.0399 -0.06558,-0.041 0.636569,-0.0272 1.277012,0.0247 1.91108,-0.0379 0.06282,-0.006 -0.09078,-0.0883 -0.129727,-0.13795 -0.114737,-0.14636 -0.209537,-0.32551 -0.30157,-0.48448 -0.432363,-0.63319 -0.975574,-1.17863 -1.496819,-1.73836 -0.555011,-0.56484 -1.132883,-1.10264 -1.75142,-1.59717 -0.705445,-0.60435 -1.482839,-1.11324 -2.214322,-1.6838 -0.555929,-0.41124 -1.084516,-0.86084 -1.601811,-1.31953 0,0 -1.993048,0.16663 -1.993048,0.16663 v 0 c 0.508918,0.47188 1.049443,0.91633 1.60311,1.33438 0.732116,0.57037 1.504963,1.08323 2.214282,1.68335 0.623427,0.47805 1.189675,1.01435 1.74879,1.56547 0.511551,0.55479 1.043964,1.08619 1.493906,1.6923 0.0298,0.0534 0.383458,0.69397 0.436862,0.70043 0.929592,0.11237 1.916298,0.67896 2.185548,-0.14246 0.09881,-0.75606 -0.04078,-1.53378 -0.05711,-2.2915 -0.09621,-0.95735 -0.261784,-1.90003 -0.509395,-2.83057 -0.117237,-0.89199 -0.346596,-1.74235 -0.735983,-2.55788 -0.41329,-0.86069 -0.756275,-1.74266 -1.061985,-2.64703 -0.368871,-0.87711 -0.735928,-1.7581 -1.209164,-2.58556 -0.383757,-0.66115 -0.733677,-1.34083 -1.116989,-2.00154 -0.623729,-1.01843 0.193244,0.33967 -0.433192,-0.78756 -0.313385,-0.56392 -0.725199,-1.07057 -1.041889,-1.63315 -0.189521,-0.26955 -0.370009,-0.54559 -0.566587,-0.81003 -0.364299,-0.49008 -0.83594,-0.8898 -1.142323,-1.42624 -0.486642,-0.5476 -0.950526,-1.12973 -1.626875,-1.44711 -1.018127,-0.37601 -0.286435,-0.14638 -2.588437,-0.14912 -0.451384,-5.3e-4 -0.869259,0.19429 -1.214437,0.47212 -0.615972,0.53278 -1.188575,1.10884 -1.769468,1.67921 -0.574648,0.69849 -1.077542,1.45197 -1.618543,2.1765 -0.688599,1.11281 -1.404334,2.21201 -1.986664,3.38611 -0.566034,1.08912 -1.119563,2.18481 -1.69223,3.27012 -0.503161,0.83559 -0.999593,1.67531 -1.425133,2.55408 -0.458364,1.03113 -0.771887,2.1188 -1.036839,3.21425 -0.09843,0.39792 -0.241895,0.94103 -0.305252,1.34615 -0.10478,0.67 -0.04377,1.34724 -0.05909,2.02156 z" />
    <path
       style="fill:#000000;stroke:#000000;stroke-width:0.264583"
       id="path7"
       d="m 85.129414,150.6929 c 0.872641,0 1.745284,0 2.617925,0 0.183716,-0.02 0.839668,0.16039 0.439087,-0.31287 -0.03742,-0.0442 -0.115848,0 -0.173773,0 -0.08446,0 -0.168924,0 -0.253384,0 -0.309462,0 -0.618927,0 -0.928388,0 -0.04633,0 -0.151668,-0.0446 -0.138999,0 0.03002,0.10558 0.06846,0.20858 0.102695,0.31287 -0.228743,-0.22843 0.152673,0.047 0.143621,0 -0.02043,-0.1061 -0.01839,-0.2276 -0.08476,-0.31287 -0.02839,-0.0365 -0.46649,0 -0.611228,0 -0.04882,-0.007 -0.09764,-0.0148 -0.146468,-0.0223 -0.01196,-0.003 -0.04569,-0.0168 -0.03585,-0.009 0.09999,0.0758 0.610203,-0.0582 0.740098,-0.076 0.107897,-0.009 0.215762,-0.019 0.323696,-0.0279 0.262295,-0.0215 0.52246,-0.0235 0.51467,-0.0627 -0.07076,-0.35602 -0.04364,-0.28704 -0.3239,-0.29611 -0.982832,-0.0133 -1.966391,0.0265 -2.948876,-0.002 -0.551702,-0.0162 1.104262,0.003 1.655696,-0.0202 0.195458,-0.008 -0.388575,-0.0463 -0.582171,-0.0745 -0.0546,-0.0102 -0.108484,-0.0256 -0.163819,-0.0304 -0.06715,-0.006 -0.02819,0.15488 0.02082,0.20114 0.02914,0.0275 0.646655,-5.3e-4 0.696391,-0.001 0.489244,-0.007 0.97854,-0.007 1.467818,-0.007 0,0 -1.975424,-0.31257 -1.975424,-0.31257 v 0 c -0.48954,0.001 -0.979138,0.001 -1.468586,0.0121 -0.114805,0.004 -0.613542,-0.0441 -0.705977,0.071 -0.01675,0.0208 -0.120425,0.24962 -0.01677,0.30671 0.04988,0.0275 0.110326,0.0283 0.165491,0.0425 0.989987,0.16957 1.750055,0.0629 2.881927,0.12555 0.539369,0.0299 -1.080387,-1e-4 -1.620581,-2.6e-4 -0.206087,-7e-5 0.755303,-2.7e-4 0.61826,1.8e-4 0.281008,-0.002 0.241974,0.0671 0.317304,-0.27891 0.003,-0.0139 -0.08442,-0.003 -0.231087,0.01 -0.348266,0.0306 -0.233836,0.0199 -0.605171,0.0656 -0.313312,0.0614 -1.187934,0.29573 -0.552876,0.70062 0.144738,0 0.582837,0.0365 0.611227,0 0.06637,-0.0853 0.06433,-0.20676 0.08476,-0.31286 0.009,-0.047 -0.372367,0.22843 -0.143621,0 -0.03423,0.10429 -0.07268,0.20728 -0.102696,0.31286 -0.01267,0.0446 0.09266,0 0.138999,0 0.309462,0 0.618924,0 0.928389,0 0.08446,0 0.168923,0 0.253383,0 0.05792,0 0.13635,0.0442 0.173773,0 0.400582,-0.47325 -0.25537,-0.29286 -0.439086,-0.31286 -0.872644,0 -1.745285,0 -2.617926,0 z" />
    <path
       style="fill:#000000;stroke:#000000;stroke-width:0.264583"
       id="path8"
       d="m 84.853115,190.42466 c 0.72477,-0.10841 1.455116,-0.16869 2.186514,-0.20781 0.525147,-0.0417 1.508037,0.0496 1.875994,-0.40905 -0.03831,-0.0843 -0.04539,-0.19178 -0.114917,-0.25295 -0.14184,-0.12481 -0.800076,-0.13672 -0.97487,-0.1468 -0.98301,-0.0567 -1.376474,0.008 -2.726566,0.042 -0.241297,0.0448 -1.36335,0.26884 -0.641326,0.64806 -0.170093,-0.20429 0.214352,0.10367 0.210896,0.0326 -0.0043,-0.0885 -0.0043,-0.19216 -0.06349,-0.25799 -0.0096,-0.0107 -0.713129,-0.004 -0.75547,-0.004 -1.142924,-2e-5 0.601961,3e-5 1.312796,-2.6e-4 0.09972,-4e-5 -0.201528,-0.0208 -0.299143,-5.3e-4 -1.931162,0.4027 -2.314157,0.21356 -1.332405,0.50882 0.974167,0.20503 1.972106,0.2478 2.964053,0.28319 0.07146,0.002 0.14291,0.005 0.214363,0.007 0.01209,-0.001 0.0382,0.009 0.03631,-0.003 -0.01611,-0.1023 -0.01347,-0.22322 -0.08389,-0.29914 -0.04421,-0.0477 -0.260019,-5.3e-4 -0.195019,-0.002 1.753307,-0.0266 2.222056,0.0366 1.26447,-0.0613 -0.566155,-0.0576 -0.279214,-0.0375 -0.860911,-0.0589 0,0 -1.975951,0.30921 -1.975951,0.30921 v 0 c 0.57926,4e-5 0.293177,-0.0145 0.858332,0.042 1.147231,0.12266 0.320106,0.0462 2.689474,0.0817 0.269234,0.004 0.227671,0.0494 0.28203,-0.30424 0.01283,-0.0835 -0.672047,0.27833 -0.252799,-0.0186 -0.988912,-0.0305 -1.981994,-0.0667 -2.958044,-0.24155 -1.133335,-0.22183 -0.300869,-0.0957 -2.625596,0.0674 -0.02809,0.002 0.05633,7.9e-4 0.08449,0.001 0.07162,2.7e-4 0.143227,5.3e-4 0.214842,5.3e-4 2.138878,8e-4 1.561906,0.002 2.63812,-5.3e-4 0.054,-2.6e-4 0.736283,0.003 0.759945,-0.0255 0.246163,-0.29801 0.02761,-0.30929 -0.145675,-0.32658 -0.110783,0.0116 -0.187745,-0.0231 -0.201821,0.11977 -0.0011,0.012 0.209121,-0.0681 0.217688,-0.0707 0.262523,-0.079 0.340077,-0.0862 0.623279,-0.14205 -3.605498,-0.0879 -1.717064,-0.0467 -1.23022,-0.0265 0.127789,0.005 0.860907,0.0932 0.963655,0.0605 0.05444,-0.0173 0.0737,-0.0873 0.110556,-0.13099 -0.575886,0.27949 -1.238776,0.24362 -1.860341,0.27705 -0.73039,0.046 -1.456343,0.13007 -2.184728,0.19631 z" />
    <path
       style="fill:#000000;stroke:#000000;stroke-width:0.264583"
       id="path9"
       d="m 83.701085,191.30968 c -0.01537,-0.29599 0.144668,-0.61291 0.08971,-0.90931 -0.131697,-0.71022 -1.45346,-0.0987 -2.166946,0.014 -0.07583,0.012 -0.08857,0.12543 -0.13286,0.18814 0,0 1.996035,0.1259 1.996035,0.1259 v 0 c 0.044,-0.0584 0.204388,-0.16486 0.132,-0.17521 -0.624641,-0.0893 -1.262845,-0.0214 -1.891442,-0.0764 -0.03477,-0.003 0.04847,-0.1151 0.06322,-0.0835 0.02082,0.0447 -0.04767,0.53664 -0.0488,0.54603 -0.01368,0.11394 -0.02715,0.22791 -0.04072,0.34186 z" />
    <path
       style="fill:#000000;stroke:#000000;stroke-width:0.264583"
       id="path10"
       d="m 82.324272,190.68116 c -0.262951,0.78063 -0.608282,1.51512 -1.029287,2.22183 -0.429985,0.64972 -0.780661,1.33699 -1.108271,2.04294 -0.225404,0.6953 -0.558657,1.34725 -0.762926,2.05013 -0.152175,0.65938 -0.248004,1.34644 -0.149161,2.02032 0.08274,0.54889 0.251248,0.47137 0.682802,0.65033 0.126886,0.006 0.197445,0.19921 0.325916,0.20708 0.720977,0.0442 1.444414,0.0675 2.166464,0.0475 0.0716,-0.002 0.117192,-0.0844 0.183084,-0.11248 0.04745,-0.0202 0.20334,-0.0301 0.15176,-0.0302 -0.619247,-7.9e-4 -1.238354,0.0189 -1.857529,0.0284 0.200777,0.005 0.278191,0.64228 0.470189,0.65215 0.698791,0.0359 1.39941,0.006 2.099116,0.009 0.345237,-0.55079 0.517174,-1.17664 0.718175,-1.7886 0.09435,-0.33102 0.198064,-0.68558 0.488958,-0.90342 0.06369,-0.0477 0.139858,-0.082 0.217926,-0.0974 0.0628,-0.0124 0.255297,0.015 0.19131,0.0168 -0.59632,0.0165 -1.192956,0.0183 -1.789433,0.0275 0.499531,0.2244 0.463315,0.92203 0.598676,1.38109 0.225991,0.53353 0.498533,0.44377 0.942255,0.59254 0.710129,-0.002 1.420744,0.0194 2.130385,-0.007 0.05724,-0.002 0.09701,-0.0664 0.153109,-0.078 0.04185,-0.009 0.169247,0.0196 0.12653,0.0205 -2.920061,0.056 -2.221913,-0.13532 -1.513528,0.089 0.698971,-0.0116 1.401019,0.0319 2.096907,-0.0347 0.126865,-0.0121 0.126159,-0.22874 0.225145,-0.30901 0.02172,-0.0176 0.109691,-0.0195 0.08174,-0.0189 -1.941253,0.0437 -2.419199,-0.20524 -1.737979,0.11699 0.704776,0.69548 0.582551,0.35425 2.382025,0.32957 0.06102,-8e-4 0.216326,-0.0948 0.15534,-0.0969 -2.640042,-0.0911 -2.234991,-0.0389 -1.503336,0.0876 0.949647,0.0888 0.676402,0.0753 2.491922,-0.0583 0.08107,-0.006 0.145381,-0.0762 0.22429,-0.0957 0.06009,-0.0149 0.247512,-0.006 0.185613,-0.006 -1.864849,0.0128 -2.350997,-0.0653 -1.580764,0.0433 0.05248,0.0282 0.112012,0.046 0.157422,0.0846 0.328623,0.279 0.745792,1.02806 0.977199,1.40322 0.554588,0.92147 0.827265,0.59748 2.436659,0.28138 0.03908,-0.008 0.182163,-0.85818 0.200313,-0.95085 0.02066,-0.0873 0.02873,-0.17859 0.06198,-0.26192 0.08474,-0.21236 0.261766,-0.2374 0.350409,-0.45639 0.08663,-0.21402 0.133644,-0.44203 0.203843,-0.66198 0.134385,-0.36371 0.155271,-0.75562 0.243504,-1.12902 0.08029,-0.33978 0.221531,-0.67533 0.326919,-1.0083 0.506606,-0.83591 0.563018,-1.41928 0.43614,-2.37417 -0.246465,-0.80303 -0.641393,-1.54913 -1.034892,-2.2876 -0.346382,-0.73621 -0.717028,-1.45065 -1.227177,-2.08795 -0.373517,-0.4031 -0.733372,-0.86877 -1.202703,-1.16827 -0.654532,0.0978 -1.325203,0.11895 -1.963595,0.2934 -0.07572,0.0207 0.05133,0.14847 0.08166,0.22087 0.195204,0.46591 0.417505,0.9169 0.637267,1.37166 0.352452,0.79891 0.756746,1.57242 1.030463,2.40333 0.348781,0.9168 0.55268,1.87546 0.848651,2.80869 0.240413,0.83199 0.628623,1.60986 0.888597,2.43667 0.04063,0.18497 0.477782,1.68839 0.578848,1.6915 0.68018,0.021 1.359836,-0.0564 2.039755,-0.0846 0,0 -1.996916,-0.11102 -1.996916,-0.11102 v 0 c 0.650769,0.0188 1.301313,0.0639 1.95231,0.0564 0.04064,-5.3e-4 -0.07525,-0.0418 -0.0937,-0.078 -0.05387,-0.10573 -0.07961,-0.2236 -0.117297,-0.33613 -0.132522,-0.39566 -0.275865,-0.78972 -0.3639,-1.19829 -0.254122,-0.82996 -0.642911,-1.60763 -0.888643,-2.43811 -0.297807,-0.93323 -0.500102,-1.89236 -0.848685,-2.80978 -0.26878,-0.84232 -0.675606,-1.62308 -1.031484,-2.43019 -0.173469,-0.36315 -0.348422,-0.71763 -0.507852,-1.08656 -0.03976,-0.092 -0.08704,-0.1806 -0.12886,-0.27169 -0.02801,-0.061 -0.01363,-0.18012 -0.08061,-0.18453 -0.669841,-0.0441 -1.342216,0.0312 -2.013326,0.0468 0.02884,-0.0175 0.05416,-0.0619 0.08651,-0.0524 0.308422,0.0907 0.844852,0.83276 1.098264,1.05813 0.522621,0.61463 0.886513,1.31981 1.224817,2.04797 0.38299,0.71974 0.76943,1.44222 1.03268,2.21675 0.03865,0.27878 0.0979,0.59546 0.07643,0.8796 -0.03845,0.50872 -0.294915,0.95787 -0.5118,1.40607 -0.225462,0.70667 -0.416105,1.41149 -0.570415,2.13707 -0.01217,0.0382 -0.171569,0.54679 -0.20144,0.60792 -0.133737,0.27374 -0.438928,0.43933 -0.415383,0.79576 -0.04142,0.21479 -0.06353,0.4337 -0.118234,0.64549 -0.01746,0.0676 -0.145841,0.18391 -0.07689,0.19478 0.620157,0.0978 1.254204,0.0598 1.881307,0.0897 -0.04756,-0.012 -0.108252,-0.001 -0.142682,-0.0359 -0.0814,-0.0826 -0.122545,-0.19686 -0.183817,-0.29528 -0.341434,-0.571 -0.701421,-1.15041 -1.149038,-1.64192 -0.868428,-0.31958 -0.243218,-0.11535 -2.381517,-0.0645 -0.143433,0.003 -0.555855,0.11171 -0.412755,0.12204 0.57889,0.0418 1.160857,0.0139 1.740807,0.0366 0.08946,0.004 -0.178506,0.014 -0.267761,0.0211 -0.09172,-0.0298 -0.178752,-0.087 -0.275161,-0.0894 -0.729803,-0.0178 -1.460037,0.0125 -2.189864,0.0293 -0.04911,0.001 -0.194402,0.0217 -0.145348,0.0244 0.622379,0.0341 1.245454,0.0834 1.868625,0.0701 0.127825,-0.003 -0.485847,-0.24665 -0.281943,-0.26007 -0.568693,-0.70876 -0.127886,-0.24983 -2.244394,-0.15093 -0.09288,0.004 -0.120785,0.1422 -0.190217,0.20405 -0.03268,0.0291 -0.154226,0.0684 -0.110527,0.0709 0.622239,0.0363 1.246415,0.0211 1.869622,0.0317 -0.105267,-0.0246 -0.196699,-0.10642 -0.304699,-0.11103 -0.713356,-0.0305 -1.427933,-0.0248 -2.141924,-0.0202 -0.09559,5.3e-4 -0.375737,0.0587 -0.28018,0.0611 0.608544,0.0151 1.217419,0.0103 1.82613,0.0155 -0.221517,0.0254 -0.01439,0.0252 -0.268166,-0.0733 -0.332735,-0.12914 -0.344022,0.23726 -0.653881,-0.28926 -0.176424,-0.54499 -0.13976,-1.20355 -0.617476,-1.60125 -1.845739,-0.0309 -2.572732,-0.53532 -3.088066,1.17347 -0.148823,0.45811 -0.315034,1.27358 -0.700736,1.5808 3.838766,0.1194 2.025976,0.46401 1.663862,-0.11167 -0.118661,-0.18865 -0.13761,-0.40239 -0.274262,-0.57914 -0.700979,0.004 -1.40226,-0.008 -2.102938,0.0126 -0.05474,0.002 -0.102065,0.0403 -0.154834,0.0549 -0.05661,0.0157 -0.231208,0.0328 -0.172542,0.036 0.59867,0.032 1.198393,0.0596 1.797857,0.0509 0.127436,-0.002 -0.540608,-0.17347 -0.325277,-0.20098 -0.126949,-0.0972 -0.186057,-0.17904 -0.356608,-0.17803 -0.05456,2.6e-4 -0.10233,0.0519 -0.156696,0.0473 -0.140269,-0.0119 -0.118211,-0.26121 -0.159034,-0.34357 -0.104192,-0.64308 0.0024,-1.30343 0.148564,-1.93211 0.209047,-0.68997 0.531413,-1.33777 0.761833,-2.02009 0.331036,-0.69785 0.682853,-1.37815 1.107374,-2.02447 0.415912,-0.7178 0.759714,-1.46202 1.03047,-2.24705 z" />
    <path
       style="fill:#666666;stroke:#666666;stroke-width:0.932716"
       d="m 288.42287,581.5484 c 0.26468,-0.76949 1.03577,-3.87729 1.71353,-6.90623 0.67776,-3.02894 2.76367,-8.48533 4.63535,-12.12531 7.24136,-14.08276 14.61852,-27.37225 18.17115,-32.7342 3.91036,-5.90186 10.96129,-13.52438 12.51022,-13.52438 1.28522,0 10.29271,11.47851 14.27257,18.18796 9.21084,15.5281 18.43724,38.47622 18.43724,45.85753 0,0.29094 -1.59428,-0.88396 -3.54283,-2.61088 -1.94856,-1.72692 -6.23945,-5.20584 -9.53531,-7.73093 l -5.99247,-4.59106 -15.22621,-0.35939 -15.22621,-0.3594 -5.78493,4.88796 c -3.18172,2.68838 -7.83882,6.80484 -10.34913,9.14768 -2.51031,2.34285 -4.34764,3.63014 -4.08297,2.86065 z"
       id="path11"
       transform="scale(0.26458333)" />
    <path
       style="fill:#a05a2c;stroke:#a05a2c;stroke-width:0.932716"
       d="m 318.05614,643.20744 v -72.85163 h 3.67582 c 2.0217,0 3.97274,0.48044 4.33566,1.06764 1.57678,2.55129 2.48629,29.48795 2.85344,84.50905 l 0.39366,58.99428 h -4.15393 c -2.28466,0 -4.81784,0.25476 -5.62929,0.56615 -1.33757,0.51328 -1.47536,-6.23753 -1.47536,-72.28549 z"
       id="path12"
       transform="scale(0.26458333)" />
    <path
       style="fill:#cccccc;stroke:#cccccc;stroke-width:0.932716"
       d="m 307.79627,750.51823 c 0,-3.21249 2.58417,-10.31661 7.12658,-19.59158 l 4.53237,-9.25448 8.60742,-0.34136 8.60742,-0.34137 2.26996,5.12993 c 5.44117,12.29665 7.28673,23.80345 4.13065,25.75402 -0.48953,0.30255 -4.64243,0.2531 -9.22865,-0.10989 -7.79489,-0.61694 -8.37553,-0.80713 -8.90502,-2.91678 -0.72092,-2.87234 -2.98623,-4.07303 -7.68456,-4.07303 -2.91269,0 -4.14583,0.53566 -5.65761,2.45758 -1.06322,1.35166 -1.93313,3.03055 -1.93313,3.73086 0,0.70031 -0.41972,1.27329 -0.93272,1.27329 -0.51299,0 -0.93271,-0.77274 -0.93271,-1.71719 z"
       id="path13"
       transform="scale(0.26458333)" />
    <path
       style="fill:#ffffff;stroke:#ffffff;stroke-width:0.264583"
       id="path14"
       d="m 76.931257,153.73877 c 0.02982,-0.19979 0.01341,-0.0931 0.04962,-0.32012 0,0 -0.999874,-0.0158 -0.999874,-0.0158 v 0 c -0.0369,0.23329 -0.02053,0.1213 -0.04975,0.33588 z" />
    <path
       style="fill:#ffffff;stroke:#ffffff;stroke-width:0.264583"
       id="path15"
       d="m 77.126512,153.73927 c 0.07126,-0.24167 0.03479,-0.11168 0.107788,-0.39042 0,0 -0.999667,-0.0257 -0.999667,-0.0257 v 0 c -0.07359,0.27821 -0.03735,0.14686 -0.107884,0.39429 z" />
    <path
       style="fill:#ffffff;stroke:#ffffff;stroke-width:0.264583"
       id="path16"
       d="m 77.367507,153.04077 c 0.0056,-0.20844 0.04437,-0.41451 0.0891,-0.61759 0.02305,-0.10467 0.04502,-0.13274 0.01852,-0.22618 -0.07074,-0.11555 -0.0031,-0.31228 0.01606,-0.4348 0.03414,-0.21822 0.01876,-0.13767 0.05879,-0.31591 0.16306,-0.37786 -1.228461,0.19407 -0.974575,-0.009 0.271481,-0.21674 0.699987,-0.005 1.039067,-0.0803 0.0541,-0.012 0.02663,-0.10766 0.04277,-0.16068 0.04074,-0.13388 0.07062,-0.20401 0.120531,-0.33242 0.177101,-0.36512 0.307163,-0.75371 0.448225,-1.13449 0.03317,-0.0955 0.06634,-0.19105 0.09951,-0.28657 0,0 -0.99944,-0.0335 -0.99944,-0.0335 v 0 c -0.03314,0.0949 -0.06629,0.18969 -0.09943,0.28453 -0.141647,0.38047 -0.273248,0.76696 -0.448186,1.13341 -0.01852,0.0488 -0.178498,0.48244 -0.163031,0.48643 2.391905,0.61605 0.077,-0.4615 -0.0652,0.11056 -0.04072,0.18891 -0.158565,0.67164 -0.0729,0.83818 0.04491,-0.0591 -0.01246,0.10335 -0.02048,0.14071 -0.03377,0.15738 -0.06121,0.30626 -0.07885,0.4667 -0.0062,0.0566 -0.007,0.11369 -0.01045,0.17055 z" />
    <path
       style="fill:#ffffff;stroke:#ffffff;stroke-width:0.264583"
       id="path17"
       d="m 77.311246,151.3137 c 0.177335,-0.54936 0.364414,-1.09405 0.52215,-1.64988 0.07591,-0.22489 0.118041,-0.371 0.213,-0.58145 0.05518,-0.1223 0.128628,-0.19649 0.140674,-0.32985 0.104653,-0.29024 0.287478,-0.54597 0.471906,-0.79104 0.138453,-0.21646 0.272327,-0.43486 0.400486,-0.65753 0.07297,-0.12681 0.133525,-0.26505 0.251119,-0.35614 0.01492,-0.009 0.03378,-0.0142 0.04473,-0.0279 0.05744,-0.0721 0.103491,-0.22071 0.133178,-0.29147 0.101462,-0.24186 0.207359,-0.47997 0.335621,-0.70872 0.02655,-0.0599 0.105852,-0.0755 0.13694,-0.13121 0.07596,-0.1361 0.13706,-0.28641 0.199216,-0.42899 0.03506,-0.0682 0.118935,-0.24541 0.176644,-0.31005 0.01561,-0.0175 0.04246,-0.02 0.06239,-0.0324 0.08443,-0.0521 0.122973,-0.10299 0.179493,-0.18646 0.02959,-0.05 0.05784,-0.1009 0.08878,-0.15013 0.04254,-0.0677 0.116099,-0.2044 0.203036,-0.2464 0.0164,-0.008 0.07181,0.011 0.05358,0.011 -1.005044,0.002 -0.868802,-0.31635 -1.001726,0.0315 -0.0016,0.0116 -0.01683,0.0351 -0.0051,0.0348 0.36148,-0.009 0.730557,0.0195 1.083038,-0.0611 0.08944,-0.0204 0.108799,-0.14781 0.160761,-0.22343 0.18978,-0.27621 0.376385,-0.55485 0.565422,-0.83164 0.02748,-0.0346 0.06159,-0.0648 0.08243,-0.10371 0.03987,-0.0745 0.06528,-0.24596 0.08092,-0.31643 0.03906,-0.17608 0.0934,-0.34813 0.12038,-0.52648 -0.01111,-0.1082 0.08465,-0.23679 0.128101,-0.32445 0.0812,-0.16378 0.03449,-0.0964 0.11693,-0.19914 0.262361,-0.34412 0.470916,-0.72964 0.750731,-1.05974 0.384257,0.0865 -0.329335,-0.077 -0.994367,0.0177 -0.05298,0.008 -0.04136,0.0988 -0.06578,0.14644 -0.02214,0.0432 -0.04535,0.0862 -0.07373,0.12559 -0.01246,0.0173 -0.06894,0.0425 -0.04761,0.0428 0.33701,0.004 0.673783,-0.02 1.010674,-0.0301 0.07604,-0.1957 0.166383,-0.38632 0.268346,-0.56986 0.02731,-0.0492 0.05797,-0.0964 0.08736,-0.14434 0.01169,-0.0191 0.05812,-0.0547 0.03585,-0.0567 -0.336701,-0.0296 -0.675717,-0.0196 -1.013574,-0.0293 0.33409,-0.007 0.672055,0.03 1.002266,-0.0213 0.05012,-0.008 0.03435,-0.0955 0.05315,-0.14257 0.08635,-0.21629 0.165767,-0.44137 0.269264,-0.65002 -0.33741,-0.005 -0.674971,-0.0271 -1.01223,-0.0157 -0.01855,5.2e-4 -0.01442,0.0342 -0.02305,0.0507 -0.0074,0.0141 -0.04094,0.0407 -0.025,0.0408 0.356468,0.001 0.716748,0.0187 1.068755,-0.0375 0.05906,-0.009 0.06336,-0.10169 0.09975,-0.14915 0.02405,-0.0314 0.05401,-0.0577 0.08101,-0.0866 0.416328,0.009 -0.443372,-0.01 -0.910883,0.0175 -0.01405,7.9e-4 0.0073,0.0273 0.01315,0.0401 0.0084,0.0186 0.009,0.0537 0.0294,0.0537 0.349346,10e-4 0.700577,-0.004 1.046824,-0.0505 0.03986,-0.005 0.04582,-0.0661 0.06872,-0.0991 0.107196,-0.13906 0.169868,-0.30382 0.256209,-0.45528 0.0163,-0.0286 0.08564,-0.0812 0.05281,-0.0834 -0.328927,-0.0217 -1.19276,-0.23723 -0.988687,0.0216 0.21441,0.27199 0.692139,0.0275 1.038209,0.0412 0.04264,-0.0657 0.06706,-0.12274 0.134652,-0.16477 0.01762,-0.011 0.08036,-0.0182 0.0596,-0.018 -0.314042,0.002 -1.25507,0.002 -0.941837,0.0243 1.013232,0.0733 0.838427,0.24739 1.11761,-0.11832 0.114628,-0.14173 0.20986,-0.29609 0.304985,-0.45089 0.01146,-0.0186 0.05829,-0.0538 0.03645,-0.0545 -1.034182,-0.0345 -0.829833,-0.2443 -1.111361,0.10637 -0.273214,0.27753 -0.165505,0.14787 0.975366,0.0543 0.03826,-0.003 0.037,-0.0673 0.05674,-0.10022 0.02225,-0.0371 0.04404,-0.0746 0.0692,-0.10983 0.0065,-0.009 0.03611,-0.022 0.025,-0.022 -0.326091,2.7e-4 -0.652005,0.0152 -0.978006,0.0229 1.175991,0.1185 0.757325,0.15822 1.179256,-0.11742 0.106516,-0.0696 -0.01275,0.0436 0.116359,-0.0982 0.205165,-0.25899 0.417449,-0.5087 0.6614,-0.73322 0.122663,-0.13547 0.253132,-0.26216 0.391236,-0.38154 0,0 -0.996436,-0.0843 -0.996436,-0.0843 v 0 c -0.135221,0.12338 -0.264589,0.2523 -0.39147,0.38431 -0.23908,0.2292 -0.445923,0.48403 -0.661469,0.73408 -0.407654,0.33015 -0.596971,0.22237 0.698831,0.22862 -0.339066,-0.009 -0.678045,-0.0297 -1.017199,-0.0258 -0.0057,7e-5 -0.09383,0.15003 -0.09547,0.15295 -0.02027,0.0361 -0.0975,0.10089 -0.05718,0.11011 0.913776,0.20881 0.776033,0.34634 1.02176,0.05 0.25023,-0.35155 0.151328,-0.15171 -0.884886,-0.22866 -0.0227,-0.002 -0.02455,0.0384 -0.03663,0.0577 -0.09382,0.15016 -0.08905,0.15133 -0.204957,0.30537 -0.0314,0.0417 -0.06564,0.0812 -0.09846,0.12186 -0.02389,0.0162 -0.100515,0.0467 -0.0717,0.0486 0.31311,0.0208 1.251667,-0.0375 0.941358,0.009 -1.542465,0.23203 -0.70253,-0.23555 -1.233919,0.16477 2.323658,0.15196 0.174766,0.006 -0.05683,0.0147 -0.03464,0.001 -0.03628,0.0591 -0.05312,0.0894 -0.08216,0.14788 -0.149027,0.30539 -0.255257,0.43869 -0.275518,0.31756 -0.08172,0.0536 0.877023,0.11256 0.01079,7.9e-4 -0.01633,0.0283 -0.0245,0.0212 -0.0141,-0.0122 0.0048,-0.0515 -0.01363,-0.0542 -0.98674,-0.14296 -0.750451,-0.29495 -1.085657,-0.0478 -0.01453,0.0176 -0.200713,0.23699 -0.181311,0.24395 0.295019,0.10589 0.616284,0.11862 0.927899,0.15244 0.01828,0.002 0.0173,-0.0325 0.0254,-0.049 0.008,-0.0165 0.0412,-0.0476 0.02302,-0.0499 -0.326871,-0.0415 -0.657225,-0.0482 -0.985837,-0.0722 -0.09793,0.21528 -0.188505,0.43931 -0.269703,0.66135 -0.02037,0.0557 -0.111004,0.15443 -0.05368,0.16966 0.322011,0.0856 0.664183,0.0538 0.996275,0.0808 -0.327811,-0.0267 -0.654614,-0.0731 -0.983435,-0.08 -0.02294,-5.3e-4 -0.02429,0.039 -0.03596,0.0587 -0.141275,0.2389 -0.270106,0.48739 -0.357013,0.75174 0.328837,0.0398 0.655743,0.10181 0.986515,0.11933 0.02695,0.001 0.0348,-0.0415 0.04896,-0.0645 0.0024,-0.004 0.158282,-0.27992 0.140147,-0.28629 -0.849328,-0.29821 -0.739465,-0.38587 -1.002572,-0.1237 -0.270807,0.34006 -0.490625,0.71834 -0.751173,1.06644 -0.09099,0.14109 -0.251974,0.41633 -0.251452,0.58148 1.3e-5,0.004 0.0031,-0.008 0.0046,-0.0115 -0.02954,0.17937 -0.0019,0.0291 -0.06833,0.29971 -0.05147,0.20982 -0.06202,0.4362 -0.21372,0.6026 -0.18883,0.2758 -0.373935,0.55472 -0.565242,0.82873 -0.05164,0.074 -0.241658,0.17877 -0.160404,0.21795 0.872715,0.4208 0.859758,0.44114 0.919435,0.11898 0.07585,-0.4112 0.05201,-0.12574 -0.989349,-0.18691 -0.06817,-0.004 -0.244255,0.2813 -0.263736,0.31167 -0.02975,0.0464 -0.05877,0.0932 -0.08816,0.13977 -0.0579,0.066 -0.114326,0.10343 -0.177506,0.161 -0.115837,0.10555 -0.172291,0.25511 -0.242284,0.39142 -0.09077,0.20265 -0.17806,0.39373 -0.335759,0.55157 -0.126839,0.23542 -0.08723,0.15272 -0.218117,0.4472 -0.06555,0.14747 -0.115808,0.30228 -0.192974,0.44401 -0.02424,0.0445 -0.06346,0.0741 -0.100415,0.10619 -0.262525,0.2948 -0.40423,0.71857 -0.652822,1.03036 -0.192371,0.25782 -0.381839,0.53401 -0.473914,0.84469 -0.01437,0.10759 -0.09769,0.20522 -0.140007,0.30241 -0.098,0.22511 -0.132694,0.34982 -0.213341,0.59179 -0.15771,0.55301 -0.343795,1.09532 -0.521891,1.64172 z" />
    <path
       style="fill:#ffffff;stroke:#ffffff;stroke-width:0.264583"
       id="path18"
       d="m 83.767831,145.80464 c 0.09018,-0.26579 0.205012,-0.5202 0.364143,-0.75132 0.06676,-0.13696 0.10213,-0.28884 0.175999,-0.42259 0.03523,-0.0638 0.06964,-0.0988 0.09349,-0.1703 0.138591,-0.24436 0.292568,-0.4747 0.463981,-0.69763 0.249195,-0.31394 0.526338,-0.60927 0.831996,-0.86911 0.128751,-0.10177 0.245411,-0.21673 0.369863,-0.32352 0,0 -0.996344,-0.0854 -0.996344,-0.0854 v 0 c -0.123005,0.10825 -0.242983,0.21994 -0.369879,0.3237 -0.303001,0.27104 -0.585843,0.56678 -0.833525,0.88941 -0.173151,0.23038 -0.334262,0.46899 -0.465423,0.72601 -0.02647,0.0585 -0.06475,0.10731 -0.09327,0.16474 -0.06569,0.13225 -0.106106,0.27545 -0.175175,0.40623 -0.155192,0.24301 -0.275307,0.5032 -0.365337,0.77763 z" />
    <path
       style="fill:#a05a2c;fill-opacity:1;stroke:#a05a2c;stroke-width:0.264583;stroke-opacity:1"
       id="path19"
       d="m 87.319222,180.57258 c 0.01863,-0.16044 0.02773,-0.32171 0.03353,-0.48304 0.0047,-0.14861 0.005,-0.29729 0.0052,-0.44595 -0.0026,-0.13811 0.0058,-0.27667 -0.0054,-0.41443 -0.01744,-0.12088 -0.02797,-0.2423 -0.03358,-0.36425 -0.0081,-0.13837 0.0036,-0.27734 -0.01569,-0.4147 -0.03436,-0.14932 -0.05469,-0.30076 -0.06676,-0.45333 -0.01209,-0.15796 -0.0051,-0.31652 -0.01553,-0.47448 -0.01503,-0.14773 -0.02688,-0.29566 -0.0331,-0.44402 -0.005,-0.1513 -0.0048,-0.30271 -0.005,-0.45408 -4.2e-5,-0.16917 1.14e-4,-0.33833 1.99e-4,-0.5075 6.9e-5,-0.1446 8.5e-5,-0.2892 9.3e-5,-0.4338 5e-6,-0.15369 2e-6,-0.30737 2e-6,-0.46105 -2e-6,-0.14908 -2e-6,-0.29816 -2e-6,-0.44723 0,-0.13948 0,-0.27896 0,-0.41844 0,-0.13921 0,-0.27842 0,-0.41764 0,-0.14542 0,-0.29084 0,-0.43626 -0.0013,-0.17591 -0.003,-0.35123 0.01241,-0.52653 0.02392,-0.16403 0.01918,-0.32819 0.0086,-0.49288 -0.01135,-0.14613 -0.01638,-0.29261 -0.01929,-0.43911 -0.0021,-0.15456 -0.0019,-0.30914 -0.0019,-0.46371 5.8e-5,-0.18247 1.35e-4,-0.36493 1.77e-4,-0.54739 3.2e-5,-0.15661 3.7e-5,-0.31322 4.2e-5,-0.46982 0.01498,-0.14355 0.02943,-0.28539 0.02328,-0.42978 -0.0213,-0.19659 -0.04325,-0.393 -0.05602,-0.59037 1.3e-4,-0.0796 -0.01331,-0.16016 -0.0091,-0.23983 0.02222,-0.41943 0.32352,-0.10248 -0.990576,-0.064 -0.0073,0.0113 -0.01455,0.0227 -0.02183,0.0341 0,0 0.999223,0.0394 0.999223,0.0394 v 0 c 0.0075,-0.0242 0.01508,-0.0485 0.02262,-0.0727 -1.034892,-0.0272 -1.031505,-0.31723 -1.0003,0.30944 0.01251,0.1967 0.03344,0.39256 0.05601,0.58833 0.0065,0.14292 -0.01095,0.28314 -0.02331,0.42541 -2e-6,0.1566 -8e-6,0.3132 -4.2e-5,0.46979 -4.2e-5,0.18248 -1.19e-4,0.36495 -1.77e-4,0.54742 8e-6,0.15523 -2.65e-4,0.31046 0.0019,0.46568 0.0029,0.14799 0.0078,0.29597 0.01931,0.44359 0.0104,0.15972 0.01487,0.31869 -0.0086,0.47777 -0.01524,0.1782 -0.01392,0.35642 -0.01243,0.53519 0,0.14542 0,0.29084 0,0.43626 0,0.13922 0,0.27843 0,0.41764 0,0.13948 0,0.27896 2e-6,0.41844 0,0.14907 0,0.29815 0,0.44723 0,0.15368 3e-6,0.30736 -2e-6,0.46104 -8e-6,0.14458 -2.4e-5,0.28917 -9e-5,0.43376 -8.8e-5,0.16922 -2.44e-4,0.33845 -2.02e-4,0.50767 1.88e-4,0.15271 1.6e-5,0.30546 0.005,0.45811 0.0061,0.14926 0.01752,0.29815 0.03311,0.44673 0.0113,0.15819 0.003,0.31716 0.01553,0.4754 0.01193,0.15503 0.03037,0.30953 0.06685,0.46096 0.0231,0.13295 0.0049,0.26947 0.01558,0.40383 0.0055,0.12332 0.01505,0.24629 0.0336,0.36842 0.01262,0.13464 0.0016,0.2705 0.0054,0.40556 -2.25e-4,0.14751 -5.29e-4,0.29504 -0.0052,0.44249 -0.0058,0.1584 -0.01479,0.31674 -0.03347,0.47422 z" />
    <path
       style="fill:#a05a2c;fill-opacity:1;stroke:#a05a2c;stroke-width:0.264583;stroke-opacity:1"
       id="path20"
       d="m 87.181861,169.266 c 0,-0.10364 0,-0.20729 0,-0.31093 0,-0.11515 0,-0.2303 0,-0.34545 0,-0.1125 0,-0.22499 0,-0.33749 0,-0.11663 0,-0.23325 0,-0.34987 0.0038,-0.11111 -0.0011,-0.22121 -0.014,-0.33149 -0.01249,-0.10707 -0.01431,-0.21502 -0.01582,-0.32269 -0.0064,-0.15175 0.0064,-0.30293 0.01736,-0.45411 0.02927,-0.10077 0.04723,-0.2038 0.06616,-0.3068 0.01453,-0.12327 0.03739,-0.24397 0.06364,-0.3652 0.02,-0.0744 0.01892,-0.15219 0.03028,-0.22771 0.0013,-0.009 0.02066,-0.0852 0.02244,-0.0923 0.0264,-0.11385 0.03629,-0.23034 0.04237,-0.34675 0.0055,-0.105 0.0055,-0.20961 -0.0048,-0.31423 -0.0048,-0.12277 -0.04031,-0.23973 -0.07539,-0.35649 -0.03569,-0.12419 -0.06971,-0.24835 -0.08835,-0.37635 -0.01371,-0.10769 -0.01328,-0.21647 -0.01378,-0.32484 -1.51e-4,-0.14633 2.62e-4,-0.29267 5.29e-4,-0.43901 1.96e-4,-0.11968 2.27e-4,-0.23937 2.49e-4,-0.35905 -0.0024,-0.13762 0.0067,-0.27562 -0.0074,-0.41267 -0.02066,-0.11766 -0.03797,-0.23558 -0.04736,-0.35468 -0.0067,-0.1008 -0.007,-0.20186 -0.0073,-0.30284 -6.9e-5,-0.0981 1.59e-4,-0.19623 2.65e-4,-0.29435 1.11e-4,-0.10791 1.19e-4,-0.21582 1.32e-4,-0.32372 8e-6,-0.10601 5e-6,-0.21202 3e-6,-0.31802 -0.0048,-0.11938 0.0047,-0.23793 0.01394,-0.35679 0.0096,-0.12707 0.01257,-0.25453 0.0149,-0.3819 0,0 -0.999998,-0.002 -0.999998,-0.002 v 0 c -0.0024,0.1254 -0.0052,0.25089 -0.01487,0.37597 -0.0095,0.12143 -0.01852,0.24263 -0.01397,0.36456 0,0.106 2e-6,0.21201 -5e-6,0.31801 -1.1e-5,0.10787 -2.2e-5,0.21575 -1.33e-4,0.32362 -1.16e-4,0.0983 -2.64e-4,0.19651 -2.64e-4,0.29477 2.64e-4,0.10345 7.93e-4,0.20698 0.0074,0.31026 0.0092,0.12019 0.02479,0.23954 0.04739,0.35799 0.01603,0.13307 0.0035,0.26783 0.0074,0.40162 -2.2e-5,0.11963 -5.3e-5,0.23926 -2.49e-4,0.35889 -2.46e-4,0.14656 -5.29e-4,0.29312 -5.29e-4,0.43967 5.29e-4,0.11286 2.64e-4,0.22609 0.01389,0.33833 0.0181,0.13315 0.05155,0.26236 0.08867,0.39138 0.03291,0.11096 0.07167,0.22063 0.07502,0.33759 0.01037,0.0995 0.01021,0.19891 0.0048,0.29882 -0.006,0.11028 -0.01574,0.22062 -0.0421,0.3282 -0.02516,0.10659 -0.03082,0.21523 -0.05277,0.32248 -0.02649,0.12222 -0.04726,0.24458 -0.0637,0.36853 -0.01921,0.10659 -0.04311,0.21181 -0.0663,0.31754 -0.01122,0.15404 -0.02371,0.30814 -0.01738,0.46276 0.0016,0.11113 0.0035,0.22252 0.0159,0.33307 0.01273,0.1064 0.01807,0.21245 0.01394,0.31972 0,0.11662 0,0.23325 0,0.34987 0,0.1125 0,0.225 0,0.33749 0,0.11515 0,0.2303 0,0.34545 0,0.10365 0,0.20729 0,0.31094 z" />
    <path
       style="fill:#a05a2c;fill-opacity:1;stroke:#a05a2c;stroke-width:0.264583;stroke-opacity:1"
       id="path21"
       d="m 86.948975,160.72343 c 0.05704,-0.13459 0.100205,-0.27415 0.132643,-0.41661 0.03274,-0.1722 0.03533,-0.34826 0.03855,-0.52298 0.0063,-0.12829 -0.0019,-0.25564 -0.01339,-0.38325 -0.0068,-0.12742 -0.01648,-0.25426 -0.0304,-0.3811 -0.01183,-0.1046 -0.01521,-0.20984 -0.01709,-0.31501 -0.0013,-0.11003 -0.0011,-0.22007 -0.0011,-0.3301 -0.0083,-0.13477 -0.04211,-0.26413 -0.08218,-0.39229 -0.0245,-0.0738 -0.04062,-0.14979 -0.05567,-0.22596 -0.0069,-0.0351 -0.01098,-0.0433 -0.0036,-0.0261 -0.327076,0.019 -0.654148,0.0379 -0.981223,0.0569 0.0077,0.002 0.01778,8e-5 0.02315,0.006 0.01429,0.0157 0.02217,0.0362 0.0323,0.0549 0.04086,0.0754 0.07349,0.15463 0.106339,0.23365 0.07846,0.18486 0.106524,0.3845 0.15303,0.57852 0.03276,0.13135 0.0598,0.26348 0.0749,0.39804 0.02933,0.12061 0.05073,0.24174 0.06204,0.36536 0.01461,0.12813 2.65e-4,0.25648 -0.0076,0.38451 -0.0081,0.15466 -0.01082,0.30932 -0.0209,0.46389 -0.0075,0.11036 -0.01079,0.22093 -0.01434,0.33146 0,0 0.999995,0.003 0.999995,0.003 v 0 c 0.0035,-0.10945 0.0068,-0.21893 0.01431,-0.3282 0.01,-0.15466 0.01273,-0.30943 0.0209,-0.46418 0.0083,-0.13305 0.02231,-0.26646 0.0076,-0.39963 -0.0109,-0.12415 -0.02788,-0.24716 -0.06206,-0.36733 -0.01484,-0.13884 -0.04111,-0.27534 -0.07512,-0.41075 -0.048,-0.19869 -0.07626,-0.40312 -0.153495,-0.59356 -0.04216,-0.10573 -0.09251,-0.2055 -0.139626,-0.30873 -0.01082,-0.0237 -0.0033,-0.0719 -0.02931,-0.0725 -0.337158,-0.008 -0.673772,0.0316 -1.010658,0.0473 -0.0085,0.0982 0.03895,0.20879 0.05956,0.30386 0.038,0.1184 0.07269,0.2367 0.08171,0.36156 -6.6e-5,0.11064 -2.64e-4,0.22129 0.0011,0.33193 0.0019,0.10822 0.0053,0.21651 0.01714,0.32418 0.01386,0.12624 0.02421,0.25239 0.03038,0.37925 0.01127,0.124 0.02008,0.24761 0.01336,0.37231 -0.0031,0.1677 -0.005,0.33693 -0.03829,0.50193 -0.0311,0.13016 -0.06801,0.26229 -0.131178,0.38075 z" />
    <path
       style="fill:#502d16;fill-opacity:1;stroke:#502d16;stroke-width:0.264583;stroke-opacity:1"
       id="path22"
       d="m 87.40129,189.34023 c 0,-0.17335 0,-0.34669 0,-0.52004 0,-0.19194 0,-0.38388 0,-0.57582 0,-0.14489 0,-0.28978 0,-0.43466 0,-0.15827 0,-0.31654 0,-0.47481 0,-0.14629 0,-0.29257 0,-0.43886 0.01228,-0.20028 -0.0086,-0.38834 -0.03957,-0.58524 -0.02598,-0.16912 -0.07398,-0.3316 -0.08828,-0.50263 -0.0084,-0.16695 -0.0057,-0.33424 -0.0049,-0.50134 0.0011,-0.19349 0.0013,-0.38699 0.0016,-0.58048 2.09e-4,-0.26153 1.8e-4,-0.52305 1.83e-4,-0.78458 0.003,-0.22384 -0.01876,-0.44702 -0.03164,-0.6703 -0.01749,-0.20686 -0.0024,-0.4134 0.0078,-0.6201 0.01378,-0.26834 0.01886,-0.53701 0.02217,-0.80566 0.0094,-0.19588 -0.0084,-0.39079 -0.02439,-0.58572 -0.01175,-0.14339 -0.01513,-0.28725 -0.01699,-0.43104 -0.0074,-0.15588 0.01236,-0.31075 0.0254,-0.46576 0.01275,-0.1636 0.01513,-0.32778 0.01699,-0.4918 0.0013,-0.164 0.0011,-0.32802 7.94e-4,-0.49203 -1.22e-4,-0.1944 -1.78e-4,-0.3888 -2.12e-4,-0.58321 2.65e-4,-0.16384 0.0016,-0.32754 -0.0052,-0.49126 0,0 -0.99999,0.004 -0.99999,0.004 v 0 c 0.0069,0.16233 0.0055,0.32465 0.0052,0.48711 3.4e-5,0.19442 9e-5,0.38883 2.12e-4,0.58325 8.9e-5,0.16361 5.29e-4,0.32722 -7.94e-4,0.49083 -0.0019,0.16159 -0.0042,0.32335 -0.01696,0.48451 -0.01341,0.15823 -0.0328,0.31637 -0.02543,0.47547 0.0019,0.1461 0.0052,0.29227 0.01701,0.43796 0.01577,0.19181 0.034,0.38353 0.02437,0.57628 -0.0033,0.26743 -0.0084,0.53487 -0.02217,0.80199 -0.01037,0.21024 -0.02527,0.42035 -0.0078,0.63076 0.01267,0.22138 0.03448,0.44263 0.03162,0.66455 -2e-6,0.26149 2.7e-5,0.52297 -1.82e-4,0.78445 -2.44e-4,0.19338 -5.29e-4,0.38676 -0.0016,0.58013 -7.93e-4,0.16997 -0.0035,0.34011 0.0049,0.50993 0.01415,0.17909 0.05837,0.33474 0.08837,0.51014 0.01378,0.0875 0.03447,0.17731 0.03945,0.26587 0.0057,0.10093 -0.0044,0.20275 0,0.30376 0,0.14628 0,0.29256 0,0.43885 0,0.15827 0,0.31654 0,0.47481 0,0.14489 0,0.28977 0,0.43466 0,0.19194 0,0.38388 0,0.57582 0,0.17335 0,0.3467 0,0.52005 z" />
    <path
       style="fill:#502d16;fill-opacity:1;stroke:#502d16;stroke-width:0.264583;stroke-opacity:1"
       id="path23"
       d="m 86.008667,151.15925 c 0.0145,0.19138 0.02716,0.38285 0.03572,0.57459 -7.94e-4,0.15136 0.04881,0.29587 0.07137,0.44443 0.02119,0.17438 0.02196,0.35039 0.02376,0.5258 0.0011,0.18191 5.29e-4,0.36384 2.64e-4,0.54576 0.02453,0.21606 0.06232,0.43035 0.09089,0.64592 0.01775,0.18828 0.07219,0.37004 0.101823,0.55647 0.0232,0.16162 0.02379,0.32528 0.02543,0.48821 7.94e-4,0.15436 2.65e-4,0.30872 2.1e-5,0.46308 -2.64e-4,0.14858 -2.64e-4,0.29716 -5.29e-4,0.44574 -0.01101,0.19426 0.0051,0.38373 0.03957,0.57449 0.03805,0.19963 0.04058,0.40327 0.04478,0.60573 0.0035,0.20717 0.0036,0.41437 0.0034,0.62155 0.0058,0.20162 -0.006,0.40237 -0.02021,0.60334 -0.01405,0.19485 -0.01945,0.39012 -0.02252,0.5854 -0.004,0.15717 0.01831,0.31343 0.0299,0.46993 0.01561,0.18361 0.05442,0.36525 0.0879,0.54646 0.03504,0.18446 0.04581,0.37213 0.05247,0.55939 -0.0073,0.18527 0.03193,0.36643 0.05608,0.54909 0.02458,0.20961 0.02976,0.42076 0.0329,0.63157 0.0021,0.20337 0.0019,0.40676 0.0016,0.61014 -2.22e-4,0.16987 -2.65e-4,0.33975 -5.29e-4,0.50962 -5.3e-5,0.18715 -5e-5,0.37431 -5e-5,0.56146 -0.01249,0.17115 0.01222,0.33645 0.04483,0.50372 0,0 0.99981,-0.0195 0.99981,-0.0195 v 0 c -0.03304,-0.16571 -0.05721,-0.31404 -0.04464,-0.48426 2e-6,-0.18714 0,-0.37428 5e-5,-0.56142 6.6e-5,-0.16985 1.96e-4,-0.3397 5.29e-4,-0.50955 2.17e-4,-0.20391 5.29e-4,-0.40783 -0.0016,-0.61174 -0.0032,-0.21465 -0.0085,-0.42961 -0.03298,-0.6431 -0.02331,-0.17965 -0.06339,-0.35745 -0.056,-0.5396 -0.0067,-0.19214 -0.01752,-0.38472 -0.05263,-0.57411 -0.03281,-0.17768 -0.07119,-0.35577 -0.08776,-0.53554 -0.01117,-0.15356 -0.03342,-0.30684 -0.02988,-0.46102 0.0031,-0.19345 0.0085,-0.38691 0.02249,-0.57992 0.01434,-0.20329 0.0259,-0.4064 0.02024,-0.61033 1.35e-4,-0.2079 4e-5,-0.41581 -0.0034,-0.62369 -0.0043,-0.20773 -0.007,-0.41664 -0.04494,-0.62162 -0.01487,-0.0814 -0.03492,-0.1645 -0.03943,-0.24735 -0.0056,-0.10275 0.0043,-0.20634 2.6e-5,-0.30915 4e-5,-0.14852 1.03e-4,-0.29705 2.65e-4,-0.44557 2.64e-4,-0.15476 7.94e-4,-0.30953 -2.4e-5,-0.46428 -0.0016,-0.16774 -0.0026,-0.33615 -0.02556,-0.50264 -0.02832,-0.18599 -0.0828,-0.3668 -0.101785,-0.55413 -0.02763,-0.21131 -0.06341,-0.4214 -0.09081,-0.63271 2.22e-4,-0.18231 7.94e-4,-0.36461 -2.64e-4,-0.54691 -0.0019,-0.17995 -0.0029,-0.36045 -0.02387,-0.53943 -0.02093,-0.14565 -0.06947,-0.28656 -0.07127,-0.43422 -0.0084,-0.19026 -0.02032,-0.38031 -0.03571,-0.57014 z" />
    <path
       style="fill:#4d4d4d;fill-opacity:1;stroke:#4d4d4d;stroke-width:0.264583;stroke-opacity:1"
       id="path24"
       d="m 85.64469,191.18141 c 0.0026,-0.008 0.0051,-0.0157 0.0077,-0.0236 0,0 -0.999453,-0.0331 -0.999453,-0.0331 v 0 c -0.0026,0.007 -0.0051,0.0139 -0.0076,0.0209 z" />
    <path
       style="fill:#4d4d4d;fill-opacity:1;stroke:#4d4d4d;stroke-width:0.264583;stroke-opacity:1"
       id="path25"
       d="m 84.80553,190.88106 c -0.0029,0.0175 -0.0064,0.035 -0.0088,0.0526 -0.01754,0.13081 -0.03007,0.26139 -0.05526,0.39123 -0.02291,0.11809 -0.07519,0.33497 -0.101285,0.4461 -0.07882,0.31133 -0.147685,0.62501 -0.220649,0.93772 -0.02869,0.12296 -0.05922,0.24548 -0.08794,0.36843 -0.0082,0.0349 -0.183153,0.79968 -0.191196,0.83482 -0.028,0.13256 -0.05599,0.26511 -0.08399,0.39767 0,0 0.999784,0.0208 0.999784,0.0208 v 0 c 0.02798,-0.132 0.05597,-0.264 0.08395,-0.39601 0.163486,-0.71422 0.32792,-1.42824 0.499777,-2.14049 0.0307,-0.13161 0.07564,-0.31726 0.101417,-0.45288 0.02466,-0.12968 0.03705,-0.26021 0.05525,-0.3907 0.0024,-0.0172 0.0058,-0.0343 0.0088,-0.0514 z" />
    <path
       style="fill:#4d4d4d;fill-opacity:1;stroke:#4d4d4d;stroke-width:0.264583;stroke-opacity:1"
       id="path26"
       d="m 86.073892,191.10532 c -7.94e-4,0.48147 0.0028,0.96296 -0.0037,1.44441 -0.0024,0.18389 -0.0071,0.36776 -0.01064,0.55164 -0.01185,0.5207 -0.02413,1.0414 -0.03591,1.5621 0,0 0.999996,0.002 0.999996,0.002 v 0 c 0.0118,-0.52081 0.02408,-1.04162 0.03591,-1.56244 0.0035,-0.18428 0.0081,-0.36855 0.01064,-0.55285 0.0065,-0.48169 0.0028,-0.96342 0.0037,-1.44513 z" />
    <path
       style="fill:#4d4d4d;fill-opacity:1;stroke:#4d4d4d;stroke-width:0.264583;stroke-opacity:1"
       id="path27"
       d="m 87.780489,190.90543 c -0.04374,0.41659 0.01461,0.83484 0.07138,1.24704 0.01746,0.10954 0.03445,0.21915 0.0524,0.32861 0.04451,0.27135 0.06048,0.36924 0.116435,0.63717 0.05099,0.24415 0.111186,0.48628 0.169579,0.72872 0.05812,0.2324 0.113453,0.46548 0.171945,0.69777 0.02657,0.0941 0.04612,0.18987 0.06844,0.28496 0.01648,0.0687 0.04393,0.13401 0.07313,0.19815 0,0 0.999262,-0.0384 0.999262,-0.0384 v 0 c -0.02257,-0.0621 -0.05812,-0.11953 -0.0727,-0.18471 -0.01037,-0.0373 -0.01635,-0.0752 -0.02511,-0.1129 -0.01236,-0.0532 -0.01291,-0.0522 -0.02702,-0.10725 -0.0055,-0.0215 -0.01087,-0.0431 -0.0163,-0.0647 -0.059,-0.23178 -0.113385,-0.46471 -0.171919,-0.69662 -0.05813,-0.24112 -0.118388,-0.48187 -0.169489,-0.72463 -0.0571,-0.27125 -0.07103,-0.35822 -0.116372,-0.63348 -0.01791,-0.10876 -0.03491,-0.21767 -0.05237,-0.32651 -0.05583,-0.40124 -0.11516,-0.80913 -0.07146,-1.21475 z" />
    <path
       style="fill:#4d4d4d;fill-opacity:1;stroke:#4d4d4d;stroke-width:0.264583;stroke-opacity:1"
       id="path28"
       d="m 86.850679,191.19027 c 0.05453,0.36936 0.124312,0.73647 0.198062,1.10244 0.05272,0.23174 0.02684,0.12175 0.0772,0.33007 0,0 0.999715,-0.0238 0.999715,-0.0238 v 0 c -0.05024,-0.20616 -0.0244,-0.0975 -0.07712,-0.32618 -0.07386,-0.36451 -0.143598,-0.73024 -0.197983,-1.09817 z" />
    <path
       style="fill:#4d4d4d;fill-opacity:1;stroke:#4d4d4d;stroke-width:0.264583;stroke-opacity:1"
       id="path29"
       d="m 85.523614,190.83424 c -0.0076,0.0196 -0.01691,0.0387 -0.02289,0.0589 -0.028,0.0944 -0.05245,0.22269 -0.06896,0.31492 -0.05044,0.2818 -0.08203,0.56509 -0.112679,0.84956 0,0 0.999943,0.0108 0.999943,0.0108 v 0 c 0.03053,-0.28148 0.06169,-0.56191 0.11254,-0.84062 0.01677,-0.0919 0.03766,-0.2032 0.06836,-0.2948 0.0057,-0.017 0.01495,-0.0325 0.02244,-0.0488 z" />
    <path
       style="fill:#333333;fill-opacity:1;stroke:#333333;stroke-width:0.264583;stroke-opacity:1"
       id="path30"
       d="m 84.609621,192.0086 c 0.02373,-0.0695 0.04944,-0.13846 0.07436,-0.20769 0.0032,-0.006 0.0055,-0.0221 0.0095,-0.017 0.0072,0.009 0.01577,0.0342 0.0042,0.0343 -1.59715,0.015 -1.017479,-0.34779 -0.984258,0.011 0.03171,0.34058 -2.52e-4,0.0287 1.001077,-0.006 0.0066,-2.3e-4 1.09e-4,-0.0133 1.22e-4,-0.02 6.1e-5,-0.0288 -7.94e-4,-0.0564 0.0034,-0.0849 0.01056,-0.0715 0.03006,-0.14091 0.05231,-0.20955 0.0296,-0.0892 0.04097,-0.18234 0.05635,-0.27463 0.0097,-0.025 0.0063,-0.0904 0.02077,-0.11451 0.0011,-0.002 0.0037,-0.002 0.0056,-0.003 0.0021,-0.007 0.0044,-0.0131 0.0067,-0.0197 0.0066,-0.0307 0.01603,-0.0606 0.02421,-0.0909 0.0048,-0.0176 0.0081,-0.039 0.01987,-0.0537 0.0024,0.001 0.0054,0.005 0.0068,0.003 0.01323,-0.0182 0.0109,-0.0618 0.03223,-0.0727 0,0 -0.998461,-0.0554 -0.998461,-0.0554 v 0 c -0.0069,0.018 -0.01281,0.0396 -0.02426,0.0554 -0.0019,0.002 -0.0057,0.003 -0.0072,0.005 -0.0038,0.007 -0.0055,0.0146 -0.0082,0.0219 -0.01593,0.0496 -0.02753,0.10041 -0.04428,0.14969 -0.02294,0.0493 -0.02273,0.10603 -0.03362,0.15844 -0.01463,0.0878 -0.02654,0.17621 -0.05603,0.26069 -0.02281,0.0747 -0.04242,0.15052 -0.0527,0.22813 -0.04291,0.42815 0.235643,0.14919 0.995241,0.11337 -7.94e-4,-0.008 -0.0042,-0.0738 -0.0076,-0.0741 -1.436322,-0.10894 -0.875609,-0.35489 -1.021225,0.0204 -0.02574,0.0722 -0.05399,0.14366 -0.07465,0.21758 z" />
    <path
       style="fill:#333333;fill-opacity:1;stroke:#333333;stroke-width:0.264583;stroke-opacity:1"
       id="path31"
       d="m 84.995175,190.71651 c 0.01013,-0.01 1.14e-4,-0.0318 0.01029,-0.042 0.0024,-0.002 0.0072,0.009 0.0039,0.009 -0.331226,0.008 -0.662564,0.009 -0.993849,0.0138 0,0 0.996937,-0.0782 0.996937,-0.0782 v 0 c -1.09103,0.007 -0.917818,-0.31067 -1.016939,0.0695 z" />
    <path
       style="fill:#333333;fill-opacity:1;stroke:#333333;stroke-width:0.264583;stroke-opacity:1"
       id="path32"
       d="m 87.721693,191.28686 c 0,-0.0835 0,-0.16693 0,-0.2504 0,-0.0881 0,-0.17621 0,-0.26432 -0.0033,-0.0547 -0.0094,-0.10911 -0.01265,-0.1638 -0.0043,-0.0378 -5.29e-4,-0.0176 -0.01222,-0.0603 0,0 -0.998979,0.0451 -0.998979,0.0451 v 0 c 0.0145,0.004 0.0079,-7.9e-4 0.01122,0.0209 0.0029,0.0528 0.0081,0.10542 0.01262,0.15811 0,0.0881 0,0.17622 0,0.26433 0,0.0835 0,0.16693 0,0.2504 z" />
    <path
       style="fill:#333333;fill-opacity:1;stroke:#333333;stroke-width:0.264583;stroke-opacity:1"
       id="path33"
       d="m 90.476844,193.1343 c -0.0662,-0.17164 -0.1333,-0.34282 -0.211386,-0.5095 -0.01505,-0.0293 -0.02964,-0.0588 -0.04519,-0.0879 -0.0114,-0.0213 -0.02331,-0.0423 -0.03564,-0.063 -0.0073,-0.0123 -0.01685,-0.0232 -0.02315,-0.036 -0.0061,-0.0125 -3.4e-5,-0.0402 -0.01392,-0.0394 -1.01237,0.0616 -1.06702,-0.22172 -0.984255,0.13329 0.332287,-0.014 0.666067,-0.008 0.996862,-0.0421 0.02061,-0.002 -0.01053,-0.0401 -0.01656,-0.06 -0.0078,-0.0256 -0.01646,-0.051 -0.02487,-0.0764 -0.03474,-0.10472 -0.0713,-0.20882 -0.107185,-0.31315 -0.0302,-0.0859 -0.05364,-0.17422 -0.08643,-0.25925 -0.0065,-0.0169 -0.02141,-0.0605 -0.03704,-0.0728 -0.0013,0.002 -0.0024,0.009 -0.0036,0.007 -0.0054,-0.0102 -0.0069,-0.022 -0.01037,-0.033 -0.01611,-0.0509 -0.03019,-0.10255 -0.04762,-0.15305 -0.03109,-0.09 -0.04137,-0.10802 -0.07918,-0.1918 -0.0352,-0.0825 -0.09136,-0.1538 -0.131004,-0.23386 -0.01275,-0.0258 -0.0241,-0.0522 -0.03617,-0.0783 -0.05749,-0.13692 -0.123336,-0.26995 -0.186103,-0.40445 -0.213984,-0.45544 -0.101089,-0.18354 -1.089411,-0.21099 0.328311,0.006 0.656852,0.004 0.984935,0.0173 0.0078,2.6e-4 0.0043,0.0212 -0.0033,0.0231 -0.0071,0.002 -0.0065,-0.0132 -0.0093,-0.02 -0.0094,-0.0228 -0.01746,-0.0461 -0.02665,-0.069 -0.01812,-0.0593 -0.0367,-0.11862 -0.05822,-0.17689 -0.01445,-0.0269 -0.01939,-0.0564 -0.02789,-0.0858 -0.129357,-0.36719 0.111964,-0.12322 -1.020921,-0.06 -0.01934,0.001 -0.0028,0.0386 -0.0042,0.058 0,0 0.999924,0.0122 0.999924,0.0122 v 0 c -0.01259,0.36219 0.0093,0.0539 -0.989642,0.0239 -0.0069,-2.1e-4 -2.65e-4,-0.0182 0.0064,-0.0198 0.006,-0.001 0.0059,0.0108 0.0089,0.0162 0.0013,0.004 0.01312,0.0373 0.01445,0.0439 0.0036,0.0177 0.0016,0.0361 0.01376,0.0507 0.02625,0.0552 0.04274,0.11555 0.05812,0.17446 0.01217,0.0326 0.02814,0.0645 0.03633,0.0985 0.09016,0.37443 -0.39592,0.039 1.004953,0.0697 -0.3283,-0.009 -0.656748,-0.0143 -0.984903,-0.0277 -0.005,-2e-4 0.0038,-0.0128 0.0089,-0.0123 0.0072,7.9e-4 0.01138,0.009 0.01556,0.015 0.02705,0.0377 0.04235,0.0835 0.06321,0.1244 0.06539,0.1319 -0.01863,-0.0399 0.04446,0.0969 0.006,0.013 0.05709,0.11401 0.05961,0.11938 0.0049,0.0105 0.07768,0.17553 0.0819,0.1851 0.01217,0.0286 0.02352,0.0575 0.03651,0.0858 0.03682,0.08 0.09101,0.14984 0.130744,0.22826 0.03339,0.0693 0.05217,0.10388 0.07867,0.17796 0.01095,0.0306 0.01916,0.0622 0.02861,0.0933 0.0065,0.0213 0.01217,0.0429 0.01916,0.0641 0.0028,0.008 0.0081,0.0161 0.01013,0.0247 0.0034,0.0143 0.0041,0.0292 0.0062,0.0438 0.0026,0.003 0.0053,0.007 0.0079,0.0102 0.0035,-0.002 0.0074,-0.008 0.0105,-0.006 0.01439,0.0114 0.0383,0.0857 0.03872,0.0869 0.0069,0.0198 0.06084,0.18794 0.06396,0.19764 0.03565,0.10392 0.07223,0.20754 0.10714,0.31173 0.0084,0.0251 0.01619,0.0504 0.02484,0.0754 0.005,0.0146 7.93e-4,0.0427 0.01619,0.0433 0.33392,0.0137 0.668398,-0.001 1.002596,-0.002 -0.144899,-0.32025 0.01487,0.0195 -1.005366,0.037 -0.0122,2e-4 -0.0051,-0.0313 0.0061,-0.0361 0.01,-0.004 0.01617,0.0148 0.02244,0.0237 0.01312,0.0187 0.02421,0.0387 0.03541,0.0585 0.01561,0.0276 0.03,0.056 0.04501,0.0839 0.03986,0.0824 0.06193,0.12479 0.09679,0.20991 0.03838,0.0937 0.06754,0.19145 0.113961,0.28179 z" />
    <path
       style="fill:#333333;fill-opacity:1;stroke:#333333;stroke-width:0.264583;stroke-opacity:1"
       id="path34"
       d="m 85.96859,191.15056 c 0.01632,-0.0549 0.02633,-0.11162 0.04214,-0.16667 0.0024,-0.009 0.0024,-0.0315 0.0089,-0.0253 0.0087,0.008 0.0016,0.0241 0.0024,0.0362 -0.33147,-0.0103 -0.662816,-0.026 -0.994408,-0.031 -0.0053,-8e-5 7.94e-4,0.0106 7.94e-4,0.016 1.51e-4,0.004 -1.88e-4,0.0176 7.9e-5,0.0132 0.0011,-0.017 -0.01482,-0.0508 0.0021,-0.0512 1.003599,-0.0183 1.004959,0.36654 0.996222,0.009 0.0033,-0.0468 0.0031,-0.0935 0.0058,-0.14026 0.0061,-0.0325 0.0051,-0.0316 0.01558,-0.0668 0.0037,-0.0125 0.01371,-0.0451 0.02217,-0.0583 0.0021,-0.003 0.0065,-0.01 0.0088,-0.007 0.0051,0.007 0.0032,0.0165 0.0049,0.0247 0.0013,0.004 -5.29e-4,0.0115 0.0037,0.0123 0.0038,8e-4 0.0044,-0.007 0.005,-0.0105 0.0063,-0.0396 0.0081,-0.0808 0.0094,-0.12094 0.0047,-0.0159 0.0011,-0.0786 0.01307,-0.0865 0.0028,-0.002 0.0041,0.005 0.0061,0.008 0,0 -0.998159,-0.0606 -0.998159,-0.0606 v 0 c -0.01228,0.0446 -0.01871,0.0897 -0.02106,0.13592 -1.8e-4,0.005 -2.64e-4,0.0104 -5.29e-4,0.0156 -2.54e-4,0.005 -5.29e-4,0.0104 -0.0011,0.0156 -0.0045,0.0466 0.0068,-0.0721 -0.01037,-0.0196 -0.02101,0.0702 -0.05278,0.13779 -0.05749,0.21219 -0.0029,0.0495 -0.0028,0.099 -0.0059,0.14851 0.0084,0.35716 -0.0066,0.0768 0.998535,0.091 0.01722,2.5e-4 0.0024,-0.0344 0.003,-0.0516 0.01587,-0.37463 -0.540216,-0.11319 -1.000702,-0.10589 -0.0145,0.0771 -0.03665,0.15304 -0.05866,0.22827 z" />
  </g>
</svg>
