<?xml version="1.0" encoding="UTF-8" standalone="no"?>
<!-- Created with Inkscape (http://www.inkscape.org/) -->

<svg
   width="210mm"
   height="297mm"
   viewBox="0 0 210 297"
   version="1.1"
   id="svg1"
   inkscape:version="1.4.2 (f4327f4, 2025-05-13)"
   sodipodi:docname="bow1Asset.svg"
   inkscape:export-filename="bow1Asset.png"
   inkscape:export-xdpi="96"
   inkscape:export-ydpi="96"
   xmlns:inkscape="http://www.inkscape.org/namespaces/inkscape"
   xmlns:sodipodi="http://sodipodi.sourceforge.net/DTD/sodipodi-0.dtd"
   xmlns="http://www.w3.org/2000/svg"
   xmlns:svg="http://www.w3.org/2000/svg">
  <sodipodi:namedview
     id="namedview1"
     pagecolor="#ffffff"
     bordercolor="#000000"
     borderopacity="0.25"
     inkscape:showpageshadow="2"
     inkscape:pageopacity="0.0"
     inkscape:pagecheckerboard="0"
     inkscape:deskcolor="#d1d1d1"
     inkscape:document-units="mm"
     inkscape:zoom="1.0721378"
     inkscape:cx="229.44812"
     inkscape:cy="539.57616"
     inkscape:window-width="1920"
     inkscape:window-height="1111"
     inkscape:window-x="-9"
     inkscape:window-y="-9"
     inkscape:window-maximized="1"
     inkscape:current-layer="layer1" />
  <defs
     id="defs1" />
  <g
     inkscape:label="Vrstva 1"
     inkscape:groupmode="layer"
     id="layer1">
    <path
       style="fill:#000000;stroke:#806600;stroke-width:0.264583"
       id="path3"
       d="m 87.707829,105.4504 c -0.928929,0.70685 -1.662409,1.59381 -2.29684,2.56456 -0.138224,0.26323 -0.291399,0.51913 -0.414671,0.78968 -0.366017,0.8033 -0.439783,1.17943 -0.700302,2.0529 -0.346945,1.16325 -0.68617,2.32604 -1.004639,3.49744 -0.623313,2.26225 -1.121799,4.55223 -1.616212,6.84435 -0.403246,1.99509 -0.821169,3.98083 -0.997464,6.01045 -0.145994,2.33109 -0.200326,4.66985 -0.167695,7.00527 0.03775,2.1127 0.400521,4.20087 0.645517,6.29553 0.232773,1.89903 0.963986,3.68215 1.684017,5.43914 1.03118,2.06817 2.021576,4.15208 2.900434,6.29021 0.155059,0.38921 0.31114,0.77802 0.465172,1.16765 0.47262,1.19548 0.451641,1.23883 1.046888,2.41669 0.611362,1.20973 1.322829,2.36336 2.029939,3.51811 1.325885,2.16754 2.751097,4.26307 4.258468,6.30733 1.177925,1.51056 2.551295,2.84994 3.828026,4.27385 0.625991,0.69816 1.235395,1.41101 1.853933,2.11578 0.80538,0.93088 1.68194,1.83984 2.37091,2.85791 6.24372,2.55155 4.14464,2.15518 3.14359,1.07471 -0.26652,-0.28766 -0.49808,-0.60355 -0.75052,-0.90338 -0.46903,-0.51583 -0.88095,-1.0786 -1.36806,-1.57775 -0.60018,-0.57741 -1.18058,-1.17518 -1.78634,-1.74732 -0.56788,-0.50739 -0.988497,-1.14988 -1.449433,-1.75088 -0.563742,-0.62654 -1.106339,-1.27082 -1.640599,-1.9226 -0.541584,-0.65574 -1.100447,-1.2971 -1.638295,-1.95578 -0.398547,-0.55332 -0.866449,-1.04963 -1.256249,-1.60865 -0.600343,-0.73768 -1.074508,-1.56964 -1.508327,-2.41315 -0.510598,-1.00041 -1.102402,-1.95867 -1.585928,-2.97275 -0.405146,-0.85782 -0.979487,-1.61753 -1.446633,-2.441 -0.495747,-0.97997 -1.00194,-1.95708 -1.436344,-2.96619 -0.347376,-0.67547 -0.531378,-1.41151 -0.804201,-2.11574 -0.223909,-0.75466 -0.501427,-1.49046 -0.723958,-2.24578 -0.232315,-0.97874 -0.432541,-1.96267 -0.671348,-2.94074 -0.27722,-0.94737 -0.351886,-1.93382 -0.602068,-2.88609 -0.192965,-0.83132 -0.389707,-1.65917 -0.599868,-2.4867 -0.200163,-0.87946 -0.264255,-1.78018 -0.296177,-2.67903 -0.03183,-0.93236 -0.01905,-1.86523 -0.02728,-2.79787 -0.01214,-1.16498 -0.0034,-2.32991 0.0016,-3.49489 -0.02691,-1.42802 -0.04278,-2.85508 0.141023,-4.27342 0.235564,-1.44664 0.429236,-2.89977 0.626218,-4.35214 0.235125,-1.57901 0.617562,-3.12039 1.077349,-4.64688 0.563801,-1.85467 1.303369,-3.64959 2.053289,-5.4351 0.645527,-1.39372 1.312584,-2.78061 2.044734,-4.13104 0.768024,-1.24428 1.568672,-2.47116 2.414484,-3.66448 0.862079,-1.12516 1.686568,-2.27571 2.554155,-3.39677 0.802304,-1.16691 1.744004,-2.215182 2.745828,-3.211847 0.685945,-0.742312 1.409648,-1.44913 2.071578,-2.213451 0.46284,-0.522078 0.94954,-1.024546 1.48052,-1.479111 0.0401,-0.02656 0.0802,-0.05311 0.12033,-0.07967 0,0 -3.367851,-2.105679 -3.367851,-2.105679 v 0 c -0.03411,0.0354 -0.06823,0.0708 -0.102343,0.106207 -0.523468,0.486777 -1.028094,0.9956 -1.500272,1.531781 -0.633802,0.768382 -1.324446,1.488363 -1.999464,2.219693 -1.005182,1.014621 -1.946823,2.084461 -2.773892,3.250687 -0.876162,1.1216 -1.66638,2.30265 -2.552875,3.41625 -0.860991,1.20124 -1.642065,2.45667 -2.437627,3.70163 -0.763889,1.35072 -1.369891,2.78593 -2.018861,4.19407 -0.749937,1.79907 -1.509982,3.59805 -2.089486,5.46128 -0.457409,1.54308 -0.905018,3.086 -1.147103,4.68131 -0.171273,1.4567 -0.371875,2.91048 -0.608979,4.35791 -0.197868,1.42572 -0.201115,2.86253 -0.201493,4.30011 0.0038,1.16427 0.01072,2.3285 -0.0052,3.49272 -0.01082,0.93409 -0.0087,1.86856 0.0042,2.80258 0.03392,0.92131 0.08498,1.84448 0.272886,2.74978 0.08822,0.43278 0.236622,0.84191 0.330769,1.27144 0.08923,0.40713 0.114461,0.83084 0.247994,1.22941 0.05588,0.17778 0.208372,0.64733 0.241837,0.82119 0.13222,0.68698 0.160665,1.39758 0.392573,2.06626 0.25577,0.97423 0.428093,1.96006 0.650557,2.94154 0.02688,0.10142 0.194234,0.73828 0.231251,0.85773 0.03829,0.12356 0.08519,0.24427 0.127784,0.36641 0.04705,0.10346 0.105806,0.20236 0.14116,0.31038 0.07836,0.23942 0.07721,0.50113 0.19199,0.73098 0.07551,0.21599 0.184771,0.41927 0.258595,0.63584 0.0405,0.11881 0.05132,0.24599 0.08613,0.36659 0.114678,0.39729 0.28943,0.77631 0.478277,1.14274 0.426164,1.02068 0.942657,1.99984 1.421862,2.99629 0.417293,0.84652 1.001372,1.58519 1.442885,2.41728 0.468672,1.03289 1.091181,1.98685 1.611489,2.99435 0.40195,0.84859 0.84704,1.70889 1.422749,2.45013 0.506273,0.655 -0.18343,-0.25275 0.345575,0.50032 0.280837,0.39978 0.674235,0.70821 0.934988,1.12754 0.501218,0.69652 1.105738,1.31159 1.643777,1.97906 0.549272,0.6263 1.019349,1.32229 1.619816,1.9026 0.498581,0.59165 0.896956,1.25558 1.431544,1.81697 0.639172,0.52149 1.202761,1.13947 1.766324,1.741 0.56729,0.41488 0.933362,1.02776 1.400104,1.5448 0.3003,0.2955 0.47091,0.59054 0.73336,0.90831 1.11886,1.35472 1.05997,0.98731 4.1498,2.03897 -0.10436,-0.11495 -0.0267,-0.0254 -0.20387,-0.29121 -0.11198,-0.13548 -0.24476,-0.25263 -0.35921,-0.38603 -0.66914,-0.77987 -1.28419,-1.60821 -2.01843,-2.33163 -0.9789,-1.09071 -1.93266,-2.20378 -2.923557,-3.2837 -0.455387,-0.4963 -1.442955,-1.52494 -1.895258,-2.04154 -0.2926,-0.3342 -0.568333,-0.6828 -0.8525,-1.0242 -1.521317,-2.03593 -2.961979,-4.12026 -4.292897,-6.2869 -0.942882,-1.52235 -1.912617,-3.04279 -2.630543,-4.68896 -0.168857,-0.38718 -0.306004,-0.78743 -0.460425,-1.18059 -0.153495,-0.3908 -0.30888,-0.78085 -0.463322,-1.17127 -0.868141,-2.12754 -1.793389,-4.22922 -2.851486,-6.26989 -0.727911,-1.72479 -1.436804,-3.48679 -1.728677,-5.34574 -0.268756,-2.08418 -0.613719,-4.1672 -0.679783,-6.27027 -0.07244,-2.32199 -0.01283,-4.64874 0.147719,-6.9662 0.201499,-2.01034 0.570013,-3.98804 0.994932,-5.96255 0.471974,-2.29288 0.883398,-4.60152 1.563981,-6.84634 0.32458,-1.16448 0.64068,-2.32907 1.007729,-3.48115 0.21404,-0.67182 0.410265,-1.32414 0.7142,-1.96117 0.122423,-0.2566 0.276212,-0.49701 0.414319,-0.74552 0.640541,-0.91288 1.363295,-1.78067 2.307818,-2.39527 z" />
    <path
       style="fill:#000000;stroke:#806600;stroke-width:0.264583"
       id="path4"
       d="m 83.924044,146.46214 c 0.45398,1.0592 1.061225,2.04231 1.622872,3.04634 0.662024,1.06604 1.326883,2.12964 1.972013,3.20664 0.883402,1.30194 1.806851,2.57129 2.642775,3.9063 0.91186,1.61712 2.009537,3.11674 2.958052,4.71011 0.671952,1.27764 1.469523,2.47076 2.276325,3.6644 0.725548,1.28532 1.714907,2.36232 2.683438,3.46079 0.657159,0.70024 1.369782,1.34615 2.086771,1.98418 0.78971,0.62538 1.39483,1.41809 2.00973,2.20472 0.39075,0.61218 0.94692,1.09138 1.39794,1.65077 0.0438,-0.10103 0.19444,-0.42049 0.17008,-0.51216 -0.0174,-0.0656 -0.24493,-0.11659 -0.18613,-0.0827 1.01128,0.58373 2.02968,1.15505 3.04452,1.73258 0,0 -3.65281,-1.43255 -3.65281,-1.43255 v 0 c 1.23269,0.72524 2.46505,1.45103 3.69807,2.17572 0.0626,0.0368 0.11733,0.12177 0.18876,0.10871 0.26889,-0.0492 0.3164,-0.26734 0.40941,-0.46481 -0.35635,-0.30473 0.30045,0.2662 -0.26803,-0.28363 -0.09,-0.0871 -0.19701,-0.15536 -0.28727,-0.24219 -0.35019,-0.33684 -0.62905,-0.73591 -0.92678,-1.11717 -0.63593,-0.7748 -1.17604,-1.63227 -1.97571,-2.2597 -0.71478,-0.64892 -1.442,-1.28263 -2.13538,-1.95489 -0.96572,-1.10074 -2.02044,-2.1268 -2.734899,-3.42406 -0.77338,-1.2116 -1.624958,-2.37148 -2.291633,-3.65019 -0.936565,-1.61321 -2.072566,-3.09857 -2.981548,-4.73075 -0.812895,-1.31889 -1.650529,-2.61803 -2.570461,-3.86519 -0.634571,-1.08551 -1.312815,-2.14301 -1.985235,-3.20419 -0.414488,-0.72504 -0.21268,-0.35846 -0.605261,-1.09984 -0.343548,-0.61271 -0.761039,-1.19422 -0.964501,-1.87523 z" />
    <path
       style="fill:#000000;stroke:#806600;stroke-width:0.264583"
       id="path5"
       d="m 112.19841,174.54331 c -0.64351,-0.80699 -1.21598,-1.66694 -1.81129,-2.50942 -0.47967,-0.76036 -0.98972,-1.5003 -1.47894,-2.25477 -0.54927,-0.77383 -1.13013,-1.53228 -1.75283,-2.24929 -0.51919,-0.65099 -1.03777,-1.30591 -1.52475,-1.98168 -0.54823,-0.76499 -1.21292,-1.4334 -1.80651,-2.16218 -0.43505,-0.64121 -1.01979,-1.15322 -1.48651,-1.76705 -0.42358,-0.65891 -0.82157,-1.33368 -1.2468,-1.99145 -0.65947,-1.00138 -1.437488,-1.91572 -2.151426,-2.87686 -0.565057,-0.85597 -1.103762,-1.7358 -1.487408,-2.68856 -0.309885,-1.34104 -0.615487,-2.67599 -0.993891,-4.00034 -0.323946,-1.22835 -0.741493,-2.42816 -1.06516,-3.65697 -0.302347,-1.23205 -0.340781,-2.50429 -0.370626,-3.76614 -0.0057,-1.23032 -0.23595,-2.44482 -0.362347,-3.66644 -0.103264,-1.15691 -0.129934,-2.3186 -0.145909,-3.47939 -0.01228,-1.46308 0.113789,-2.92264 0.160213,-4.38499 0.07024,-1.57937 0.024,-3.15967 0.186817,-4.73316 0.221522,-1.76751 0.6854,-3.4982 1.164407,-5.21103 0.454544,-1.89446 1.165119,-3.70251 1.972151,-5.47061 0.916872,-1.88072 1.618277,-3.84891 2.594579,-5.70139 0.66824,-1.14889 1.24106,-2.34592 1.76728,-3.56498 0.50911,-0.91099 1.03049,-1.81355 1.54094,-2.72363 0.53707,-0.83618 1.10042,-1.65584 1.71186,-2.43925 0.76684,-1.05702 1.51366,-2.128915 2.1859,-3.248888 0.72274,-1.250085 1.39678,-2.526374 2.06961,-3.803391 0.45729,-0.841777 0.67531,-1.789205 0.88421,-2.71784 0.19176,-0.897085 0.29477,-1.811893 0.28749,-2.729071 -0.0413,-0.795205 -0.31848,-1.562065 -0.66381,-2.272832 -0.3659,-0.586705 -0.68667,-1.199176 -1.11418,-1.744448 -0.52048,-0.636233 -1.03301,-1.261014 -1.6638,-1.792192 -1.91595,-1.43039 -3.69244,-2.591419 -5.98465,-2.872377 -0.92364,-0.09821 -1.845789,-0.0625 -2.748714,0.152225 -1.003946,0.182139 -1.92581,0.60842 -2.882043,0.939199 -0.878255,0.378696 -1.691606,0.839026 -2.451505,1.418215 -0.278654,0.254971 -0.70685,0.624863 -0.507219,1.062632 0.03516,0.07709 0.298238,0.289936 0.352964,0.336799 0.620821,0.38725 1.166538,0.876618 1.74811,1.318115 0.797029,0.664816 1.674503,1.220962 2.511505,1.832004 0.950124,0.630496 1.263766,1.451279 1.538851,2.514944 0.259574,1.138301 0.09088,2.294662 -0.198538,3.407291 -0.184899,0.565845 -0.398918,1.107109 -0.781923,1.565367 0,0 3.371292,2.011691 3.371292,2.011691 v 0 c 0.39046,-0.520068 0.63018,-1.104244 0.83669,-1.720549 0.30055,-1.164865 0.49627,-2.382729 0.27304,-3.580386 -0.14926,-0.708589 -0.31228,-1.506718 -0.73387,-2.115823 -0.18257,-0.263766 -0.43209,-0.435411 -0.67689,-0.632936 -0.80283,-0.658035 -1.733161,-1.145104 -2.509859,-1.838317 -0.414425,-0.305589 -0.820169,-0.620252 -1.210837,-0.955609 -0.08176,-0.07019 -0.149987,-0.156395 -0.237397,-0.2194 -0.07769,-0.056 -0.169209,-0.08978 -0.253812,-0.134668 -0.06878,-0.0398 -0.139999,-0.07565 -0.206338,-0.119404 -0.05864,-0.03867 -0.100833,-0.106442 -0.167886,-0.127381 -0.05822,-0.01818 -0.124016,0.0368 -0.182065,0.0181 -0.202301,-0.06517 0.344048,-0.540168 0.335854,-0.534369 0.738031,-0.545166 1.542486,-0.969423 2.391418,-1.318149 0.932072,-0.348305 1.852622,-0.730607 2.840952,-0.897821 0.8907,-0.145476 1.78875,-0.165399 2.68422,-0.03387 0.43495,0.07276 0.85389,0.15577 1.26592,0.319595 0.14302,0.05687 0.55226,0.270042 0.42092,0.189791 -0.81026,-0.495102 -4.18042,-2.480702 -2.46115,-1.434441 0.6583,0.476837 1.1903,1.05597 1.6543,1.722178 0.51821,0.462711 0.76561,1.101701 1.15651,1.664139 0.4159,0.61532 0.64831,1.372947 0.74942,2.105067 0.0677,0.886482 -0.0627,1.7788 -0.2168,2.650784 -0.19986,0.89853 -0.43812,1.802553 -0.83139,2.636793 -0.62488,1.290603 -1.29089,2.55775 -2.0164,3.795641 -0.6946,1.090565 -1.43274,2.153131 -2.2032,3.190774 -0.61992,0.801658 -1.22493,1.613888 -1.74281,2.486288 -0.525985,0.91665 -1.048003,1.83542 -1.552045,2.76431 -0.53181,1.20774 -1.059487,2.41848 -1.687007,3.58077 -0.953381,1.86883 -1.677609,3.83706 -2.604177,5.71876 -0.807347,1.78744 -1.555478,3.60144 -2.013366,5.51392 -0.490749,1.72969 -0.962945,3.4759 -1.198393,5.26131 -0.206774,1.57912 -0.16765,3.16542 -0.210566,4.75519 -0.06288,1.46277 -0.19486,2.92324 -0.192561,4.38798 0.0021,1.16869 -0.01093,2.33976 0.115017,3.50362 0.116909,1.21603 0.357675,2.42214 0.380278,3.6438 0.03791,1.2832 0.05652,2.57877 0.321289,3.8397 0.314812,1.24457 0.754787,2.44823 1.0977,3.68343 0.377122,1.32158 0.702818,2.65 0.949167,4.00303 0.05571,0.18857 0.0947,0.38292 0.167132,0.56572 0.05805,0.14651 0.408003,0.74379 0.478988,0.87418 0.25124,0.46147 0.508812,0.91524 0.798695,1.35463 0.68697,0.97026 1.486522,1.85826 2.138172,2.85542 0.311378,0.44766 0.550548,0.93211 0.848614,1.38722 0.06222,0.095 0.14456,0.17618 0.203391,0.27332 0.06435,0.10626 0.109746,0.2229 0.164618,0.33435 0.05231,0.075 0.369933,0.53418 0.425521,0.59887 0.349237,0.40644 0.811583,0.71101 1.069953,1.19882 0.20797,0.2467 0.39745,0.50864 0.60661,0.75433 0.39361,0.46237 0.85392,0.87032 1.20409,1.37059 0.1532,0.23544 0.27971,0.44478 0.45899,0.66174 0.0853,0.10319 0.18938,0.19012 0.27193,0.29549 0.27233,0.34757 0.49068,0.74175 0.7819,1.07653 0.64536,0.68699 1.19735,1.45117 1.77793,2.19205 0.49162,0.75961 1.00816,1.49858 1.48061,2.26897 0.57782,0.84841 1.20721,1.66056 1.75639,2.52952 z" />
    <path
       id="path7"
       style="fill:#502d16;stroke:#806600;stroke-width:0.932716"
       transform="scale(0.26458333)"
       d="m 392.52735,312.06641 c -0.85123,0.0249 -1.90146,0.10918 -3.24219,0.23438 -7.35981,0.68727 -24.63757,7.78324 -22.66016,9.30664 0.21905,0.16876 4.5103,3.36609 9.53516,7.10351 5.02487,3.73742 9.85199,7.88658 10.72656,9.2207 1.22722,1.8721 1.61643,4.72318 1.70703,12.49415 0.0645,5.53786 -0.19889,10.06836 -0.58593,10.06836 -0.38704,0 -1.22582,1.25983 -1.86328,2.79882 -0.63747,1.53898 -1.73855,2.79883 -2.44727,2.79883 -2.94538,0 -21.52292,21.80703 -32.99023,38.72656 -8.54034,12.60089 -18.5603,34.87394 -22.33008,49.63868 -4.21544,16.51027 -5.80687,32.42593 -5.4668,54.63867 0.29908,19.53516 0.49222,21.4661 3.47852,34.67773 1.73933,7.69491 3.66167,14.41084 4.27148,14.92383 0.60981,0.51299 2.70876,3.86998 4.66602,7.46094 1.95726,3.59095 7.63181,12.82462 12.60937,20.51953 4.97755,7.69491 12.71958,19.86692 17.20508,27.04883 11.75353,18.81903 15.16801,23.35329 23.91602,31.76172 4.29763,4.1308 10.10028,10.17773 12.89453,13.4375 4.99031,5.82169 5.04658,5.95255 3.17968,7.39648 -1.89996,1.46954 -1.90008,1.47083 -0.0625,5.625 2.85389,6.45168 1.88182,16.35677 -2.45117,24.96094 -4.02666,7.99588 -7.54473,11.65622 -14.65625,15.2461 -0.52658,0.26581 -1.0453,0.53624 -1.54297,0.80468 0.5295,0.15302 1.068,0.26841 1.61328,0.34766 0.15456,0.0267 0.30929,0.0558 0.4629,0.0859 0.49622,0.0187 0.99191,0.0309 1.48828,0.041 0.50797,0.0113 1.01607,-9.4e-4 1.52343,0.0293 0.43173,0.0313 0.85973,0.0936 1.28907,0.15039 0.48498,-0.075 0.96773,-0.17482 1.45117,-0.25586 0.61871,-0.10809 1.2446,-0.15739 1.87109,-0.19141 0.66868,-0.0359 1.33487,-0.0495 2.00196,0.0117 0.65155,0.0809 1.30598,0.14958 1.96093,0.19532 0.61739,0.0336 1.23526,0.0492 1.85352,0.0605 0.6525,0.0238 1.29954,0.015 1.94531,-0.084 0.68546,-0.0852 1.34657,-0.28469 2.00977,-0.46875 0.81346,-0.25924 1.61614,-0.54794 2.42383,-0.82422 0.80458,-0.25278 1.5764,-0.58953 2.33593,-0.95313 0.32507,-0.15189 0.65222,-0.30157 0.98047,-0.44726 0.1478,-0.1339 0.34902,-0.253 0.60938,-0.34375 0.22032,-0.0768 0.43838,-0.16188 0.65429,-0.25 0.0256,-0.0184 0.051,-0.0367 0.0781,-0.0547 0.43514,-0.28947 0.84381,-0.61428 1.28125,-0.90039 0.51178,-0.30754 1.0248,-0.61171 1.51758,-0.94922 0.15389,-0.11206 0.30797,-0.22184 0.46289,-0.33203 0.16649,-0.17296 0.3337,-0.34647 0.50195,-0.51758 0.35108,-0.38899 0.71555,-0.75964 1.10938,-1.10547 0.31848,-0.28186 0.67752,-0.5036 1.05273,-0.69531 0.10422,-0.18811 0.27413,-0.37865 0.52344,-0.55469 0.40297,-0.28456 0.78757,-0.59122 1.17187,-0.90039 0.397,-0.34681 0.76667,-0.7231 1.14844,-1.08593 0.19529,-0.18573 0.38997,-0.30905 0.57227,-0.37891 0.24411,-0.33913 0.4988,-0.66891 0.75976,-0.99609 0.6528,-0.83577 1.43171,-1.55682 2.21094,-2.27149 0.20216,-0.18373 0.41175,-0.35968 0.62305,-0.5332 0.22397,-0.39634 0.43209,-0.80207 0.63867,-1.20703 0.48302,-0.96681 0.93677,-1.94595 1.47656,-2.88282 0.41703,-0.66791 0.88135,-1.31459 1.40625,-1.90234 0.17717,-0.19366 0.34942,-0.39252 0.51758,-0.59375 0.51589,-5.15442 -0.30786,-11.02433 -2.46875,-17.5625 -3.51082,-10.62264 -7.19837,-15.67489 -13.11328,-17.96289 -4.28563,-1.65777 -5.28262,-2.66999 -11.03516,-11.19336 -6.84258,-10.13844 -15.31156,-21.2182 -24.20703,-31.67383 -3.093,-3.63547 -6.40223,-7.86922 -7.35547,-9.4082 -0.95324,-1.53898 -4.5623,-6.78672 -8.01953,-11.66016 -8.01276,-11.29508 -8.73387,-12.77268 -11.1211,-22.82422 -1.0873,-4.5781 -3.03069,-11.77842 -4.31835,-16 -3.83521,-12.57368 -5.67588,-41.88337 -4.29883,-68.4375 1.40401,-27.0738 4.5246,-37.94655 21.22265,-73.95117 9.14606,-19.72091 13.94233,-28.2543 22.32813,-39.72266 13.20357,-18.05711 20.03473,-35.9294 17.26562,-45.17187 -1.23793,-4.13183 -4.28246,-9.24828 -7.53515,-12.66211 -1.44452,-1.51608 -2.20803,-1.9789 -4.76172,-1.9043 z" />
    <circle
       id="path8"
       style="fill:#000000;stroke:#000000;stroke-width:0.264583"
       cx="104.88196"
       cy="175.21458"
       r="0.032871" />
    <path
       id="path9"
       style="fill:#000000;stroke:#000000;stroke-width:0.264583"
       d="m 106.64207,170.92652 c -0.16334,0.059 -0.32656,0.11773 -0.48989,0.17673 l 0.66352,0.46095 c -1.14711,-0.69831 1.20527,0.73245 2.11253,1.50999 0.38049,0.28839 0.77548,0.55956 1.1281,0.88263 0.43151,0.39535 0.10749,0.1252 0.52348,0.56638 0.0859,0.0911 0.18153,0.17259 0.27234,0.2589 0.46614,0.63248 0.66139,1.39083 0.65836,2.17196 -0.0363,0.83506 -0.0826,1.68296 -0.35916,2.47943 -0.0864,0.20954 -0.18753,0.41341 -0.25941,0.62839 -0.14266,0.42669 -0.23003,0.86552 -0.52968,1.22421 -0.38549,0.60387 -0.73569,1.22003 -1.28158,1.70326 -0.49443,0.5151 -0.9864,1.02519 -1.54926,1.46916 -0.6322,0.50825 -1.28428,1.01681 -1.99884,1.40198 -0.29477,0.12799 -0.5918,0.24114 -0.89349,0.33176 0.17444,-0.13141 0.34096,-0.27344 0.49558,-0.43253 0.65807,-0.73138 1.27827,-1.47115 1.5105,-2.45618 0.0523,-0.18125 0.11742,-0.35971 0.1571,-0.54415 0.16087,-0.74765 0.0377,-1.52823 0.0455,-2.28462 -0.0486,-0.83318 -0.1405,-1.66305 -0.36793,-2.4691 -0.22524,-0.86357 -0.41458,-1.74793 -0.3297,-2.64428 l -3.5233,-1.79524 c -0.0275,0.93095 0.12392,1.83991 0.32401,2.74505 0.21765,0.78759 0.32917,1.59271 0.39016,2.40554 0.0525,0.95256 0.11469,1.79104 -0.11937,2.72645 -0.21825,0.92575 -0.80437,1.61064 -1.43661,2.28306 -0.56633,0.52394 -1.2545,0.85918 -1.907375,1.25574 -0.582096,0.26012 -1.18765,0.47353 -1.816427,0.58704 -2.167083,0.97304 1.67584,2.72216 3.181202,2.84686 0.0781,0.0265 0.15685,0.0503 0.23616,0.0713 0.0505,-0.10706 0.20881,-0.15069 0.39894,-0.0176 0.0882,0.0618 0.1847,0.10634 0.28526,0.14211 0.32168,0.0371 0.64689,0.0504 0.96945,0.0625 0.52266,0.0111 1.04511,0.0186 1.56786,0.0238 0.0352,-0.002 0.0707,-0.004 0.10594,-0.006 0.17692,-0.01 0.35318,-0.013 0.52968,0.003 0.0241,0.003 0.0482,0.006 0.0724,0.009 l 0.66869,0.003 c 0.96295,0.0444 1.86021,-0.28266 2.71973,-0.67903 0.71668,-0.445 1.4124,-0.94473 2.05879,-1.48725 0.36179,-0.35179 0.7813,-0.63749 1.13223,-1.002 0.29672,-0.35436 0.14474,-0.19036 0.45165,-0.49558 0.13525,-0.12132 0.25814,-0.25133 0.37259,-0.38757 0.015,-0.0291 0.0301,-0.0582 0.045,-0.0873 0.1278,-0.2558 0.24785,-0.51486 0.39067,-0.76274 0.11034,-0.17672 0.23319,-0.34782 0.37207,-0.50333 0.10508,-0.11486 0.20252,-0.23616 0.29972,-0.3576 0.0273,-0.0341 0.0552,-0.062 0.0832,-0.0842 0.24369,-0.47785 0.37978,-1.0064 0.58395,-1.5043 0.29515,-0.83914 0.34993,-1.72806 0.40049,-2.60811 0.0503,-0.85072 -0.15162,-1.63122 -0.54157,-2.37919 -0.51174,-0.73506 -1.18818,-1.3092 -1.89291,-1.8495 -1.84891,-1.53407 -3.71909,-2.40348 -5.91023,-3.59203 z m -8.860958,14.97428 h 5.16e-4 c 0.02128,-0.003 0.297846,0.0823 0.684196,0.22324 -0.124538,-0.0294 -0.248433,-0.0618 -0.37207,-0.0977 -0.206094,-0.0743 -0.302028,-0.11423 -0.312642,-0.12402 h -5.17e-4 v -5.2e-4 -5.2e-4 z m 3.311938,1.98334 c -0.0387,0.0426 -0.0947,0.0834 -0.16949,0.12092 -10e-4,4.3e-4 -0.002,7.7e-4 -0.003,0.001 l -5.2e-4,5.1e-4 h -5.1e-4 l -5.2e-4,5.2e-4 h -5.2e-4 v -5.2e-4 l 5.2e-4,-5.1e-4 c 0.007,-0.009 0.0874,-0.0665 0.17363,-0.12196 z" />
    <path
       style="fill:#000000;stroke:#000000;stroke-width:0.264583"
       id="path22"
       d="m 103.14119,189.24787 c 0.16882,-0.0643 0.35196,-0.0755 0.53075,-0.0836 0.1531,-0.005 0.30625,1.8e-4 0.45938,5.3e-4 0.0676,-0.0106 0.14401,0.0162 0.21095,0.002 0.0263,-0.005 0.0495,-0.0211 0.0744,-0.0311 0.0691,-0.0275 0.0512,-0.0207 0.12028,-0.0377 0.12129,-0.0223 0.24552,-0.0205 0.3684,-0.0204 0.1377,1.7e-4 0.2754,0.001 0.4131,0.001 0.093,0.001 0.18601,5.3e-4 0.27902,8e-4 0.0234,5e-5 0.0473,0.004 0.0703,-2.3e-4 0.0277,-0.006 0.053,-0.0197 0.0795,-0.0296 0.15234,-0.0423 0.30849,-0.0733 0.46573,-0.0913 0.20799,-0.0206 0.4169,-0.0192 0.62561,-0.0202 0.10483,0.0135 0.20376,-0.0198 0.30473,-0.0409 0.026,-0.005 0.0529,-0.007 0.0781,-0.0153 0.10874,-0.049 0.0537,-0.0282 0.16502,-0.0628 0.0965,-0.0178 0.18961,-0.047 0.28644,-0.0634 0.0316,-0.005 0.064,-0.006 0.0951,-0.0136 0.0627,-0.0156 0.12232,-0.0416 0.18436,-0.0595 0.0829,-0.0112 0.15885,-0.0457 0.24016,-0.0637 0.022,-0.005 0.0456,-0.004 0.0666,-0.0122 0.0552,-0.0221 0.0889,-0.0603 0.13163,-0.0993 0.0639,-0.0484 0.14005,-0.0888 0.21831,-0.10936 0.0191,-0.005 0.0396,-0.004 0.0582,-0.0107 0.0244,-0.009 0.0464,-0.0231 0.0696,-0.0347 0.0677,-0.0243 0.13609,-0.0466 0.20483,-0.0679 0.0218,-0.007 0.0452,-0.008 0.0664,-0.0164 0.0499,-0.0194 0.0962,-0.0471 0.14579,-0.0671 0.0252,-0.0145 0.0496,-0.0307 0.0757,-0.0435 0.12294,-0.0604 0.0326,-2.7e-4 0.15609,-0.0711 0.0266,-0.0152 0.0505,-0.035 0.0772,-0.0499 0.0246,-0.0138 0.051,-0.0241 0.0765,-0.0362 0.0257,-0.0145 0.0514,-0.0289 0.0771,-0.0433 0.0346,-0.0359 0.0863,-0.0283 0.12681,-0.0484 0.0234,-0.0116 0.0419,-0.0311 0.0643,-0.0445 0.0171,-0.0103 0.0372,-0.0153 0.0538,-0.0263 0.0407,-0.027 0.0758,-0.0617 0.1144,-0.0916 0.0187,-0.009 0.0389,-0.0161 0.0562,-0.0277 0.0229,-0.0155 0.0417,-0.0364 0.0637,-0.0532 0.08,-0.0613 0.15773,-0.12155 0.23047,-0.19186 0.0745,-0.0369 0.12047,-0.10795 0.18188,-0.16049 0.0159,-0.0136 0.0359,-0.0219 0.0517,-0.0356 0.14078,-0.12268 -0.0193,-0.005 0.10292,-0.0914 0.0592,-0.0483 0.10677,-0.10703 0.16022,-0.16065 0.0508,-0.0509 0.11402,-0.0945 0.16831,-0.14177 0.0878,-0.0447 0.15113,-0.12352 0.22882,-0.18205 0.0349,-0.0263 0.0741,-0.0464 0.1094,-0.072 0.039,-0.06 0.0979,-0.0798 0.15486,-0.11413 0.0194,-0.0117 0.0357,-0.0283 0.0553,-0.0397 0.0179,-0.0104 0.0378,-0.0169 0.0567,-0.0254 0.0207,-0.0124 0.0413,-0.0248 0.062,-0.0373 0.0184,-0.008 0.0385,-0.0138 0.0551,-0.0254 0.0212,-0.0148 0.0366,-0.0367 0.0568,-0.0529 0.0569,-0.0456 0.11748,-0.0819 0.17202,-0.13246 0.11154,-0.11007 0.1982,-0.24103 0.30609,-0.35433 0.14806,-0.098 0.26081,-0.2363 0.39387,-0.35133 0.0185,-0.0179 0.0353,-0.0377 0.0554,-0.0538 0.0169,-0.0136 0.038,-0.0214 0.055,-0.035 0.0802,-0.0638 0.14227,-0.14707 0.22079,-0.21271 0.0177,-0.0129 0.0375,-0.0233 0.0532,-0.0387 0.0231,-0.0226 0.0401,-0.0509 0.0623,-0.0745 0.0398,-0.0426 0.0852,-0.0798 0.12509,-0.1223 0.0437,-0.0466 0.0709,-0.0807 0.11175,-0.12988 0.11094,-0.15444 0.21004,-0.31845 0.30801,-0.48161 0.10356,-0.14334 0.13949,-0.31881 0.21895,-0.47442 0.0307,-0.0637 0.0568,-0.13216 0.0918,-0.19379 0.0395,-0.0696 0.0907,-0.12996 0.13167,-0.20277 0.0815,-0.13173 0.14753,-0.27377 0.2121,-0.41474 0.0654,-0.13164 0.10727,-0.27181 0.14828,-0.41239 0,0 -2.7308,-1.04646 -2.7308,-1.04646 v 0 c -0.0116,0.1292 -0.0754,0.22932 -0.12087,0.34836 -0.0658,0.13386 -0.13317,0.26729 -0.20843,0.396 -0.077,0.1418 -0.18157,0.269 -0.23342,0.42304 -0.0565,0.15169 -0.10852,0.30655 -0.19025,0.44696 -0.0888,0.15299 -0.18359,0.30254 -0.30369,0.43334 -0.10111,0.12278 -0.21593,0.23076 -0.34063,0.32891 -0.10621,0.10835 -0.2228,0.20494 -0.33101,0.31121 -0.11616,0.13081 -0.25358,0.23782 -0.37892,0.35956 -0.10811,0.10374 -0.20024,0.22642 -0.32745,0.30802 -0.0868,0.0582 -0.16175,0.13267 -0.25593,0.18008 -0.12211,0.0715 -0.23635,0.15062 -0.34266,0.24398 -0.11522,0.0884 -0.22305,0.18508 -0.33497,0.27743 -0.11526,0.0969 -0.22432,0.19951 -0.34001,0.29607 -0.1045,0.10194 -0.20999,0.20317 -0.32525,0.29302 -0.11425,0.0837 -0.2277,0.16777 -0.34765,0.24289 -0.10937,0.0682 -0.22827,0.11731 -0.33553,0.18924 -0.14523,0.0798 -0.2944,0.15438 -0.45158,0.20787 -0.13733,0.0544 -0.2837,0.0856 -0.41752,0.15063 -0.13934,0.0412 -0.26119,0.11984 -0.38026,0.20147 -0.015,0.004 -0.03,0.008 -0.045,0.0122 -0.014,0.002 -0.0283,0.002 -0.042,0.006 -0.0975,0.026 -0.19059,0.0703 -0.2898,0.0913 -0.18677,0.0527 -0.37958,0.0834 -0.56643,0.13684 -0.1617,0.0432 -0.32704,0.065 -0.49476,0.0599 -0.21932,0.005 -0.44014,0.0119 -0.65715,0.0454 -0.16288,0.028 -0.32568,0.0564 -0.48863,0.0821 -0.13376,-0.0208 -0.27103,-0.004 -0.40598,-0.009 -0.14056,-2.7e-4 -0.28123,-2.2e-4 -0.42161,0.008 -0.13564,0.011 -0.27037,0.0278 -0.40079,0.0688 -0.032,0.008 -0.079,0.0219 -0.11372,0.0199 -0.0145,-8e-4 -0.0279,-0.009 -0.0423,-0.0105 -0.0685,-0.006 -0.1389,0.006 -0.20749,0.002 -0.15382,0.002 -0.30755,0.01 -0.45996,0.0317 -0.19687,0.0314 -0.39035,0.0789 -0.58586,0.11736 z" />
    <path
       style="fill:#502d16;stroke:#502d16;stroke-width:0.164882"
       d="m 404.21672,691.10477 c 0.56279,-3.38123 0.27104,-11.39266 -0.57373,-15.75468 -0.0869,-0.44881 -0.45428,-2.04026 -0.81636,-3.53657 -0.66834,-2.76197 -1.08676,-5.17746 -0.98289,-5.67413 0.0482,-0.23036 0.18951,-0.18794 0.8939,0.26824 0.80718,0.52275 0.82875,0.5564 0.61154,0.95407 -0.34442,0.63056 -0.14205,1.62159 0.77759,3.80795 1.63825,3.89481 2.09034,6.38368 1.92893,10.61926 -0.11979,3.14344 -0.83213,7.06324 -1.67797,9.23342 l -0.25706,0.65953 z"
       id="path23"
       transform="scale(0.26458333)" />
    <path
       style="fill:#784421;stroke:#784421;stroke-width:0.264583"
       id="path24"
       d="m 89.153578,147.43225 c -0.389977,-0.27262 -0.682511,-0.64657 -1.00135,-0.99278 -0.160708,-0.2069 -0.29246,-0.41194 -0.490765,-0.58615 -0.08279,-0.0727 -0.331208,-0.19304 -0.308441,-0.36949 0.0066,-0.0511 0.06167,-0.0827 0.09251,-0.12397 -0.02839,-0.0448 -0.231011,-0.32227 -0.198832,-0.41622 0.02363,-0.069 0.155456,-0.0615 0.174432,-0.13188 0.008,-0.0297 -0.248693,-0.62867 -0.27445,-0.69853 -0.141039,-0.43174 -0.244321,-0.87555 -0.316645,-1.32376 -0.04018,-0.41438 -0.165883,-0.81254 -0.238607,-1.2214 -0.09807,-0.38025 -0.190285,-0.76271 -0.294259,-1.14157 -0.09234,-0.42372 -0.211521,-0.84049 -0.290383,-1.26711 -0.146544,-0.54307 -0.250057,-1.09422 -0.307993,-1.65344 -0.04644,-0.46901 -0.04546,-0.94064 -0.05726,-1.41128 -0.03564,-0.78858 -0.01643,-1.57792 -0.02424,-2.36685 -0.0059,-0.71572 0.0177,-1.43115 0.0213,-2.14676 0.01561,-0.58598 0.03162,-1.17563 0.109156,-1.75705 0.109808,-0.76063 0.208579,-1.5225 0.287259,-2.28702 0.0683,-0.61038 0.05422,-1.22402 0.166335,-1.82849 -0.02935,-0.42931 0.216294,-0.86376 0.229061,-1.28736 0.02257,-0.74888 -0.161328,-0.0802 0.09166,-0.7736 -0.608775,-1.60903 -0.02471,0.34204 0.0061,-0.88697 0.0044,-0.17551 -0.176215,-0.31828 -0.183562,-0.4937 -0.0054,-0.12831 0.132402,-0.22824 0.147986,-0.35571 -0.07283,-0.50066 -0.07859,-0.26065 -0.0013,-0.72025 0.06041,-0.30446 0.121322,-0.60848 0.164076,-0.91603 0.01365,-0.0982 0.0086,-0.20011 0.03704,-0.29509 0.03213,-0.10745 0.130302,-0.19335 0.142356,-0.30484 0.01492,-0.13804 -0.04329,-0.27428 -0.06493,-0.41142 0.805794,-0.81891 -0.123036,0.27405 0.251463,-0.70623 0.049,-0.12826 0.238376,-0.1585 0.301889,-0.28023 0.05976,-0.11455 0.03311,-0.25632 0.04518,-0.38495 0.06387,-0.68088 -0.0214,-0.13646 0.107236,-0.82612 0.240022,-0.49647 0.16905,-0.26374 0.265501,-0.7999 0.02231,-0.12404 0.05525,-0.24698 0.06324,-0.37275 0.0077,-0.12168 -0.07744,-0.25991 -0.01635,-0.36543 0.344856,-0.59552 0.438293,0.26074 0.255149,-0.50705 -0.04972,-0.60522 -0.09036,-0.0665 0.220969,-0.54671 0.161475,-0.24905 0.01273,-0.29724 0.05902,-0.56365 0.05724,-0.32946 0.19323,-0.39595 0.418848,-0.63952 0.159269,-0.0915 0.342977,-0.1498 0.477806,-0.27455 0.04929,-0.0456 0.501174,-0.79899 0.532082,-0.84921 0.25599,-0.41595 0.520597,-0.8263 0.785392,-1.23667 0.03238,-0.0426 0.23581,-0.39942 0.398264,-0.38258 0.04805,0.005 0.05839,0.077 0.08758,0.11546 0,0 -2.581548,-1.44336 -2.581548,-1.44336 v 0 c -0.27536,0.16704 -0.350864,0.31171 -0.516747,0.60039 -0.342273,0.55629 -0.678654,1.1198 -1.035047,1.66707 -0.09169,0.14079 -0.233694,0.25532 -0.286155,0.41493 -0.05079,0.15454 -0.0071,0.32526 -0.01058,0.4879 -0.08138,0.28792 -0.105182,0.48577 -0.284027,0.72694 -0.134445,0.18129 -0.320477,0.20539 -0.353237,0.46421 -0.01521,0.12025 0.08359,0.23964 0.06031,0.35858 -0.01884,0.0963 -0.117719,0.15696 -0.176578,0.23544 -0.52814,0.4793 -0.03775,-0.10476 -0.04236,0.59238 -7.94e-4,0.11248 -0.140841,0.17628 -0.198694,0.27274 -0.06323,0.10541 -0.108937,0.22039 -0.163222,0.33067 -0.246139,0.50006 -0.158004,0.23814 -0.261244,0.79976 -0.08595,0.16952 -0.522015,0.92976 -0.525452,1.08991 -0.0034,0.15863 0.130606,0.30209 0.120711,0.46046 -0.06377,1.02058 -0.454827,-0.48912 -0.0067,0.81598 -0.242089,0.56603 -0.10732,0.0875 -0.07988,0.71192 0.0043,0.0972 -0.01984,0.19357 -0.03224,0.29006 -0.03949,0.30754 -0.09661,0.61242 -0.150119,0.91769 -0.01857,0.11476 -0.02461,0.23226 -0.05569,0.34428 -0.0305,0.10996 -0.116937,0.20395 -0.127915,0.31753 -0.01381,0.14292 0.100264,0.29053 0.05595,0.4271 -0.04411,0.13596 -0.257495,0.17301 -0.295378,0.31084 -0.28742,1.04565 0.574206,-0.056 -0.238951,0.81242 0.01664,0.14059 0.06846,0.28141 0.04995,0.42177 -0.01556,0.11801 -0.112096,0.21144 -0.148397,0.32479 -0.0352,0.10992 -0.04146,0.22709 -0.06454,0.34017 -0.06406,0.31389 -0.109712,0.63083 -0.196496,0.93929 -0.101036,0.62562 -0.08753,1.23568 -0.129336,1.86635 -0.06452,0.7599 -0.177697,1.51323 -0.307866,2.26453 -0.08965,0.59156 -0.121195,1.19592 -0.128776,1.79352 0.0034,0.72043 0.0265,1.4407 0.01955,2.16124 -0.0092,0.78322 0.0072,1.56684 -0.02757,2.34971 -0.0082,0.47977 -0.0057,0.96084 0.04045,1.43888 0.06876,0.5624 0.16351,1.12168 0.30099,1.67174 0.07699,0.43057 0.177837,0.85436 0.25993,1.28272 0.09892,0.37315 0.196029,0.74684 0.313944,1.115 0.02866,0.20718 0.06572,0.40612 0.117398,0.60883 0.03334,0.13079 0.08027,0.2585 0.10369,0.39143 0.01278,0.0725 0.01373,0.14661 0.02061,0.21991 0.06536,0.46954 0.180938,0.92933 0.31468,1.38383 0.04558,0.12904 0.196908,0.64191 0.273843,0.72955 0.112504,0.12816 0.272307,0.20675 0.394674,0.32552 0.145627,0.14136 0.217464,0.28679 0.316468,0.45633 0.109979,0.0832 0.392168,0.24256 0.432686,0.42604 0.01029,0.0466 -0.05252,0.0846 -0.05518,0.13225 -0.01204,0.21614 0.251272,0.31306 0.265816,0.52601 0.217604,0.39182 0.533485,0.71404 0.866156,1.01131 z" />
    <path
       style="fill:#784421;stroke:#784421;stroke-width:0.264583"
       id="path25"
       d="m 98.610993,85.738051 c 0.009,-0.219078 -0.08118,-0.428951 -0.177326,-0.621543 -0.02598,-0.05206 -0.0665,-0.09632 -0.09011,-0.149493 -0.0066,-0.01479 0.01765,-0.04373 0.0021,-0.04853 -0.688033,-0.213831 -1.385041,-0.397645 -2.077561,-0.596469 -0.230111,0.987102 0.363617,0.375359 2.204426,1.149678 0.02939,0.01236 0.107897,0.06659 0.07811,0.05521 -1.997744,-0.763358 -2.688378,-1.216565 -1.970114,-0.754044 0.696143,0.538903 0.239877,0.196545 2.326241,0.89263 0.03249,0.01085 0.05361,-0.0438 0.0847,-0.05818 0.02056,-0.0095 0.04455,-0.01566 0.06689,-0.01193 0.01857,0.0031 0.06478,0.03768 0.0472,0.03098 -0.709665,-0.270417 -1.416431,-0.548394 -2.124647,-0.82259 0.929566,0.855224 -3.307117,-0.473837 2.414003,0.947793 0.05191,0.01291 0.01545,-0.105851 0.02426,-0.158604 0.0052,-0.03119 0.01188,-0.06212 0.01781,-0.09318 -2.558296,-1.009152 -2.371034,-1.296016 -2.005446,-0.137803 0.0094,0.01797 0.01273,0.04081 0.02823,0.05386 0.03791,0.03189 0.09591,0.02927 0.137748,0.05581 0.135313,0.08583 0.217223,0.225443 0.307337,0.353147 0.169902,0.275966 0.408744,0.334031 0.668867,0.497904 0.253042,0.174117 0.480766,0.379896 0.713073,0.579731 0.02939,0.03986 0.08106,0.06028 0.108143,0.1017 0.03543,0.05418 0.05393,0.117864 0.08558,0.174337 0.07526,0.134292 0.15561,0.269841 0.235191,0.402 0.705202,0.188915 1.401722,0.413912 2.115622,0.56674 0.0413,0.0088 -0.0707,-0.276619 -0.0742,-0.263054 -0.0434,0.167775 -0.0555,0.129728 0.008,0.213098 0.1141,-0.107209 0.0997,-0.06874 0.11437,-0.308374 0.0518,-0.847318 -2.698588,-1.603193 -2.231583,-0.781132 0.803863,3.694927 2.433213,1.321424 2.245303,0.572267 -0.0719,-0.286652 -0.22506,-0.568068 -0.37432,-0.820806 -0.74983,-0.281803 -1.48257,-0.614104 -2.249472,-0.84541 -0.05185,-0.01564 -0.04941,0.09638 -0.07405,0.144605 -0.01019,0.01995 -0.0515,0.05218 -0.03047,0.05989 0.726744,0.266345 1.459002,0.520179 2.202302,0.736073 0.042,0.0122 -0.047,-0.07435 -0.0636,-0.114866 -0.0286,-0.06999 -0.0474,-0.143547 -0.0711,-0.21532 -0.16849,0.01595 0.009,-0.287917 -0.0984,-0.323012 -0.72872,-0.239119 -1.471814,-0.434128 -2.217026,-0.615436 -0.02471,-0.006 0.0026,0.101666 0.0011,0.07628 -0.05643,-0.913537 0.175255,-0.108254 2.037246,0.599866 -0.83148,-0.666295 -0.49957,-0.547415 -2.500785,-1.158263 -0.06854,-0.02093 -0.131249,0.318391 -0.157954,0.372353 3.292079,1.029166 2.680159,1.232381 2.099859,0.566452 -0.11936,-0.136983 -0.21014,-0.30566 -0.33333,-0.435973 -0.0326,-0.02763 -0.06911,-0.05121 -0.09779,-0.08288 -0.03107,-0.0343 -0.05382,-0.07531 -0.08004,-0.113438 -0.01942,-0.02825 -0.02511,-0.07283 -0.05689,-0.08567 -1.467442,-0.592894 -2.061448,-1.618705 -2.355995,-0.604488 0.01402,-0.05758 -0.0145,-0.19041 0.04206,-0.172744 0.728898,0.227597 1.414145,0.576996 2.127236,0.850109 0.02439,0.0093 -0.02964,-0.04837 -0.05453,-0.05626 -0.756645,-0.239895 -1.507627,-0.504938 -2.280888,-0.684186 -0.06327,-0.01466 -0.0083,0.132289 -0.0343,0.191794 -0.02328,-0.87045 -0.0402,-0.05967 2.078794,0.656405 0.06152,0.0208 -0.09933,-0.08372 -0.147304,-0.127487 -0.04329,-0.03949 -0.08569,-0.08004 -0.126394,-0.122192 -0.02331,-0.02416 -0.03544,-0.09151 -0.06548,-0.07652 -0.03629,0.01812 -0.01418,0.07988 -0.02127,0.119824 -0.738608,-0.240085 -1.472229,-0.496096 -2.215827,-0.720256 -0.03406,-0.01027 0.04326,0.06072 0.07578,0.07513 0.736574,0.326382 1.450922,0.720415 2.224836,0.94429 0.209892,0.06072 0.04573,-0.407784 0.122561,-0.342353 0.346847,0.755627 0.05438,0.07394 -2.081477,-0.716573 -0.02172,-0.008 0.04068,0.02318 0.06306,0.0291 0.757047,0.199909 1.505474,0.439195 2.274184,0.588084 0.04914,0.0095 -0.06604,-0.24542 -0.06971,-0.254214 -0.20878,-0.749552 -0.03381,-0.142394 -2.202772,-0.621268 -0.07402,-0.01635 0.113101,0.101033 0.167277,0.154053 0.02125,0.02077 0.23376,0.251135 0.261408,0.260123 0.746094,0.242564 1.505773,0.441161 2.258661,0.661741 0.360692,0.765667 0.841392,0.409641 -1.931847,-0.635688 -0.05371,-0.02024 0.09945,0.05736 0.148677,0.08688 0.207772,0.124574 0.134194,0.08044 0.37098,0.264319 0.336863,0.342762 0.176152,0.160033 0.480357,0.549741 0,0 2.178795,0.632917 2.178795,0.632917 v 0 c -0.27884,-0.411858 -0.13299,-0.218913 -0.43446,-0.581162 -0.13782,-0.158438 -0.27128,-0.308761 -0.46975,-0.393632 -0.764688,-0.326993 -1.523407,-0.670374 -2.303735,-0.95808 -0.05116,-0.01886 -0.110157,0.02082 -0.155271,0.05145 -0.0434,0.02946 -0.06652,0.08111 -0.09977,0.121671 0.741801,0.263568 1.479063,0.540274 2.225402,0.790702 0.05249,0.01762 -0.09552,-0.0566 -0.139157,-0.09067 -0.05321,-0.04155 -0.105209,-0.08545 -0.150498,-0.135512 -0.04663,-0.05155 -0.05862,-0.143751 -0.123854,-0.167751 -2.424671,-0.892122 -2.629173,-1.519015 -2.338067,-0.691489 0.392141,0.730057 2.302345,0.887101 2.366152,0.90863 0.02421,0.0082 -0.0469,-0.02035 -0.07079,-0.0294 -2.332855,-0.885024 -1.648576,-1.371235 -2.406727,-0.771253 -0.0618,0.120327 -0.120491,0.223692 -0.0659,0.192966 0.04469,-0.02516 0.03939,-0.143357 0.08778,-0.12636 0.717569,0.252024 1.395804,0.604698 2.099006,0.894403 0.02736,0.01127 -0.04508,-0.03834 -0.06762,-0.05751 -0.767003,-0.269857 -1.534007,-0.539713 -2.301012,-0.80957 -0.0096,0.04618 -0.03966,0.09267 -0.0287,0.138547 0.0081,0.03377 0.308633,0.342222 0.338767,0.355795 0.75307,0.339157 1.502899,0.69191 2.283521,0.961673 0.05568,0.01924 0.07842,-0.08793 0.117628,-0.131892 0.268986,-0.878964 -1.2651,-0.608925 -2.200534,-0.945835 -0.02151,-0.0078 0.04674,0.0013 0.06788,0.01005 2.310492,0.956321 1.778966,1.613519 2.351429,0.785432 0.01109,-0.10537 1.08e-4,0.04631 -0.03623,0.03313 -0.720098,-0.261022 -1.425078,-0.562253 -2.13211,-0.856835 -0.02909,-0.01212 0.0672,-0.0085 0.09422,0.0078 0.08335,0.05005 0.107604,0.160378 0.138161,0.240395 0.04237,0.02721 0.09522,0.03886 0.132254,0.07297 0.01995,0.01836 0.251463,0.311579 0.25441,0.315963 0.617017,0.917413 -2.300713,-0.662414 2.384115,0.930748 -0.006,-0.02809 0.0226,-0.10283 -5.3e-4,-0.08601 -0.0209,0.01516 -0.006,0.08085 -0.0298,0.0716 -3.469237,-1.330111 -2.369396,-1.357691 -1.823198,-0.612368 0.768659,0.314069 1.513488,0.694354 2.305978,0.942208 0.17958,0.05616 0.17075,-0.282776 0.16282,-0.286224 -2.971864,-1.291235 -2.473177,-1.531683 -2.124872,-0.54828 0.01797,0.06596 0.04237,0.130503 0.05388,0.197893 0.01024,0.05999 -0.04446,0.157241 0.01103,0.182231 0.738288,0.33251 1.517552,0.565296 2.276332,0.847942 0.008,-0.01611 0.0114,-0.03606 0.0247,-0.04836 0.009,-0.0084 -0.007,0.02355 -0.0107,0.03531 -0.70861,-0.290542 -1.417216,-0.581086 -2.125826,-0.87163 0.192649,0.100266 0.133062,0.03726 0.250476,0.283911 0.03447,0.07241 0.05939,0.149029 0.0919,0.222337 0.02241,0.05053 0.05586,0.09638 0.07278,0.149008 0.0096,0.0298 0.0035,0.0625 0.0053,0.09375 0.75039,0.268102 1.50078,0.536207 2.25117,0.804312 -0.42038,-0.75883 -0.0391,-0.09935 -2.322186,-0.832596 -0.01556,-0.005 0.0095,0.03127 0.01458,0.04678 0.01,0.03029 0.0011,0.0789 0.03061,0.09065 0.07988,0.03163 0.05789,-0.07622 0.05592,-0.0957 -0.212392,0.06304 -0.228597,0.258882 -0.12414,0.417608 0.03022,0.04591 0.04635,0.113252 0.09771,0.132821 0.716096,0.272814 1.452306,0.489566 2.178446,0.734351 -0.10106,-0.07995 -0.17338,-0.356775 -0.20718,-0.482042 -0.0133,-0.04938 -0.007,-0.10377 -0.0255,-0.151289 -0.009,-0.02228 -0.0358,-0.03192 -0.0537,-0.04787 -0.23648,-0.211169 -0.48053,-0.416507 -0.73302,-0.609105 -0.10977,-0.08898 -0.23223,-0.212836 -0.37121,-0.258339 -0.13631,-0.04463 -0.0664,0.02941 -0.19934,-0.06702 -0.041,-0.02975 -0.0747,-0.06853 -0.11199,-0.102799 -0.036,-0.04433 -0.0771,-0.08495 -0.10791,-0.132998 -0.06247,-0.09735 -0.158,-0.415703 -0.316655,-0.3619 -0.02469,-0.0019 -0.05449,0.0097 -0.07409,-0.0055 -0.0667,-0.05152 -0.11204,-0.21467 -0.12823,-0.278797 -0.01413,-0.05598 0.02252,-0.14618 -0.02979,-0.170633 -2.270906,-1.061683 -2.191306,-1.712695 -2.275385,-0.856337 -0.07909,0.947095 -0.59966,-0.06017 2.197452,0.991174 0.01704,0.0064 -0.04017,2.12e-4 -0.05314,-0.01257 -0.02447,-0.0241 -0.03832,-0.05768 -0.05075,-0.08971 -0.01807,-0.04653 -0.02673,-0.09619 -0.04009,-0.14428 -0.750877,-0.310648 -1.494832,-0.638575 -2.252628,-0.931937 -0.05001,-0.01937 -0.09665,0.04983 -0.149331,0.05985 -0.01961,0.0037 -0.07829,-0.01111 -0.0598,-0.0036 1.755265,0.713322 2.880403,1.112363 2.057546,0.819705 -0.741696,-0.555588 -0.217517,-0.17485 -2.363375,-1.015471 -0.03899,-0.01527 -0.163211,-0.01085 -0.125426,0.0072 3.441383,1.644639 2.37829,1.504029 1.968614,0.736764 -0.689144,-0.259887 -1.378413,-0.519438 -2.06743,-0.779658 -0.014,-0.0053 0.03697,7.94e-4 0.04232,0.01484 0.01154,0.03008 -7.93e-4,0.06445 5.3e-4,0.09665 0.0058,0.155072 0.0075,0.293886 0.06311,0.443317 0.02848,0.07656 0.07797,0.14356 0.116951,0.215339 z" />
    <path
       style="fill:#784421;stroke:#784421;stroke-width:0.264583"
       id="path26"
       d="m 106.67695,186.11559 c 0.28894,-0.39722 0.47856,-0.85292 0.73386,-1.26922 0.23126,-0.34787 0.37081,-0.73919 0.56549,-1.10576 0.17007,-0.39471 0.2113,-0.82475 0.24424,-1.24854 0.0368,-0.44082 -0.0127,-0.88054 -0.0654,-1.31777 -0.0733,-0.37234 -0.0977,-0.75265 -0.20057,-1.11847 -0.0727,-0.32706 -0.21886,-0.62188 -0.35827,-0.92348 -0.16811,-0.41327 -0.40589,-0.79368 -0.55745,-1.2131 -0.12892,-0.36406 -0.20154,-0.74307 -0.31795,-1.1106 -0.16475,-0.54171 -0.42546,-1.04692 -0.69778,-1.54105 -0.0522,-0.45197 -0.58824,-0.53219 -0.77428,-0.87409 -0.0517,-0.0949 0.15006,-0.18571 0.13846,-0.29315 -0.0158,-0.14604 -0.13712,-0.25993 -0.21182,-0.3864 -0.21644,-0.36638 -0.19741,-0.31795 -0.46293,-0.6317 0,0 -2.76906,-0.76425 -2.76906,-0.76425 v 0 c 0.27017,0.24942 0.30004,0.2469 0.50774,0.56839 0.0802,0.12419 0.11894,0.27626 0.21718,0.38675 0.17057,0.19181 0.45732,0.28193 0.57858,0.50816 0.10231,0.19088 -0.62389,0.45362 0.0285,0.64909 0.25387,0.47351 0.49673,0.95561 0.65824,1.46792 0.0355,0.11866 0.0825,0.23385 0.11462,0.35347 0.0685,0.25499 0.0977,0.52167 0.21468,0.76329 0.0474,0.17104 0.0748,0.29575 0.14762,0.45796 0.1184,0.26372 0.31046,0.49032 0.37971,0.77831 0.0632,0.15179 0.12591,0.30863 0.2045,0.4534 0.0215,0.0397 0.0552,0.0727 0.0722,0.1145 0.0426,0.10482 0.0372,0.22524 0.0885,0.32772 0.0118,0.0312 0.10505,0.27461 0.11155,0.30605 0.0524,0.25348 0.038,0.52389 0.11802,0.77385 0.0847,0.41092 0.10214,0.83626 0.0841,1.25472 -0.0192,0.38511 -0.0469,0.77819 -0.20834,1.1343 -0.17937,0.3673 -0.32023,0.75109 -0.53711,1.0999 -0.22554,0.40758 -0.41046,0.8475 -0.7488,1.17979 z" />
    <path
       style="fill:#784421;stroke:#784421;stroke-width:0.264583"
       id="path27"
       d="m 108.44209,183.58911 c -0.0375,-0.53154 -0.0312,-1.06511 -0.0244,-1.59759 0.0147,-0.45481 0.0143,-0.90713 -0.0556,-1.35742 -0.0459,-0.42828 -0.18515,-0.83267 -0.2995,-1.24481 -0.14101,-0.31332 -0.24946,-0.63121 -0.33073,-0.96492 -0.088,-0.38822 -0.21903,-0.76471 -0.33303,-1.14585 -0.0836,-0.31552 -0.20175,-0.61633 -0.34525,-0.90907 -0.21168,-0.43577 -0.45819,-0.85246 -0.68762,-1.27896 -0.21495,-0.41871 -0.51543,-0.78983 -0.73936,-1.20259 -0.66096,-0.17444 -1.3068,-0.42221 -1.98287,-0.52332 -0.0799,-0.012 0.0377,0.15719 0.058,0.23543 0.0239,0.0924 0.0474,0.18487 0.0746,0.27633 0.0831,0.27944 0.18362,0.55405 0.27544,0.83069 0.23625,0.82806 -0.48503,0.20529 1.98028,0.76534 0.054,0.0123 -0.0488,-0.0996 -0.0714,-0.15015 -0.3842,-0.8599 0.21213,0.45127 -0.17495,-0.39692 -0.28226,-0.57492 -0.62155,-1.11951 -0.98367,-1.64704 -0.0762,-0.10977 -0.20299,-0.19815 -0.22869,-0.3293 -0.0163,-0.083 0.13894,-0.14091 0.12039,-0.22346 -0.0284,-0.12622 -0.15946,-0.20377 -0.23928,-0.30558 -0.20133,-0.25679 -0.397,-0.51467 -0.5852,-0.78119 -0.0456,-0.0744 -0.0919,-0.1483 -0.13682,-0.22303 -0.15002,-0.2494 -0.11993,-0.25044 -0.36705,-0.46299 -0.364,-0.31308 -0.31441,-0.16705 -0.49346,-0.50155 -0.67554,-0.16899 -1.34048,-0.38817 -2.02663,-0.50695 -0.0521,-0.009 -0.0734,0.0928 -0.0646,0.14492 0.0164,0.0968 0.0969,0.17149 0.13346,0.26263 0.0368,0.0917 0.0462,0.19315 0.0857,0.28372 0.0944,0.21676 0.22715,0.41477 0.33723,0.62402 0.13995,0.17437 0.22801,0.57613 0.39371,0.72347 0.12103,0.10761 0.275,0.17138 0.40814,0.26358 0.99719,0.69054 -2.12059,-0.79296 2.12908,0.94277 0.0931,-0.0833 0.36865,-0.25749 0.34381,-0.44988 -0.0149,-0.11514 -0.0985,-0.21029 -0.15002,-0.31434 -0.0158,-0.0318 -0.35649,-0.69799 -0.36784,-0.71117 -0.17183,-0.19948 -0.38899,-0.35489 -0.58349,-0.53234 -0.37988,-0.60716 -0.0865,-0.23614 -0.70441,-0.75601 -0.66038,-0.5556 0.70849,-0.3636 -1.83754,-0.57768 -0.11562,-0.01 0.1464,0.18005 0.2196,0.27007 0.1019,0.14161 0.23663,0.26462 0.3057,0.42482 0.0529,0.12271 -0.005,0.27571 0.049,0.39786 0.09,0.20303 0.25239,0.36563 0.37249,0.55246 0.11689,0.18182 0.22554,0.36881 0.33832,0.55322 0,0 2.65637,0.7958 2.65637,0.7958 v 0 c -0.11195,-0.18623 -0.57532,-0.97731 -0.71978,-1.1346 -0.1978,-0.21536 -0.46409,-0.35938 -0.66632,-0.57058 -0.11745,-0.12267 -0.18976,-0.2817 -0.28464,-0.42255 -0.49756,-0.7953 -0.065,-0.22236 -1.98798,-0.85799 -0.0154,-0.005 0.0363,0.004 0.0456,0.0172 0.0252,0.0364 0.0564,0.0785 0.0514,0.12249 -0.0553,0.48392 -0.31214,-0.20533 0.12706,0.56758 -0.0379,0.10373 -0.12516,0.20134 -0.11372,0.31119 0.014,0.13408 0.12407,0.2394 0.18364,0.36033 0.13456,0.27313 0.27915,0.76739 0.57439,0.92261 0.097,0.051 0.219,0.008 0.32849,0.0115 0.61855,0.26166 1.23711,0.52333 1.85566,0.78499 0.002,-0.0216 -0.0109,-0.0515 0.006,-0.0649 0.0528,-0.0411 0.16756,-0.0175 0.18306,-0.0826 0.0171,-0.072 -0.0825,-0.12303 -0.1188,-0.18752 -0.0459,-0.0816 -0.085,-0.1669 -0.12749,-0.25034 -0.052,-0.0885 -0.10409,-0.17701 -0.15613,-0.26552 -0.18469,-0.35605 -0.35911,-0.65489 -0.59484,-0.98173 -0.0694,-0.0962 -0.12711,-0.20219 -0.20926,-0.28772 -0.64895,-0.67567 -1.6888,-0.73551 -2.52887,-1.02019 0.0221,0.0354 0.0436,0.0713 0.0664,0.10635 0.033,0.0508 0.10252,0.0906 0.10098,0.15121 -0.001,0.0501 -0.0894,0.0583 -0.10751,0.10496 -0.0957,0.24607 0.20723,0.43829 0.27075,0.64926 0.19407,0.27869 0.40009,0.5419 0.61292,0.80652 0.0837,0.1041 0.14715,0.22802 0.25009,0.31318 0.20516,0.16972 0.45752,0.27582 0.66446,0.44337 0.11522,0.0933 0.19641,0.22213 0.29462,0.33319 0.34377,0.51425 0.68713,1.03363 0.94115,1.59915 0.056,0.12281 0.12689,0.23992 0.1677,0.36859 0.0176,0.0555 -0.023,0.14894 0.0305,0.17207 2.16974,0.93848 2.25137,1.33211 1.91678,0.45934 -0.10623,-0.26338 -0.21613,-0.53483 -0.2898,-0.80954 -0.0234,-0.0874 -0.0353,-0.17747 -0.0524,-0.2663 -0.0111,-0.0575 0.0216,-0.14972 -0.0323,-0.17264 -0.64185,-0.27309 -1.31872,-0.45514 -1.97808,-0.68272 0.0322,0.003 0.0696,-0.008 0.0965,0.0104 0.2676,0.17988 0.5199,0.83915 0.74351,1.10147 0.20493,0.4307 0.47825,0.82518 0.63974,1.27684 0.14159,0.20288 0.0352,0.0289 0.13868,0.27111 0.0878,0.20549 0.18346,0.3711 0.22263,0.60118 0.0694,0.17595 0.11131,0.35659 0.1725,0.5354 0.0235,0.0688 0.12016,0.31141 0.13722,0.38138 0.017,0.0699 0.0215,0.14225 0.0322,0.21338 0.086,0.33244 0.13797,0.67707 0.33177,0.97042 0.11305,0.40948 0.28885,0.79858 0.31418,1.22833 0.0834,0.44021 0.0906,0.8844 0.0857,1.3316 0.007,0.52662 0.0138,1.05443 -0.0244,1.58006 z" />
    <path
       style="fill:#666666;stroke:#666666;stroke-width:0.264583"
       id="path28"
       d="m 104.98263,176.71783 c 0.26985,-0.5983 0.5294,-1.24873 0.97309,-1.74742 0.11846,-0.13314 0.32816,-0.20094 0.45852,-0.31994 0.0963,-0.088 0.17418,-0.19426 0.26127,-0.2914 0.0931,-0.11614 0.18345,-0.23457 0.27935,-0.34842 0.0853,-0.10121 0.16403,-0.2098 0.26398,-0.29654 0.0484,-0.042 0.11938,-0.1175 0.17342,-0.0831 0.0541,0.0345 0.0464,0.23524 -0.002,0.19257 -2.76474,-2.45928 -2.7962,-3.87875 -2.70155,-2.35936 -0.41882,1.41343 -0.19923,0.50428 2.99396,2.75108 0.10382,0.073 0.1233,-0.22196 0.18265,-0.33418 0.0522,-0.0987 0.0964,-0.20158 0.15189,-0.29843 0.0211,-0.0369 0.10857,-0.0728 0.0773,-0.10153 -0.96543,-0.88701 -1.98715,-1.71073 -2.98073,-2.5661 0.27769,-0.27463 -0.1478,0.29799 -0.11582,0.22116 0.61317,-1.47282 1.80018,1.54542 2.83918,2.46334 0.0659,0.0582 0.0153,-0.17566 0.0351,-0.26129 0.0306,-0.13241 0.0771,-0.26065 0.1156,-0.39098 0.58386,-1.60855 1.24421,0.0828 -2.73606,-2.95406 -0.0719,-0.0549 -0.0214,0.18103 -0.0508,0.26656 -0.10905,0.31682 -0.23019,0.486 -0.40035,0.77043 -0.0459,0.50236 -0.30338,-0.0995 -0.24223,-0.0447 0.91414,0.81919 1.78197,1.68885 2.6889,2.51603 0.0519,0.0474 -0.0865,-0.11159 -0.12025,-0.17325 -0.019,-0.0348 -0.005,-0.0889 -0.0365,-0.1131 -1.03507,-0.79852 -2.09722,-1.56131 -3.14583,-2.34197 -0.0504,0.16776 -0.0982,0.33633 -0.15121,0.50328 -0.0598,0.18814 -0.11472,0.37823 -0.18715,0.56187 -0.0508,0.12893 -0.11087,0.25488 -0.18193,0.37388 -0.0187,0.0313 -0.11057,0.0462 -0.0836,0.0707 2.96105,2.6884 2.84805,3.79704 2.9432,2.37124 -0.70317,1.19094 0.0987,-0.1043 -2.94957,-2.4308 -0.0714,-0.0545 -0.0245,0.17845 -0.0468,0.2655 -0.0794,0.30944 -0.20303,0.55053 -0.40176,0.79616 0.36025,-1.34445 -0.13088,0.3541 2.86591,2.38572 0.14097,0.0956 0.0653,-0.33493 0.11486,-0.49785 0.0271,-0.0888 0.18133,-0.19007 0.11411,-0.25413 -2.97697,-2.83714 -2.36228,-3.61265 -3.22152,-2.16863 -0.87452,1.41604 -1.13631,0.39573 2.68605,2.7559 0.12856,0.0794 0.0699,-0.2948 0.12311,-0.43622 0.13551,-0.36045 0.22044,-0.45417 0.42423,-0.76271 0.0621,-0.0461 0.10912,-0.13351 0.18631,-0.13822 0.0469,-0.003 0.10439,0.15415 0.0695,0.12263 -0.92508,-0.83669 -1.81155,-1.71576 -2.74532,-2.54274 -0.0578,-0.0512 0.0795,0.1334 0.10656,0.20575 0.0195,0.0522 -0.009,0.12541 0.0315,0.16402 0.9668,0.93039 1.97758,1.81398 2.96637,2.72097 0.43395,-0.18645 0.4814,-1.02359 0.87312,-1.20603 0.044,-0.0205 0.12716,0.16053 0.12938,0.16462 0.22303,0.15015 0.5102,-0.42111 0.66115,-0.56566 0.0373,-0.0357 0.11127,-0.13874 0.12646,-0.0894 0.0198,0.0643 -0.0666,0.11692 -0.1,0.17538 -0.91263,-0.8913 -1.78799,-1.82243 -2.73788,-2.67391 -0.0507,-0.0454 -0.006,0.13633 -0.0182,0.20335 -0.007,0.0411 -0.0697,0.0915 -0.0385,0.11925 0.97917,0.86829 1.97048,1.72597 3.01237,2.51791 0.0164,0.0125 0.11397,-0.27146 0.0642,-0.12888 -0.97311,-0.86579 -1.93009,-1.75007 -2.91935,-2.59737 -0.0271,-0.0232 -0.002,0.0734 0.0111,0.10645 0.004,0.01 0.0143,-0.0303 0.0223,-0.0232 0.99298,0.87316 1.92442,1.81833 2.95757,2.64356 0.06,0.0479 0.053,-0.14415 0.0832,-0.21471 0.0331,-0.0773 0.0711,-0.15243 0.10661,-0.22864 0.0245,-0.01 0.0491,-0.0199 0.0736,-0.0298 -0.004,0.0182 -0.0309,0.0596 -0.0128,0.0547 0.25214,-0.069 0.36201,-0.48583 0.45668,-0.68799 0.003,0.002 0.006,0.004 0.009,0.005 -0.97413,-0.89137 -1.92859,-1.80473 -2.92239,-2.67411 -0.0223,-0.0195 -0.0731,0.0528 -0.0512,0.0728 0.95963,0.879 1.91876,1.76184 2.93779,2.57124 0.0585,0.0464 0.005,-0.1497 0.0183,-0.22325 0.0189,-0.10842 0.0512,-0.21408 0.0767,-0.32112 0.0165,-0.0705 0.0985,-0.68217 0.0828,-0.69513 -3.04597,-2.51707 -2.65088,-3.58078 -3.08392,-2.14351 0.52247,-1.27433 -0.0414,0.0418 2.95546,2.52532 0.0378,0.0314 0.0627,-0.17434 0.0229,-0.14561 -0.10889,0.0785 -0.15095,0.39817 -0.25416,0.31234 -2.78969,-2.31987 -2.59721,-4.08198 -2.71632,-2.54711 0.92284,0.98243 1.7503,2.06408 2.76852,2.94728 0.24731,0.21451 0.60103,-1.05593 0.71208,-0.78273 -0.95164,-0.88047 -1.90143,-1.76293 -2.85492,-2.64139 -0.0272,-0.0251 0.0478,0.10462 0.0635,0.009 0.002,-0.0102 -0.0195,0.01 -0.0249,0.0185 -0.0431,0.0699 -0.082,0.14245 -0.11944,0.21559 -0.0572,0.11181 -0.1095,0.22605 -0.16424,0.33908 -0.53985,1.13411 -1.25131,2.17671 -1.93647,3.22735 -0.33582,0.38155 -0.62133,0.80746 -0.98318,1.16636 -0.0667,0.0661 -0.12375,0.15738 -0.21405,0.1831 -0.0393,0.0112 -0.0968,-0.13047 -0.0662,-0.1033 0.9236,0.82121 1.83242,1.6589 2.74863,2.48834 -0.37003,-1.40345 -0.20288,-0.96101 -3.1755,-2.42114 -0.18122,-0.089 -0.12431,0.38442 -0.19704,0.57278 -0.15423,0.3994 -0.31491,0.83152 -0.6368,1.12561 0.82587,-1.37993 0.0982,-0.36528 2.85786,2.4984 0.006,0.006 -0.0267,0.003 -0.0251,-0.005 0.0146,-0.08 0.073,-0.15291 0.0688,-0.23417 -10e-4,-0.0282 -0.0653,0.002 -0.0819,-0.0212 -0.0195,-0.0268 -0.004,-0.0661 -0.006,-0.0992 -1.04721,-0.78804 -2.05263,-1.63489 -3.14162,-2.3641 -0.0599,-0.0401 -0.0701,0.12828 -0.12106,0.17936 -0.0145,0.0146 -0.077,-0.01 -0.0617,0.004 0.94561,0.8493 3.81269,1.66652 2.86619,2.51484 -5.624304,5.04088 -2.53762,-3.95415 -3.15492,-2.11202 0,0 2.90734,2.66756 2.90734,2.66756 v 0 c 0.0313,-0.0777 0.15194,-0.17256 0.094,-0.23311 -0.93471,-0.97718 -3.83995,-3.79972 -2.9652,-2.76852 0.88415,1.04227 1.94916,1.92034 2.99356,2.80196 0.0544,0.0459 0.11686,-0.0833 0.16454,-0.1361 0.0517,-0.0573 0.18365,-0.13493 0.13076,-0.19118 -0.91284,-0.97078 -1.93262,-1.83514 -2.89893,-2.75271 0.12782,0.0238 0.0807,-0.0117 0.06,0.16645 0.0712,0.02 0.12442,-0.11398 0.19725,-0.10135 0.0462,0.008 -0.0965,0.0883 -0.0661,0.12409 2.66462,3.14275 1.5543,3.66131 2.9963,2.82476 0.27071,-0.40139 0.48049,-0.8316 0.67076,-1.27694 0.0743,-0.1738 0.31878,-0.3754 0.20706,-0.52786 -0.80106,-1.09322 -1.8027,-2.0273 -2.77284,-2.9737 -0.0668,-0.0651 0.007,0.18642 0.0112,0.27962 0.97164,0.99155 1.88424,2.04462 2.91493,2.97463 0.0691,0.0623 0.17917,-0.0601 0.25433,-0.11495 0.48722,-0.35543 0.76318,-1.06473 1.20475,-1.46896 0.68271,-1.05474 1.37271,-2.108 1.99205,-3.20073 0.0744,-0.10901 0.14886,-0.21801 0.22329,-0.32702 0.007,-0.0269 0.008,-0.0571 0.0224,-0.0808 0.0442,-0.0711 0.12691,-0.1128 0.17123,-0.18387 0.72492,-1.16249 -1.7724,-5.17668 -2.81952,-2.99037 -0.0596,0.0389 -0.12623,0.0689 -0.17893,0.11685 -0.0643,0.0585 -0.34802,0.49315 -0.33001,0.51068 0.0332,0.0323 0.0691,-0.12729 0.10179,-0.0945 0.90317,0.90502 1.73966,1.87422 2.60949,2.81133 -0.26628,-1.45561 -0.11979,-0.80276 -2.67642,-3.2172 -0.10015,-0.0946 -0.23484,0.15032 -0.32695,0.25274 -0.037,0.0411 -0.0821,0.11967 -0.0441,0.1598 2.84145,3.00142 2.23174,4.0218 2.94153,2.75138 0.0275,-0.0822 0.14026,-0.182 0.0824,-0.24649 -2.2127,-2.46706 -2.70836,-4.25055 -2.91609,-2.74567 -0.0178,0.12857 -0.0574,0.25697 -0.0479,0.38642 0.004,0.0577 0.0326,0.1111 0.0489,0.16666 -0.54589,1.83182 -0.69306,0.30534 2.73612,3.36746 0.03,0.0268 0.10045,-0.0664 0.0731,-0.0958 -2.76945,-2.98353 -2.12525,-3.99579 -2.86082,-2.77052 -0.17875,0.42394 -0.13966,0.35623 -0.48037,0.65432 -0.0956,0.15561 -0.24189,0.37277 -0.21185,0.40429 0.92133,0.9667 1.88911,1.8888 2.86576,2.79958 0.0234,0.0218 0.0363,-0.0539 0.0457,-0.0845 0.0138,-0.0447 0.056,-0.10525 0.0231,-0.13849 -0.95107,-0.95941 -1.95532,-1.8646 -2.93298,-2.79691 -0.95522,1.22684 2.08592,2.4651 2.71903,3.06522 0.0271,0.0257 -0.0143,-0.0754 -0.006,-0.1119 0.0202,-0.0906 0.14816,-0.19117 0.09,-0.26345 -0.85369,-1.06031 -1.82673,-2.01872 -2.74009,-3.02807 -0.26228,0.16842 -0.42729,0.36213 -0.633,0.5904 -0.0239,0.0265 0.15543,-0.26524 -0.0842,-0.0659 -0.69177,0.10758 -0.67728,0.71942 -1.11345,1.12891 0.91565,0.91316 1.82262,1.8351 2.74695,2.73947 0.038,0.0371 -0.0733,-0.083 -0.0848,-0.13486 -0.0218,-0.0984 0.0569,-0.22848 -0.0119,-0.3021 -0.9389,-1.00439 -1.91325,-1.9808 -2.95783,-2.87477 -0.13131,-0.11237 -0.49397,0.31838 -0.5163,0.34082 -0.0895,0.14045 -0.73328,1.18219 -0.65473,1.28459 3.08858,4.02661 2.13481,4.06348 3.06685,2.56135 0.89783,-1.37044 0.42803,-0.45051 -2.50714,-3.19033 -0.0772,-0.0721 -0.0538,0.20457 -0.0884,0.30442 -0.0591,0.17051 -0.2969,0.35893 -0.19239,0.50605 2.43732,3.43103 1.69451,3.94323 2.91007,2.95768 0.20762,-0.29468 0.35908,-0.56915 0.48888,-0.90558 0.61369,-1.59061 0.43981,-0.26395 -2.7532,-3.24423 -0.0417,-0.0389 -0.0733,0.0874 -0.10995,0.13108 -0.53963,1.47244 -0.20129,0.35022 2.85526,3.0261 0.0483,0.0423 0.0615,-0.11285 0.0875,-0.17154 0.19878,-0.44908 0.37525,-0.90944 0.52902,-1.37573 -0.97497,-0.90803 -1.95977,-1.80561 -2.9249,-2.72409 -0.0305,-0.029 0.0896,0.0175 0.11554,0.0505 0.0485,0.0618 0.0388,0.16014 0.0938,0.21619 0.97202,0.98985 1.92407,2.00497 2.97578,2.90969 0.15195,0.13072 0.51252,-0.28763 0.5525,-0.32588 0.0651,-0.10669 0.66424,-1.1096 0.64031,-1.13679 -2.43936,-2.77138 -2.51976,-4.02389 -3.16203,-2.2633 -0.0461,0.12774 -0.0887,0.25684 -0.13843,0.3832 -0.0447,0.1135 -0.21913,0.23929 -0.14486,0.33607 0.18976,0.24726 2.31079,4.38084 3.21478,2.57162 -0.96219,-0.93244 -1.91527,-1.87437 -2.88657,-2.79732 -0.0196,-0.0187 0.0347,0.0525 0.0243,0.0775 -0.0865,0.20869 -0.28357,0.39081 -0.22695,0.44868 2.66698,2.72605 4.15603,2.84741 2.71808,2.70491 0.02,-0.10452 0.1274,-0.23119 0.06,-0.31357 -0.89617,-1.09585 -1.80956,-3.59658 -3.06407,-2.94067 -0.33093,0.17302 -0.48709,0.5759 -0.76164,0.81018 -0.23093,0.23739 -0.52795,0.42725 -0.72663,0.69402 -0.40713,0.54667 -0.67213,1.19286 -1.05323,1.75635 z" />
    <path
       style="fill:#666666;stroke:#666666;stroke-width:0.264583"
       id="path29"
       d="m 102.40183,97.547828 c 1.32231,0.714629 0.22799,0.142261 -2.520668,-3.082782 -0.03723,-0.04368 -0.170092,-0.152725 -0.134064,-0.108048 0.869242,1.077931 1.712612,2.178865 2.636052,3.210738 0.0294,0.03285 0.70624,0.218281 0.76998,0.236376 0.48488,0.190518 0.63899,-0.154948 0.52315,-0.585444 -0.0215,-0.0797 -0.11922,-0.263554 -0.15795,-0.190669 -0.0757,0.142388 -0.13747,0.291708 -0.20621,0.437562 1.9012,1.284735 1.21917,1.698525 -1.64877,-1.841571 -0.0993,-0.122576 0.11452,-0.293986 0.17178,-0.440981 -0.11307,-0.0696 -0.22614,-0.139192 -0.33921,-0.208788 -0.15604,-0.103074 -0.31034,-0.208825 -0.46811,-0.309224 -0.11361,-0.07229 -0.58971,-0.407487 -0.81087,-0.411874 -0.280445,-0.0056 -0.317654,0.391726 -0.310531,0.558289 0.0028,0.06592 0.08782,0.09849 0.131731,0.147738 0.0893,0.184335 0.016,-0.04175 0.002,-0.05314 -0.129777,-0.108765 -0.403973,-0.217054 -0.569679,-0.08937 -0.341193,0.262898 -0.250812,0.51893 -0.247584,0.881906 0.526288,1.96192 1.025663,1.844567 3.464753,3.448521 0.065,0.04276 -0.1106,-0.338524 -0.28676,-0.733999 -0.0946,-0.441447 0.0587,0.09408 0.20344,-0.414102 0.0844,-0.296132 -0.0531,-0.396788 -0.19932,-0.63156 -1.08196,-1.232615 -1.37988,-1.198592 -3.442076,-3.018399 -0.426683,-0.376531 0.310319,0.116359 -0.173694,-0.19024 -1.638186,0.565475 2.31672,5.324451 2.68221,3.04983 0.21778,-1.355378 -1.980681,-1.901272 -2.971021,-2.851906 -0.06638,-0.01717 -0.247185,-0.100418 -0.199123,-0.05152 0.890167,0.905592 1.844614,1.746049 2.744984,2.641502 0.0203,0.02019 -0.1013,0.04359 -0.0831,0.02146 0.022,-0.02686 0.0892,-0.05533 0.0657,-0.08095 -0.9275,-1.012039 -1.905109,-1.976998 -2.857661,-2.965498 -0.163648,-0.02625 -0.236334,-0.209452 -0.381053,-0.263154 -0.493562,-0.183158 -0.453385,0.582811 -0.40889,0.833575 -5.29e-4,1.433584 -0.03516,0.268618 3.109154,2.519159 0.10131,0.07251 -0.0399,-0.323816 0.0914,-0.03949 0.0238,0.05157 0.0402,0.106272 0.0602,0.159409 0.12107,0.22525 0.14902,0.346736 0.38344,-0.376579 0.005,-0.0145 -0.16838,-0.563526 -0.17233,-0.576808 -0.0104,-0.03504 -7.9e-4,-0.13059 -0.0279,-0.106055 -0.11679,0.105725 -0.18501,0.255034 -0.27752,0.38255 0.29157,0.405601 1.10706,0.908468 1.20686,0.03595 0.0142,-0.124322 -0.0722,-0.239633 -0.10827,-0.359449 -0.35639,0.174339 -0.0208,-0.473991 -0.19457,-0.484595 -0.0559,-0.0034 -0.0675,0.102007 -0.0589,0.15734 0.026,0.167412 0.254,0.491566 0.39669,0.55346 0.0846,0.03671 0.1823,-0.02855 0.27344,-0.04283 0.3808,-0.542089 0.16432,-0.144206 0.31027,-0.59921 0.007,-0.02252 0.0317,-0.08395 0.0365,-0.0608 0.0148,0.0718 -0.0355,0.153893 -0.004,0.219917 0.0497,0.102902 0.31386,0.332044 0.23174,0.252598 -0.77805,-0.752682 -1.54661,-1.515121 -2.31991,-2.272679 0.11624,0.120878 0.23441,0.23993 0.34872,0.362633 0.20432,0.219329 0.17365,0.343344 0.39458,-0.23704 0.0197,-0.05182 -0.11595,0.0374 -0.14225,0.08622 -0.25126,0.466423 -0.1667,0.404778 0.0747,0.789022 0.0952,0.128016 0.19001,0.256294 0.28554,0.384053 0.0131,0.01754 0.56956,0.830842 0.58502,0.84255 3.32256,2.516113 3.79911,3.243117 2.82675,1.906074 -0.0848,-0.118218 -0.1696,-0.236437 -0.2544,-0.354655 -0.0153,-0.01254 -0.0357,-0.05455 -0.0458,-0.0376 -0.0643,0.107492 -0.15184,0.223893 -0.14034,0.348641 0.0104,0.112657 0.28028,0.353277 0.19789,0.275744 -3.85537,-3.628057 -3.4094,-3.237662 -2.49092,-2.437085 0.0458,-0.08858 0.13772,-0.166003 0.13753,-0.265745 -5.3e-4,-0.313143 -0.51802,-0.35655 -0.71006,-0.273558 -0.24858,0.107428 -0.292,0.246912 -0.42427,0.458538 -0.1638,0.592302 -1.003997,-0.399544 -1.256105,-0.09903 -0.106386,0.126812 -0.123026,0.307348 -0.184539,0.461023 0.511404,1.360316 0.103698,0.405776 3.043084,2.390294 0.10945,0.07389 -0.15944,-0.210648 -0.23437,-0.319384 -0.0383,-0.05558 -0.0515,-0.132032 -0.10501,-0.173133 -1.00949,-0.774999 -2.02196,-1.54813 -3.072599,-2.26636 -0.153496,-0.104928 0.246065,0.27881 0.369099,0.418217 0.66737,0.738232 0.237643,0.243813 0.74707,0.865777 0.0175,0.0214 0.0466,0.08804 0.0554,0.06181 0.17171,-0.511976 0.0669,-0.393131 -0.30073,-0.740357 -0.126023,-0.11902 -0.246641,-0.243633 -0.369961,-0.36545 -0.08362,-0.07589 -0.317603,-0.318736 -0.250846,-0.227666 0.812797,1.108803 1.645357,2.203267 2.492657,3.285924 0.0789,0.10079 0.19119,0.170368 0.28249,0.260059 0.37497,0.368347 0.76119,0.715878 1.14685,1.0734 0.0693,0.0438 0.13852,0.17482 0.20796,0.13125 0.16102,-0.10103 0.24017,-0.29806 0.32721,-0.467063 0.0144,-0.0279 -0.0249,-0.108458 -0.0437,-0.08335 -0.34047,0.453983 -0.26782,0.387183 0.0961,0.649603 0.11147,0.0804 0.227,0.155 0.3405,0.2325 0.0808,0.0126 0.18749,0.0984 0.24243,0.0378 0.13658,-0.15061 0.21726,-0.36063 0.23406,-0.56326 0.0146,-0.17562 -0.0933,-0.339937 -0.14516,-0.50836 -0.14028,-0.455478 -0.29305,-0.865365 -0.32907,-1.341739 0.004,-0.02 0.0212,-0.07871 0.013,-0.05999 -0.58348,1.326919 0.7366,1.870759 -2.86788,-2.465573 -0.15791,-0.189966 0.62533,-0.460187 -0.0192,-0.492284 -0.0704,0.181017 -0.20688,0.348866 -0.21126,0.543049 -0.002,0.102892 0.1182,0.170479 0.19361,0.240509 1.01,0.937858 2.96585,4.189758 3.21902,2.00854 0.0117,0.107574 -0.0152,0.226883 0.0351,0.32272 0.0585,0.111599 0.36163,0.351057 0.2718,0.262697 -0.85622,-0.842267 -3.63454,-1.966352 -2.57101,-2.524422 1.29822,-0.68122 4.26317,3.792793 2.63057,1.698408 -0.62034,0.323835 0.26082,1.083189 0.34842,0.10414 0.0114,-0.127145 -0.15073,-0.20606 -0.2261,-0.309088 -0.24136,-0.301953 -0.32334,-0.400966 -0.54478,-0.689626 -0.0331,-0.04319 -0.0578,-0.168476 -0.0974,-0.131093 -0.117,0.110521 -0.21651,0.269271 -0.21923,0.430194 -0.002,0.107997 0.13849,0.165795 0.20774,0.248692 -0.84655,-0.825235 -1.6931,-1.650473 -2.53966,-2.475709 0.86247,-1.103442 -3.367733,-3.946601 2.57264,1.903876 0.0263,0.0259 -0.0481,-0.09777 -0.0791,-0.07761 -0.21055,0.137213 -0.13766,0.203589 -0.0742,0.341855 0.17213,0.126021 0.46726,0.394772 0.3924,-0.421198 -0.0164,-0.178723 -0.2496,-0.258045 -0.37038,-0.390797 -0.39426,-0.433351 -0.76256,-0.88814 -1.14492,-1.331712 -1.01919,-1.139788 -0.87996,-0.993129 -3.11939,-2.998808 -0.06099,-0.05462 -0.161374,-0.02799 -0.241463,-0.04498 -0.0638,-0.01355 -0.126077,-0.03383 -0.190034,-0.04661 -0.01762,-0.0035 -0.06515,-0.01609 -0.05384,-0.0021 0.867127,1.069948 1.755157,2.122797 2.632737,3.184194 1.27112,0.833279 2.95664,3.138334 -2.17699,-2.896129 -0.173349,-0.203772 -0.449913,0.106791 -0.43035,0.434723 0.0095,0.159697 0.205473,0.245269 0.308208,0.367903 1.188192,1.184654 2.612592,2.607705 3.674612,3.603845 0.0788,0.07393 0.94694,0.676706 1.13999,0.537228 0.11933,-0.08621 0.16955,-0.240709 0.25432,-0.361063 -0.0802,0.102724 -0.20227,0.183618 -0.24065,0.308173 -0.0185,0.06013 0.0637,0.108519 0.0956,0.162777 -0.8327,-0.824838 -1.65823,-1.656969 -2.49809,-2.474515 -0.10352,-0.100767 0.19191,0.215987 0.28839,0.323511 0.40423,0.450511 0.186,0.19454 0.51101,0.586425 0.0309,0.04611 0.0446,0.110503 0.0926,0.138335 0.0397,0.02305 0.11881,-0.138676 0.0964,-0.09859 -0.17293,0.308623 -0.15981,0.3639 -0.018,0.682125 0.0174,0.04276 0.0411,0.08345 0.052,0.128294 0.0307,0.126153 -0.14303,0.394602 -0.17206,0.521165 -0.0584,0.254413 -0.041,0.2857 -0.0344,0.547005 0.0732,0.5299 0.30617,1.013299 0.46338,1.518785 0.002,0.203385 -0.0701,0.359222 -0.0293,0.572844 0.006,0.03291 0.1168,0.362344 0.17781,0.409314 1.01295,0.77985 2.05503,1.5211 3.08255,2.28165 -0.10149,-0.19883 -0.18113,-0.40079 -0.22175,-0.61964 0,0 -3.05195,-2.522909 -3.05195,-2.522909 v 0 c 0.0336,0.235664 0.0219,0.479372 0.16035,0.685819 1.06459,0.85124 2.12918,1.70249 3.19377,2.55374 -0.11784,-0.13116 -0.3163,-0.28378 -0.37478,-0.45531 -0.0501,-0.14699 0.0665,-0.30592 0.11805,-0.421 -0.099,-0.52204 -0.37389,-0.9764 -0.46828,-1.50152 -0.12021,-0.259408 -0.10525,-0.532969 0.0356,-0.789765 0.045,-0.08202 0.12012,-0.147704 0.15294,-0.235305 0.027,-0.07203 0.0142,-0.153186 0.0213,-0.229777 -0.0484,-0.119896 -0.0606,-0.250677 -0.21087,-0.288714 -0.0379,-0.0096 -0.12511,0.069 -0.11275,0.03195 0.0653,-0.195903 0.44662,-0.188801 0.18093,-0.553154 -0.37454,-0.596299 0.0156,-0.02812 -0.51049,-0.620011 -0.0946,-0.106389 -0.1611,-0.236495 -0.2606,-0.338283 -0.99218,-1.015047 -1.99001,-2.025055 -3.01217,-3.009905 -0.0602,-0.05805 -0.14534,-0.133051 -0.22571,-0.109794 -0.13836,0.04004 -0.22372,0.181477 -0.33557,0.272216 0.0935,-0.05045 0.20908,-0.07272 0.28055,-0.151347 0.0254,-0.028 -0.0722,-0.02373 -0.10591,-0.0408 -0.10781,-0.05455 -0.21808,-0.105993 -0.31813,-0.173729 -0.16326,-0.110527 -0.60307,-0.504687 -0.46961,-0.359579 0.56383,0.613011 3.24685,3.300542 1.75201,1.781469 -0.33513,-0.274423 -0.31045,-0.412295 -0.74196,-0.0463 -0.0332,0.02814 0.14309,0.09012 0.11877,0.05405 -1.27591,-1.892033 -1.27708,-2.551631 -2.651371,-3.341754 0.779161,1.008113 1.128341,2.606432 2.329941,3.030162 0.12099,0.04267 0.44391,0.24098 0.35512,0.148384 -5.113687,-5.332569 -3.28671,-3.356838 -2.43955,-2.438382 0.41935,0.420195 0.7786,0.882907 1.16081,1.336749 0.0984,0.11683 0.14625,0.337302 0.29865,0.347517 0.18707,0.01254 0.34462,-0.164311 0.47866,-0.29541 0.0333,-0.0326 -0.0889,-0.02825 -0.1333,-0.04237 -0.0846,0.004 -0.17784,-0.02545 -0.25371,0.01215 -0.092,0.04557 -0.46093,0.307228 -0.27376,0.511505 0.20014,0.218427 2.25066,3.515551 3.56007,3.028373 0.0853,-0.03175 0.0865,-0.160242 0.12975,-0.240363 -0.96567,-1.020043 -1.91412,-2.056672 -2.89702,-3.060123 -0.2883,-0.294331 -0.48122,-0.346641 -0.80685,0.07173 -0.0382,0.0491 0.56131,0.785802 0.63659,0.88872 0.25521,0.288438 0.22789,0.416261 0.64597,-0.01328 0.031,-0.03184 -0.0629,-0.06413 -0.10111,-0.08686 -0.0599,-0.03565 -0.12261,-0.102978 -0.19038,-0.08661 -0.17175,0.04149 -0.3329,0.133951 -0.4695,0.246013 -0.0356,0.02918 7.9e-4,0.09201 0.001,0.138012 0.77162,1.063431 2.84326,4.21659 3.66655,2.991265 0.7727,-1.15003 -1.93081,-1.988143 -2.9248,-2.953353 -0.10051,-0.09761 -0.21499,-0.201917 -0.35246,-0.229039 -0.16742,-0.03303 -0.33902,0.03945 -0.50853,0.05917 -0.0293,0.04713 -0.23549,0.278918 -0.10126,0.381476 0.0454,0.03472 0.12739,-0.06244 0.16987,-0.02413 0.95397,0.860134 1.84909,1.783376 2.77206,2.676697 0.0674,0.06527 -0.11159,-0.193583 -0.20543,-0.1925 -0.16741,0.0019 -0.30711,0.133453 -0.46067,0.200178 0.11065,0.309179 0.71274,-0.03498 0.63561,-0.135916 -0.84205,-1.101958 -2.15914,-3.639273 -3.17218,-2.692115 -0.0503,0.04702 -0.0462,0.129723 -0.0693,0.194585 0.005,0.514747 0.13469,0.953646 0.29196,1.44394 0.0463,0.144225 0.034,0.328083 0.14568,0.430401 0.0775,0.071 0.21748,0.03055 0.31521,-0.0081 0.0419,-0.01662 -0.0768,-0.04735 -0.11522,-0.07103 -0.0401,-0.02781 -0.68698,-0.481073 -0.71624,-0.48048 -0.1887,0.0038 -0.35196,0.148293 -0.50051,0.26471 -0.0274,0.02148 0.006,0.107794 0.0392,0.09685 0.5899,-0.195323 0.52639,-0.176802 0.29977,-0.365776 -0.39368,-0.35261 -0.76919,-0.723069 -1.157848,-1.080698 -0.107757,-0.09915 -0.4141,-0.408808 -0.332261,-0.287377 1.896079,2.813341 1.287159,2.242653 2.411979,3.244775 0.10439,0.0921 0.71086,0.650505 0.84977,0.674622 0.26009,0.04516 0.73576,-0.06716 0.58937,-0.436229 -0.08,-0.201801 -0.63076,-0.765398 -0.7406,-0.884547 -1.13719,-1.391669 -0.40504,-0.553593 -3.557848,-2.851071 -0.06533,-0.04761 0.08815,0.135562 0.129942,0.204753 0.06654,0.110162 0.09639,0.250526 0.195001,0.333227 3.634445,3.048283 4.083235,3.762449 3.195155,2.429978 -0.1034,0.02299 -0.21129,0.0311 -0.31021,0.06899 -0.0245,0.0094 0.0506,0.01344 0.0757,0.02082 0.13017,0.03827 0.25673,0.09137 0.39013,0.116142 0.38238,0.07099 0.59482,0.104365 0.93177,-0.119751 0.0743,-0.04944 0.10217,-0.146417 0.15325,-0.219628 0.0988,-0.498805 0.7212,0.582139 1.18479,-0.101457 0.0222,-1.586653 0.0489,-0.293671 -2.90323,-3.232509 -0.30154,-0.300197 -0.50958,-0.271106 -0.8338,0.04017 -0.14239,0.13671 0.41035,0.561877 0.27943,0.522113 0.92804,1.460079 0.15654,0.324101 3.46053,2.821361 0.0549,0.04151 -0.10157,-0.09456 -0.14058,-0.151281 -0.077,-0.111953 -0.12805,-0.240382 -0.20551,-0.352002 -0.0904,-0.130212 -0.19778,-0.247727 -0.29667,-0.371591 -0.087,-0.126775 -0.17402,-0.25355 -0.26102,-0.380323 -0.0792,-0.08382 -0.1273,-0.217802 -0.23759,-0.251455 -0.1013,-0.03091 -0.20839,0.04446 -0.30598,0.08561 -0.0214,0.009 -0.0552,0.07322 -0.0369,0.05897 0.67572,-0.526063 0.39479,-0.39514 -0.11138,-0.958549 -1.04742,-1.046048 -2.0694,-2.118188 -3.14224,-3.138143 -0.25006,-0.237731 -0.449962,-0.262144 -0.740816,-0.08924 -0.05707,0.03393 -0.33419,0.468376 -0.03892,0.374327 -0.423741,-0.746546 -1.544624,-0.388075 -0.954997,0.431165 0.148571,0.227576 0.111617,0.333179 0.404984,0.213508 0.02172,-0.0089 -0.03573,-0.03057 -0.05499,-0.044 -0.267378,-0.186317 -0.505646,-0.396991 -0.754446,-0.607734 -0.538028,0.387556 -0.445482,0.194423 -0.275101,0.721815 0.02661,0.08237 -0.01466,0.243665 0.07171,0.249592 1.235305,0.08479 0.326694,-0.242076 0.286745,-0.257773 -0.08026,-0.0075 -0.160891,-0.0333 -0.240792,-0.0226 -0.110213,0.01476 -0.591302,0.281739 -0.464863,0.397894 0.987788,0.907444 2.051259,1.729446 3.051866,2.622743 0.0315,0.02812 -0.0841,-0.0072 -0.1262,-0.01082 -0.065,-0.150744 -0.10932,-0.541595 -0.35189,-0.236157 -0.0394,0.04966 0.49466,0.260498 0.53736,0.277921 -0.837719,-0.946499 -1.750196,-3.86393 -2.502909,-2.848525 -0.03003,0.0405 -0.324064,0.315989 -0.261631,0.385651 2.32667,2.596073 1.69834,2.266519 3.04577,2.928027 -0.87069,-0.890328 -3.834082,-2.431192 -2.61208,-2.670982 1.341818,-0.2633 2.1352,1.708905 3.21056,2.553544 0.0318,0.02498 -0.0567,-0.05858 -0.0779,-0.09298 -0.0253,-0.04095 -0.013,-0.123034 -0.0604,-0.131106 -0.26692,-0.04542 -0.18,0.07677 -0.14527,0.141613 2.07678,0.589161 -3.997283,-4.155191 -1.975676,-2.258655 0.0735,0.07702 0.135356,0.167148 0.220485,0.231081 0.05251,0.03944 0.119211,0.05794 0.183325,0.07217 0.02899,0.0064 0.108119,-0.03399 0.08829,-0.01188 -0.04522,0.05043 -0.122515,0.0614 -0.17309,0.106455 -0.29137,0.259582 -0.220676,0.204237 -0.255188,0.572958 0.604917,1.554035 1.915894,1.982224 3.428194,3.231705 0.0492,0.04063 -0.0909,-0.09101 -0.1248,-0.145068 -0.22916,-0.365914 -0.24978,-0.474986 -0.40852,-0.87952 -0.0314,-0.108707 -0.0469,-0.223293 -0.0941,-0.32612 -0.0158,-0.03443 -0.12341,-0.05698 -0.0884,-0.07144 0.0668,-0.02758 0.14399,0.01217 0.21593,0.01876 0.4486,0.04114 0.74327,0.08592 0.89502,-0.431083 -0.0183,-0.08226 0.0274,-0.228996 -0.055,-0.246768 -0.21124,-0.04557 -0.44633,0.189862 -0.44101,0.194177 0.0654,0.05305 0.15642,0.06373 0.22952,0.105529 0.33838,0.193498 0.65267,0.427255 0.99135,0.620229 0.14166,0.06977 0.26785,0.225036 0.42497,0.209301 0.21215,-0.02125 0.6864,-0.135845 0.5606,-0.307996 -1.01806,-1.393243 -2.48033,-2.665249 -3.96357,-3.632774 -0.18857,0.08989 -0.65059,0.17799 -0.52381,0.344016 0.092,0.120539 0.2584,0.224944 0.41554,0.223674 0.0627,-5.3e-4 0.20268,-0.02082 0.17215,-0.07555 -0.0411,-0.07376 -0.16442,-0.03866 -0.24663,-0.05798 -0.14147,-0.05041 -0.28455,-0.09651 -0.4244,-0.151228 -0.11705,-0.0458 -0.414417,-0.255521 -0.345887,-0.150156 0.682077,1.04871 1.449917,2.040011 2.217527,3.027839 0.0411,0.05295 0.22806,0.123528 0.18896,0.06904 -2.19695,-3.061695 -1.0584,-2.901868 -2.473665,-3.053329 z" />
    <path
       style="fill:#666666;stroke:#666666;stroke-width:0.264583"
       id="path31"
       d="m 110.57723,171.07713 c -0.0294,-0.91487 0.20842,-1.81212 0.31858,-2.71685 0.12371,-0.94821 0.19037,-1.91041 0.36521,-2.85059 0.17231,-0.82508 0.44705,-1.62078 0.66636,-2.43265 0.27206,-1.00327 0.29934,-2.04576 0.33332,-3.07801 0.0302,-0.98576 0.0255,-1.97215 0.03,-2.95824 0.0436,-1.20534 -0.10326,-2.39636 -0.29845,-3.58255 -0.2374,-1.13522 -0.27103,-2.29911 -0.44284,-3.44208 -0.25385,-0.92273 -0.36776,-1.87257 -0.50765,-2.81691 -0.14135,-1.16497 -0.41364,-2.30711 -0.57667,-3.46924 -0.0452,-1.08568 -0.2753,-2.14355 -0.4461,-3.21244 -0.18649,-1.37176 -0.19109,-2.7582 -0.21341,-4.13969 0.0233,-1.30549 -0.0331,-2.60698 -0.11689,-3.90919 -0.0857,-1.32782 -0.1076,-2.65839 -0.11802,-3.98854 -0.0195,-1.25918 -0.0221,-2.51834 -0.0151,-3.77761 0.0114,-1.0384 0.006,-2.07686 0.0131,-3.11528 0.008,-0.94183 0.006,-1.88364 -0.009,-2.8254 -0.0107,-1.28129 -0.0114,-2.56278 -5.3e-4,-3.84408 0.002,-1.03356 0.008,-2.06712 0.009,-3.10068 0.0671,-0.95664 -0.25183,-1.85132 -0.56911,-2.73609 -0.27764,-0.88385 -0.62444,-1.74471 -0.88092,-2.63511 -0.27594,-0.79434 -0.52614,-1.58888 -0.65897,-2.4203 -0.0875,-0.65062 -0.0971,-1.30808 -0.11133,-1.96333 0,0 -2.95798,-2.517189 -2.95798,-2.517189 v 0 c 0.009,0.662189 0.0237,1.324309 0.0659,1.985399 0.0981,0.84908 0.30406,1.66977 0.63238,2.46124 0.22512,0.91337 0.60722,1.77057 0.87018,2.67263 0.31955,0.84337 0.67967,1.70967 0.65229,2.62676 0.002,1.03894 0.007,2.07787 0.009,3.11681 0.0107,1.28096 0.0102,2.56211 -5.2e-4,3.84306 -0.0147,0.93672 -0.0161,1.8735 -0.009,2.81031 0.006,1.0451 10e-5,2.09023 0.0104,3.13532 0.006,1.25834 -7e-5,2.51661 0.004,3.77493 0.0256,1.34115 0.0665,2.682 0.13065,4.02189 0.0679,1.29656 0.14915,2.59021 0.12041,3.88966 0.0154,1.38879 0.0603,2.77893 0.16704,4.16382 0.12894,1.07597 0.43268,2.11944 0.44778,3.20887 0.13914,1.16621 0.43642,2.30302 0.56943,3.46809 0.12352,0.94365 0.21487,1.9025 0.47087,2.82057 0.2971,1.09441 0.22195,2.35995 0.50814,3.47408 0.18952,1.15746 0.34568,2.31517 0.28763,3.4923 0.008,0.98862 0.0109,1.97735 -0.002,2.96594 -0.0259,1.00322 -0.0542,2.01488 -0.29089,2.99524 -0.21799,0.82122 -0.52398,1.6135 -0.67956,2.45253 -0.20787,0.9438 -0.25713,1.92173 -0.38055,2.87952 -0.0568,0.48354 -0.12564,0.96124 -0.21281,1.44033 -0.0561,0.30832 -0.13652,0.61281 -0.17344,0.92401 -0.0136,0.11475 -0.007,0.23101 -0.0105,0.34652 z" />
    <path
       style="fill:#ffffff;stroke:#ffffff;stroke-width:0.264583"
       id="path35"
       d="m 85.761652,141.1994 c -0.42463,-0.72671 -0.840216,-1.47086 -1.189252,-2.23862 -0.296707,-0.47379 -0.177009,-1.42191 -0.63481,-1.75827 -0.357817,0.0514 -0.729874,0.0418 -1.073454,0.15422 -0.06702,0.0219 -0.02762,0.13848 -0.0356,0.20854 -0.01331,0.11701 -0.0074,0.26304 -0.0029,0.26229 1.143336,-0.18778 1.026821,0.059 1.003268,-0.63705 0.0084,-0.76871 -0.183039,-1.50949 -0.321696,-2.25719 -0.0118,-0.0983 -0.02671,-0.19621 -0.03538,-0.29481 -0.02564,-0.2915 -0.03742,-0.6146 -0.04626,-0.90591 -0.0033,-0.1082 -0.0047,-0.21645 -0.0063,-0.32469 -5.29e-4,-0.0407 0.04004,-0.12284 -5.29e-4,-0.12207 -0.335725,0.006 -0.664961,0.094 -0.997442,0.14099 -0.01598,0.34854 -0.06047,0.77366 0.92683,-0.21413 0.130828,-0.13089 -0.06234,-0.36487 -0.08906,-0.54799 -0.06968,-0.47748 -0.117782,-0.95587 -0.207727,-1.43008 -0.349938,0.042 -0.832202,0.40311 -1.049819,0.12587 -0.201007,-0.25608 0.682206,-0.067 0.939651,-0.26622 0.11539,-0.0893 -0.02453,-0.29086 -0.03156,-0.43661 -0.02093,-0.433 -0.02434,-0.86695 -0.01201,-1.30019 -0.329075,0.0451 -0.692216,-0.0173 -0.987224,0.13536 -0.0208,0.0107 0.01963,0.92046 0.01799,1.25356 -2.65e-4,0.0605 -0.06453,0.17838 -0.0041,0.1814 0.333772,0.0167 0.662559,-0.088 0.993836,-0.13198 -0.01138,-0.83957 -0.02524,-1.67953 -0.01146,-2.51918 0.0016,-0.0956 0.104777,-0.27007 0.01061,-0.28667 -0.326904,-0.0576 -0.659498,0.0762 -0.989246,0.11424 0.329928,-0.0912 0.71301,-0.0722 0.989788,-0.27358 0.131471,-0.0957 0.03244,-0.3236 0.0526,-0.48495 0.09077,-0.72647 0.190203,-1.45292 0.300513,-2.17671 0.138417,-0.38515 0.253604,-0.56509 -0.904642,-0.0375 -0.02674,0.0122 0.04754,0.8672 0.110472,0.87005 0.361849,0.0164 0.717473,-0.10024 1.076211,-0.15036 0.204359,-0.45031 0.208854,-0.98902 0.437041,-1.42897 0.02328,-0.0449 0.177068,-0.0919 0.12735,-0.0826 -1.016413,0.19133 -0.95223,-0.0501 -0.821172,0.55972 0.09422,0.52458 0.116531,0.7376 1.087049,0.0623 0.0011,-5.3e-4 0.01021,-1.55375 0.01061,-1.67142 0.0034,-0.10026 0.0068,-0.20051 0.01027,-0.30076 0.0026,-0.005 0.01365,-0.0157 0.008,-0.0152 -2.406218,0.21234 -0.236132,0.10564 0.02215,-0.0168 0.107177,-0.0508 0.02289,-0.23611 0.03431,-0.35416 0.06118,-0.33638 0.112517,-0.67742 0.213241,-1.00543 0.02132,-0.0694 0.163721,-0.20028 0.09117,-0.19779 -1.238842,0.0424 -0.824587,0.0323 -0.927269,0.61162 0.331528,-0.0716 0.701016,-0.045 0.994582,-0.21492 0.104783,-0.0606 0.0028,-0.2421 0.0043,-0.36316 0.0074,-0.59114 0.02713,-1.17711 -0.03537,-1.76602 -0.182322,-0.36478 -0.132665,-0.32067 -1.057748,0.18763 -0.09396,0.0516 -0.01336,0.21406 -0.02479,0.32065 -0.0056,0.0525 -0.07897,0.16105 -0.02638,0.15625 0.340844,-0.0311 0.705088,-0.0665 0.997149,-0.24493 0.107963,-0.066 0.01579,-0.25254 0.02371,-0.37882 0.03287,-0.73719 0.421455,-1.23571 -0.937971,-0.6708 -0.09139,0.038 -0.0114,0.19762 -0.01961,0.29624 -0.0069,0.0825 -0.01712,0.16477 -0.02569,0.24716 -0.0996,0.39619 -0.139523,0.42053 0.980448,-0.008 0.08866,-0.0339 0.0104,-0.18974 0.02259,-0.28388 0.02307,-0.17831 0.05033,-0.35617 0.08312,-0.53295 0.05843,-0.315 0.217297,-1.01434 0.286313,-1.32399 0.318268,-1.13431 0.719635,-2.23983 1.137539,-3.34029 0.294762,-0.59635 0.134258,-0.31594 0.476126,-0.84431 0,0 -0.972606,-0.0551 -0.972606,-0.0551 v 0 c -0.338169,0.5431 -0.178869,0.25594 -0.472876,0.86426 -0.417396,1.10452 -0.814465,2.2152 -1.129173,3.35428 -0.03334,0.14898 -0.483296,2.1264 -0.424746,2.15244 0.974121,0.43324 0.936035,0.43247 0.999762,0.027 0.0077,-0.0829 0.01511,-0.16587 0.02304,-0.24877 0.0093,-0.0972 0.117319,-0.25078 0.02859,-0.29156 -1.215327,-0.55858 -0.954916,-0.0796 -1.033677,0.65103 -0.05303,0.6511 -0.169635,0.53159 0.949584,0.64434 0.05374,0.005 0.01177,-0.1074 0.01725,-0.16113 0.01066,-0.10433 0.124963,-0.26607 0.03121,-0.31307 -0.753129,-0.37759 -1.196793,0.0915 -0.916443,-0.19115 0.08989,0.58214 0.05845,1.16429 0.04074,1.75102 -0.0037,0.12122 -0.116041,0.30045 -0.01251,0.3636 0.288229,0.17582 0.65754,0.15362 0.986311,0.23044 0.06896,-0.65741 -0.01032,-0.64306 -1.052962,-0.66337 -0.07524,-0.002 -0.05549,0.14023 -0.07535,0.21282 -0.04434,0.1621 -0.08117,0.3262 -0.117012,0.49039 -0.0382,0.175 -0.07005,0.35132 -0.105082,0.52698 -0.01513,0.11586 -0.147325,0.29046 -0.04539,0.34757 0.270801,0.15171 2.33711,0.24938 -0.03081,0.0371 -0.005,-5.3e-4 0.0058,0.008 0.0087,0.0123 0.0029,0.1002 0.0057,0.20039 0.0086,0.30057 -0.0028,0.43579 -0.0024,0.78402 -0.01487,1.21816 -0.0043,0.14827 -0.142042,0.36199 -0.01884,0.4446 0.274042,0.18375 0.647031,0.12962 0.970704,0.19362 0.01273,0.003 -0.02522,-0.006 -0.03782,-0.009 -0.01717,-0.0858 -0.03435,-0.17158 -0.05152,-0.25737 -0.02244,-0.11622 0.0367,-0.29222 -0.06734,-0.34867 -0.15985,-0.0867 -0.996386,-0.59107 -1.192757,-0.13905 -0.04111,0.0946 -0.283848,0.93778 -0.300517,0.9891 -0.04604,0.14172 -0.101663,0.28014 -0.152495,0.42021 0.300633,0.0551 0.596262,0.16756 0.901901,0.16537 0.06209,-5.3e-4 -0.06303,-0.11005 -0.07314,-0.17131 -0.01955,-0.11855 -0.009,-0.24015 -0.01458,-0.36018 -0.0052,-0.11098 0.0844,-0.28932 -0.01783,-0.33284 -1.008562,-0.42936 -0.959109,-0.39551 -1.065299,0.0529 -0.09712,0.72665 -0.195051,1.45292 -0.296596,2.17894 -0.02312,0.16535 -0.193751,0.3897 -0.06548,0.49657 0.262956,0.21909 0.659807,0.18232 0.989711,0.27348 -0.32983,-0.0381 -0.662503,-0.17179 -0.989489,-0.1142 -0.09417,0.0166 0.0087,0.19108 0.01013,0.28669 0.01265,0.83919 -7.94e-4,1.67879 -0.01828,2.51779 0.329996,0.044 0.657479,0.14857 0.989992,0.13205 0.06026,-0.003 -0.0077,-0.12045 -0.0091,-0.18076 -0.0079,-0.33122 0.0232,-1.24185 -0.0021,-1.25472 -0.297299,-0.1517 -0.661567,-0.089 -0.992352,-0.13354 0.0117,0.43531 0.0092,0.87098 0.02312,1.30621 0.0048,0.14929 -0.100052,0.36202 0.02241,0.44753 0.294188,0.20542 0.818221,0.007 1.036169,0.29163 0.189812,0.24823 -0.617214,-0.0982 -0.925822,-0.14732 0.113102,0.47031 0.162203,0.94384 0.223406,1.42346 0.02357,0.18483 -0.07614,0.44339 0.07373,0.5541 1.074343,0.79368 1.049163,0.60042 1.049951,0.19668 -0.329798,-0.0462 -0.656442,-0.13217 -0.989393,-0.13848 -0.04019,-7.9e-4 0.01,0.0798 0.01246,0.11996 0.0067,0.10818 0.01109,0.2165 0.01521,0.32482 0.0096,0.25188 0.01736,0.65749 0.036,0.91375 0.0073,0.10071 0.02199,0.20074 0.03298,0.30111 0.129561,0.74434 0.370142,1.47254 0.328494,2.24212 0.01085,0.67407 -0.112231,0.41865 0.972177,0.62487 0.024,0.005 -0.0099,-0.0481 -0.01035,-0.0725 -0.009,-0.57337 0.389125,-0.3599 -0.861174,-0.42076 0.03451,-5.3e-4 0.07913,-0.0263 0.103526,-0.002 0.319103,0.31938 0.279704,1.278 0.542904,1.67947 0.177331,0.39654 0.399047,0.75371 0.596238,1.13877 0.190979,0.37294 0.328245,0.77662 0.581626,1.1166 z" />
  </g>
</svg>
