<?xml version="1.0" encoding="UTF-8" standalone="no"?>
<!-- Created with Inkscape (http://www.inkscape.org/) -->

<svg
   width="210mm"
   height="297mm"
   viewBox="0 0 210 297"
   version="1.1"
   id="svg1"
   inkscape:version="1.4.2 (f4327f4, 2025-05-13)"
   sodipodi:docname="bow1Asset - kopie.svg"
   xmlns:inkscape="http://www.inkscape.org/namespaces/inkscape"
   xmlns:sodipodi="http://sodipodi.sourceforge.net/DTD/sodipodi-0.dtd"
   xmlns="http://www.w3.org/2000/svg"
   xmlns:svg="http://www.w3.org/2000/svg">
  <sodipodi:namedview
     id="namedview1"
     pagecolor="#ffffff"
     bordercolor="#000000"
     borderopacity="0.25"
     inkscape:showpageshadow="2"
     inkscape:pageopacity="0.0"
     inkscape:pagecheckerboard="0"
     inkscape:deskcolor="#d1d1d1"
     inkscape:document-units="mm"
     inkscape:zoom="1.5162318"
     inkscape:cx="282.27874"
     inkscape:cy="498.27473"
     inkscape:window-width="1920"
     inkscape:window-height="1111"
     inkscape:window-x="-9"
     inkscape:window-y="-9"
     inkscape:window-maximized="1"
     inkscape:current-layer="layer1" />
  <defs
     id="defs1" />
  <g
     inkscape:label="Vrstva 1"
     inkscape:groupmode="layer"
     id="layer1">
    <path
       style="fill:#000000;stroke:#806600;stroke-width:0.264583"
       id="path3"
       d="m 87.707829,105.4504 c -0.928929,0.70685 -1.662409,1.59381 -2.29684,2.56456 -0.138224,0.26323 -0.291399,0.51913 -0.414671,0.78968 -0.366017,0.8033 -0.439783,1.17943 -0.700302,2.0529 -0.346945,1.16325 -0.68617,2.32604 -1.004639,3.49744 -0.623313,2.26225 -1.121799,4.55223 -1.616212,6.84435 -0.403246,1.99509 -0.821169,3.98083 -0.997464,6.01045 -0.145994,2.33109 -0.200326,4.66985 -0.167695,7.00527 0.03775,2.1127 0.400521,4.20087 0.645517,6.29553 0.232773,1.89903 0.963986,3.68215 1.684017,5.43914 1.03118,2.06817 2.021576,4.15208 2.900434,6.29021 0.155059,0.38921 0.31114,0.77802 0.465172,1.16765 0.47262,1.19548 0.451641,1.23883 1.046888,2.41669 0.611362,1.20973 1.322829,2.36336 2.029939,3.51811 1.325885,2.16754 2.751097,4.26307 4.258468,6.30733 1.177925,1.51056 2.551295,2.84994 3.828026,4.27385 0.625991,0.69816 1.235395,1.41101 1.853933,2.11578 0.80538,0.93088 1.68194,1.83984 2.37091,2.85791 6.24372,2.55155 4.14464,2.15518 3.14359,1.07471 -0.26652,-0.28766 -0.49808,-0.60355 -0.75052,-0.90338 -0.46903,-0.51583 -0.88095,-1.0786 -1.36806,-1.57775 -0.60018,-0.57741 -1.18058,-1.17518 -1.78634,-1.74732 -0.56788,-0.50739 -0.988497,-1.14988 -1.449433,-1.75088 -0.563742,-0.62654 -1.106339,-1.27082 -1.640599,-1.9226 -0.541584,-0.65574 -1.100447,-1.2971 -1.638295,-1.95578 -0.398547,-0.55332 -0.866449,-1.04963 -1.256249,-1.60865 -0.600343,-0.73768 -1.074508,-1.56964 -1.508327,-2.41315 -0.510598,-1.00041 -1.102402,-1.95867 -1.585928,-2.97275 -0.405146,-0.85782 -0.979487,-1.61753 -1.446633,-2.441 -0.495747,-0.97997 -1.00194,-1.95708 -1.436344,-2.96619 -0.347376,-0.67547 -0.531378,-1.41151 -0.804201,-2.11574 -0.223909,-0.75466 -0.501427,-1.49046 -0.723958,-2.24578 -0.232315,-0.97874 -0.432541,-1.96267 -0.671348,-2.94074 -0.27722,-0.94737 -0.351886,-1.93382 -0.602068,-2.88609 -0.192965,-0.83132 -0.389707,-1.65917 -0.599868,-2.4867 -0.200163,-0.87946 -0.264255,-1.78018 -0.296177,-2.67903 -0.03183,-0.93236 -0.01905,-1.86523 -0.02728,-2.79787 -0.01214,-1.16498 -0.0034,-2.32991 0.0016,-3.49489 -0.02691,-1.42802 -0.04278,-2.85508 0.141023,-4.27342 0.235564,-1.44664 0.429236,-2.89977 0.626218,-4.35214 0.235125,-1.57901 0.617562,-3.12039 1.077349,-4.64688 0.563801,-1.85467 1.303369,-3.64959 2.053289,-5.4351 0.645527,-1.39372 1.312584,-2.78061 2.044734,-4.13104 0.768024,-1.24428 1.568672,-2.47116 2.414484,-3.66448 0.862079,-1.12516 1.686568,-2.27571 2.554155,-3.39677 0.802304,-1.16691 1.744004,-2.215182 2.745828,-3.211847 0.685945,-0.742312 1.409648,-1.44913 2.071578,-2.213451 0.46284,-0.522078 0.94954,-1.024546 1.48052,-1.479111 0.0401,-0.02656 0.0802,-0.05311 0.12033,-0.07967 0,0 -3.367851,-2.105679 -3.367851,-2.105679 v 0 c -0.03411,0.0354 -0.06823,0.0708 -0.102343,0.106207 -0.523468,0.486777 -1.028094,0.9956 -1.500272,1.531781 -0.633802,0.768382 -1.324446,1.488363 -1.999464,2.219693 -1.005182,1.014621 -1.946823,2.084461 -2.773892,3.250687 -0.876162,1.1216 -1.66638,2.30265 -2.552875,3.41625 -0.860991,1.20124 -1.642065,2.45667 -2.437627,3.70163 -0.763889,1.35072 -1.369891,2.78593 -2.018861,4.19407 -0.749937,1.79907 -1.509982,3.59805 -2.089486,5.46128 -0.457409,1.54308 -0.905018,3.086 -1.147103,4.68131 -0.171273,1.4567 -0.371875,2.91048 -0.608979,4.35791 -0.197868,1.42572 -0.201115,2.86253 -0.201493,4.30011 0.0038,1.16427 0.01072,2.3285 -0.0052,3.49272 -0.01082,0.93409 -0.0087,1.86856 0.0042,2.80258 0.03392,0.92131 0.08498,1.84448 0.272886,2.74978 0.08822,0.43278 0.236622,0.84191 0.330769,1.27144 0.08923,0.40713 0.114461,0.83084 0.247994,1.22941 0.05588,0.17778 0.208372,0.64733 0.241837,0.82119 0.13222,0.68698 0.160665,1.39758 0.392573,2.06626 0.25577,0.97423 0.428093,1.96006 0.650557,2.94154 0.02688,0.10142 0.194234,0.73828 0.231251,0.85773 0.03829,0.12356 0.08519,0.24427 0.127784,0.36641 0.04705,0.10346 0.105806,0.20236 0.14116,0.31038 0.07836,0.23942 0.07721,0.50113 0.19199,0.73098 0.07551,0.21599 0.184771,0.41927 0.258595,0.63584 0.0405,0.11881 0.05132,0.24599 0.08613,0.36659 0.114678,0.39729 0.28943,0.77631 0.478277,1.14274 0.426164,1.02068 0.942657,1.99984 1.421862,2.99629 0.417293,0.84652 1.001372,1.58519 1.442885,2.41728 0.468672,1.03289 1.091181,1.98685 1.611489,2.99435 0.40195,0.84859 0.84704,1.70889 1.422749,2.45013 0.506273,0.655 -0.18343,-0.25275 0.345575,0.50032 0.280837,0.39978 0.674235,0.70821 0.934988,1.12754 0.501218,0.69652 1.105738,1.31159 1.643777,1.97906 0.549272,0.6263 1.019349,1.32229 1.619816,1.9026 0.498581,0.59165 0.896956,1.25558 1.431544,1.81697 0.639172,0.52149 1.202761,1.13947 1.766324,1.741 0.56729,0.41488 0.933362,1.02776 1.400104,1.5448 0.3003,0.2955 0.47091,0.59054 0.73336,0.90831 1.11886,1.35472 1.05997,0.98731 4.1498,2.03897 -0.10436,-0.11495 -0.0267,-0.0254 -0.20387,-0.29121 -0.11198,-0.13548 -0.24476,-0.25263 -0.35921,-0.38603 -0.66914,-0.77987 -1.28419,-1.60821 -2.01843,-2.33163 -0.9789,-1.09071 -1.93266,-2.20378 -2.923557,-3.2837 -0.455387,-0.4963 -1.442955,-1.52494 -1.895258,-2.04154 -0.2926,-0.3342 -0.568333,-0.6828 -0.8525,-1.0242 -1.521317,-2.03593 -2.961979,-4.12026 -4.292897,-6.2869 -0.942882,-1.52235 -1.912617,-3.04279 -2.630543,-4.68896 -0.168857,-0.38718 -0.306004,-0.78743 -0.460425,-1.18059 -0.153495,-0.3908 -0.30888,-0.78085 -0.463322,-1.17127 -0.868141,-2.12754 -1.793389,-4.22922 -2.851486,-6.26989 -0.727911,-1.72479 -1.436804,-3.48679 -1.728677,-5.34574 -0.268756,-2.08418 -0.613719,-4.1672 -0.679783,-6.27027 -0.07244,-2.32199 -0.01283,-4.64874 0.147719,-6.9662 0.201499,-2.01034 0.570013,-3.98804 0.994932,-5.96255 0.471974,-2.29288 0.883398,-4.60152 1.563981,-6.84634 0.32458,-1.16448 0.64068,-2.32907 1.007729,-3.48115 0.21404,-0.67182 0.410265,-1.32414 0.7142,-1.96117 0.122423,-0.2566 0.276212,-0.49701 0.414319,-0.74552 0.640541,-0.91288 1.363295,-1.78067 2.307818,-2.39527 z" />
    <path
       style="fill:#000000;stroke:#806600;stroke-width:0.264583"
       id="path4"
       d="m 83.924044,146.46214 c 0.45398,1.0592 1.061225,2.04231 1.622872,3.04634 0.662024,1.06604 1.326883,2.12964 1.972013,3.20664 0.883402,1.30194 1.806851,2.57129 2.642775,3.9063 0.91186,1.61712 2.009537,3.11674 2.958052,4.71011 0.671952,1.27764 1.469523,2.47076 2.276325,3.6644 0.725548,1.28532 1.714907,2.36232 2.683438,3.46079 0.657159,0.70024 1.369782,1.34615 2.086771,1.98418 0.78971,0.62538 1.39483,1.41809 2.00973,2.20472 0.39075,0.61218 0.94692,1.09138 1.39794,1.65077 0.0438,-0.10103 0.19444,-0.42049 0.17008,-0.51216 -0.0174,-0.0656 -0.24493,-0.11659 -0.18613,-0.0827 1.01128,0.58373 2.02968,1.15505 3.04452,1.73258 0,0 -3.65281,-1.43255 -3.65281,-1.43255 v 0 c 1.23269,0.72524 2.46505,1.45103 3.69807,2.17572 0.0626,0.0368 0.11733,0.12177 0.18876,0.10871 0.26889,-0.0492 0.3164,-0.26734 0.40941,-0.46481 -0.35635,-0.30473 0.30045,0.2662 -0.26803,-0.28363 -0.09,-0.0871 -0.19701,-0.15536 -0.28727,-0.24219 -0.35019,-0.33684 -0.62905,-0.73591 -0.92678,-1.11717 -0.63593,-0.7748 -1.17604,-1.63227 -1.97571,-2.2597 -0.71478,-0.64892 -1.442,-1.28263 -2.13538,-1.95489 -0.96572,-1.10074 -2.02044,-2.1268 -2.734899,-3.42406 -0.77338,-1.2116 -1.624958,-2.37148 -2.291633,-3.65019 -0.936565,-1.61321 -2.072566,-3.09857 -2.981548,-4.73075 -0.812895,-1.31889 -1.650529,-2.61803 -2.570461,-3.86519 -0.634571,-1.08551 -1.312815,-2.14301 -1.985235,-3.20419 -0.414488,-0.72504 -0.21268,-0.35846 -0.605261,-1.09984 -0.343548,-0.61271 -0.761039,-1.19422 -0.964501,-1.87523 z" />
    <path
       id="path5"
       style="fill:#000000;stroke:#806600;stroke-width:0.264583"
       d="m 100.92097,80.034908 c -0.69134,-0.02132 -1.379527,0.03894 -2.05672,0.199988 -1.003946,0.182139 -1.925762,0.608698 -2.881995,0.939477 -0.878255,0.378696 -1.691631,0.838813 -2.45153,1.418002 -0.278654,0.254971 -0.706577,0.624698 -0.506946,1.062467 0.03516,0.07709 0.298224,0.290067 0.35295,0.33693 0.620821,0.38725 1.166125,0.876769 1.747697,1.318266 0.797029,0.664816 1.674473,1.220888 2.511475,1.83193 0.950124,0.630496 1.263839,1.451427 1.538924,2.515092 0.259574,1.138301 0.09098,2.294398 -0.198437,3.407027 -0.184899,0.565845 -0.39886,1.107021 -0.781865,1.565279 l 3.371367,2.011764 c 0.39046,-0.520068 0.63013,-1.104004 0.83664,-1.720309 0.30055,-1.164865 0.49609,-2.383003 0.27286,-3.58066 -0.14926,-0.708589 -0.31222,-1.506528 -0.73381,-2.115633 -0.18257,-0.263766 -0.43216,-0.435511 -0.67696,-0.633036 -0.80283,-0.658035 -1.733226,-1.144918 -2.509924,-1.838131 -0.414425,-0.305589 -0.820111,-0.620657 -1.210779,-0.956014 -0.08176,-0.07019 -0.149785,-0.156103 -0.237195,-0.219108 -0.07769,-0.056 -0.169128,-0.08999 -0.253731,-0.134876 -0.06878,-0.0398 -0.140367,-0.07562 -0.206706,-0.119372 -0.05864,-0.03867 -0.100379,-0.106185 -0.167432,-0.127124 -0.05822,-0.01818 -0.124368,0.03679 -0.182417,0.01809 -0.202301,-0.06517 0.34409,-0.540134 0.335896,-0.534335 0.738031,-0.545166 1.542654,-0.969539 2.391586,-1.318265 0.932072,-0.348305 1.852322,-0.730923 2.840652,-0.898137 0.8907,-0.145476 1.78912,-0.165119 2.68459,-0.03359 0.10003,0.01673 0.19921,0.03403 0.29766,0.05271 0.20698,0.234071 0.39998,0.482229 0.58239,0.744141 0.51821,0.462711 0.76562,1.10206 1.15652,1.664498 0.4159,0.61532 0.6482,1.372661 0.74931,2.104781 0.0677,0.886482 -0.0629,1.779017 -0.21704,2.651001 -0.19986,0.89853 -0.43821,1.802292 -0.83148,2.636532 -0.62488,1.290603 -1.2909,2.557743 -2.01641,3.795634 -0.6946,1.090565 -1.43251,2.153376 -2.20297,3.191019 -0.61992,0.801657 -1.22516,1.613757 -1.74304,2.486157 -0.525988,0.91665 -1.047805,1.83528 -1.551847,2.76417 -0.53181,1.20774 -1.059198,2.41889 -1.686718,3.58118 -0.953381,1.86883 -1.677925,3.83681 -2.604493,5.71851 -0.807347,1.78744 -1.555425,3.60139 -2.013313,5.51387 -0.490749,1.72969 -0.962929,3.47577 -1.198377,5.26118 -0.206774,1.57912 -0.167407,3.1655 -0.210323,4.75527 -0.06288,1.46277 -0.195052,2.92362 -0.192753,4.38836 0.0021,1.16869 -0.01122,2.3398 0.114722,3.50366 0.116909,1.21603 0.357735,2.42205 0.380338,3.64371 0.03791,1.2832 0.05666,2.57863 0.321428,3.83956 0.314812,1.24457 0.754694,2.44829 1.097607,3.68349 0.377122,1.32158 0.702947,2.64983 0.949296,4.00286 0.05571,0.18857 0.09448,0.38306 0.166915,0.56586 0.05805,0.14651 0.408056,0.74397 0.479041,0.87436 0.25124,0.46147 0.509034,0.91505 0.798917,1.35444 0.68697,0.97026 1.486721,1.85848 2.138371,2.85564 0.311378,0.44766 0.550461,0.93189 0.848527,1.387 0.06222,0.095 0.144257,0.17622 0.203088,0.27336 0.06435,0.10626 0.109976,0.2229 0.164848,0.33435 0.05231,0.075 0.369709,0.53424 0.425297,0.59893 0.349237,0.40644 0.811849,0.71108 1.070219,1.19889 0.20797,0.2467 0.39752,0.50827 0.60668,0.75396 0.39361,0.46237 0.85389,0.87071 1.20406,1.37098 0.1532,0.23544 0.27961,0.4445 0.45889,0.66146 0.0853,0.10319 0.18927,0.19022 0.27182,0.29559 0.27233,0.34757 0.49064,0.74164 0.78186,1.07642 0.64536,0.68699 1.19761,1.45123 1.77819,2.19211 0.49162,0.75961 1.00808,1.49872 1.48053,2.26911 0.57782,0.84841 1.2073,1.6606 1.75648,2.52956 l 3.63492,1.53841 c -0.49571,-0.62164 -0.94922,-1.27471 -1.40353,-1.92701 -0.39766,-0.14159 -0.78082,-0.35746 -1.1343,-0.59273 -0.95052,-0.72045 -1.46303,-1.35198 -1.82469,-2.50476 -0.18983,-0.58634 -0.35741,-1.17833 -0.49817,-1.77663 -0.0604,-0.0712 -0.12125,-0.14196 -0.18241,-0.21239 -0.51919,-0.65099 -1.03748,-1.30603 -1.52446,-1.9818 -0.54823,-0.76499 -1.21302,-1.43336 -1.80661,-2.16214 -0.43505,-0.64121 -1.02001,-1.15298 -1.48673,-1.76681 -0.42358,-0.65891 -0.8212,-1.33384 -1.24643,-1.99161 -0.65947,-1.00138 -1.437871,-1.91569 -2.151809,-2.87683 -0.565057,-0.85597 -1.103602,-1.73597 -1.487248,-2.68873 -0.309885,-1.34104 -0.615334,-2.67592 -0.993738,-4.00027 -0.323946,-1.22835 -0.741384,-2.42833 -1.065051,-3.65714 -0.302347,-1.23205 -0.341192,-2.50381 -0.371037,-3.76566 -0.0057,-1.23032 -0.235855,-2.44482 -0.362252,-3.66644 -0.103264,-1.15691 -0.129752,-2.31859 -0.145727,-3.47938 -0.01228,-1.46308 0.113773,-2.92291 0.160197,-4.38526 0.07024,-1.57937 0.02373,-3.15955 0.186551,-4.73304 0.221522,-1.76751 0.68578,-3.49823 1.164787,-5.21106 0.454544,-1.89446 1.164941,-3.70236 1.971973,-5.47046 0.916872,-1.88072 1.618372,-3.84898 2.594674,-5.70146 0.66824,-1.14889 1.24111,-2.3461 1.76733,-3.56516 0.50911,-0.91099 1.03054,-1.81327 1.54099,-2.72335 0.53707,-0.83618 1.10009,-1.65623 1.71153,-2.43964 0.76684,-1.05702 1.51367,-2.128928 2.18591,-3.248901 0.72274,-1.250085 1.39681,-2.526368 2.06964,-3.803385 0.45729,-0.841777 0.67529,-1.789029 0.88419,-2.717664 0.19176,-0.897085 0.2946,-1.811854 0.28732,-2.729032 -0.0413,-0.795205 -0.3182,-1.561963 -0.66353,-2.27273 -0.3659,-0.586705 -0.68663,-1.199324 -1.11414,-1.744596 -0.52048,-0.636233 -1.03319,-1.260961 -1.66398,-1.792139 -1.91595,-1.43039 -3.69244,-2.591735 -5.98465,-2.872693 -0.23091,-0.02455 -0.4615,-0.04043 -0.69195,-0.04754 z" />
    <path
       id="path7"
       style="fill:#502d16;stroke:#806600;stroke-width:0.932716"
       transform="scale(0.26458333)"
       d="m 392.52735,312.06641 c -0.85123,0.0249 -1.90146,0.10918 -3.24219,0.23438 -7.35981,0.68727 -24.63757,7.78324 -22.66016,9.30664 0.21905,0.16876 4.5103,3.36609 9.53516,7.10351 5.02487,3.73742 9.85199,7.88658 10.72656,9.2207 1.22722,1.8721 1.61643,4.72318 1.70703,12.49415 0.0645,5.53786 -0.19889,10.06836 -0.58593,10.06836 -0.38704,0 -1.22582,1.25983 -1.86328,2.79882 -0.63747,1.53898 -1.73855,2.79883 -2.44727,2.79883 -2.94538,0 -21.52292,21.80703 -32.99023,38.72656 -8.54034,12.60089 -18.5603,34.87394 -22.33008,49.63868 -4.21544,16.51027 -5.80687,32.42593 -5.4668,54.63867 0.29908,19.53516 0.49222,21.4661 3.47852,34.67773 1.73933,7.69491 3.66167,14.41084 4.27148,14.92383 0.60981,0.51299 2.70876,3.86998 4.66602,7.46094 1.95726,3.59095 7.63181,12.82462 12.60937,20.51953 4.97755,7.69491 12.71958,19.86692 17.20508,27.04883 11.75353,18.81903 15.16801,23.35329 23.91602,31.76172 4.29763,4.1308 10.10028,10.17773 12.89453,13.4375 4.99031,5.82169 5.04658,5.95255 3.17968,7.39648 -1.89996,1.46954 -1.90008,1.47083 -0.0625,5.625 2.85389,6.45168 1.88182,16.35677 -2.45117,24.96094 -4.02666,7.99588 -7.54473,11.65622 -14.65625,15.2461 -0.52658,0.26581 -1.0453,0.53624 -1.54297,0.80468 0.5295,0.15302 1.068,0.26841 1.61328,0.34766 0.15456,0.0267 0.30929,0.0558 0.4629,0.0859 0.49622,0.0187 0.99191,0.0309 1.48828,0.041 0.50797,0.0113 1.01607,-9.4e-4 1.52343,0.0293 0.43173,0.0313 0.85973,0.0936 1.28907,0.15039 0.48498,-0.075 0.96773,-0.17482 1.45117,-0.25586 0.61871,-0.10809 1.2446,-0.15739 1.87109,-0.19141 0.66868,-0.0359 1.33487,-0.0495 2.00196,0.0117 0.65155,0.0809 1.30598,0.14958 1.96093,0.19532 0.61739,0.0336 1.23526,0.0492 1.85352,0.0605 0.6525,0.0238 1.29954,0.015 1.94531,-0.084 0.68546,-0.0852 1.34657,-0.28469 2.00977,-0.46875 0.81346,-0.25924 1.61614,-0.54794 2.42383,-0.82422 0.80458,-0.25278 1.5764,-0.58953 2.33593,-0.95313 0.32507,-0.15189 0.65222,-0.30157 0.98047,-0.44726 0.1478,-0.1339 0.34902,-0.253 0.60938,-0.34375 0.22032,-0.0768 0.43838,-0.16188 0.65429,-0.25 0.0256,-0.0184 0.051,-0.0367 0.0781,-0.0547 0.43514,-0.28947 0.84381,-0.61428 1.28125,-0.90039 0.51178,-0.30754 1.0248,-0.61171 1.51758,-0.94922 0.15389,-0.11206 0.30797,-0.22184 0.46289,-0.33203 0.16649,-0.17296 0.3337,-0.34647 0.50195,-0.51758 0.35108,-0.38899 0.71555,-0.75964 1.10938,-1.10547 0.31848,-0.28186 0.67752,-0.5036 1.05273,-0.69531 0.10422,-0.18811 0.27413,-0.37865 0.52344,-0.55469 0.40297,-0.28456 0.78757,-0.59122 1.17187,-0.90039 0.397,-0.34681 0.76667,-0.7231 1.14844,-1.08593 0.19529,-0.18573 0.38997,-0.30905 0.57227,-0.37891 0.24411,-0.33913 0.4988,-0.66891 0.75976,-0.99609 0.6528,-0.83577 1.43171,-1.55682 2.21094,-2.27149 0.20216,-0.18373 0.41175,-0.35968 0.62305,-0.5332 0.22397,-0.39634 0.43209,-0.80207 0.63867,-1.20703 0.48302,-0.96681 0.93677,-1.94595 1.47656,-2.88282 0.41703,-0.66791 0.88135,-1.31459 1.40625,-1.90234 0.17717,-0.19366 0.34942,-0.39252 0.51758,-0.59375 0.51589,-5.15442 -0.30786,-11.02433 -2.46875,-17.5625 -3.51082,-10.62264 -7.19837,-15.67489 -13.11328,-17.96289 -4.28563,-1.65777 -5.28262,-2.66999 -11.03516,-11.19336 -6.84258,-10.13844 -15.31156,-21.2182 -24.20703,-31.67383 -3.093,-3.63547 -6.40223,-7.86922 -7.35547,-9.4082 -0.95324,-1.53898 -4.5623,-6.78672 -8.01953,-11.66016 -8.01276,-11.29508 -8.73387,-12.77268 -11.1211,-22.82422 -1.0873,-4.5781 -3.03069,-11.77842 -4.31835,-16 -3.83521,-12.57368 -5.67588,-41.88337 -4.29883,-68.4375 1.40401,-27.0738 4.5246,-37.94655 21.22265,-73.95117 9.14606,-19.72091 13.94233,-28.2543 22.32813,-39.72266 13.20357,-18.05711 20.03473,-35.9294 17.26562,-45.17187 -1.23793,-4.13183 -4.28246,-9.24828 -7.53515,-12.66211 -1.44452,-1.51608 -2.20803,-1.9789 -4.76172,-1.9043 z" />
    <circle
       id="path8"
       style="fill:#000000;stroke:#000000;stroke-width:0.264583"
       cx="104.88196"
       cy="175.21458"
       r="0.032871" />
    <path
       id="path9"
       style="fill:#000000;stroke:#000000;stroke-width:0.264583"
       d="m 106.64207,170.92652 c -0.16334,0.059 -0.32656,0.11773 -0.48989,0.17673 l 0.66352,0.46095 c -1.14711,-0.69831 1.20527,0.73245 2.11253,1.50999 0.38049,0.28839 0.77548,0.55956 1.1281,0.88263 0.43151,0.39535 0.10749,0.1252 0.52348,0.56638 0.0859,0.0911 0.18153,0.17259 0.27234,0.2589 0.46614,0.63248 0.66139,1.39083 0.65836,2.17196 -0.0363,0.83506 -0.0826,1.68296 -0.35916,2.47943 -0.0864,0.20954 -0.18753,0.41341 -0.25941,0.62839 -0.14266,0.42669 -0.23003,0.86552 -0.52968,1.22421 -0.38549,0.60387 -0.73569,1.22003 -1.28158,1.70326 -0.49443,0.5151 -0.9864,1.02519 -1.54926,1.46916 -0.6322,0.50825 -1.28428,1.01681 -1.99884,1.40198 -0.29477,0.12799 -0.5918,0.24114 -0.89349,0.33176 0.17444,-0.13141 0.34096,-0.27344 0.49558,-0.43253 0.65807,-0.73138 1.27827,-1.47115 1.5105,-2.45618 0.0523,-0.18125 0.11742,-0.35971 0.1571,-0.54415 0.16087,-0.74765 0.0377,-1.52823 0.0455,-2.28462 -0.0486,-0.83318 -0.1405,-1.66305 -0.36793,-2.4691 -0.22524,-0.86357 -0.41458,-1.74793 -0.3297,-2.64428 l -3.5233,-1.79524 c -0.0275,0.93095 0.12392,1.83991 0.32401,2.74505 0.21765,0.78759 0.32917,1.59271 0.39016,2.40554 0.0525,0.95256 0.11469,1.79104 -0.11937,2.72645 -0.21825,0.92575 -0.80437,1.61064 -1.43661,2.28306 -0.56633,0.52394 -1.2545,0.85918 -1.907375,1.25574 -0.582096,0.26012 -1.18765,0.47353 -1.816427,0.58704 -2.167083,0.97304 1.67584,2.72216 3.181202,2.84686 0.0781,0.0265 0.15685,0.0503 0.23616,0.0713 0.0505,-0.10706 0.20881,-0.15069 0.39894,-0.0176 0.0882,0.0618 0.1847,0.10634 0.28526,0.14211 0.32168,0.0371 0.64689,0.0504 0.96945,0.0625 0.52266,0.0111 1.04511,0.0186 1.56786,0.0238 0.0352,-0.002 0.0707,-0.004 0.10594,-0.006 0.17692,-0.01 0.35318,-0.013 0.52968,0.003 0.0241,0.003 0.0482,0.006 0.0724,0.009 l 0.66869,0.003 c 0.96295,0.0444 1.86021,-0.28266 2.71973,-0.67903 0.71668,-0.445 1.4124,-0.94473 2.05879,-1.48725 0.36179,-0.35179 0.7813,-0.63749 1.13223,-1.002 0.29672,-0.35436 0.14474,-0.19036 0.45165,-0.49558 0.13525,-0.12132 0.25814,-0.25133 0.37259,-0.38757 0.015,-0.0291 0.0301,-0.0582 0.045,-0.0873 0.1278,-0.2558 0.24785,-0.51486 0.39067,-0.76274 0.11034,-0.17672 0.23319,-0.34782 0.37207,-0.50333 0.10508,-0.11486 0.20252,-0.23616 0.29972,-0.3576 0.0273,-0.0341 0.0552,-0.062 0.0832,-0.0842 0.24369,-0.47785 0.37978,-1.0064 0.58395,-1.5043 0.29515,-0.83914 0.34993,-1.72806 0.40049,-2.60811 0.0503,-0.85072 -0.15162,-1.63122 -0.54157,-2.37919 -0.51174,-0.73506 -1.18818,-1.3092 -1.89291,-1.8495 -1.84891,-1.53407 -3.71909,-2.40348 -5.91023,-3.59203 z m -8.860958,14.97428 h 5.16e-4 c 0.02128,-0.003 0.297846,0.0823 0.684196,0.22324 -0.124538,-0.0294 -0.248433,-0.0618 -0.37207,-0.0977 -0.206094,-0.0743 -0.302028,-0.11423 -0.312642,-0.12402 h -5.17e-4 v -5.2e-4 -5.2e-4 z m 3.311938,1.98334 c -0.0387,0.0426 -0.0947,0.0834 -0.16949,0.12092 -10e-4,4.3e-4 -0.002,7.7e-4 -0.003,0.001 l -5.2e-4,5.1e-4 h -5.1e-4 l -5.2e-4,5.2e-4 h -5.2e-4 v -5.2e-4 l 5.2e-4,-5.1e-4 c 0.007,-0.009 0.0874,-0.0665 0.17363,-0.12196 z" />
    <path
       style="fill:#000000;stroke:#000000;stroke-width:0.264583"
       id="path22"
       d="m 103.14119,189.24787 c 0.16882,-0.0643 0.35196,-0.0755 0.53075,-0.0836 0.1531,-0.005 0.30625,1.8e-4 0.45938,5.3e-4 0.0676,-0.0106 0.14401,0.0162 0.21095,0.002 0.0263,-0.005 0.0495,-0.0211 0.0744,-0.0311 0.0691,-0.0275 0.0512,-0.0207 0.12028,-0.0377 0.12129,-0.0223 0.24552,-0.0205 0.3684,-0.0204 0.1377,1.7e-4 0.2754,0.001 0.4131,0.001 0.093,0.001 0.18601,5.3e-4 0.27902,8e-4 0.0234,5e-5 0.0473,0.004 0.0703,-2.3e-4 0.0277,-0.006 0.053,-0.0197 0.0795,-0.0296 0.15234,-0.0423 0.30849,-0.0733 0.46573,-0.0913 0.20799,-0.0206 0.4169,-0.0192 0.62561,-0.0202 0.10483,0.0135 0.20376,-0.0198 0.30473,-0.0409 0.026,-0.005 0.0529,-0.007 0.0781,-0.0153 0.10874,-0.049 0.0537,-0.0282 0.16502,-0.0628 0.0965,-0.0178 0.18961,-0.047 0.28644,-0.0634 0.0316,-0.005 0.064,-0.006 0.0951,-0.0136 0.0627,-0.0156 0.12232,-0.0416 0.18436,-0.0595 0.0829,-0.0112 0.15885,-0.0457 0.24016,-0.0637 0.022,-0.005 0.0456,-0.004 0.0666,-0.0122 0.0552,-0.0221 0.0889,-0.0603 0.13163,-0.0993 0.0639,-0.0484 0.14005,-0.0888 0.21831,-0.10936 0.0191,-0.005 0.0396,-0.004 0.0582,-0.0107 0.0244,-0.009 0.0464,-0.0231 0.0696,-0.0347 0.0677,-0.0243 0.13609,-0.0466 0.20483,-0.0679 0.0218,-0.007 0.0452,-0.008 0.0664,-0.0164 0.0499,-0.0194 0.0962,-0.0471 0.14579,-0.0671 0.0252,-0.0145 0.0496,-0.0307 0.0757,-0.0435 0.12294,-0.0604 0.0326,-2.7e-4 0.15609,-0.0711 0.0266,-0.0152 0.0505,-0.035 0.0772,-0.0499 0.0246,-0.0138 0.051,-0.0241 0.0765,-0.0362 0.0257,-0.0145 0.0514,-0.0289 0.0771,-0.0433 0.0346,-0.0359 0.0863,-0.0283 0.12681,-0.0484 0.0234,-0.0116 0.0419,-0.0311 0.0643,-0.0445 0.0171,-0.0103 0.0372,-0.0153 0.0538,-0.0263 0.0407,-0.027 0.0758,-0.0617 0.1144,-0.0916 0.0187,-0.009 0.0389,-0.0161 0.0562,-0.0277 0.0229,-0.0155 0.0417,-0.0364 0.0637,-0.0532 0.08,-0.0613 0.15773,-0.12155 0.23047,-0.19186 0.0745,-0.0369 0.12047,-0.10795 0.18188,-0.16049 0.0159,-0.0136 0.0359,-0.0219 0.0517,-0.0356 0.14078,-0.12268 -0.0193,-0.005 0.10292,-0.0914 0.0592,-0.0483 0.10677,-0.10703 0.16022,-0.16065 0.0508,-0.0509 0.11402,-0.0945 0.16831,-0.14177 0.0878,-0.0447 0.15113,-0.12352 0.22882,-0.18205 0.0349,-0.0263 0.0741,-0.0464 0.1094,-0.072 0.039,-0.06 0.0979,-0.0798 0.15486,-0.11413 0.0194,-0.0117 0.0357,-0.0283 0.0553,-0.0397 0.0179,-0.0104 0.0378,-0.0169 0.0567,-0.0254 0.0207,-0.0124 0.0413,-0.0248 0.062,-0.0373 0.0184,-0.008 0.0385,-0.0138 0.0551,-0.0254 0.0212,-0.0148 0.0366,-0.0367 0.0568,-0.0529 0.0569,-0.0456 0.11748,-0.0819 0.17202,-0.13246 0.11154,-0.11007 0.1982,-0.24103 0.30609,-0.35433 0.14806,-0.098 0.26081,-0.2363 0.39387,-0.35133 0.0185,-0.0179 0.0353,-0.0377 0.0554,-0.0538 0.0169,-0.0136 0.038,-0.0214 0.055,-0.035 0.0802,-0.0638 0.14227,-0.14707 0.22079,-0.21271 0.0177,-0.0129 0.0375,-0.0233 0.0532,-0.0387 0.0231,-0.0226 0.0401,-0.0509 0.0623,-0.0745 0.0398,-0.0426 0.0852,-0.0798 0.12509,-0.1223 0.0437,-0.0466 0.0709,-0.0807 0.11175,-0.12988 0.11094,-0.15444 0.21004,-0.31845 0.30801,-0.48161 0.10356,-0.14334 0.13949,-0.31881 0.21895,-0.47442 0.0307,-0.0637 0.0568,-0.13216 0.0918,-0.19379 0.0395,-0.0696 0.0907,-0.12996 0.13167,-0.20277 0.0815,-0.13173 0.14753,-0.27377 0.2121,-0.41474 0.0654,-0.13164 0.10727,-0.27181 0.14828,-0.41239 0,0 -2.7308,-1.04646 -2.7308,-1.04646 v 0 c -0.0116,0.1292 -0.0754,0.22932 -0.12087,0.34836 -0.0658,0.13386 -0.13317,0.26729 -0.20843,0.396 -0.077,0.1418 -0.18157,0.269 -0.23342,0.42304 -0.0565,0.15169 -0.10852,0.30655 -0.19025,0.44696 -0.0888,0.15299 -0.18359,0.30254 -0.30369,0.43334 -0.10111,0.12278 -0.21593,0.23076 -0.34063,0.32891 -0.10621,0.10835 -0.2228,0.20494 -0.33101,0.31121 -0.11616,0.13081 -0.25358,0.23782 -0.37892,0.35956 -0.10811,0.10374 -0.20024,0.22642 -0.32745,0.30802 -0.0868,0.0582 -0.16175,0.13267 -0.25593,0.18008 -0.12211,0.0715 -0.23635,0.15062 -0.34266,0.24398 -0.11522,0.0884 -0.22305,0.18508 -0.33497,0.27743 -0.11526,0.0969 -0.22432,0.19951 -0.34001,0.29607 -0.1045,0.10194 -0.20999,0.20317 -0.32525,0.29302 -0.11425,0.0837 -0.2277,0.16777 -0.34765,0.24289 -0.10937,0.0682 -0.22827,0.11731 -0.33553,0.18924 -0.14523,0.0798 -0.2944,0.15438 -0.45158,0.20787 -0.13733,0.0544 -0.2837,0.0856 -0.41752,0.15063 -0.13934,0.0412 -0.26119,0.11984 -0.38026,0.20147 -0.015,0.004 -0.03,0.008 -0.045,0.0122 -0.014,0.002 -0.0283,0.002 -0.042,0.006 -0.0975,0.026 -0.19059,0.0703 -0.2898,0.0913 -0.18677,0.0527 -0.37958,0.0834 -0.56643,0.13684 -0.1617,0.0432 -0.32704,0.065 -0.49476,0.0599 -0.21932,0.005 -0.44014,0.0119 -0.65715,0.0454 -0.16288,0.028 -0.32568,0.0564 -0.48863,0.0821 -0.13376,-0.0208 -0.27103,-0.004 -0.40598,-0.009 -0.14056,-2.7e-4 -0.28123,-2.2e-4 -0.42161,0.008 -0.13564,0.011 -0.27037,0.0278 -0.40079,0.0688 -0.032,0.008 -0.079,0.0219 -0.11372,0.0199 -0.0145,-8e-4 -0.0279,-0.009 -0.0423,-0.0105 -0.0685,-0.006 -0.1389,0.006 -0.20749,0.002 -0.15382,0.002 -0.30755,0.01 -0.45996,0.0317 -0.19687,0.0314 -0.39035,0.0789 -0.58586,0.11736 z" />
    <path
       style="fill:#502d16;stroke:#502d16;stroke-width:0.164882"
       d="m 404.21672,691.10477 c 0.56279,-3.38123 0.27104,-11.39266 -0.57373,-15.75468 -0.0869,-0.44881 -0.45428,-2.04026 -0.81636,-3.53657 -0.66834,-2.76197 -1.08676,-5.17746 -0.98289,-5.67413 0.0482,-0.23036 0.18951,-0.18794 0.8939,0.26824 0.80718,0.52275 0.82875,0.5564 0.61154,0.95407 -0.34442,0.63056 -0.14205,1.62159 0.77759,3.80795 1.63825,3.89481 2.09034,6.38368 1.92893,10.61926 -0.11979,3.14344 -0.83213,7.06324 -1.67797,9.23342 l -0.25706,0.65953 z"
       id="path23"
       transform="scale(0.26458333)" />
    <path
       style="fill:#784421;stroke:#784421;stroke-width:0.264583"
       id="path24"
       d="m 89.153578,147.43225 c -0.389977,-0.27262 -0.682511,-0.64657 -1.00135,-0.99278 -0.160708,-0.2069 -0.29246,-0.41194 -0.490765,-0.58615 -0.08279,-0.0727 -0.331208,-0.19304 -0.308441,-0.36949 0.0066,-0.0511 0.06167,-0.0827 0.09251,-0.12397 -0.02839,-0.0448 -0.231011,-0.32227 -0.198832,-0.41622 0.02363,-0.069 0.155456,-0.0615 0.174432,-0.13188 0.008,-0.0297 -0.248693,-0.62867 -0.27445,-0.69853 -0.141039,-0.43174 -0.244321,-0.87555 -0.316645,-1.32376 -0.04018,-0.41438 -0.165883,-0.81254 -0.238607,-1.2214 -0.09807,-0.38025 -0.190285,-0.76271 -0.294259,-1.14157 -0.09234,-0.42372 -0.211521,-0.84049 -0.290383,-1.26711 -0.146544,-0.54307 -0.250057,-1.09422 -0.307993,-1.65344 -0.04644,-0.46901 -0.04546,-0.94064 -0.05726,-1.41128 -0.03564,-0.78858 -0.01643,-1.57792 -0.02424,-2.36685 -0.0059,-0.71572 0.0177,-1.43115 0.0213,-2.14676 0.01561,-0.58598 0.03162,-1.17563 0.109156,-1.75705 0.109808,-0.76063 0.208579,-1.5225 0.287259,-2.28702 0.0683,-0.61038 0.05422,-1.22402 0.166335,-1.82849 -0.02935,-0.42931 0.216294,-0.86376 0.229061,-1.28736 0.02257,-0.74888 -0.161328,-0.0802 0.09166,-0.7736 -0.608775,-1.60903 -0.02471,0.34204 0.0061,-0.88697 0.0044,-0.17551 -0.176215,-0.31828 -0.183562,-0.4937 -0.0054,-0.12831 0.132402,-0.22824 0.147986,-0.35571 -0.07283,-0.50066 -0.07859,-0.26065 -0.0013,-0.72025 0.06041,-0.30446 0.121322,-0.60848 0.164076,-0.91603 0.01365,-0.0982 0.0086,-0.20011 0.03704,-0.29509 0.03213,-0.10745 0.130302,-0.19335 0.142356,-0.30484 0.01492,-0.13804 -0.04329,-0.27428 -0.06493,-0.41142 0.805794,-0.81891 -0.123036,0.27405 0.251463,-0.70623 0.049,-0.12826 0.238376,-0.1585 0.301889,-0.28023 0.05976,-0.11455 0.03311,-0.25632 0.04518,-0.38495 0.06387,-0.68088 -0.0214,-0.13646 0.107236,-0.82612 0.240022,-0.49647 0.16905,-0.26374 0.265501,-0.7999 0.02231,-0.12404 0.05525,-0.24698 0.06324,-0.37275 0.0077,-0.12168 -0.07744,-0.25991 -0.01635,-0.36543 0.344856,-0.59552 0.438293,0.26074 0.255149,-0.50705 -0.04972,-0.60522 -0.09036,-0.0665 0.220969,-0.54671 0.161475,-0.24905 0.01273,-0.29724 0.05902,-0.56365 0.05724,-0.32946 0.19323,-0.39595 0.418848,-0.63952 0.159269,-0.0915 0.342977,-0.1498 0.477806,-0.27455 0.04929,-0.0456 0.501174,-0.79899 0.532082,-0.84921 0.25599,-0.41595 0.520597,-0.8263 0.785392,-1.23667 0.03238,-0.0426 0.23581,-0.39942 0.398264,-0.38258 0.04805,0.005 0.05839,0.077 0.08758,0.11546 0,0 -2.581548,-1.44336 -2.581548,-1.44336 v 0 c -0.27536,0.16704 -0.350864,0.31171 -0.516747,0.60039 -0.342273,0.55629 -0.678654,1.1198 -1.035047,1.66707 -0.09169,0.14079 -0.233694,0.25532 -0.286155,0.41493 -0.05079,0.15454 -0.0071,0.32526 -0.01058,0.4879 -0.08138,0.28792 -0.105182,0.48577 -0.284027,0.72694 -0.134445,0.18129 -0.320477,0.20539 -0.353237,0.46421 -0.01521,0.12025 0.08359,0.23964 0.06031,0.35858 -0.01884,0.0963 -0.117719,0.15696 -0.176578,0.23544 -0.52814,0.4793 -0.03775,-0.10476 -0.04236,0.59238 -7.94e-4,0.11248 -0.140841,0.17628 -0.198694,0.27274 -0.06323,0.10541 -0.108937,0.22039 -0.163222,0.33067 -0.246139,0.50006 -0.158004,0.23814 -0.261244,0.79976 -0.08595,0.16952 -0.522015,0.92976 -0.525452,1.08991 -0.0034,0.15863 0.130606,0.30209 0.120711,0.46046 -0.06377,1.02058 -0.454827,-0.48912 -0.0067,0.81598 -0.242089,0.56603 -0.10732,0.0875 -0.07988,0.71192 0.0043,0.0972 -0.01984,0.19357 -0.03224,0.29006 -0.03949,0.30754 -0.09661,0.61242 -0.150119,0.91769 -0.01857,0.11476 -0.02461,0.23226 -0.05569,0.34428 -0.0305,0.10996 -0.116937,0.20395 -0.127915,0.31753 -0.01381,0.14292 0.100264,0.29053 0.05595,0.4271 -0.04411,0.13596 -0.257495,0.17301 -0.295378,0.31084 -0.28742,1.04565 0.574206,-0.056 -0.238951,0.81242 0.01664,0.14059 0.06846,0.28141 0.04995,0.42177 -0.01556,0.11801 -0.112096,0.21144 -0.148397,0.32479 -0.0352,0.10992 -0.04146,0.22709 -0.06454,0.34017 -0.06406,0.31389 -0.109712,0.63083 -0.196496,0.93929 -0.101036,0.62562 -0.08753,1.23568 -0.129336,1.86635 -0.06452,0.7599 -0.177697,1.51323 -0.307866,2.26453 -0.08965,0.59156 -0.121195,1.19592 -0.128776,1.79352 0.0034,0.72043 0.0265,1.4407 0.01955,2.16124 -0.0092,0.78322 0.0072,1.56684 -0.02757,2.34971 -0.0082,0.47977 -0.0057,0.96084 0.04045,1.43888 0.06876,0.5624 0.16351,1.12168 0.30099,1.67174 0.07699,0.43057 0.177837,0.85436 0.25993,1.28272 0.09892,0.37315 0.196029,0.74684 0.313944,1.115 0.02866,0.20718 0.06572,0.40612 0.117398,0.60883 0.03334,0.13079 0.08027,0.2585 0.10369,0.39143 0.01278,0.0725 0.01373,0.14661 0.02061,0.21991 0.06536,0.46954 0.180938,0.92933 0.31468,1.38383 0.04558,0.12904 0.196908,0.64191 0.273843,0.72955 0.112504,0.12816 0.272307,0.20675 0.394674,0.32552 0.145627,0.14136 0.217464,0.28679 0.316468,0.45633 0.109979,0.0832 0.392168,0.24256 0.432686,0.42604 0.01029,0.0466 -0.05252,0.0846 -0.05518,0.13225 -0.01204,0.21614 0.251272,0.31306 0.265816,0.52601 0.217604,0.39182 0.533485,0.71404 0.866156,1.01131 z" />
    <path
       style="fill:#784421;stroke:#784421;stroke-width:0.264583"
       id="path25"
       d="m 98.610993,85.738051 c 0.009,-0.219078 -0.08118,-0.428951 -0.177326,-0.621543 -0.02598,-0.05206 -0.0665,-0.09632 -0.09011,-0.149493 -0.0066,-0.01479 0.01765,-0.04373 0.0021,-0.04853 -0.688033,-0.213831 -1.385041,-0.397645 -2.077561,-0.596469 -0.230111,0.987102 0.363617,0.375359 2.204426,1.149678 0.02939,0.01236 0.107897,0.06659 0.07811,0.05521 -1.997744,-0.763358 -2.688378,-1.216565 -1.970114,-0.754044 0.696143,0.538903 0.239877,0.196545 2.326241,0.89263 0.03249,0.01085 0.05361,-0.0438 0.0847,-0.05818 0.02056,-0.0095 0.04455,-0.01566 0.06689,-0.01193 0.01857,0.0031 0.06478,0.03768 0.0472,0.03098 -0.709665,-0.270417 -1.416431,-0.548394 -2.124647,-0.82259 0.929566,0.855224 -3.307117,-0.473837 2.414003,0.947793 0.05191,0.01291 0.01545,-0.105851 0.02426,-0.158604 0.0052,-0.03119 0.01188,-0.06212 0.01781,-0.09318 -2.558296,-1.009152 -2.371034,-1.296016 -2.005446,-0.137803 0.0094,0.01797 0.01273,0.04081 0.02823,0.05386 0.03791,0.03189 0.09591,0.02927 0.137748,0.05581 0.135313,0.08583 0.217223,0.225443 0.307337,0.353147 0.169902,0.275966 0.408744,0.334031 0.668867,0.497904 0.253042,0.174117 0.480766,0.379896 0.713073,0.579731 0.02939,0.03986 0.08106,0.06028 0.108143,0.1017 0.03543,0.05418 0.05393,0.117864 0.08558,0.174337 0.07526,0.134292 0.15561,0.269841 0.235191,0.402 0.705202,0.188915 1.401722,0.413912 2.115622,0.56674 0.0413,0.0088 -0.0707,-0.276619 -0.0742,-0.263054 -0.0434,0.167775 -0.0555,0.129728 0.008,0.213098 0.1141,-0.107209 0.0997,-0.06874 0.11437,-0.308374 0.0518,-0.847318 -2.698588,-1.603193 -2.231583,-0.781132 0.803863,3.694927 2.433213,1.321424 2.245303,0.572267 -0.0719,-0.286652 -0.22506,-0.568068 -0.37432,-0.820806 -0.74983,-0.281803 -1.48257,-0.614104 -2.249472,-0.84541 -0.05185,-0.01564 -0.04941,0.09638 -0.07405,0.144605 -0.01019,0.01995 -0.0515,0.05218 -0.03047,0.05989 0.726744,0.266345 1.459002,0.520179 2.202302,0.736073 0.042,0.0122 -0.047,-0.07435 -0.0636,-0.114866 -0.0286,-0.06999 -0.0474,-0.143547 -0.0711,-0.21532 -0.16849,0.01595 0.009,-0.287917 -0.0984,-0.323012 -0.72872,-0.239119 -1.471814,-0.434128 -2.217026,-0.615436 -0.02471,-0.006 0.0026,0.101666 0.0011,0.07628 -0.05643,-0.913537 0.175255,-0.108254 2.037246,0.599866 -0.83148,-0.666295 -0.49957,-0.547415 -2.500785,-1.158263 -0.06854,-0.02093 -0.131249,0.318391 -0.157954,0.372353 3.292079,1.029166 2.680159,1.232381 2.099859,0.566452 -0.11936,-0.136983 -0.21014,-0.30566 -0.33333,-0.435973 -0.0326,-0.02763 -0.06911,-0.05121 -0.09779,-0.08288 -0.03107,-0.0343 -0.05382,-0.07531 -0.08004,-0.113438 -0.01942,-0.02825 -0.02511,-0.07283 -0.05689,-0.08567 -1.467442,-0.592894 -2.061448,-1.618705 -2.355995,-0.604488 0.01402,-0.05758 -0.0145,-0.19041 0.04206,-0.172744 0.728898,0.227597 1.414145,0.576996 2.127236,0.850109 0.02439,0.0093 -0.02964,-0.04837 -0.05453,-0.05626 -0.756645,-0.239895 -1.507627,-0.504938 -2.280888,-0.684186 -0.06327,-0.01466 -0.0083,0.132289 -0.0343,0.191794 -0.02328,-0.87045 -0.0402,-0.05967 2.078794,0.656405 0.06152,0.0208 -0.09933,-0.08372 -0.147304,-0.127487 -0.04329,-0.03949 -0.08569,-0.08004 -0.126394,-0.122192 -0.02331,-0.02416 -0.03544,-0.09151 -0.06548,-0.07652 -0.03629,0.01812 -0.01418,0.07988 -0.02127,0.119824 -0.738608,-0.240085 -1.472229,-0.496096 -2.215827,-0.720256 -0.03406,-0.01027 0.04326,0.06072 0.07578,0.07513 0.736574,0.326382 1.450922,0.720415 2.224836,0.94429 0.209892,0.06072 0.04573,-0.407784 0.122561,-0.342353 0.346847,0.755627 0.05438,0.07394 -2.081477,-0.716573 -0.02172,-0.008 0.04068,0.02318 0.06306,0.0291 0.757047,0.199909 1.505474,0.439195 2.274184,0.588084 0.04914,0.0095 -0.06604,-0.24542 -0.06971,-0.254214 -0.20878,-0.749552 -0.03381,-0.142394 -2.202772,-0.621268 -0.07402,-0.01635 0.113101,0.101033 0.167277,0.154053 0.02125,0.02077 0.23376,0.251135 0.261408,0.260123 0.746094,0.242564 1.505773,0.441161 2.258661,0.661741 0.360692,0.765667 0.841392,0.409641 -1.931847,-0.635688 -0.05371,-0.02024 0.09945,0.05736 0.148677,0.08688 0.207772,0.124574 0.134194,0.08044 0.37098,0.264319 0.336863,0.342762 0.176152,0.160033 0.480357,0.549741 0,0 2.178795,0.632917 2.178795,0.632917 v 0 c -0.27884,-0.411858 -0.13299,-0.218913 -0.43446,-0.581162 -0.13782,-0.158438 -0.27128,-0.308761 -0.46975,-0.393632 -0.764688,-0.326993 -1.523407,-0.670374 -2.303735,-0.95808 -0.05116,-0.01886 -0.110157,0.02082 -0.155271,0.05145 -0.0434,0.02946 -0.06652,0.08111 -0.09977,0.121671 0.741801,0.263568 1.479063,0.540274 2.225402,0.790702 0.05249,0.01762 -0.09552,-0.0566 -0.139157,-0.09067 -0.05321,-0.04155 -0.105209,-0.08545 -0.150498,-0.135512 -0.04663,-0.05155 -0.05862,-0.143751 -0.123854,-0.167751 -2.424671,-0.892122 -2.629173,-1.519015 -2.338067,-0.691489 0.392141,0.730057 2.302345,0.887101 2.366152,0.90863 0.02421,0.0082 -0.0469,-0.02035 -0.07079,-0.0294 -2.332855,-0.885024 -1.648576,-1.371235 -2.406727,-0.771253 -0.0618,0.120327 -0.120491,0.223692 -0.0659,0.192966 0.04469,-0.02516 0.03939,-0.143357 0.08778,-0.12636 0.717569,0.252024 1.395804,0.604698 2.099006,0.894403 0.02736,0.01127 -0.04508,-0.03834 -0.06762,-0.05751 -0.767003,-0.269857 -1.534007,-0.539713 -2.301012,-0.80957 -0.0096,0.04618 -0.03966,0.09267 -0.0287,0.138547 0.0081,0.03377 0.308633,0.342222 0.338767,0.355795 0.75307,0.339157 1.502899,0.69191 2.283521,0.961673 0.05568,0.01924 0.07842,-0.08793 0.117628,-0.131892 0.268986,-0.878964 -1.2651,-0.608925 -2.200534,-0.945835 -0.02151,-0.0078 0.04674,0.0013 0.06788,0.01005 2.310492,0.956321 1.778966,1.613519 2.351429,0.785432 0.01109,-0.10537 1.08e-4,0.04631 -0.03623,0.03313 -0.720098,-0.261022 -1.425078,-0.562253 -2.13211,-0.856835 -0.02909,-0.01212 0.0672,-0.0085 0.09422,0.0078 0.08335,0.05005 0.107604,0.160378 0.138161,0.240395 0.04237,0.02721 0.09522,0.03886 0.132254,0.07297 0.01995,0.01836 0.251463,0.311579 0.25441,0.315963 0.617017,0.917413 -2.300713,-0.662414 2.384115,0.930748 -0.006,-0.02809 0.0226,-0.10283 -5.3e-4,-0.08601 -0.0209,0.01516 -0.006,0.08085 -0.0298,0.0716 -3.469237,-1.330111 -2.369396,-1.357691 -1.823198,-0.612368 0.768659,0.314069 1.513488,0.694354 2.305978,0.942208 0.17958,0.05616 0.17075,-0.282776 0.16282,-0.286224 -2.971864,-1.291235 -2.473177,-1.531683 -2.124872,-0.54828 0.01797,0.06596 0.04237,0.130503 0.05388,0.197893 0.01024,0.05999 -0.04446,0.157241 0.01103,0.182231 0.738288,0.33251 1.517552,0.565296 2.276332,0.847942 0.008,-0.01611 0.0114,-0.03606 0.0247,-0.04836 0.009,-0.0084 -0.007,0.02355 -0.0107,0.03531 -0.70861,-0.290542 -1.417216,-0.581086 -2.125826,-0.87163 0.192649,0.100266 0.133062,0.03726 0.250476,0.283911 0.03447,0.07241 0.05939,0.149029 0.0919,0.222337 0.02241,0.05053 0.05586,0.09638 0.07278,0.149008 0.0096,0.0298 0.0035,0.0625 0.0053,0.09375 0.75039,0.268102 1.50078,0.536207 2.25117,0.804312 -0.42038,-0.75883 -0.0391,-0.09935 -2.322186,-0.832596 -0.01556,-0.005 0.0095,0.03127 0.01458,0.04678 0.01,0.03029 0.0011,0.0789 0.03061,0.09065 0.07988,0.03163 0.05789,-0.07622 0.05592,-0.0957 -0.212392,0.06304 -0.228597,0.258882 -0.12414,0.417608 0.03022,0.04591 0.04635,0.113252 0.09771,0.132821 0.716096,0.272814 1.452306,0.489566 2.178446,0.734351 -0.10106,-0.07995 -0.17338,-0.356775 -0.20718,-0.482042 -0.0133,-0.04938 -0.007,-0.10377 -0.0255,-0.151289 -0.009,-0.02228 -0.0358,-0.03192 -0.0537,-0.04787 -0.23648,-0.211169 -0.48053,-0.416507 -0.73302,-0.609105 -0.10977,-0.08898 -0.23223,-0.212836 -0.37121,-0.258339 -0.13631,-0.04463 -0.0664,0.02941 -0.19934,-0.06702 -0.041,-0.02975 -0.0747,-0.06853 -0.11199,-0.102799 -0.036,-0.04433 -0.0771,-0.08495 -0.10791,-0.132998 -0.06247,-0.09735 -0.158,-0.415703 -0.316655,-0.3619 -0.02469,-0.0019 -0.05449,0.0097 -0.07409,-0.0055 -0.0667,-0.05152 -0.11204,-0.21467 -0.12823,-0.278797 -0.01413,-0.05598 0.02252,-0.14618 -0.02979,-0.170633 -2.270906,-1.061683 -2.191306,-1.712695 -2.275385,-0.856337 -0.07909,0.947095 -0.59966,-0.06017 2.197452,0.991174 0.01704,0.0064 -0.04017,2.12e-4 -0.05314,-0.01257 -0.02447,-0.0241 -0.03832,-0.05768 -0.05075,-0.08971 -0.01807,-0.04653 -0.02673,-0.09619 -0.04009,-0.14428 -0.750877,-0.310648 -1.494832,-0.638575 -2.252628,-0.931937 -0.05001,-0.01937 -0.09665,0.04983 -0.149331,0.05985 -0.01961,0.0037 -0.07829,-0.01111 -0.0598,-0.0036 1.755265,0.713322 2.880403,1.112363 2.057546,0.819705 -0.741696,-0.555588 -0.217517,-0.17485 -2.363375,-1.015471 -0.03899,-0.01527 -0.163211,-0.01085 -0.125426,0.0072 3.441383,1.644639 2.37829,1.504029 1.968614,0.736764 -0.689144,-0.259887 -1.378413,-0.519438 -2.06743,-0.779658 -0.014,-0.0053 0.03697,7.94e-4 0.04232,0.01484 0.01154,0.03008 -7.93e-4,0.06445 5.3e-4,0.09665 0.0058,0.155072 0.0075,0.293886 0.06311,0.443317 0.02848,0.07656 0.07797,0.14356 0.116951,0.215339 z" />
    <path
       style="fill:#784421;stroke:#784421;stroke-width:0.264583"
       id="path26"
       d="m 106.67695,186.11559 c 0.28894,-0.39722 0.47856,-0.85292 0.73386,-1.26922 0.23126,-0.34787 0.37081,-0.73919 0.56549,-1.10576 0.17007,-0.39471 0.2113,-0.82475 0.24424,-1.24854 0.0368,-0.44082 -0.0127,-0.88054 -0.0654,-1.31777 -0.0733,-0.37234 -0.0977,-0.75265 -0.20057,-1.11847 -0.0727,-0.32706 -0.21886,-0.62188 -0.35827,-0.92348 -0.16811,-0.41327 -0.40589,-0.79368 -0.55745,-1.2131 -0.12892,-0.36406 -0.20154,-0.74307 -0.31795,-1.1106 -0.16475,-0.54171 -0.42546,-1.04692 -0.69778,-1.54105 -0.0522,-0.45197 -0.58824,-0.53219 -0.77428,-0.87409 -0.0517,-0.0949 0.15006,-0.18571 0.13846,-0.29315 -0.0158,-0.14604 -0.13712,-0.25993 -0.21182,-0.3864 -0.21644,-0.36638 -0.19741,-0.31795 -0.46293,-0.6317 0,0 -2.76906,-0.76425 -2.76906,-0.76425 v 0 c 0.27017,0.24942 0.30004,0.2469 0.50774,0.56839 0.0802,0.12419 0.11894,0.27626 0.21718,0.38675 0.17057,0.19181 0.45732,0.28193 0.57858,0.50816 0.10231,0.19088 -0.62389,0.45362 0.0285,0.64909 0.25387,0.47351 0.49673,0.95561 0.65824,1.46792 0.0355,0.11866 0.0825,0.23385 0.11462,0.35347 0.0685,0.25499 0.0977,0.52167 0.21468,0.76329 0.0474,0.17104 0.0748,0.29575 0.14762,0.45796 0.1184,0.26372 0.31046,0.49032 0.37971,0.77831 0.0632,0.15179 0.12591,0.30863 0.2045,0.4534 0.0215,0.0397 0.0552,0.0727 0.0722,0.1145 0.0426,0.10482 0.0372,0.22524 0.0885,0.32772 0.0118,0.0312 0.10505,0.27461 0.11155,0.30605 0.0524,0.25348 0.038,0.52389 0.11802,0.77385 0.0847,0.41092 0.10214,0.83626 0.0841,1.25472 -0.0192,0.38511 -0.0469,0.77819 -0.20834,1.1343 -0.17937,0.3673 -0.32023,0.75109 -0.53711,1.0999 -0.22554,0.40758 -0.41046,0.8475 -0.7488,1.17979 z" />
    <path
       style="fill:#784421;stroke:#784421;stroke-width:0.264583"
       id="path27"
       d="m 108.44209,183.58911 c -0.0375,-0.53154 -0.0312,-1.06511 -0.0244,-1.59759 0.0147,-0.45481 0.0143,-0.90713 -0.0556,-1.35742 -0.0459,-0.42828 -0.18515,-0.83267 -0.2995,-1.24481 -0.14101,-0.31332 -0.24946,-0.63121 -0.33073,-0.96492 -0.088,-0.38822 -0.21903,-0.76471 -0.33303,-1.14585 -0.0836,-0.31552 -0.20175,-0.61633 -0.34525,-0.90907 -0.21168,-0.43577 -0.45819,-0.85246 -0.68762,-1.27896 -0.21495,-0.41871 -0.51543,-0.78983 -0.73936,-1.20259 -0.66096,-0.17444 -1.3068,-0.42221 -1.98287,-0.52332 -0.0799,-0.012 0.0377,0.15719 0.058,0.23543 0.0239,0.0924 0.0474,0.18487 0.0746,0.27633 0.0831,0.27944 0.18362,0.55405 0.27544,0.83069 0.23625,0.82806 -0.48503,0.20529 1.98028,0.76534 0.054,0.0123 -0.0488,-0.0996 -0.0714,-0.15015 -0.3842,-0.8599 0.21213,0.45127 -0.17495,-0.39692 -0.28226,-0.57492 -0.62155,-1.11951 -0.98367,-1.64704 -0.0762,-0.10977 -0.20299,-0.19815 -0.22869,-0.3293 -0.0163,-0.083 0.13894,-0.14091 0.12039,-0.22346 -0.0284,-0.12622 -0.15946,-0.20377 -0.23928,-0.30558 -0.20133,-0.25679 -0.397,-0.51467 -0.5852,-0.78119 -0.0456,-0.0744 -0.0919,-0.1483 -0.13682,-0.22303 -0.15002,-0.2494 -0.11993,-0.25044 -0.36705,-0.46299 -0.364,-0.31308 -0.31441,-0.16705 -0.49346,-0.50155 -0.67554,-0.16899 -1.34048,-0.38817 -2.02663,-0.50695 -0.0521,-0.009 -0.0734,0.0928 -0.0646,0.14492 0.0164,0.0968 0.0969,0.17149 0.13346,0.26263 0.0368,0.0917 0.0462,0.19315 0.0857,0.28372 0.0944,0.21676 0.22715,0.41477 0.33723,0.62402 0.13995,0.17437 0.22801,0.57613 0.39371,0.72347 0.12103,0.10761 0.275,0.17138 0.40814,0.26358 0.99719,0.69054 -2.12059,-0.79296 2.12908,0.94277 0.0931,-0.0833 0.36865,-0.25749 0.34381,-0.44988 -0.0149,-0.11514 -0.0985,-0.21029 -0.15002,-0.31434 -0.0158,-0.0318 -0.35649,-0.69799 -0.36784,-0.71117 -0.17183,-0.19948 -0.38899,-0.35489 -0.58349,-0.53234 -0.37988,-0.60716 -0.0865,-0.23614 -0.70441,-0.75601 -0.66038,-0.5556 0.70849,-0.3636 -1.83754,-0.57768 -0.11562,-0.01 0.1464,0.18005 0.2196,0.27007 0.1019,0.14161 0.23663,0.26462 0.3057,0.42482 0.0529,0.12271 -0.005,0.27571 0.049,0.39786 0.09,0.20303 0.25239,0.36563 0.37249,0.55246 0.11689,0.18182 0.22554,0.36881 0.33832,0.55322 0,0 2.65637,0.7958 2.65637,0.7958 v 0 c -0.11195,-0.18623 -0.57532,-0.97731 -0.71978,-1.1346 -0.1978,-0.21536 -0.46409,-0.35938 -0.66632,-0.57058 -0.11745,-0.12267 -0.18976,-0.2817 -0.28464,-0.42255 -0.49756,-0.7953 -0.065,-0.22236 -1.98798,-0.85799 -0.0154,-0.005 0.0363,0.004 0.0456,0.0172 0.0252,0.0364 0.0564,0.0785 0.0514,0.12249 -0.0553,0.48392 -0.31214,-0.20533 0.12706,0.56758 -0.0379,0.10373 -0.12516,0.20134 -0.11372,0.31119 0.014,0.13408 0.12407,0.2394 0.18364,0.36033 0.13456,0.27313 0.27915,0.76739 0.57439,0.92261 0.097,0.051 0.219,0.008 0.32849,0.0115 0.61855,0.26166 1.23711,0.52333 1.85566,0.78499 0.002,-0.0216 -0.0109,-0.0515 0.006,-0.0649 0.0528,-0.0411 0.16756,-0.0175 0.18306,-0.0826 0.0171,-0.072 -0.0825,-0.12303 -0.1188,-0.18752 -0.0459,-0.0816 -0.085,-0.1669 -0.12749,-0.25034 -0.052,-0.0885 -0.10409,-0.17701 -0.15613,-0.26552 -0.18469,-0.35605 -0.35911,-0.65489 -0.59484,-0.98173 -0.0694,-0.0962 -0.12711,-0.20219 -0.20926,-0.28772 -0.64895,-0.67567 -1.6888,-0.73551 -2.52887,-1.02019 0.0221,0.0354 0.0436,0.0713 0.0664,0.10635 0.033,0.0508 0.10252,0.0906 0.10098,0.15121 -0.001,0.0501 -0.0894,0.0583 -0.10751,0.10496 -0.0957,0.24607 0.20723,0.43829 0.27075,0.64926 0.19407,0.27869 0.40009,0.5419 0.61292,0.80652 0.0837,0.1041 0.14715,0.22802 0.25009,0.31318 0.20516,0.16972 0.45752,0.27582 0.66446,0.44337 0.11522,0.0933 0.19641,0.22213 0.29462,0.33319 0.34377,0.51425 0.68713,1.03363 0.94115,1.59915 0.056,0.12281 0.12689,0.23992 0.1677,0.36859 0.0176,0.0555 -0.023,0.14894 0.0305,0.17207 2.16974,0.93848 2.25137,1.33211 1.91678,0.45934 -0.10623,-0.26338 -0.21613,-0.53483 -0.2898,-0.80954 -0.0234,-0.0874 -0.0353,-0.17747 -0.0524,-0.2663 -0.0111,-0.0575 0.0216,-0.14972 -0.0323,-0.17264 -0.64185,-0.27309 -1.31872,-0.45514 -1.97808,-0.68272 0.0322,0.003 0.0696,-0.008 0.0965,0.0104 0.2676,0.17988 0.5199,0.83915 0.74351,1.10147 0.20493,0.4307 0.47825,0.82518 0.63974,1.27684 0.14159,0.20288 0.0352,0.0289 0.13868,0.27111 0.0878,0.20549 0.18346,0.3711 0.22263,0.60118 0.0694,0.17595 0.11131,0.35659 0.1725,0.5354 0.0235,0.0688 0.12016,0.31141 0.13722,0.38138 0.017,0.0699 0.0215,0.14225 0.0322,0.21338 0.086,0.33244 0.13797,0.67707 0.33177,0.97042 0.11305,0.40948 0.28885,0.79858 0.31418,1.22833 0.0834,0.44021 0.0906,0.8844 0.0857,1.3316 0.007,0.52662 0.0138,1.05443 -0.0244,1.58006 z" />
    <path
       id="path28"
       style="fill:#666666;stroke:#666666;stroke-width:0.264583"
       d="m 107.4322,168.12669 c -0.0654,0.0841 -0.12753,0.18541 -0.185,0.30541 -0.038,0.0248 -0.079,0.0462 -0.1173,0.0708 -0.34795,-0.43906 -0.50829,-0.46947 -0.60617,0.13643 -0.0252,-0.002 -0.04,0.0432 -0.0527,0.14366 -0.009,0.0106 -0.0169,0.0206 -0.0248,0.0294 -0.037,0.0411 -0.0819,0.11956 -0.0439,0.15969 0.0136,0.0143 0.0269,0.0286 0.0403,0.0429 -0.005,0.0183 -0.0113,0.0371 -0.017,0.0563 0.007,-0.0177 0.0143,-0.0354 0.0212,-0.0522 5.9e-4,6.2e-4 0.001,0.001 0.002,0.002 -0.005,0.0578 -0.01,0.1227 -0.0155,0.19482 0.0248,0.0264 0.0498,0.0526 0.0744,0.0791 -0.1087,0.36316 -0.20112,0.5931 -0.25218,0.75293 -0.52042,-0.66728 -0.72517,-0.7581 -1.02526,-0.0625 -0.001,2.4e-4 -0.003,0.001 -0.004,0.002 -0.008,0.005 -0.0125,0.02 -0.0145,0.0408 -0.0358,0.0855 -0.0729,0.18221 -0.11214,0.28991 -0.0444,0.12297 -0.0854,0.24714 -0.1328,0.36897 -0.10131,0.0131 -0.20511,0.0459 -0.3111,0.10128 -0.14975,0.0783 -0.26362,0.20349 -0.36897,0.339 -0.11425,-0.0845 -0.22862,-0.16887 -0.34261,-0.25373 -6.1e-4,0.002 -9.4e-4,0.004 -0.002,0.006 0.0235,0.0115 0.0465,0.0258 0.0563,0.0382 0.0218,0.0278 0.0319,0.0633 0.0413,0.0987 -0.0361,-0.0342 -0.072,-0.0686 -0.10801,-0.10283 -0.046,0.15443 -0.0902,0.30944 -0.13901,0.46302 -0.006,0.02 -0.0129,0.04 -0.0191,0.0599 -0.027,-0.0233 -0.054,-0.0466 -0.0811,-0.0698 -0.13131,-0.11237 -0.49392,0.31811 -0.51625,0.34055 -0.0895,0.14045 -0.73329,1.18227 -0.65474,1.28467 0.0261,0.0341 0.052,0.0678 0.0775,0.10129 -0.3014,0.43488 -0.4787,0.56322 -0.33331,0.71779 -0.0489,0.0804 -0.0993,0.15993 -0.15193,0.23771 l 0.75189,0.6997 c -0.0294,0.0709 -0.0599,0.14157 -0.093,0.21084 0.2106,-0.0959 0.33997,0.58789 1.41645,1.94045 0.28014,0.17603 0.50541,0.3523 0.62167,0.52916 -0.17447,-0.13414 -0.34791,-0.26964 -0.52141,-0.40514 0.17677,0.21702 0.37751,0.45028 0.60564,0.69918 -0.009,0.0786 -0.0455,0.15762 -0.11369,0.23668 -0.57426,-0.60127 -1.18831,-1.16339 -1.80247,-1.72496 0.32387,0.17204 0.66019,0.34331 0.95912,0.5147 -0.52107,-0.40676 -1.0439,-0.81042 -1.58492,-1.18908 v -5.1e-4 c -0.0544,-0.0381 -0.10905,-0.0756 -0.16382,-0.11317 -0.0125,0.0137 -0.0226,0.0273 -0.0233,0.0387 -0.0151,-0.0142 -0.0298,-0.0282 -0.045,-0.0424 0.009,-0.008 0.0174,-0.0165 0.0264,-0.0248 -0.0288,-0.0196 -0.0574,-0.0389 -0.0863,-0.0584 -0.002,0.006 -0.003,0.0132 -0.005,0.0217 -0.0182,-0.0172 -0.0366,-0.0344 -0.0548,-0.0517 -0.0402,0.0122 -0.0542,0.14094 -0.0977,0.18448 -0.0115,0.0116 -0.0542,-0.001 -0.063,0 h -5.2e-4 v 5.2e-4 h -5.1e-4 v 5.1e-4 5.2e-4 h 5.1e-4 v 5.2e-4 l 5.2e-4,5.2e-4 5.2e-4,5.1e-4 c 3.3e-4,3.7e-4 5.5e-4,6e-4 0.001,0.001 0.19208,0.17251 0.46327,0.34378 0.76584,0.51418 0.39515,0.50064 0.68428,0.92158 0.90227,1.2702 -0.92822,-0.91647 -2.01524,-1.95198 -2.08049,-1.93838 -2.7e-4,1.2e-4 -0.001,8.7e-4 -0.002,0.001 l -5.2e-4,5.2e-4 c -0.006,0.0126 0.0435,0.0817 0.16175,0.22118 0.64279,0.75773 1.3813,1.42876 2.13786,2.07739 0.11388,0.19827 0.2013,0.36493 0.27336,0.50229 l -2.42724,-2.22673 c -0.28904,1.18449 -1.25228,5.70265 2.60449,2.54868 -0.0506,-0.0801 -0.10658,-0.18673 -0.17725,-0.32143 l 0.26872,0.24598 c -0.0307,0.0256 -0.0613,0.0508 -0.0915,0.0755 0.20101,0.31846 0.32212,0.22156 0.98909,-0.16537 0.27071,-0.40139 0.48049,-0.8321 0.67076,-1.27744 0.051,-0.1193 0.18211,-0.25146 0.22324,-0.37207 0.0455,0.0419 0.091,0.0836 0.13695,0.12506 0.0691,0.0623 0.17908,-0.0604 0.25424,-0.11524 0.48722,-0.35543 0.76353,-1.06442 1.2051,-1.46865 0.44886,-0.69345 0.90076,-1.38649 1.33377,-2.09031 0.14161,-0.0965 0.22971,-0.30935 0.29972,-0.48472 0.0193,-0.0182 0.0358,-0.0474 0.0346,-0.0682 0.1095,-0.18449 0.21722,-0.36997 0.32298,-0.55656 -0.9434,-0.71695 -1.45308,-1.34821 -1.81332,-2.49649 -0.14907,-0.46044 -0.28419,-0.92446 -0.4036,-1.39216 z m -5.43016,7.20318 c 0.007,-0.002 0.0149,-7.5e-4 0.0238,0.005 0.0121,0.008 0.024,0.0166 0.0362,0.0248 0.004,-0.0155 0.006,-0.0248 0.003,-0.0305 l -5.2e-4,-5.2e-4 c -0.007,-0.009 -0.0301,-0.01 -0.0837,-0.0196 0.007,0.007 0.0144,0.0138 0.0217,0.0207 z m 0.14625,0.0884 c 0.0139,0.009 0.028,0.0189 0.0418,0.0284 0.0232,-0.0255 0.0555,-0.0516 0.0563,-0.0646 v -5.2e-4 c -3e-5,-2.4e-4 7e-5,-0.001 0,-0.002 v -5.1e-4 c -1.2e-4,-2.1e-4 -8.8e-4,-0.001 -0.001,-0.002 l -5.2e-4,-5.2e-4 -5.1e-4,-5.2e-4 c -0.001,-9.5e-4 -0.005,-0.002 -0.007,-0.003 -0.0324,-0.006 -0.0609,0.0179 -0.0889,0.0439 z m 0.20567,0.1416 c 0.18191,-0.16642 0.31276,-0.37673 0.41961,-0.60048 -0.0937,0.0427 -0.20345,0.23929 -0.41961,0.60048 z m 1.58492,1.18959 c 0.11712,0.0914 0.23429,0.18295 0.3514,0.2744 -0.0342,-0.042 -0.0678,-0.0832 -0.10026,-0.12402 -0.0797,-0.0501 -0.16377,-0.10029 -0.25114,-0.15038 z m -0.006,-5.83582 c 0.003,-0.0114 0.007,-0.0227 0.0103,-0.0341 -0.0266,-0.013 -0.0535,-0.0225 -0.0615,-0.0212 h -5.1e-4 -5.2e-4 l -5.2e-4,5.2e-4 h -5.1e-4 v 5.2e-4 l -5.2e-4,5.2e-4 v 5.1e-4 5.2e-4 l 5.2e-4,5.2e-4 c 6.6e-4,0.001 0.002,0.003 0.005,0.006 0.0162,0.0154 0.0323,0.0311 0.0486,0.0465 z m 0.61857,0.0682 h 5.2e-4 5.1e-4 5.2e-4 l 5.2e-4,5.2e-4 c 2.2e-4,7e-5 0.001,4e-4 0.002,5.2e-4 0.001,5.8e-4 0.002,0.001 0.004,0.003 0.0229,0.0206 0.0458,0.0414 0.0687,0.062 -0.0139,0.014 -0.0273,0.0281 -0.0403,0.0429 -0.0246,-0.0487 -0.0399,-0.0943 -0.0372,-0.10593 7e-5,-2.2e-4 4.3e-4,-0.001 5.2e-4,-0.002 l 5.1e-4,-5.2e-4 h 5.2e-4 z m 3.35639,2.82877 c 0.42286,0.28375 0.43968,0.29923 -0.0992,0.2465 0.0178,-0.0649 0.0344,-0.13328 0.0568,-0.1757 0.008,-0.0161 0.0167,-0.0324 0.0248,-0.0486 0.006,-0.007 0.0118,-0.0147 0.0176,-0.0222 z m -6.26732,1.85932 c 0.001,-0.0119 -0.0231,0.063 -0.0863,0.25166 l 0.0202,0.0181 c 0.0388,-0.1591 0.065,-0.25782 0.0661,-0.26975 z m 3.54965,2.36678 c 0.007,0.007 0.0141,0.0148 0.0212,0.0222 h 5.2e-4 v 5.2e-4 h 5.1e-4 v 5.1e-4 5.2e-4 l -5.1e-4,5.2e-4 -5.2e-4,5.1e-4 h -5.2e-4 c -0.004,0.001 -0.0176,-5.8e-4 -0.0227,-0.004 l -5.1e-4,-5.2e-4 -5.2e-4,-5.1e-4 v -5.2e-4 h -5.2e-4 v -5.2e-4 -5.2e-4 -5.1e-4 -5.2e-4 c 0.001,-0.006 0.002,-0.0114 0.004,-0.0171 z" />
    <path
       id="path29"
       style="fill:#666666;stroke:#666666;stroke-width:0.264583"
       d="m 99.018245,91.73962 c 0.06769,0.08446 0.356822,0.400759 0.649056,0.718302 -0.05044,0.09008 -0.08141,0.205248 -0.07441,0.322461 0.0019,0.03189 0.0113,0.06047 0.02584,0.08733 -0.0215,0.01102 -0.04362,0.0233 -0.06615,0.03669 -0.02739,0.01628 -0.105601,0.124635 -0.146761,0.222725 -0.435079,-0.491059 -1.235695,-0.23057 -0.957565,0.394291 -0.098,-0.08218 -0.195195,-0.165873 -0.294039,-0.249597 -0.346871,0.249861 -0.431764,0.258313 -0.402559,0.374138 -0.453139,-0.13012 -0.413831,0.601852 -0.37052,0.845943 -4.09e-4,1.107276 -0.02091,0.664289 1.418518,1.442289 0.351125,0.60371 0.879076,1.211816 1.375106,1.56838 0.21987,0.194892 0.48842,0.375687 0.83044,0.589628 0.23837,0.35844 0.35789,0.457218 0.9369,0.973067 0.0538,0.04743 0.24074,0.218603 0.4284,0.376721 0.3133,0.299725 0.63316,0.588758 0.95239,0.884698 0.0693,0.0438 0.1383,0.17483 0.20774,0.13126 0.0408,-0.0256 0.0762,-0.0571 0.10801,-0.093 0.0504,0.0481 0.14308,0.0994 0.27181,0.19224 0.11147,0.0804 0.22705,0.15504 0.34055,0.23254 0.0808,0.0126 0.18742,0.0983 0.24236,0.0377 0.003,-0.003 0.005,-0.006 0.008,-0.009 0.4697,0.35045 0.94321,0.69605 1.41646,1.0418 0.19388,-0.19977 0.39119,-0.39642 0.58807,-0.59221 0.004,-0.004 0.008,-0.008 0.0124,-0.0124 -0.11806,-0.32968 -0.26237,-0.64991 -0.32557,-1.00148 -0.12021,-0.259412 -0.10519,-0.532824 0.0357,-0.78962 0.045,-0.08202 0.12014,-0.147527 0.15296,-0.235128 0.027,-0.07203 0.0141,-0.153369 0.0212,-0.22996 -0.0484,-0.119896 -0.0606,-0.250834 -0.21084,-0.288871 -0.0308,-0.0078 -0.0945,0.04255 -0.11059,0.04186 h -5.1e-4 -5.2e-4 -5.2e-4 v -5.17e-4 h -5.1e-4 v -5.17e-4 h -5.2e-4 v -5.17e-4 l -5.2e-4,-5.16e-4 v -5.17e-4 -5.17e-4 c -1.8e-4,-0.0016 7e-5,-0.0038 0.001,-0.0067 0.0653,-0.195903 0.44655,-0.188585 0.18086,-0.552938 -0.37454,-0.596299 0.0161,-0.02823 -0.51004,-0.620117 -0.0946,-0.106389 -0.16147,-0.236693 -0.26097,-0.338481 -0.99218,-1.015047 -1.99006,-2.024785 -3.01222,-3.009635 -0.0602,-0.05805 -0.14494,-0.133328 -0.22531,-0.110071 -0.0101,0.0029 -0.0204,0.0064 -0.03,0.01033 -0.38618,-0.382034 -0.88915,-0.825271 -2.16834,-1.970939 -0.06099,-0.05462 -0.161242,-0.02797 -0.241331,-0.04496 -0.0638,-0.01355 -0.126213,-0.03373 -0.19017,-0.04651 -0.01376,-0.0027 -0.0463,-0.01093 -0.05426,-0.0078 l -5.17e-4,5.16e-4 -5.16e-4,5.17e-4 v 5.17e-4 5.17e-4 5.16e-4 5.17e-4 l 5.16e-4,5.17e-4 v 5.17e-4 c 2.42e-4,3.86e-4 6.8e-4,0.0011 0.001,0.0015 0.07157,0.08831 0.143134,0.176489 0.214974,0.264583 -0.03088,0.02233 -0.05991,0.05297 -0.08578,0.0894 -0.592453,-0.608699 -0.746202,-0.756255 -0.678512,-0.671794 z m -0.06666,2.519226 c 0.01111,0.0069 0.01395,0.0093 0.0015,0.0021 -5.54e-4,-6.47e-4 -9.96e-4,-0.0014 -0.0015,-0.0021 z m -0.838709,0.620117 c 0.07954,0.0692 0.159181,0.138114 0.239262,0.206706 0.04254,0.0485 0.08399,0.09566 0.124024,0.141593 0.06019,0.191397 0.150792,0.394969 0.263549,0.600997 -0.545056,-0.420983 -0.893949,-0.780784 -0.626835,-0.949296 z m 1.031462,1.249536 c 0.06481,0.03794 0.131873,0.07797 0.201538,0.120406 0.01667,0.01994 0.03273,0.03946 0.04858,0.0584 -0.08458,-0.05994 -0.168073,-0.119648 -0.250114,-0.178801 z" />
    <path
       id="path31"
       style="fill:#666666;stroke:#666666;stroke-width:0.264583"
       d="m 104.39001,99.544828 c 0.009,0.662192 0.0234,1.324322 0.0656,1.985412 0.0643,0.5561 0.175,1.09988 0.3359,1.63142 0.49293,-0.67109 1.08282,-1.26515 1.67225,-1.85156 z m 7.54011,53.592082 c -0.003,0.0175 -0.005,0.0352 -0.008,0.0527 0.007,0.008 0.0144,0.0154 0.0217,0.0233 -0.005,-0.0253 -0.009,-0.0507 -0.0134,-0.076 z" />
    <path
       style="fill:#ffffff;stroke:#ffffff;stroke-width:0.264583"
       id="path35"
       d="m 85.761652,141.1994 c -0.42463,-0.72671 -0.840216,-1.47086 -1.189252,-2.23862 -0.296707,-0.47379 -0.177009,-1.42191 -0.63481,-1.75827 -0.357817,0.0514 -0.729874,0.0418 -1.073454,0.15422 -0.06702,0.0219 -0.02762,0.13848 -0.0356,0.20854 -0.01331,0.11701 -0.0074,0.26304 -0.0029,0.26229 1.143336,-0.18778 1.026821,0.059 1.003268,-0.63705 0.0084,-0.76871 -0.183039,-1.50949 -0.321696,-2.25719 -0.0118,-0.0983 -0.02671,-0.19621 -0.03538,-0.29481 -0.02564,-0.2915 -0.03742,-0.6146 -0.04626,-0.90591 -0.0033,-0.1082 -0.0047,-0.21645 -0.0063,-0.32469 -5.29e-4,-0.0407 0.04004,-0.12284 -5.29e-4,-0.12207 -0.335725,0.006 -0.664961,0.094 -0.997442,0.14099 -0.01598,0.34854 -0.06047,0.77366 0.92683,-0.21413 0.130828,-0.13089 -0.06234,-0.36487 -0.08906,-0.54799 -0.06968,-0.47748 -0.117782,-0.95587 -0.207727,-1.43008 -0.349938,0.042 -0.832202,0.40311 -1.049819,0.12587 -0.201007,-0.25608 0.682206,-0.067 0.939651,-0.26622 0.11539,-0.0893 -0.02453,-0.29086 -0.03156,-0.43661 -0.02093,-0.433 -0.02434,-0.86695 -0.01201,-1.30019 -0.329075,0.0451 -0.692216,-0.0173 -0.987224,0.13536 -0.0208,0.0107 0.01963,0.92046 0.01799,1.25356 -2.65e-4,0.0605 -0.06453,0.17838 -0.0041,0.1814 0.333772,0.0167 0.662559,-0.088 0.993836,-0.13198 -0.01138,-0.83957 -0.02524,-1.67953 -0.01146,-2.51918 0.0016,-0.0956 0.104777,-0.27007 0.01061,-0.28667 -0.326904,-0.0576 -0.659498,0.0762 -0.989246,0.11424 0.329928,-0.0912 0.71301,-0.0722 0.989788,-0.27358 0.131471,-0.0957 0.03244,-0.3236 0.0526,-0.48495 0.09077,-0.72647 0.190203,-1.45292 0.300513,-2.17671 0.138417,-0.38515 0.253604,-0.56509 -0.904642,-0.0375 -0.02674,0.0122 0.04754,0.8672 0.110472,0.87005 0.361849,0.0164 0.717473,-0.10024 1.076211,-0.15036 0.204359,-0.45031 0.208854,-0.98902 0.437041,-1.42897 0.02328,-0.0449 0.177068,-0.0919 0.12735,-0.0826 -1.016413,0.19133 -0.95223,-0.0501 -0.821172,0.55972 0.09422,0.52458 0.116531,0.7376 1.087049,0.0623 0.0011,-5.3e-4 0.01021,-1.55375 0.01061,-1.67142 0.0034,-0.10026 0.0068,-0.20051 0.01027,-0.30076 0.0026,-0.005 0.01365,-0.0157 0.008,-0.0152 -2.406218,0.21234 -0.236132,0.10564 0.02215,-0.0168 0.107177,-0.0508 0.02289,-0.23611 0.03431,-0.35416 0.06118,-0.33638 0.112517,-0.67742 0.213241,-1.00543 0.02132,-0.0694 0.163721,-0.20028 0.09117,-0.19779 -1.238842,0.0424 -0.824587,0.0323 -0.927269,0.61162 0.331528,-0.0716 0.701016,-0.045 0.994582,-0.21492 0.104783,-0.0606 0.0028,-0.2421 0.0043,-0.36316 0.0074,-0.59114 0.02713,-1.17711 -0.03537,-1.76602 -0.182322,-0.36478 -0.132665,-0.32067 -1.057748,0.18763 -0.09396,0.0516 -0.01336,0.21406 -0.02479,0.32065 -0.0056,0.0525 -0.07897,0.16105 -0.02638,0.15625 0.340844,-0.0311 0.705088,-0.0665 0.997149,-0.24493 0.107963,-0.066 0.01579,-0.25254 0.02371,-0.37882 0.03287,-0.73719 0.421455,-1.23571 -0.937971,-0.6708 -0.09139,0.038 -0.0114,0.19762 -0.01961,0.29624 -0.0069,0.0825 -0.01712,0.16477 -0.02569,0.24716 -0.0996,0.39619 -0.139523,0.42053 0.980448,-0.008 0.08866,-0.0339 0.0104,-0.18974 0.02259,-0.28388 0.02307,-0.17831 0.05033,-0.35617 0.08312,-0.53295 0.05843,-0.315 0.217297,-1.01434 0.286313,-1.32399 0.318268,-1.13431 0.719635,-2.23983 1.137539,-3.34029 0.294762,-0.59635 0.134258,-0.31594 0.476126,-0.84431 0,0 -0.972606,-0.0551 -0.972606,-0.0551 v 0 c -0.338169,0.5431 -0.178869,0.25594 -0.472876,0.86426 -0.417396,1.10452 -0.814465,2.2152 -1.129173,3.35428 -0.03334,0.14898 -0.483296,2.1264 -0.424746,2.15244 0.974121,0.43324 0.936035,0.43247 0.999762,0.027 0.0077,-0.0829 0.01511,-0.16587 0.02304,-0.24877 0.0093,-0.0972 0.117319,-0.25078 0.02859,-0.29156 -1.215327,-0.55858 -0.954916,-0.0796 -1.033677,0.65103 -0.05303,0.6511 -0.169635,0.53159 0.949584,0.64434 0.05374,0.005 0.01177,-0.1074 0.01725,-0.16113 0.01066,-0.10433 0.124963,-0.26607 0.03121,-0.31307 -0.753129,-0.37759 -1.196793,0.0915 -0.916443,-0.19115 0.08989,0.58214 0.05845,1.16429 0.04074,1.75102 -0.0037,0.12122 -0.116041,0.30045 -0.01251,0.3636 0.288229,0.17582 0.65754,0.15362 0.986311,0.23044 0.06896,-0.65741 -0.01032,-0.64306 -1.052962,-0.66337 -0.07524,-0.002 -0.05549,0.14023 -0.07535,0.21282 -0.04434,0.1621 -0.08117,0.3262 -0.117012,0.49039 -0.0382,0.175 -0.07005,0.35132 -0.105082,0.52698 -0.01513,0.11586 -0.147325,0.29046 -0.04539,0.34757 0.270801,0.15171 2.33711,0.24938 -0.03081,0.0371 -0.005,-5.3e-4 0.0058,0.008 0.0087,0.0123 0.0029,0.1002 0.0057,0.20039 0.0086,0.30057 -0.0028,0.43579 -0.0024,0.78402 -0.01487,1.21816 -0.0043,0.14827 -0.142042,0.36199 -0.01884,0.4446 0.274042,0.18375 0.647031,0.12962 0.970704,0.19362 0.01273,0.003 -0.02522,-0.006 -0.03782,-0.009 -0.01717,-0.0858 -0.03435,-0.17158 -0.05152,-0.25737 -0.02244,-0.11622 0.0367,-0.29222 -0.06734,-0.34867 -0.15985,-0.0867 -0.996386,-0.59107 -1.192757,-0.13905 -0.04111,0.0946 -0.283848,0.93778 -0.300517,0.9891 -0.04604,0.14172 -0.101663,0.28014 -0.152495,0.42021 0.300633,0.0551 0.596262,0.16756 0.901901,0.16537 0.06209,-5.3e-4 -0.06303,-0.11005 -0.07314,-0.17131 -0.01955,-0.11855 -0.009,-0.24015 -0.01458,-0.36018 -0.0052,-0.11098 0.0844,-0.28932 -0.01783,-0.33284 -1.008562,-0.42936 -0.959109,-0.39551 -1.065299,0.0529 -0.09712,0.72665 -0.195051,1.45292 -0.296596,2.17894 -0.02312,0.16535 -0.193751,0.3897 -0.06548,0.49657 0.262956,0.21909 0.659807,0.18232 0.989711,0.27348 -0.32983,-0.0381 -0.662503,-0.17179 -0.989489,-0.1142 -0.09417,0.0166 0.0087,0.19108 0.01013,0.28669 0.01265,0.83919 -7.94e-4,1.67879 -0.01828,2.51779 0.329996,0.044 0.657479,0.14857 0.989992,0.13205 0.06026,-0.003 -0.0077,-0.12045 -0.0091,-0.18076 -0.0079,-0.33122 0.0232,-1.24185 -0.0021,-1.25472 -0.297299,-0.1517 -0.661567,-0.089 -0.992352,-0.13354 0.0117,0.43531 0.0092,0.87098 0.02312,1.30621 0.0048,0.14929 -0.100052,0.36202 0.02241,0.44753 0.294188,0.20542 0.818221,0.007 1.036169,0.29163 0.189812,0.24823 -0.617214,-0.0982 -0.925822,-0.14732 0.113102,0.47031 0.162203,0.94384 0.223406,1.42346 0.02357,0.18483 -0.07614,0.44339 0.07373,0.5541 1.074343,0.79368 1.049163,0.60042 1.049951,0.19668 -0.329798,-0.0462 -0.656442,-0.13217 -0.989393,-0.13848 -0.04019,-7.9e-4 0.01,0.0798 0.01246,0.11996 0.0067,0.10818 0.01109,0.2165 0.01521,0.32482 0.0096,0.25188 0.01736,0.65749 0.036,0.91375 0.0073,0.10071 0.02199,0.20074 0.03298,0.30111 0.129561,0.74434 0.370142,1.47254 0.328494,2.24212 0.01085,0.67407 -0.112231,0.41865 0.972177,0.62487 0.024,0.005 -0.0099,-0.0481 -0.01035,-0.0725 -0.009,-0.57337 0.389125,-0.3599 -0.861174,-0.42076 0.03451,-5.3e-4 0.07913,-0.0263 0.103526,-0.002 0.319103,0.31938 0.279704,1.278 0.542904,1.67947 0.177331,0.39654 0.399047,0.75371 0.596238,1.13877 0.190979,0.37294 0.328245,0.77662 0.581626,1.1166 z" />
    <path
       style="fill:#666666;stroke:#666666;stroke-width:0.264583"
       id="path13"
       d="m 104.29481,100.48395 c 0.15819,0.6158 0.43188,1.20657 0.69377,1.78626 0.96779,1.71618 0.0235,0.74631 4.23777,0.30507 0.0477,-0.005 -0.094,-0.0229 -0.13704,-0.0441 -0.0532,-0.0261 -0.0995,-0.0643 -0.14926,-0.0965 -1.09048,-1.12872 1.25103,-0.48911 -4.04551,0.21892 -0.0687,0.009 0.13155,0.0469 0.19059,0.0833 0.19568,0.12044 0.51542,0.40181 0.67236,0.53312 1.05184,0.86343 1.95728,1.88018 2.92165,2.83573 0.68181,0.69324 1.37133,1.37983 2.07514,2.05069 0.63189,0.6705 1.2715,1.33694 1.87421,2.03453 0.70228,0.77326 1.31286,1.62221 1.93697,2.45826 0.3904,0.58023 0.84409,1.10798 1.29757,1.63868 0.41182,0.54864 0.78861,1.1224 1.24458,1.63653 0.0246,0.0356 0.0491,0.0712 0.0736,0.10677 0,0 3.93558,-0.21679 3.93558,-0.21679 v 0 c -0.0376,-0.0657 -0.0752,-0.13139 -0.11279,-0.19709 -0.51684,-0.45053 -0.88006,-1.04376 -1.2731,-1.59942 -0.44105,-0.53825 -0.90278,-1.05577 -1.30995,-1.62018 -0.82025,-1.05468 0.34401,0.42933 -0.57364,-0.69428 -0.47501,-0.58163 -0.88015,-1.21859 -1.38152,-1.77984 -0.58848,-0.72933 -1.27097,-1.3657 -1.8718,-2.08449 -0.73118,-0.65518 -1.41223,-1.36815 -2.13052,-2.03798 -0.98586,-0.92699 -1.90442,-1.91633 -2.87964,-2.85346 -0.49291,-0.47414 -0.18409,-0.16664 -0.58596,-0.58714 -0.0511,-0.0535 -0.0809,-0.16235 -0.15476,-0.15906 -6.26778,0.27888 -4.78087,-0.62006 -3.82464,0.55154 1.0059,1.28511 1.36076,0.29422 4.27613,-0.007 0.0438,-0.005 -0.0514,-0.0716 -0.0764,-0.10787 -0.0563,-0.0817 -0.11382,-0.16263 -0.16744,-0.24611 -0.0618,-0.0963 -0.11922,-0.1953 -0.17882,-0.29295 -0.25328,-0.51462 -0.47431,-1.06277 -0.6251,-1.6152 z" />
    <path
       style="fill:#666666;stroke:#666666;stroke-width:0.264583"
       id="path14"
       d="m 110.70362,170.8445 c 0.1098,-0.88441 0.45686,-1.71915 0.90383,-2.48271 0.48556,-0.76848 1.0231,-1.50249 1.50982,-2.27002 0.2866,-0.38927 0.52921,-0.81542 0.81892,-1.2019 0.13079,-0.17447 0.35167,-0.39611 0.50074,-0.55222 0.63186,-0.63128 1.17067,-1.34484 1.68101,-2.07712 0.80899,-1.02829 1.67524,-2.00662 2.56843,-2.96197 0.80285,-0.86109 1.58943,-1.74219 2.3235,-2.66331 0.67099,-0.76501 1.3829,-1.49479 2.05762,-2.25847 0.71852,-0.76256 1.44127,-1.51925 2.18492,-2.25762 0.75931,-0.71618 1.56198,-1.38597 2.32909,-2.09484 0.11491,-0.11063 0.22807,-0.22312 0.34473,-0.33191 0.34781,-0.32434 0.32762,-0.26899 0.63713,-0.6208 0.26062,-0.29624 0.50725,-0.60488 0.76969,-0.90016 0.49599,-0.65536 0.94965,-1.34173 1.38899,-2.03644 0.40359,-0.67602 0.65669,-1.41768 0.89187,-2.16419 0.23662,-0.69225 0.46348,-1.37632 0.5646,-2.10348 0.14628,-0.67427 0.2184,-1.35989 0.26877,-2.04688 0.0236,-0.64369 0.0615,-1.29258 -0.0122,-1.93354 -0.15173,-0.69657 -0.31754,-1.38735 -0.61354,-2.03791 -0.35768,-0.7646 -0.72826,-1.52288 -1.09113,-2.28519 -0.53093,-1.24546 -1.11806,-2.46795 -1.76159,-3.65911 -0.52754,-1.02575 -0.9803,-2.08097 -1.5941,-3.06037 -0.58325,-0.7463 -1.04171,-1.56202 -1.42826,-2.42333 -0.49858,-1.13284 -0.86192,-2.31621 -1.3363,-3.45943 -0.55213,-1.34082 -1.33146,-2.56654 -2.0526,-3.81947 -0.55176,-0.8893 -0.96183,-1.84788 -1.33178,-2.82309 0,0 -3.78506,0.1311 -3.78506,0.1311 v 0 c 0.3469,1.01237 0.76992,1.99415 1.36273,2.89079 0.72885,1.22748 1.46653,2.45297 2.02916,3.76846 0.46783,1.14239 0.82114,2.32257 1.29033,3.46384 0.35254,0.89748 0.79858,1.74482 1.41593,2.49258 0.2843,0.421 0.56271,0.84825 0.80007,1.29823 0.23901,0.45308 0.30919,0.66973 0.54206,1.1335 0.10078,0.20071 0.21148,0.39628 0.31721,0.59442 0.6379,1.17609 1.26443,2.36706 1.70372,3.63434 0.331,0.7743 0.71257,1.52517 1.02574,2.30664 0.33718,0.58392 0.47013,1.25162 0.61191,1.90497 0.0929,0.61425 0.0164,1.23902 0.01,1.85787 -0.036,0.67552 -0.11692,1.34631 -0.24451,2.01096 -0.12483,0.70157 -0.34991,1.36612 -0.56654,2.04323 -0.23427,0.71033 -0.47242,1.42384 -0.86374,2.06668 -0.43567,0.67944 -0.90755,1.33865 -1.40368,1.97509 -0.55008,0.6277 -1.07589,1.27479 -1.7169,1.81603 -0.76392,0.7047 -1.56348,1.3714 -2.29483,2.11046 -0.75621,0.74254 -1.5105,1.4878 -2.21441,2.28093 -0.67743,0.76232 -1.41164,1.47507 -2.03991,2.27947 -0.72715,0.91008 -1.5217,1.76618 -2.29242,2.63908 -0.8942,0.99134 -1.7757,1.9944 -2.64477,3.00779 -0.5063,0.72306 -1.06396,1.40257 -1.69239,2.02375 -0.5039,0.56363 -0.92083,1.19034 -1.32803,1.82651 -0.47372,0.77294 -0.99603,1.5155 -1.46507,2.29161 -0.44062,0.83152 -0.80494,1.71448 -1.01647,2.63357 z" />
    <path
       style="fill:#666666;stroke:#666666;stroke-width:0.264583"
       id="path15"
       d="m 110.08993,172.10822 c 0.36312,-0.3601 0.72648,-0.72481 1.0586,-1.11727 0.19117,-0.38772 0.52192,-0.65894 0.78797,-0.98961 0.0147,-0.0311 0.0293,-0.0623 0.044,-0.0934 0,0 -3.97729,-0.17969 -3.97729,-0.17969 v 0 c -0.002,0.003 -0.004,0.006 -0.006,0.009 -0.25271,0.3249 -0.54775,0.61751 -0.76017,0.97479 -0.33933,0.38425 -0.69665,0.75317 -1.08692,1.08634 z" />
    <path
       style="fill:#666666;stroke:#666666;stroke-width:0.264583"
       id="path16"
       d="m 103.15272,175.22255 c -0.18295,0.24002 -0.3294,0.5414 -0.57364,0.72968 -0.0531,0.0409 -0.25356,0.0746 -0.18654,0.075 3.90916,0.0236 4.37838,1.1107 3.8091,-0.13143 0.0869,-1.48212 0.89301,-0.36705 -3.97405,-0.0764 -0.0741,0.004 0.0271,0.53205 -0.15452,0.1633 4.78351,0.29134 4.09188,1.17863 3.79649,-0.63056 -0.0367,-0.21671 0.0404,-0.26617 -0.11053,-0.26169 -1.33725,0.0397 -2.67394,0.10087 -4.01154,0.12603 -0.0255,5.3e-4 -0.0837,-0.0499 -0.0582,-0.0495 3.9627,0.0642 4.1736,1.3963 3.88911,-0.0431 -0.0271,-0.27511 -0.0259,-0.55961 0.0525,-0.82747 0.0116,-0.0398 0.022,-0.0852 0.0533,-0.11234 0.0131,-0.0113 0.0606,0.0277 0.0433,0.0286 -1.29465,0.0684 -2.59032,0.11631 -3.88548,0.17446 1.35119,-0.0551 2.70239,-0.11025 4.05358,-0.16538 0.0431,-0.0291 0.18128,-0.0876 0.12928,-0.0873 -1.26718,0.007 -2.53303,0.087 -3.80004,0.10896 -0.0331,5.3e-4 0.057,-0.0537 0.0889,-0.0446 0.0475,0.0136 0.11993,0.17356 0.1363,0.20513 0.46045,1.36947 0.10521,0.42326 4.05618,0.27573 0.1115,-0.004 0.0619,-0.21439 0.0909,-0.32214 0.0784,-0.29163 0.15026,-0.54635 0.28689,-0.81578 0.31048,-0.47976 0.61948,-0.96392 0.88481,-1.47063 0.14361,-0.23094 0.33017,-0.42883 0.49581,-0.64159 0.14753,-0.1895 0.22857,-0.31756 0.4367,-0.44282 1.45493,-0.0667 -1.27379,0.0597 -3.74236,0.0453 -0.0267,-1.6e-4 0.0181,-0.0961 0.032,-0.0733 0.0201,0.0332 -0.004,0.0775 -0.006,0.11628 0,0 3.92986,0.0399 3.92986,0.0399 v 0 c 0.0124,-0.10268 0.0395,-0.20464 0.0373,-0.30805 -0.0343,-1.58268 -3.16836,-1.19467 -4.17547,-0.16453 -0.34559,0.37438 -0.62969,0.8018 -0.90103,1.23172 -0.2953,0.50248 -0.60502,0.99621 -0.89897,1.49961 -0.0375,0.0896 -0.0751,0.17926 -0.11258,0.26888 -0.028,0.0878 -0.0506,0.17745 -0.084,0.26329 -0.0328,0.0842 -0.0562,0.17657 -0.11423,0.24581 -0.022,0.0263 -0.13646,0.0104 -0.10221,0.0124 3.93092,0.22866 4.35767,1.4106 3.83208,0.0865 -0.0243,-0.0712 -0.21736,-0.60951 -0.25708,-0.61111 -1.34692,-0.0542 -2.69603,0.0416 -4.0428,0.0994 -0.0518,0.002 -0.18537,0.0791 -0.1335,0.08 1.27103,0.0213 2.54239,-0.0123 3.81359,-0.0184 -4.11003,0.16566 -4.02232,-1.00893 -4.12825,1.34865 -10e-4,0.0887 -0.0916,0.25354 -0.004,0.26599 1.31934,0.18709 2.65592,0.2251 3.98641,0.29877 0.0337,0.002 0.10266,-0.074 0.0689,-0.0742 -1.29152,-0.008 -2.58289,0.0325 -3.87431,0.0503 -0.0192,2.6e-4 0.0384,0.002 0.0576,0.002 0.009,-0.0839 0.0175,-0.16786 0.0263,-0.25179 0.53423,1.80945 -0.83221,0.88451 4.12518,0.96651 0.0546,-0.25044 0.008,-0.0713 0.0988,-0.33613 0.0235,-0.0688 0.13989,-0.20225 0.0674,-0.20728 -6.536878,-0.45349 -4.0132,-1.26855 -3.93755,0.10152 0.15942,1.6044 -0.0497,0.45226 4.04344,0.43545 0.0763,-2.6e-4 0.1048,-0.11101 0.15468,-0.16877 0.21522,-0.24919 0.41685,-0.51011 0.62554,-0.7647 z" />
    <path
       style="fill:#666666;stroke:#666666;stroke-width:0.264583"
       id="path17"
       d="m 103.60801,99.242916 c 0.63301,0.303691 1.15486,0.753004 1.63166,1.259524 0.52004,0.57534 0.99225,1.18931 1.48729,1.78498 0.57706,0.62699 1.20929,1.19502 1.787,1.82119 0.50742,0.62615 1.02913,1.22997 1.59812,1.80126 0.5476,0.55374 1.09938,1.10313 1.67739,1.62524 0.55746,0.48391 1.01452,1.05963 1.48277,1.62535 0.37586,0.48825 0.81747,0.91988 1.22188,1.38316 0.46332,0.58844 0.94576,1.16033 1.42729,1.73387 0.579,0.61679 1.10956,1.26248 1.60413,1.948 0.53855,0.68457 0.95134,1.45033 1.46277,2.1543 0.30485,0.42179 0.59504,0.8551 0.85937,1.30341 0,0 3.88339,-0.21299 3.88339,-0.21299 v 0 c -0.28458,-0.45188 -0.58479,-0.89402 -0.89143,-1.33121 -0.50548,-0.70741 -0.95551,-1.44655 -1.45852,-2.15531 -0.25232,-0.34775 -0.48908,-0.71829 -0.76365,-1.04888 -0.2648,-0.31883 -0.58116,-0.59555 -0.83498,-0.92461 -0.15595,-0.19148 -0.29825,-0.39385 -0.45502,-0.58466 -0.31361,-0.38172 -0.6855,-0.71363 -0.95019,-1.1366 -0.35533,-0.5218 -0.84642,-0.90332 -1.23395,-1.39872 -0.31571,-0.3727 -0.59931,-0.77499 -0.94,-1.12642 -0.0888,-0.0916 -0.18936,-0.17118 -0.27856,-0.26235 -0.0947,-0.0968 -0.1819,-0.2008 -0.27284,-0.30121 -0.60081,-0.48213 -1.1283,-1.04886 -1.67262,-1.59284 -0.25481,-0.25877 -0.52332,-0.50627 -0.77581,-0.76671 -0.36808,-0.37969 -0.17978,-0.22193 -0.54191,-0.65561 -0.10313,-0.12351 -0.21533,-0.23914 -0.32299,-0.35871 -0.55939,-0.62742 -1.14741,-1.22449 -1.73478,-1.82347 -0.26565,-0.27176 -0.47131,-0.57334 -0.71505,-0.86372 -0.2601,-0.30987 -0.55724,-0.58946 -0.79039,-0.92224 -0.26079,-0.295995 -0.51836,-0.609193 -0.82192,-0.863619 -0.28914,-0.242345 -0.23693,-0.143333 -0.53559,-0.360825 -0.077,-0.05611 -0.14547,-0.12318 -0.21821,-0.18477 z" />
  </g>
</svg>
