<?xml version="1.0" encoding="UTF-8" standalone="no"?>
<!-- Created with Inkscape (http://www.inkscape.org/) -->

<svg
   width="210mm"
   height="297mm"
   viewBox="0 0 210 297"
   version="1.1"
   id="svg1"
   inkscape:export-filename="swordAsset.png"
   inkscape:export-xdpi="96"
   inkscape:export-ydpi="96"
   inkscape:version="1.4.2 (f4327f4, 2025-05-13)"
   sodipodi:docname="swordAsset.svg"
   xmlns:inkscape="http://www.inkscape.org/namespaces/inkscape"
   xmlns:sodipodi="http://sodipodi.sourceforge.net/DTD/sodipodi-0.dtd"
   xmlns="http://www.w3.org/2000/svg"
   xmlns:svg="http://www.w3.org/2000/svg">
  <sodipodi:namedview
     id="namedview1"
     pagecolor="#ffffff"
     bordercolor="#000000"
     borderopacity="0.25"
     inkscape:showpageshadow="2"
     inkscape:pageopacity="0.0"
     inkscape:pagecheckerboard="0"
     inkscape:deskcolor="#d1d1d1"
     inkscape:document-units="mm"
     inkscape:export-bgcolor="#ffffff00"
     inkscape:zoom="0.75811588"
     inkscape:cx="503.88075"
     inkscape:cy="608.74599"
     inkscape:window-width="1920"
     inkscape:window-height="1111"
     inkscape:window-x="-9"
     inkscape:window-y="-9"
     inkscape:window-maximized="1"
     inkscape:current-layer="layer1" />
  <defs
     id="defs1" />
  <g
     inkscape:label="Vrstva 1"
     inkscape:groupmode="layer"
     id="layer1">
    <path
       style="fill:#000000;stroke:#000000;stroke-width:0.264583"
       id="path16"
       d="m 55.51039,108.44804 c -0.0092,-1.16337 -0.05764,-2.32919 0.01527,-3.49086 0.143143,-1.25668 0.2226,-2.51749 0.26792,-3.78111 0.03219,-1.7496 0.05743,-3.50159 -0.01725,-5.2502 -0.07811,-2.22202 -0.29714,-4.43425 -0.467894,-6.65005 -0.121661,-1.51547 -0.15304,-3.03524 -0.168905,-4.55478 -0.04001,-1.62852 -0.362283,-3.23667 -0.516594,-4.85929 0.01318,-1.36255 -0.294311,-2.66727 -0.577037,-3.98723 -0.162142,-1.07398 -0.280519,-2.15219 -0.436147,-3.22771 -0.08217,-1.50413 -0.405048,-2.9747 -0.625997,-4.461 -0.225403,-1.74991 -0.262236,-3.51601 -0.287837,-5.27789 -0.01566,-1.44152 -0.01196,-2.88317 -0.0033,-4.32473 -0.0019,-1.54087 -0.0098,-3.08172 -0.0062,-4.62259 0.03067,-1.47702 -0.05527,-2.95876 0.04834,-4.43327 0.01622,-1.22289 0.685133,-2.17049 1.308005,-3.16361 0.792292,-1.38495 1.825468,-2.60968 2.635916,-3.98044 0.8127,-0.99095 1.183844,-2.20408 1.672421,-3.36169 0.560853,-1.47476 1.289923,-2.87519 2.197491,-4.16431 0.895485,-1.271424 1.744417,-2.577373 2.509483,-3.931418 0.662705,-0.981631 1.117024,-2.079469 1.649278,-3.133302 0.159152,0.07738 0.177551,-0.532371 0.382617,-0.494773 0.08368,0.01535 0.192606,0.2649 0.116371,0.227142 -1.058116,-0.524087 -2.045819,-1.183 -3.104015,-1.706925 -0.157043,-0.07775 0.270624,0.225597 0.383249,0.359846 0.165193,0.196911 0.297469,0.419241 0.446202,0.628862 0.907081,1.235456 1.617278,2.594266 2.441572,3.882329 0.654653,0.930796 1.235358,1.909374 1.916115,2.821715 0.666141,1.039172 1.506006,1.932304 2.323248,2.849304 0.919448,0.97321 1.725009,2.04065 2.570274,3.07634 0.626641,0.83814 1.14282,1.74675 1.673195,2.64589 0.525192,0.98148 1.109544,1.93316 1.617464,2.92329 0.42287,1.11705 0.77377,2.26654 1.00936,3.43884 0.25265,1.71002 0.28497,3.44315 0.3032,5.16872 0.006,1.26751 0.001,2.53505 2.6e-4,3.80257 0.0191,1.78589 0.0182,3.57171 0.0119,5.35767 0.0251,1.99139 0.0204,3.98054 -0.0876,5.96926 -0.10324,2.78313 -0.34779,5.55938 -0.65419,8.32707 -0.3225,2.88655 -0.68925,5.77537 -1.16027,8.64219 -0.371342,2.0245 -0.565192,4.07519 -1.00143,6.08698 -0.256802,1.30681 -0.581038,2.60007 -0.764566,3.91996 -0.127191,1.42997 -0.136798,2.80413 -0.36703,4.22615 -0.249018,1.33796 -0.395094,2.68915 -0.4724,4.04692 -0.05717,1.13865 -0.05266,2.2792 -0.05643,3.41894 -0.02376,0.14501 -0.04752,0.29002 -0.07128,0.43503 0,0 3.474266,1.84774 3.474266,1.84774 v 0 c 0.0315,-0.16684 0.0631,-0.33368 0.0946,-0.50052 -0.003,-1.13513 -0.003,-2.27061 0.0383,-3.40516 0.0651,-1.34634 0.18692,-2.6889 0.43752,-4.01504 0.0484,-0.2784 0.20634,-1.14996 0.23089,-1.43823 0.0789,-0.92656 0.003,-1.86884 0.15406,-2.79167 0.17791,-1.3145 0.49037,-2.60319 0.72788,-3.90752 0.41964,-2.02948 0.59087,-4.09156 0.95514,-6.13189 0.46986,-2.87685 0.77883,-5.7845 1.14102,-8.676 0.29003,-2.76608 0.59015,-5.5342 0.72422,-8.31248 0.11828,-1.99321 0.12021,-3.98482 0.11182,-5.98142 -0.005,-1.78028 -0.005,-3.56044 0.0201,-5.34059 0.004,-1.27194 0.0106,-2.54394 -0.0109,-3.81578 -0.0368,-1.7438 -0.089,-3.4892 -0.27285,-5.22489 -0.19619,-1.20725 -0.56503,-2.36409 -0.94058,-3.52235 -0.22758,-0.50691 -0.52424,-0.91836 -0.79413,-1.39714 -0.28733,-0.50973 -0.47707,-1.07919 -0.80917,-1.56664 -0.80735,-1.23091 0.18571,0.33113 -0.54123,-0.97228 -0.33289,-0.59686 -0.78236,-1.12756 -1.11881,-1.72298 -0.84838,-1.03647 -1.649333,-2.10859 -2.568012,-3.08628 -0.781724,-0.93934 -1.701876,-1.76142 -2.327952,-2.82612 -0.698714,-0.895342 -1.271794,-1.872445 -1.930093,-2.795593 -0.846103,-1.282313 -1.56469,-2.639745 -2.462387,-3.889737 -1.135978,-1.948632 -1.484395,-1.783569 -4.448588,-3.250049 -0.110474,-0.05465 -0.246092,0.05509 -0.348427,0.123788 -0.123092,0.08263 -0.360415,0.517504 -0.411869,0.603456 -0.498263,1.062458 -0.978053,2.140284 -1.619594,3.125476 -0.741341,1.352777 -1.58033,2.647058 -2.462342,3.912227 -0.915884,1.312021 -1.688735,2.723902 -2.268802,4.217562 -0.487132,1.13968 -0.847707,2.33776 -1.635268,3.32536 -0.796428,1.37499 -1.8162,2.60515 -2.639224,3.96498 -0.651806,1.04219 -1.388218,2.04574 -1.405562,3.32928 -0.09954,1.48665 -0.0036,2.98046 -0.03595,4.46953 0.0026,1.53734 -0.0066,3.07465 -0.0136,4.61197 0.0044,1.44674 -9.8e-5,2.89357 0.01807,4.34023 0.03369,1.77612 0.08766,3.55414 0.269126,5.3223 0.198843,1.48286 0.564177,2.93978 0.594373,4.44147 0.129988,1.08658 0.31686,2.16399 0.424419,3.25374 0.154053,0.77101 0.426775,1.53708 0.52397,2.31706 0.03307,0.26542 0.03023,0.5341 0.04909,0.8009 0.02008,0.28422 0.04518,0.56807 0.06777,0.85211 0.08107,0.89762 0.17026,1.79155 0.293526,2.68453 0.02307,0.16706 0.189717,1.27172 0.204566,1.47678 0.01582,0.21834 0.0046,0.43781 0.0069,0.65671 0.01786,1.53219 0.04386,3.06662 0.184055,4.59337 0.193752,2.21226 0.446887,4.42058 0.491646,6.64306 0.05905,1.73327 0.02953,3.46715 -0.01693,5.20061 -0.04416,1.2591 -0.125357,2.51528 -0.268058,3.76745 -0.08133,1.16286 -0.03356,2.3282 -0.06823,3.49301 z" />
    <path
       style="fill:#000000;stroke:#000000;stroke-width:0.264583"
       id="path17"
       d="m 53.169282,107.56144 c -1.217205,0.51939 -2.433757,0.99911 -3.725323,1.30253 -1.183076,0.28956 -2.371931,0.21131 -3.568864,0.10259 -0.758229,-0.19027 -1.555795,-0.20439 -2.317207,-0.3666 -0.371518,-0.0791 -0.726977,-0.2206 -1.091092,-0.32882 -1.08704,-0.17621 -2.006541,-0.79866 -3.041949,-1.11411 -0.781846,-0.2853 -1.626796,-0.25377 -2.431827,-0.39891 -0.02376,-0.004 -1.002096,-0.28661 -1.02924,-0.29443 -0.996492,-0.31522 -2.03731,-0.39181 -3.073921,-0.44587 -1.286354,-0.0384 -2.573721,-0.0297 -3.86052,-0.0272 -0.982025,0.1167 -2.256446,-0.17361 -3.207887,0.0514 -0.154496,0.0365 -0.294244,0.11931 -0.441365,0.17897 -0.976101,0.63896 -0.404421,1.68548 0.140271,2.41411 0.567005,0.71393 1.306994,1.25224 1.918431,1.92339 0.672121,0.89868 1.387927,1.73109 2.23403,2.47192 0.779055,0.70915 1.593022,1.37919 2.438403,2.00754 1.267013,0.73189 2.532491,1.46644 3.801038,2.19566 0.16106,0.0926 0.323128,0.18357 0.487707,0.26975 0.165954,0.0869 0.66504,0.34443 0.503637,0.24935 -0.967029,-0.56968 -3.906515,-2.21188 -2.921577,-1.67376 4.48837,2.4522 2.397257,1.60037 4.260305,2.33815 1.019072,0.52574 2.049703,1.0008 3.109526,1.44068 1.135838,0.42346 2.245852,0.91183 3.365601,1.37937 1.100261,0.45819 2.28656,0.52107 3.447975,0.69581 1.112674,0.19367 2.23959,0.25792 3.366191,0.29991 1.133369,0.0298 2.26727,0.0293 3.400936,0.0253 1.469098,-0.003 2.938166,-0.0122 4.40727,-0.009 1.303406,0.002 2.60681,0.006 3.910219,0.006 1.121399,0.002 2.242801,2e-4 3.364201,0.002 1.021093,-0.0765 2.005861,0.14142 2.950151,0.51966 0.378709,0.22615 0.833192,0.22039 1.239115,0.34836 0.411057,0.12959 0.798947,0.36438 1.210091,0.50641 1.013711,0.2257 1.977932,0.59918 2.997877,0.8072 0.94377,0.21272 1.88688,0.0935 2.8132,-0.12406 0.31645,-0.22837 0.86357,-0.3066 1.03487,-0.71095 0.0887,-0.20949 0.0851,-0.44701 0.1276,-0.67052 0,0 -3.47032,-1.82989 -3.47032,-1.82989 v 0 c -0.01,0.14728 0.0225,0.30357 -0.0292,0.44184 -0.11928,0.3192 -0.654165,0.37517 -0.90417,0.52108 -0.893048,0.1863 -1.799015,0.22304 -2.692447,-0.001 -1.004522,-0.24517 -1.985777,-0.57893 -2.97983,-0.86059 -0.808167,-0.32201 -1.629669,-0.57416 -2.453947,-0.84998 -0.988314,-0.30266 -1.978681,-0.48781 -3.019033,-0.40475 -1.11954,0.002 -2.239079,-5.3e-4 -3.358616,0.002 -1.296908,7.9e-4 -2.593808,0.004 -3.890711,0.008 -1.475052,0.004 -2.950088,-0.002 -4.42514,-0.004 -1.132412,-0.005 -2.265223,-7.9e-4 -3.397078,-0.0422 -1.118823,-0.0498 -2.23434,-0.14545 -3.339987,-0.3296 -1.150924,-0.15488 -2.309468,-0.29285 -3.38224,-0.7736 -1.114591,-0.48015 -2.240092,-0.93537 -3.369582,-1.37841 -1.062638,-0.43981 -2.074963,-0.97614 -3.120324,-1.45438 -0.141991,-0.0651 -0.559625,-0.27629 -0.425971,-0.19542 0.964946,0.58389 3.912843,2.24475 2.922087,1.70582 -1.286288,-0.69969 -2.536132,-1.46444 -3.808992,-2.18826 -0.16203,-0.0921 -0.331163,-0.17123 -0.495358,-0.25945 -0.166092,-0.0892 -0.65746,-0.36938 -0.495451,-0.27292 0.969373,0.57714 1.94518,1.1434 2.91777,1.7151 -0.869609,-0.59548 -1.691339,-1.27098 -2.461848,-1.98757 -0.576855,-0.44649 -1.189325,-0.96232 -1.623975,-1.55546 -0.107212,-0.14631 -0.184216,-0.31318 -0.290986,-0.4598 -0.10005,-0.1374 -0.218713,-0.26024 -0.328068,-0.39035 -0.04374,-0.0525 -0.512019,-0.61966 -0.58149,-0.68502 -0.440185,-0.41414 -0.988862,-0.72668 -1.334434,-1.23789 -0.233942,-0.22714 -1.092309,-1.20458 -0.773938,-1.56522 0.07058,-0.0799 0.18007,-0.11433 0.270105,-0.17149 1.14259,-0.31795 2.373283,-0.0571 3.543305,-0.14477 1.288672,0.002 2.578402,-0.005 3.865798,0.0603 1.024369,0.0697 2.041681,0.2002 3.02487,0.51094 1.136772,0.29595 2.321092,0.32684 3.438295,0.70897 1.009327,0.39556 1.980634,0.89078 3.056443,1.09901 1.13084,0.31788 2.293284,0.47032 3.455201,0.63343 1.222479,0.0928 2.438128,0.10411 3.635621,-0.21267 1.297689,-0.343 2.525385,-0.85821 3.78364,-1.31706 z" />
    <path
       style="fill:#000000;stroke:#000000;stroke-width:0.264583"
       id="path18"
       d="m 79.721355,124.01224 c 1.1532,-8e-4 2.31239,-0.0866 3.44806,-0.28953 0.65294,-0.20787 1.35772,-0.17598 2.01989,-0.31719 0.0751,-0.016 0.8253,-0.27699 0.90581,-0.30474 0.81689,-0.28784 1.62282,-0.57829 2.39208,-0.97708 0.6215,-0.56624 1.35566,-0.97558 2.05981,-1.42452 0.85216,-0.46473 1.73096,-0.87859 2.58467,-1.34346 0.36477,-0.23563 0.80149,-0.27237 1.19902,-0.40933 0.42006,-0.14473 0.82346,-0.35928 1.24412,-0.51041 0.86034,-0.31034 1.55675,-0.85683 2.236,-1.45529 0.91884,-0.73376 1.66976,-1.64314 2.451695,-2.5146 0.6188,-0.56095 0.98339,-1.32275 1.54484,-1.93432 1.77023,-2.26813 1.37078,-1.21902 -2.570905,-3.61297 -0.88675,0.0969 -1.77775,0.14018 -2.66877,0.17309 -0.54387,0.0576 -1.10242,-0.0264 -1.64528,0.0321 -0.4996,0.0538 -1.00508,0.23754 -1.49105,0.36011 -1.00934,0.22342 -2.04196,0.29881 -3.06449,0.44495 -0.98892,0.33469 -1.96518,0.68933 -2.94018,1.05969 -1.04305,0.39481 -2.15592,0.49295 -3.25952,0.55682 -1.08353,0.008 -2.18013,0.11629 -3.25778,-0.0233 -0.89902,-0.12579 -1.81433,-0.15948 -2.63995,-0.56263 -0.44341,-0.26045 -0.97159,-0.30167 -1.44177,-0.48191 -0.44133,-0.16918 -0.86209,-0.41777 -1.30562,-0.59252 -0.35187,-0.27822 -0.803052,-0.32161 -1.200652,-0.48461 -0.266202,-0.10913 -0.503875,-0.2779 -0.75765,-0.41345 0,0 3.074892,2.46649 3.074892,2.46649 v 0 c 0.64487,0.32268 1.32879,0.54724 1.97544,0.86713 0.90869,0.38662 1.82648,0.7285 2.75122,1.07402 0.87858,0.28405 1.79186,0.37102 2.70704,0.4694 1.09396,0.0575 2.19217,0.0119 3.28592,-0.0332 1.13037,-0.0887 2.26361,-0.22691 3.32476,-0.65246 0.95093,-0.36139 1.91046,-0.7101 2.8884,-0.98875 1.03494,-0.14233 2.0844,-0.20751 3.09814,-0.47293 1.02028,-0.25666 2.02764,-0.36487 3.08338,-0.32916 0.886905,-0.0348 1.776205,-0.12555 2.662635,-0.0957 -6.745565,-4.59114 -2.415765,-3.05839 -3.201155,-1.76471 -0.21403,0.35255 -0.55834,0.61495 -0.78019,0.96238 -0.54842,0.62317 -0.93837,1.36201 -1.5361,1.94196 -0.7613,0.86552 -1.49452,1.76937 -2.41723,2.47184 -0.66605,0.54831 -1.34811,1.04809 -2.17303,1.33195 -0.82799,0.31693 -1.6681,0.59863 -2.47406,0.96477 -0.86293,0.45935 -1.73938,0.89302 -2.59449,1.36515 -0.70963,0.42522 -1.39893,0.87918 -2.04752,1.39441 -0.7549,0.3806 -1.56154,0.64077 -2.35424,0.93062 -0.93916,0.3012 -1.917,0.36765 -2.8785,0.57984 -1.13777,0.1748 -2.29007,0.2579 -3.44143,0.21441 z" />
    <path
       style="fill:#000000;stroke:#000000;stroke-width:0.264583"
       id="path19"
       d="m 72.046388,107.6361 c 0.682707,0.4606 1.421032,0.88927 2.010227,1.47261 -0.01177,-0.0908 -0.01638,-0.14516 -0.157451,-0.064 -1.050202,0.60436 1.748611,1.57354 3.433741,2.53478 -1.06254,-0.60135 -2.12004,-1.2117 -3.187636,-1.80404 -0.100134,-0.0556 0.184974,0.13583 0.284144,0.19308 1.233692,0.71222 2.484082,1.39542 3.713592,2.11485 1.0137,0.59315 -2.03771,-1.16875 -3.06614,-1.736 -0.1225,-0.0676 0.22574,0.1663 0.34694,0.23617 1.25625,0.72421 2.52287,1.43028 3.7843,2.14542 0.1292,0.0701 0.51495,0.28365 0.3876,0.21025 -1.02859,-0.58845 -2.05718,-1.17691 -3.08578,-1.76536 -0.12225,0.1025 0.1979,0.11831 0.18967,0.0532 -0.0136,-0.10729 -0.16763,-0.1383 -0.26144,-0.19209 -1.5042,-0.44205 -5.195595,-2.68319 0.80902,0.70332 -0.67857,-0.4574 -1.28306,-1.01202 -1.90588,-1.5401 -0.20096,-0.17234 -0.42659,-0.39323 -0.42387,0.21815 2.7e-4,0.0592 0.21658,0.0948 0.16501,0.0657 -8.184011,-4.61699 0.13828,0.13924 0.5112,0.3534 -5.477388,-3.26746 -3.355327,-1.94608 -2.187532,-1.16748 0.185314,0.12356 0.480102,0.38349 0.702228,0.46509 -0.190225,-0.17848 -0.475182,-0.26751 -0.713994,-0.3701 -0.04715,-0.0202 -0.191498,-0.0636 -0.150363,-0.033 1.114399,0.83096 2.253831,1.62781 3.380741,2.44171 0.0886,0.0217 0.18254,0.0278 0.26572,0.0653 0.10188,0.0458 0.18346,0.12847 0.28197,0.18114 0.50861,0.27195 1.01225,0.53705 1.5517,0.74728 1.01608,0.34319 2.00707,0.70704 3.06961,0.89228 0.71949,0.10482 1.44606,0.13177 2.17112,0.16882 0,0 -3.17386,-2.32919 -3.17386,-2.32919 v 0 c -0.71209,-0.0316 -1.42529,-0.0758 -2.12727,-0.2075 -1.04175,-0.22687 -2.03278,-0.59622 -3.03137,-0.96538 -0.71851,-0.3284 -1.391512,-0.80648 -2.18324,-0.93489 0.981468,0.79151 1.95533,1.59254 2.94439,2.37453 0.22194,0.17548 0.77599,0.18391 0.99951,0.0336 0.11684,-0.0786 0.19041,-0.20751 0.28563,-0.31126 0.0456,-0.55365 -0.16219,-0.47452 -0.61194,-0.77918 -1.46872,-0.99488 -2.984506,-1.88212 -4.548307,-2.75178 1.02339,0.5927 4.142647,2.27651 3.070167,1.7781 -1.271242,-0.59078 -2.431746,-1.39623 -3.668509,-2.05617 -0.06582,-0.0351 -0.162833,-0.0645 -0.222888,-0.0203 -0.128693,0.0948 -0.214781,0.24371 -0.278963,0.39013 -0.06131,0.13987 0.230878,0.24661 0.261292,0.26429 0.621146,0.55193 1.24719,1.08474 1.906206,1.59059 1.553332,0.91441 3.962092,2.69649 6.037462,3.09218 0.11097,-0.0212 0.23261,-0.0117 0.33292,-0.0637 0.17783,-0.0922 0.55915,-0.52863 0.23906,-0.72699 -2.45142,-1.51912 -2.55016,-1.56041 -4.06393,-2.33189 0.98879,0.58147 1.97576,1.16606 2.96639,1.74442 0.11847,0.0692 -0.23193,-0.14666 -0.34984,-0.21678 -1.22804,-0.73031 -2.48258,-1.41732 -3.68794,-2.18448 -0.995017,-0.63328 2.03859,1.18682 3.0565,1.78259 0.0945,0.0553 -0.19086,-0.10746 -0.28629,-0.1612 -1.20509,-0.70587 -2.41018,-1.41174 -3.615282,-2.11762 1.073772,0.63118 2.210892,1.16522 3.221292,1.89353 0.0984,0.0709 -0.36217,0.29919 -0.24465,0.26925 0.14264,-0.0363 0.25866,-0.11334 0.3474,-0.23756 0.0603,-0.0844 0.087,-0.1882 0.13052,-0.28229 -0.0195,-0.0865 -0.0121,-0.18409 -0.0586,-0.25965 -0.22964,-0.37315 -0.76742,-0.61176 -1.09954,-0.86682 -0.13793,-0.10593 -0.255,-0.23798 -0.39646,-0.33915 -0.11907,-0.0852 -0.25442,-0.14489 -0.38163,-0.21734 z" />
    <path
       style="fill:#000000;stroke:#000000;stroke-width:0.264583"
       id="path20"
       d="m 57.700645,110.87732 c 0.8801,0.50559 1.809388,0.93945 2.770386,1.26841 1.05269,0.42208 2.086949,0.90372 3.159006,1.27681 1.101788,0.33616 2.250559,0.41187 3.394305,0.44991 0.982562,-0.0291 1.810475,-0.17221 2.643002,-0.71014 0.744173,-0.42648 1.395111,-1.00203 1.864958,-1.72081 0.303808,-0.3281 0.498203,-0.75725 0.832588,-1.05925 0.06455,-0.0583 0.137253,-0.12717 0.22397,-0.13387 0.04114,-0.003 0.08745,0.13275 0.05143,0.11261 -1.176253,-0.65759 -2.328313,-1.35755 -3.492469,-2.03633 -0.205441,0.27443 -0.529275,0.33641 -0.807982,0.49431 -0.370189,0.20973 -0.669379,0.42937 -1.06812,0.59584 -0.758706,0.56532 -1.593755,0.85357 -2.517611,0.99727 -1.06363,0.12658 -2.137288,0.12318 -3.206803,0.12524 -1.016055,-0.0402 -1.914625,-0.5148 -2.848168,-0.87117 -0.387882,-0.24902 -0.467675,-0.31242 -0.876763,-0.52632 -0.144772,-0.0757 -0.581795,-0.2967 -0.440946,-0.21393 0.992793,0.58341 4.010556,2.26481 2.997932,1.71654 -1.70407,-0.92266 -2.766499,-1.54735 -4.18267,-2.37644 -0.147249,-0.0773 -0.290087,-0.16368 -0.441746,-0.23194 -0.214741,-0.0966 -0.425659,-0.20826 -0.653074,-0.26939 -0.319214,-0.0858 -0.590833,0.2756 -0.26697,0.59671 0.701972,0.5205 1.379607,1.06745 2.038681,1.64245 1.773521,1.27719 3.737994,2.52884 5.910704,2.98294 1.01146,0.18232 2.042965,0.18503 3.067222,0.19936 0.464249,-0.12918 0.973828,-0.17279 1.42484,-0.35028 0.419084,-0.16491 0.80605,-0.42614 1.226489,-0.59873 0.751028,-0.34469 1.43669,-0.80603 2.123062,-1.26577 0.692795,-0.42689 1.283282,-0.9122 2.114182,-1.03178 1.457923,0.29323 0.494527,0.12631 -2.979439,-1.70354 -0.05432,-0.0286 0.109636,0.0672 0.138579,0.12131 0.02143,0.0401 0.01701,0.0945 -7.94e-4,0.1363 -0.09242,0.2159 -0.279316,0.36185 -0.440524,0.52045 -0.856231,0.59126 -1.908249,0.69639 -2.917446,0.77884 -1.127781,0.0636 -2.258005,0.0502 -3.387053,0.0481 -1.119227,-0.008 -2.238476,-0.008 -3.357719,-0.0106 -1.280382,-0.13941 -2.389362,-0.83905 -3.567572,-1.29742 0.32272,0.13533 -1.170078,-0.67723 -0.87779,-0.50752 7.077522,4.1093 0.626414,0.29492 -0.619453,-0.32981 -1.135597,-0.56942 2.306227,1.11226 3.305969,1.89606 0.147306,0.11549 -0.159997,0.33846 -0.239996,0.50769 -7.752556,-4.35792 -0.556427,-0.33333 0.455485,0.32693 0.96901,0.63226 -2.003324,-1.159 -3.021639,-1.70835 -0.575395,-0.31041 0.460052,0.34045 0.69582,0.57908 0.03301,-0.0964 0.109365,-0.1879 0.09902,-0.2893 -0.0075,-0.0732 -0.774369,-0.37318 -0.859599,-0.41173 -0.128868,-0.0583 -0.516877,-0.22667 -0.395113,-0.1547 1.051173,0.62129 2.125006,1.20342 3.187509,1.80514 -0.07189,0.16026 -0.152712,0.32805 -0.110262,0.5169 0.0094,0.042 0.850955,0.45607 0.506589,0.25748 -3.30519,-1.90606 -3.978166,-2.54102 -2.92912,-1.58867 0.15625,0.25472 0.02617,0.0902 -0.199437,0.0852 -0.521663,-0.0115 -0.03419,0.0155 -0.378839,-0.006 0.0034,-0.0172 -0.004,-0.0619 0.01016,-0.0516 1.107948,0.80779 2.177347,1.66817 3.295523,2.46174 0.0627,0.0445 0.155226,0.0121 0.227434,0.0385 0.386249,0.1413 0.779843,0.3336 1.148619,0.51788 1.517235,0.69903 0.410927,0.20375 -2.693984,-1.57933 -0.03034,-0.0174 0.07354,0.0667 0.09681,0.0406 0.06086,-0.0684 0.105293,-0.16618 0.09605,-0.25724 -0.01307,-0.12888 -0.232108,-0.11652 -0.354044,-0.16025 -0.123793,-0.0264 -0.486802,-0.0968 -0.613021,-0.14891 -0.0623,-0.0257 -0.207836,-0.17162 -0.154226,-0.13076 3.425172,2.61001 1.934295,2.25478 3.625234,2.60065 0.915215,0.4304 1.881764,0.7284 2.785366,1.18597 0.983745,0.5405 2.073545,0.72142 3.173908,0.83403 2.122477,0.0687 2.885059,0.88107 -2.229731,-2.2424 -0.102452,-0.0626 -0.240067,0.003 -0.360109,0.004 -0.141094,0.001 -0.282197,0.001 -0.423294,0.002 0,0 3.188994,2.31653 3.188994,2.31653 v 0 c 0.143804,2.7e-4 0.287605,0.001 0.431409,8e-4 0.126235,-1.6e-4 0.471987,0.0832 0.3787,-0.002 -2.624365,-2.39252 -2.010994,-2.27315 -4.134342,-2.42251 -1.083876,-0.14173 -2.129684,-0.40514 -3.095646,-0.93668 -0.935445,-0.41915 -1.893252,-0.78692 -2.853729,-1.14361 -2.043978,-0.63946 2.180301,2.57568 3.447465,2.46802 0.358433,0.0102 0.66285,-0.0121 0.769964,-0.44288 0.01328,-0.0534 -0.0376,-0.11348 -0.08485,-0.14177 -1.207986,-0.72321 -2.436275,-1.41211 -3.663434,-2.10229 -0.132582,-0.0746 -0.276248,-0.12744 -0.414371,-0.19116 -0.40476,-0.17319 -0.804408,-0.34368 -1.226635,-0.47027 -0.07502,-0.0225 -0.286999,-0.11176 -0.226698,-0.0618 0.992381,0.82247 2.013249,1.61033 3.038158,2.39189 0.0159,0.0121 0.02728,-0.0293 0.04093,-0.0439 0.542124,-0.0594 1.076217,-0.16246 0.987753,-0.83682 -0.771001,-1.54668 -0.07792,-0.2837 -3.80883,-2.44296 -0.01905,-0.011 -0.508762,-0.23814 -0.564081,-0.21513 -0.44777,0.18631 -0.425707,0.2182 -0.429244,0.46536 1.203163,0.68807 2.398585,1.38986 3.609493,2.06421 0.204126,0.11367 1.222132,0.54166 1.439265,0.39759 0.109968,-0.073 0.154469,-0.21403 0.231706,-0.32104 -0.0815,-0.37122 -0.323247,-0.58004 -0.648174,-0.77985 -1.230008,-0.75638 -2.516013,-1.4238 -3.712633,-2.23198 -0.169471,-0.11446 9.289156,5.45033 -0.539255,-0.29257 -1.037087,1.61338 -0.50269,0.42728 3.188618,2.51313 1.051779,0.59432 -4.18783,-2.41087 -3.133373,-1.82131 1.537925,0.85988 3.030304,1.83447 4.615939,2.61743 1.179846,0.50456 2.348804,1.12154 3.658695,1.17654 1.118458,7.9e-4 2.236899,0.007 3.355354,0.009 1.137512,0.003 2.276861,0.01 3.411857,-0.0774 1.088385,-0.11843 2.200873,-0.2951 3.083007,-0.99727 0.232535,-0.24039 0.419182,-0.39535 0.570982,-0.69973 0.766214,-1.53636 -2.50775,-2.97534 -3.891251,-2.68447 -0.824497,0.22844 -1.485281,0.69899 -2.198352,1.15256 -0.673052,0.43646 -1.330864,0.90112 -2.073222,1.21362 -0.826788,0.36511 -1.616554,0.79695 -2.548662,0.81919 -1.012005,-0.0208 -2.033339,-0.044 -3.023566,-0.27598 -0.423836,-0.11932 -0.832395,-0.25816 -1.241549,-0.42144 -0.144195,-0.0575 -0.561951,-0.26073 -0.430041,-0.17886 0.965184,0.59902 1.956202,1.15539 2.934303,1.73309 -0.132699,-0.0848 -0.265398,-0.16963 -0.398097,-0.25444 -0.674473,-0.53424 -1.257345,-1.17278 -2.006153,-1.60958 -0.222271,-0.1841 -0.199329,-0.23739 -0.404069,0.30509 -0.01365,0.0362 1.172422,0.48287 1.145755,0.56652 0.145692,0.0786 0.579614,0.31994 0.437081,0.23576 -0.994013,-0.58706 -4.006877,-2.29437 -2.991787,-1.74456 1.707306,0.92473 3.344225,1.99564 5.086556,2.86038 0.951209,0.37185 1.889705,0.78911 2.935343,0.75323 1.08494,-0.009 2.175981,-0.007 3.250632,-0.17623 0.939075,-0.18606 1.779587,-0.53908 2.578364,-1.07153 0.687131,-0.32302 1.378992,-0.70258 1.965619,-1.18317 -3.422166,-2.64226 -2.619068,-3.27056 -4.381429,-0.95925 -0.451839,0.66621 -1.089723,1.16937 -1.786329,1.56736 -0.767572,0.43736 -1.612019,0.54142 -2.488345,0.53439 -1.124143,-0.0592 -2.253046,-0.16098 -3.32046,-0.54645 -1.061598,-0.41303 -2.109883,-0.86001 -3.167878,-1.28236 -0.958633,-0.37269 -1.865722,-0.85719 -2.809176,-1.26265 z" />
    <path
       style="fill:#000000;stroke:#000000;stroke-width:0.264583"
       id="path22"
       d="m 55.125522,121.93577 c 0.03162,1.33904 0.0264,2.6786 0.02064,4.0179 -2.64e-4,1.21225 -0.0064,2.42449 -0.0066,3.63673 0.0013,1.12455 -0.0021,2.24909 5.29e-4,3.37363 -0.0033,1.11481 0.0011,2.22962 -0.0011,3.34442 1.19e-4,1.11923 -5.29e-4,2.23845 5.3e-4,3.35768 -0.0016,0.69429 0.01402,0.36303 -0.03955,0.9941 0,0 3.490724,1.81788 3.490724,1.81788 v 0 c 0.06208,-0.66708 0.04564,-0.32345 0.04394,-1.03113 0.0011,-1.11904 5.29e-4,-2.23808 5.29e-4,-3.35712 -0.0019,-1.11512 0.0024,-2.23024 -0.0011,-3.34536 0.0026,-1.1244 -7.94e-4,-2.24879 5.29e-4,-3.37319 -1.85e-4,-1.21448 -0.0062,-2.42895 -0.0066,-3.64343 -0.0057,-1.33229 -0.01127,-2.66485 0.02064,-3.99688 z" />
    <path
       style="fill:#000000;stroke:#000000;stroke-width:0.264583"
       id="path23"
       d="m 68.038564,123.33177 c 0.02739,1.25433 0.02265,2.50913 0.01802,3.76367 7.94e-4,1.18083 -0.0044,2.36164 -0.0042,3.54247 0.0016,1.12389 -0.0019,2.24778 7.94e-4,3.37168 -0.0033,1.11525 0.0011,2.23051 -0.0011,3.34577 1.14e-4,1.11926 -5.29e-4,2.23852 5.29e-4,3.35779 -5.29e-4,0.18118 7.94e-4,0.36239 -0.0013,0.54357 -0.0016,0.12667 -0.0054,0.25332 -0.0097,0.37993 -0.0026,0.0771 -0.09174,0.19751 -0.02196,0.23041 3.637119,1.71492 3.585644,2.95528 3.545906,1.37484 -0.01669,-0.98733 -0.01566,-1.97486 -0.01781,-2.9623 -0.0076,-1.37911 -0.01064,-2.7582 -0.0099,-4.13736 0.0075,-1.23758 0.0058,-2.47519 0.0094,-3.71278 -0.08609,-1.137 0.06825,-2.22713 0.297333,-3.33486 0.234522,-1.20356 0.287462,-2.42909 0.381572,-3.64826 0.153008,-1.54916 0.528497,-0.32691 -3.500946,-1.95918 -0.08138,-0.033 0.01355,0.1754 0.01109,0.26316 -0.0069,0.24319 -0.01445,0.22984 -0.07516,0.42414 0.189029,-1.36344 -0.05806,0.15833 3.39312,1.54977 0.10278,0.0414 -0.0431,-0.2174 -0.06478,-0.32608 -0.05029,-0.25206 -0.113541,-0.49902 -0.166232,-0.7502 -1.215951,-0.51053 -2.40343,-1.09504 -3.647856,-1.5316 -0.0749,-0.0263 -0.04339,0.15271 -0.06486,0.22913 -0.01328,0.0473 -0.0786,0.17136 -0.03935,0.14189 0.0502,-0.0377 0.02201,-0.19878 0.07841,-0.1712 3.472882,1.69869 3.181528,3.16699 3.432255,1.84673 -1.185326,-0.48957 -2.331204,-1.08843 -3.555976,-1.4687 -0.116544,-0.0362 0.0046,0.24403 0.0047,0.36607 3.7e-5,0.0871 -0.0011,0.1742 -0.0044,0.26123 -0.0013,0.032 -0.03813,0.0818 -0.0092,0.0957 3.638941,1.74078 3.561556,2.88661 3.545324,1.3028 0,0 -3.527621,-1.79976 -3.527621,-1.79976 v 0 c -0.03477,1.63881 -0.09145,0.33595 3.537691,2.30007 0.03007,0.0163 -0.01098,-0.0676 -0.01297,-0.10177 -0.0051,-0.0887 -0.0073,-0.17758 -0.0083,-0.26642 -0.0013,-0.12061 0.100737,-0.2934 0.0013,-0.36185 -1.132184,-0.78038 -2.37145,-1.39268 -3.557175,-2.08902 0.0053,0.007 0.01066,0.0141 0.01598,0.0211 1.148665,0.71271 2.297329,1.42541 3.445994,2.13812 0.06813,0.0374 0.212873,-0.49975 0.186976,-0.51592 -1.130761,-0.70608 -2.324225,-1.30639 -3.486335,-1.95958 0.375623,0.0818 0.181877,0.83118 0.32309,0.93395 3.422846,2.49098 2.680714,3.32224 3.664572,2.06457 0.03287,-0.10728 0.244202,-0.72808 0.131456,-0.79953 -3.448982,-2.18551 -3.532056,-3.29618 -3.552878,-1.64449 -0.03062,1.20674 -0.113218,2.41564 -0.33613,3.60374 -0.246337,1.17868 -0.433215,2.18768 -0.334848,3.40595 0.0036,1.24077 0.0019,2.48156 0.0094,3.72233 7.94e-4,1.3758 -0.0024,2.75153 -0.0099,4.12729 -0.0021,0.98139 -0.0011,1.96287 -0.01781,2.94414 -0.04184,1.6215 -0.08618,0.24989 3.545903,2.23862 0.0095,0.005 -0.01082,-0.0194 -0.01177,-0.0302 -0.0064,-0.074 -0.0078,-0.14836 -0.01019,-0.2226 -0.0042,-0.12992 -0.0082,-0.25985 -0.0097,-0.38983 -0.0021,-0.18162 -7.94e-4,-0.36327 -0.0013,-0.5449 0.0011,-1.11908 5.29e-4,-2.23816 5.29e-4,-3.35723 -0.0019,-1.11558 0.0024,-2.23116 -0.0011,-3.34674 0.0026,-1.12366 -7.94e-4,-2.24731 7.93e-4,-3.37097 1.94e-4,-1.18225 -0.005,-2.3645 -0.0042,-3.54676 -0.0046,-1.24842 -0.0096,-2.4971 0.01802,-3.7453 z" />
    <path
       style="fill:#000000;stroke:#000000;stroke-width:0.264583"
       id="path24"
       d="m 59.029036,123.47994 c 0.01749,-0.10483 0.0284,-0.21097 0.05246,-0.31449 0.09536,-0.41033 0.05021,0.1515 -0.03907,0.10838 -1.158301,-0.55945 -2.235134,-1.27388 -3.352699,-1.91082 0,0 3.598764,1.70017 3.598764,1.70017 v 0 c -1.967034,-1.25177 -3.371196,-3.53331 -3.761647,-1.43075 z" />
    <path
       style="fill:#000000;stroke:#000000;stroke-width:0.264583"
       id="path25"
       d="m 58.99786,148.88914 c -0.02529,-1.39982 -0.0592,-2.80115 -0.0087,-4.20074 0.04485,-0.48775 -0.0027,-0.98544 0.0131,-1.47877 0.103002,-1.40147 0.06635,-0.40428 -3.53609,-1.72557 -0.09749,-0.0358 0.0058,0.20762 0.0068,0.31146 0.0013,0.15143 0.01773,0.367 -0.0159,0.52115 1.183817,0.55002 2.328063,1.19479 3.551446,1.65007 0.103833,0.0386 -0.0079,-0.22145 -0.01019,-0.33222 -0.0029,-0.13868 0.0062,-0.27786 -0.0053,-0.4161 -0.04994,-0.60308 -0.222297,-1.21329 -0.324236,-1.80861 -0.327821,-2.34736 -0.081,-1.19485 -3.810339,-2.77791 0,0 3.486277,1.89109 3.486277,1.89109 v 0 c -4.486978,-2.58921 -3.534481,-3.10152 -3.173314,-0.82803 0.04913,0.35472 0.12955,0.99061 0.206846,1.36178 0.02617,0.1256 0.0855,0.24403 0.101102,0.37138 0.02384,0.19455 -0.03644,0.71899 -0.01545,0.73256 1.136512,0.73522 2.367629,1.31269 3.551446,1.96904 -0.0218,-0.12215 0.05115,-0.8026 -0.0092,-0.84193 -3.603414,-2.35041 -3.636542,-3.34702 -3.53609,-1.87788 0.01543,0.49805 -0.03128,0.9986 0.0131,1.49211 0.04863,1.39671 0.01842,2.795 -0.0087,4.19189 z" />
    <path
       style="fill:#000000;stroke:#000000;stroke-width:0.264583"
       id="path26"
       d="m 70.863901,150.28514 c -0.03532,-1.4172 -0.02908,-2.83516 -0.02302,-4.25269 0.01511,-1.17691 -0.01143,-2.35446 0.01818,-3.53113 0.10286,-1.49746 0.868458,-0.136 -3.529642,-1.86627 -0.08206,-0.0323 0.0045,0.17632 0.0067,0.26447 0.01617,0.63701 0.01019,0.30524 0.01667,0.99553 0,0 3.498853,1.78275 3.498853,1.78275 v 0 c 0.003,-0.31442 0.07486,-1.20395 0.02339,-1.23615 -4.359037,-2.72719 -3.627043,-3.25721 -3.529642,-1.73062 0.02902,1.18287 0.0035,2.36656 0.01818,3.54965 0.006,1.4097 0.01259,2.81986 -0.02302,4.22923 z" />
    <path
       style="fill:#000000;stroke:#000000;stroke-width:0.264583"
       id="path27"
       d="m 56.040099,147.51067 c -0.615005,0.0359 -1.36089,0.10662 -1.913194,0.41881 -0.315219,0.17818 -0.711576,0.57553 -0.971243,0.81666 -1.130771,1.06293 -1.650447,2.14935 -1.974448,3.64108 -0.253471,1.26557 -0.253161,2.53951 -0.0631,3.81046 0.176157,1.27932 0.865425,2.39834 1.543804,3.4714 0.625739,1.00944 1.522074,1.75706 2.538894,2.35011 1.320697,0.77027 2.650752,1.52438 3.976129,2.28657 1.142233,0.68018 2.396471,0.99771 3.702539,1.15253 1.447099,0.10335 2.899426,0.0807 4.349155,0.0798 1.396937,-0.0824 2.666246,-0.55421 3.855934,-1.26481 1.010259,-0.70859 1.790579,-1.66055 2.629215,-2.55014 0.834239,-0.83267 1.376941,-1.67116 1.733071,-2.79185 0.26939,-1.22528 -0.0614,-2.39724 -0.55269,-3.51655 -0.526332,-1.10086 -1.38756,-1.86478 -2.328979,-2.60077 -0.156451,-0.10307 -0.312902,-0.20615 -0.469353,-0.30923 0,0 -3.658679,-1.41641 -3.658679,-1.41641 v 0 c 0.162092,0.0931 0.324183,0.18629 0.486278,0.27944 0.973767,0.68544 1.808024,1.37875 2.408332,2.42688 0.520359,1.00787 0.859761,2.10889 0.670666,3.25007 -0.328956,1.10797 -0.837501,1.81361 -1.638811,2.64147 -0.802497,0.86964 -1.570235,1.78957 -2.561664,2.45474 -1.161991,0.643 -2.376379,1.08814 -3.7236,1.10868 -1.446226,0.001 -2.898224,0.0166 -4.338053,-0.13783 -1.27649,-0.19794 -2.485776,-0.57865 -3.597576,-1.25532 5.534967,3.23114 2.416704,1.52688 1.4445,0.80665 -0.523517,-0.38784 -0.97955,-0.89 -1.347006,-1.42361 -0.679924,-1.01531 -1.385732,-2.10383 -1.601044,-3.32118 -0.230577,-1.22365 -0.237557,-2.45785 -0.01704,-3.68672 0.282988,-1.38259 0.779296,-2.46919 1.860902,-3.42254 0.909175,-0.79274 1.549157,-1.00532 2.760803,-0.97075 z" />
    <path
       style="fill:#000000;stroke:#000000;stroke-width:0.264583"
       id="path28"
       d="m 67.141735,148.84961 c 0.774428,0.76096 1.575874,1.49144 2.3295,2.27373 0.739921,0.66111 1.373516,1.35019 1.738966,2.27996 0.274183,-0.42843 0.0092,0.74309 0.177893,0.61327 0.121078,-0.0932 0.05887,-0.47204 0.199631,-0.41262 3.71073,1.56638 3.8935,2.973 2.888318,1.17429 -0.434144,-0.84905 -0.9706,-1.64132 -1.594305,-2.36177 -0.315653,-0.36419 -0.66535,-0.69635 -1.003898,-1.03875 0,0 -3.629059,-1.51748 -3.629059,-1.51748 v 0 c 0.324064,0.36602 0.699672,0.65701 0.999442,1.04411 0.686012,0.63144 1.173409,1.45542 1.639956,2.25415 0.02064,0.0445 0.271005,0.633 0.375312,0.70415 1.142468,0.77937 3.363052,3.15274 3.728934,1.81903 0.0574,-0.2092 -0.555042,-0.34047 -0.223262,-0.61129 -0.31025,-1.03203 -0.827322,-1.75494 -1.675629,-2.4269 -0.702294,-0.81379 -1.515231,-1.52555 -2.311344,-2.24714 z" />
    <path
       style="fill:#4d4d4d;stroke:#4d4d4d;stroke-width:0.264583"
       id="path29"
       d="m 59.811451,149.90256 c 1.1381,0.14146 2.28368,0.1962 3.4289,0.2388 1.021461,-0.19015 2.024544,-0.43272 3.058527,-0.55232 0.935279,0.0149 1.872007,0.12129 2.743692,0.46711 -5.674338,-3.30633 -2.55843,-1.54257 -1.42509,-0.49766 0,0 3.637272,1.51559 3.637272,1.51559 v 0 c -1.354484,-1.58773 -3.747365,-2.31829 -5.312378,-3.42895 -0.92627,-0.26417 -1.885535,-0.41377 -2.85092,-0.32555 -1.011174,0.13772 -1.9954,0.41016 -3.010339,0.50752 -1.150134,-0.0473 -2.301738,-0.11518 -3.439727,-0.29717 z" />
    <path
       style="fill:#4d4d4d;stroke:#4d4d4d;stroke-width:0.264583"
       id="path30"
       d="m 64.581878,109.80101 c -0.0043,-0.18368 -0.01069,-0.36732 -0.01281,-0.55103 -0.0026,-0.22428 -0.0021,-0.68329 0.0092,-0.93187 0.0021,-0.0466 0.05696,-0.11866 0.01503,-0.13904 -3.59918,-1.7499 -3.528148,-2.8597 -3.543107,-1.37982 -0.144381,1.33688 -0.0891,0.61658 3.561101,1.52693 0.180366,0.045 0.03202,-0.3704 0.04733,-0.55566 0.05682,-0.68744 0.10328,-1.36842 0.114385,-2.05819 -0.01857,-1.8143 0.02207,-1.02695 -3.589401,-2.25456 -0.127183,-0.0432 -0.01357,0.26857 -0.03027,0.40186 -0.04327,0.34568 -0.152688,0.8784 -0.215852,1.20627 -0.260194,1.15772 -0.329872,2.34502 -0.524648,3.51254 4.235876,2.40611 3.421306,2.6904 3.466383,0.37943 0.06664,-1.44503 0.588936,-0.2171 -3.533028,-1.84103 -0.08358,-0.0329 0.0056,0.17957 0.0077,0.26937 0.0088,0.37987 0.0075,0.40479 0.0109,0.79938 -0.0426,1.83681 -0.167818,0.96264 3.623312,2.22624 0.04277,0.0143 0.0849,-0.33828 0.141801,-0.74433 0.0021,-0.97806 0.15289,-1.9018 0.392303,-2.84532 0.276466,-1.13932 0.323535,-2.32095 0.367737,-3.48822 0.03628,-1.36554 0.01913,-2.73171 0.02357,-4.09761 0.07329,-1.58046 0.205224,-3.15658 0.272082,-4.73751 0.04441,-1.48252 0.06758,-2.96562 0.07693,-4.44876 -0.0045,-1.39988 -0.0063,-2.79978 -0.0013,-4.19966 -0.120015,-1.68056 0.162957,-3.33592 0.400386,-4.99209 0.18618,-1.25759 0.256434,-2.52635 0.289761,-3.7958 0.02424,-1.11367 0.0164,-2.22773 0.01765,-3.34159 -0.0051,-1.11249 -0.0024,-2.225 -0.004,-3.3375 -0.0095,-1.34432 -0.01251,-2.68866 -0.0074,-4.03301 -0.0164,-1.17437 0.04452,-2.35127 -0.02376,-3.5242 -0.194786,-1.66657 0.0328,-0.98415 -3.691644,-1.87762 -0.167923,-0.0403 -0.03995,0.34315 -0.05301,0.51534 -0.01521,0.20053 -0.02119,0.40165 -0.03178,0.60248 0,0 3.481821,1.79891 3.481821,1.79891 v 0 c 0.01167,-0.19322 0.01942,-0.38671 0.03504,-0.57965 0.01265,-0.15599 0.175467,-0.37366 0.04975,-0.46688 -1.087634,-0.80641 -2.328609,-1.38229 -3.487682,-2.08214 -0.03082,-0.0186 0.08433,0.006 0.101314,0.0374 0.04818,0.0901 0.05156,0.19768 0.07735,0.29652 0.131038,1.16165 0.01691,2.33831 0.05969,3.50517 0.0051,1.34204 0.0021,2.68407 -0.0066,4.02607 -5.29e-4,1.11241 0.004,2.22482 0.0027,3.33724 0.0043,1.11174 0.0052,2.22354 -0.0084,3.33523 -0.02676,1.25929 -0.07892,2.51896 -0.246716,3.76875 -0.217879,1.67221 -0.520129,3.33833 -0.438462,5.03238 0.0067,1.39902 0.0081,2.79809 -5.3e-4,4.19711 -2.51e-4,1.48191 0.0037,2.96428 -0.05117,4.44545 -0.06258,1.58415 -0.177591,3.16461 -0.291592,4.74574 0.0064,1.35986 0.0024,2.71977 -0.02824,4.07934 -0.03761,1.14011 -0.0728,2.29283 -0.343096,3.40633 -0.243599,0.95432 -0.436652,1.88691 -0.424254,2.87913 -0.01627,0.12337 -0.02779,0.24747 -0.04878,0.37012 -0.01569,0.0917 -0.138192,0.22018 -0.06115,0.27236 1.103244,0.74717 2.303749,1.33964 3.448416,2.02165 0.0245,0.0146 -0.07196,0.009 -0.08387,-0.017 -0.06973,-0.15177 0.09011,-0.35965 -0.01548,-0.50083 0.0016,-0.25964 0.05217,-1.03013 0.01445,-1.05401 -3.865862,-2.44798 -3.594891,-3.30116 -3.53799,-1.75906 0.0073,0.37354 0.0055,0.74662 -0.0011,1.12019 -0.0016,0.0886 -0.08108,0.21821 -0.0063,0.26573 3.512854,2.23198 3.187157,3.28057 3.573547,1.87327 0.101888,-1.17682 0.210989,-2.35463 0.462555,-3.51127 0.02989,-0.13838 0.346556,-1.55077 0.306493,-1.57768 -4.668612,-3.13589 -3.563252,-3.11665 -3.39947,-1.39514 0.0093,0.67929 -0.03455,1.33987 -0.109204,2.01533 -0.01995,0.18058 -0.209912,0.42744 -0.06793,0.54079 1.071866,0.85565 2.312545,1.47565 3.485107,2.18708 0.02207,0.0134 -0.005,-0.0514 -0.0075,-0.0771 -0.01553,-1.55133 0.05363,-0.31424 -3.543107,-2.23078 -0.04562,-0.0243 0.01278,0.10271 0.01503,0.15436 0.01111,0.25455 0.01193,0.70796 0.0092,0.94122 -0.0021,0.17936 -0.0085,0.35865 -0.01281,0.53797 z" />
    <path
       style="fill:#d4aa00;stroke:#4d4d4d;stroke-width:0.349001"
       d="m 68.578729,120.86681 -3.141011,-1.0824 -11.168036,-0.23806 c -10.899622,-0.23233 -11.222559,-0.25963 -13.436545,-1.13594 -5.633497,-2.22975 -6.73976,-2.89772 -9.566404,-5.77628 -4.076502,-4.15138 -4.123738,-3.92027 0.801216,-3.92027 4.426871,0 7.970973,0.56822 11.208195,1.79699 2.724126,1.03401 7.695845,1.27704 10.060082,0.49177 l 1.785528,-0.59306 1.328637,1.06772 c 2.719366,2.18534 11.384211,4.91702 10.804461,3.40621 -0.166486,-0.43385 0.102468,-0.6527 1.148114,-0.93427 0.751044,-0.20223 1.827229,-0.75619 2.391532,-1.23102 0.564301,-0.47483 1.148017,-0.86332 1.297144,-0.86332 0.149124,0 0.556127,-0.25792 0.904449,-0.57314 0.591259,-0.53509 0.72636,-0.51156 2.034764,0.3543 1.84408,1.22035 4.63191,2.30399 6.8688,2.66992 2.11294,0.34565 8.00529,-0.34477 9.88765,-1.15857 1.66372,-0.71927 4.53702,-1.13187 4.53702,-0.65151 0,0.72226 -3.04239,2.90065 -5.60999,4.01682 -1.431,0.62209 -3.54181,1.70769 -4.69069,2.41247 -1.14887,0.70477 -3.0249,1.52245 -4.16895,1.81707 -2.32068,0.59763 -6.31676,0.71768 -6.63708,0.1994 -0.11602,-0.18773 -0.510546,-0.0335 -0.893094,0.349 -0.930669,0.93066 -2.056159,0.84764 -5.745792,-0.42383 z"
       id="path31" />
    <path
       style="fill:#999999;stroke:#4d4d4d;stroke-width:0.349001"
       d="m 57.281143,108.49106 -1.525553,-0.91421 0.248544,-4.49404 C 56.405705,95.82188 55.541745,83.62926 53.757038,71.37074 53.221016,67.68899 53.06859,64.72939 53.059636,57.82961 53.046806,47.936 52.881958,48.71983 55.925735,44.201 c 0.950304,-1.41084 2.160977,-3.60955 2.690379,-4.88602 0.529402,-1.27647 1.927473,-3.8083 3.106824,-5.626289 1.179352,-1.817989 2.144276,-3.427756 2.144276,-3.577262 0,-0.773996 0.765141,-0.01685 2.270043,2.24631 0.920949,1.384977 2.649189,3.635791 3.840536,5.001811 2.742798,3.14494 5.016392,7.01826 5.824422,9.92255 0.53871,1.9363 0.62904,3.6948 0.62904,12.24624 0,12.46233 -0.86189,21.99051 -2.965386,32.78247 -0.636926,3.26774 -1.571628,11.36939 -1.571628,13.6223 v 1.68987 l -1.190551,-0.1932 c -0.926578,-0.15037 -1.658503,0.0641 -3.301063,0.96706 -1.160783,0.63814 -2.186712,1.08406 -2.279848,0.99092 -0.25653,-0.25653 0.453175,-23.70652 0.844748,-27.91207 0.370258,-3.97663 0.473647,-18.78064 0.137282,-19.65719 -0.168699,-0.43962 -2.265249,-1.04345 -3.763904,-1.08404 -0.167646,-0.005 -0.334984,4.07506 -0.371864,9.06577 -0.08674,11.737 -0.797743,30.70528 -1.268646,33.84498 -0.202194,1.34813 -0.451313,3.19713 -0.553595,4.1089 -0.221179,1.97166 -0.629881,2.07676 -2.865657,0.73695 z"
       id="path32" />
    <path
       style="fill:#786721;stroke:#4d4d4d;stroke-width:0.349001"
       d="m 66.1676,147.38079 c -0.419685,-0.23529 -1.788123,-0.29382 -3.698873,-0.15819 l -3.032746,0.21527 -0.225806,-3.9187 c -0.360111,-6.24955 -0.273781,-19.41143 0.132302,-20.1702 0.325612,-0.60841 0.764942,-0.67509 4.449765,-0.67533 l 4.088485,-2.6e-4 -0.09919,8.56401 c -0.06017,5.19541 -0.2275,8.48472 -0.425398,8.36241 -0.193384,-0.11952 -0.366156,1.49961 -0.424314,3.97643 -0.09382,3.99563 -0.127186,4.16172 -0.764228,3.80457 z"
       id="path33" />
    <path
       style="fill:#d4aa00;stroke:#d4aa00;stroke-width:0.349001"
       d="m 57.945326,162.19775 c -2.708783,-1.36564 -3.968086,-6.20784 -2.437003,-9.37064 1.071692,-2.21382 1.95294,-2.63889 5.3281,-2.57 1.570958,0.0321 3.803076,-0.0548 4.960257,-0.19304 1.724007,-0.20596 2.188668,-0.14929 2.572991,0.31379 0.361101,0.4351 0.368557,0.56515 0.03241,0.56515 -0.240141,0 0.220171,0.58893 1.022914,1.30875 1.927016,1.72795 2.603034,3.62501 1.896589,5.32227 -0.645483,1.55079 -2.712035,3.70208 -4.386702,4.56658 -1.774576,0.91608 -7.217203,0.95067 -8.989552,0.0571 z"
       id="path34" />
    <ellipse
       style="fill:#000000;stroke:#aa8800;stroke-width:0.264583"
       id="path35"
       cx="62.994701"
       cy="156.35254"
       rx="3.3155112"
       ry="2.4430082" />
    <path
       style="fill:#666666;stroke:#666666;stroke-width:0.264583"
       id="path36"
       d="m 59.903574,108.04127 c -1.201764,-1.27395 -3.496866,-3.67719 -5.066596,-2.82182 -1.236176,1.47726 2.687243,1.93514 3.302066,2.17916 0.08457,0.0336 -0.02312,-0.18059 -0.02951,-0.27135 -0.215448,0.30099 0.149942,0.52009 0.423876,0.38242 0.0482,-0.0242 0.394753,-0.33478 0.449918,-0.38357 0.05481,-0.0339 0.101563,-0.11577 0.164444,-0.10166 0.07009,0.0157 0.08942,0.11243 0.134133,0.16864 0.06893,0.0319 0.131302,0.0874 0.206799,0.0957 0.320849,0.0354 0.40891,-0.36312 0.472265,-0.58504 0.0829,-0.25455 0.01066,0.23821 -0.05468,0.20839 -1.119481,-0.51095 -2.129978,-1.23545 -3.226306,-1.79436 -0.08694,-0.0443 0.08925,0.18492 0.171702,0.23712 3.591142,2.27369 2.895764,3.28883 3.723071,1.64443 -0.0844,-1.49982 0.02863,-0.54659 -3.623082,-1.8284 -0.11516,-0.0404 0.0021,0.2445 0.01548,0.36582 0.0099,0.0901 0.036,0.17777 0.05403,0.26665 0.01326,0.0653 -0.01453,0.15744 0.03984,0.19604 0.03894,0.0276 0.02964,-0.0908 0.04447,-0.13619 1.137232,0.55547 4.170873,2.67907 3.411699,1.6664 -1.273479,-1.6987 -3.293282,-2.76661 -4.429792,-1.25333 -0.07811,0.38227 -0.582519,0.78555 -0.480427,1.20381 0.02125,0.0871 0.08543,0.15755 0.128143,0.23632 3.20481,1.99218 3.208599,2.20566 6.039733,2.30491 0.876486,0.29359 1.741207,0.45468 2.663696,0.44741 1.057693,-0.0906 2.044456,-0.37098 3.004354,-0.8164 0.887518,-0.4932 1.665904,-1.14223 2.472264,-1.75516 0.730549,-0.3756 1.25776,-1.02557 1.924555,-1.48759 0.07728,-0.30065 0.268468,0.18211 0.198972,0.14023 -1.173792,-0.7074 -2.291823,-1.50528 -3.47127,-2.20321 -0.06608,-0.0391 -0.157136,0.0373 -0.229983,0.013 -0.07236,-0.0241 -0.241771,-0.18409 -0.174681,-0.14781 1.079966,0.58405 2.144874,1.19551 3.21731,1.79327 -0.222102,-0.32623 -0.218742,-1.03026 0.02363,-1.36828 0.21277,-0.69407 0.346863,-1.4105 0.611865,-2.08866 0.06603,-0.11619 0.112035,-0.24633 0.198101,-0.34858 0.03654,-0.0434 0.10323,-0.0471 0.154845,-0.0707 -1.124638,-0.55896 -2.223434,-1.17325 -3.373908,-1.67688 -0.102415,-0.0448 0.142549,0.17659 0.183959,0.28044 0.05717,0.14337 0.124651,0.58204 0.154215,0.75699 -0.332999,1.41605 -0.170034,0.48744 3.60217,1.60984 0.116186,0.0346 0.01164,-0.24218 0.01431,-0.36337 0.0086,-0.39286 0.0081,-0.78575 0.01884,-1.17863 0.05429,-0.6212 -0.09796,-1.28882 0.132334,-1.88292 -0.01177,0.0486 -0.08018,0.12362 -0.03534,0.1457 0.08544,0.0421 0.147846,-0.35763 0.169725,-0.58713 0.01741,-0.18275 5.29e-4,-0.36762 0.01672,-0.55048 0.03129,-0.35344 0.142164,-0.9045 0.205023,-1.24513 0.04273,-0.16876 0.06199,-0.34526 0.128188,-0.50626 0.0094,-0.0229 0.04686,0.0157 0.07029,0.0235 -1.1324,-0.54603 -2.227688,-1.17689 -3.397202,-1.6381 -0.106212,-0.0419 0.06147,0.22008 0.08488,0.33183 0.01,0.0476 -0.0295,0.12572 0.01508,0.14524 1.182243,0.51762 2.39717,0.95713 3.595754,1.43569 -0.0286,-0.52608 0.07765,-1.04237 0.06286,-1.55466 -0.0042,-0.14577 -0.0095,-0.29152 -0.01259,-0.43733 -0.0076,-0.3576 0.03704,-1.33136 0.0075,-1.34698 -3.692684,-1.94989 -3.576645,-2.85497 -3.52031,-1.11272 0.02751,1.5053 0.02143,3.01093 0.01318,4.51638 0.04289,1.22831 -0.03039,2.44592 -0.157115,3.66624 -0.105894,1.05393 -0.125664,2.11036 -0.281027,3.15852 -0.275982,2.05521 -0.704458,1.29665 3.302844,2.51546 0.143528,0.0437 -0.03262,-0.29834 -0.04284,-0.44801 -0.01249,-0.18262 -0.01683,-0.36571 -0.02527,-0.54856 -0.0047,-0.205 -0.01109,-0.40996 -0.01423,-0.61499 -0.0048,-0.31042 -0.0079,-0.78931 0.0011,-1.11124 0.0024,-0.0834 0.08894,-0.21112 0.01503,-0.24977 -3.573478,-1.86851 -3.514383,-2.87225 -3.536108,-1.44713 1.176538,0.4428 2.29444,1.09463 3.529618,1.32841 0.216929,0.0411 -0.008,-0.44149 -0.01,-0.66226 -0.0075,-0.8162 -0.028,-1.6361 0.02175,-2.45119 0.110595,-1.02792 0.163822,-2.06073 0.251835,-3.09095 0.03207,-0.24594 0.05999,-0.49246 0.0962,-0.73782 0.02651,-0.17969 0.05312,-0.35964 0.09192,-0.53708 0.01725,-0.0789 0.147669,-0.1932 0.07583,-0.23007 -5.838954,-2.99687 -3.396149,-2.59036 -3.400832,-1.12725 4.112732,2.00829 3.550486,2.61176 3.585432,0.50497 0.0027,-0.16037 -0.01955,-0.38026 0.05257,-0.53699 0.06579,-0.87706 0.06061,-1.79219 0.22197,-2.66549 -1.174317,-0.55724 -2.302826,-1.22358 -3.522957,-1.67171 -0.120227,-0.0442 0.01998,0.25584 0.01656,0.38387 -0.0092,0.34741 -0.02799,0.44359 -0.09507,0.74043 -0.0094,0.0417 -0.01447,-0.14377 0.02426,-0.12577 1.157579,0.53807 2.279015,1.1507 3.418525,1.72605 -0.01725,-0.1337 -0.03941,-0.26687 -0.05172,-0.40112 -0.0307,-0.33463 -0.0019,-1.11952 -0.03598,-1.13515 -3.651795,-1.67788 -3.534232,-2.7457 -3.551531,-1.13521 0.0728,1.48172 -0.02736,0.82097 3.628901,1.65175 0.193482,0.044 0.0499,-0.3937 0.0721,-0.59087 0.0208,-0.18491 0.0339,-0.37068 0.057,-0.55532 0.0125,-0.1002 0.1401,-0.25388 0.0497,-0.29884 -1.122418,-0.55809 -2.324156,-0.93993 -3.486232,-1.40989 0.102047,1.82928 -0.350176,0.94764 3.567132,2.29572 0.13918,0.0479 -0.0153,-0.29415 -0.0143,-0.44134 0.004,-0.49763 0.0371,-0.85496 0.0722,-1.35634 0.22789,-1.71444 0.812074,-1.21611 -3.32553,-1.94567 -0.225099,-0.0397 0.03877,0.45556 0.05171,0.68376 0.03528,0.62227 0.03073,0.79648 0.03654,1.39022 -0.02196,0.18079 -0.04394,0.36159 -0.06592,0.54238 0,0 3.46984,1.82657 3.46984,1.82657 v 0 c 0.029,-0.19989 0.058,-0.39978 0.0871,-0.59967 -0.007,-0.20721 -0.0353,-2.07574 -0.0617,-2.09811 -3.525798,-2.99012 -3.463433,-3.6152 -3.654615,-1.59786 -0.01191,0.13835 -0.147648,1.77231 -0.136864,1.77954 4.159133,2.786 3.538889,3.12476 3.504689,1.28452 -1.182753,-0.73078 -2.316493,-1.54761 -3.548271,-2.19235 -0.09541,-0.0499 -0.01564,0.21482 -0.02482,0.32212 -0.01556,0.18193 -0.02896,0.3641 -0.04937,0.54555 -0.02024,0.18 -0.213405,0.42462 -0.07258,0.53854 3.893671,3.14995 3.960801,3.37936 3.363505,2.02494 0.02551,-1.69768 0.103873,-0.41561 -3.528158,-2.44369 -0.04519,-0.0252 0.02889,0.10005 0.03354,0.1516 0.04267,0.47342 0.02024,0.95086 0.04677,1.42505 1.166535,0.72761 2.296165,1.51803 3.499604,2.18283 0.06394,0.0353 0.09667,-0.11401 0.1204,-0.18309 0.0864,-0.2513 0.0676,-0.52713 0.10116,-0.79072 0.0195,-0.15295 0.19423,-0.37149 0.0664,-0.45775 -1.118617,-0.75498 -2.380727,-1.27174 -3.57109,-1.90761 -0.0656,0.93957 -0.0494,1.91237 -0.335531,2.81666 0.01381,-0.0141 0.03178,-0.0596 0.04144,-0.0424 0.113851,0.20331 -0.04197,1.41917 0.0053,1.4524 1.11197,0.78102 2.368799,1.33218 3.553198,1.99828 -0.09116,-0.0796 0.0021,-0.28271 -0.09881,-0.34927 -4.054965,-2.67107 -3.489659,-3.131 -3.819046,-0.49736 -0.109316,1.02836 -0.188407,2.07267 -0.336886,3.08916 0.04697,0.82205 0.02903,1.64809 0.01889,2.4711 -0.0027,0.21659 -0.179351,0.51147 -0.01259,0.6497 1.07502,0.89109 2.350386,1.50817 3.525578,2.26226 -0.06216,-1.49203 0.02519,-0.39048 -3.54484,-2.15586 -0.0797,-0.0394 0.0113,0.17751 0.01373,0.26638 0.0087,0.31502 0.0091,0.82081 0.01074,1.12276 0.0011,0.20552 0.0024,0.41105 0.0036,0.61658 0.0033,0.22091 0.01299,1.01378 0.0223,1.02058 3.901472,2.84696 3.404116,3.26899 3.725939,1.07117 0.161312,-1.05572 0.174919,-2.11869 0.276532,-3.18127 0.128329,-1.23569 0.216911,-2.46683 0.158766,-3.71097 -0.0082,-1.50051 -0.0149,-3.00124 0.01471,-4.50158 0.06475,-1.78919 0.162351,-0.66438 -3.517254,-2.47235 -0.08291,-0.0407 0.01389,0.1843 0.01617,0.27664 0.01238,0.5013 -0.0016,1.00297 -0.01511,1.50405 -0.01741,0.5046 0.02864,1.01678 -0.03353,1.523 1.176473,0.68743 2.347865,1.38363 3.529415,2.06229 0.03329,0.0191 -0.0708,-0.0447 -0.08119,-0.0817 -0.03444,-0.12259 0.05625,-0.30614 -0.04822,-0.37895 -1.139339,-0.7942 -2.339571,-1.5046 -3.572114,-2.14467 -0.233878,-0.12145 -0.158993,1.14772 -0.266652,0.74428 -0.0327,0.16372 -0.224583,1.10735 -0.247539,1.28721 -0.05714,0.44776 0.0925,0.63574 -0.148875,0.89651 -0.120158,0.64546 -0.196139,1.32166 -0.170432,1.97833 0.0576,2.71754 -0.704368,0.94041 3.565456,3.3621 0.04495,0.0255 -0.07965,0.0659 -0.11947,0.0988 -0.05754,-0.29053 -0.17822,-1.29344 -0.197432,-1.3058 -2.648677,-1.70464 -3.188358,-3.04594 -4.104605,-1.28045 -0.261927,0.64961 -0.440137,1.33615 -0.632429,2.00505 -0.30028,0.55226 -0.22833,1.27316 -0.248766,1.87811 1.199748,0.70616 2.375516,1.45474 3.599249,2.11847 0.08425,0.0457 0.192989,0.006 0.287337,-0.0105 0.09715,-0.0174 0.353782,-0.0238 0.281662,-0.0912 -2.821175,-2.63498 -1.891133,-2.96814 -3.374413,-2.23772 -0.63169,0.50826 -1.207127,1.08938 -1.91684,1.4957 -0.779828,0.59359 -1.519315,1.24795 -2.399986,1.69043 -0.939167,0.38442 -1.907706,0.64822 -2.930162,0.66288 -0.90565,-0.0373 -1.750486,-0.30132 -2.64064,-0.44536 -0.505126,-0.0295 -1.011502,-0.0554 -1.510921,-0.14293 -1.446787,-0.25368 -3.185943,-1.54572 2.323444,1.63228 -0.103688,-0.0116 -0.253715,0.048 -0.310518,-0.0395 -0.10853,-0.16722 0.393229,-0.63332 0.371038,-0.84328 0.168408,-0.19147 0.127442,-0.1971 0.355444,-0.27713 0.06923,-0.0243 0.140499,-0.045 0.213244,-0.0545 0.03254,-0.004 0.125947,0.0301 0.09751,0.0137 -3.827417,-2.20711 -5.264706,-2.83878 0.36322,-0.0464 0.0441,-0.0759 0.116536,-0.14132 0.132297,-0.22766 0.01151,-0.0631 -0.04156,-0.12154 -0.05719,-0.18375 -0.01397,-0.0557 -0.05365,-0.38603 -0.148479,-0.44021 -3.378034,-1.92991 -4.855001,-1.74 -3.41385,-1.90444 1.094367,-1.15782 0.06518,-0.22116 3.468891,1.7248 0.08006,0.0458 -0.107429,-0.15541 -0.184327,-0.20633 -1.166831,-0.7725 -2.307183,-1.59422 -3.5388,-2.25857 -0.125362,-0.0676 -0.296129,0.33773 -0.330271,0.40742 0.0109,0.0235 0.02093,0.0474 0.0327,0.0705 0.02074,0.0407 -0.07472,-0.0562 -0.118673,-0.0687 -0.278144,-0.0796 -0.517787,-0.0395 -0.732965,0.16572 -0.492075,0.36738 -0.888111,-0.20803 -1.198713,0.57827 0.198659,-0.0718 -0.01159,-0.029 0.146579,0.0594 1.194837,0.66732 2.393397,1.32886 3.609848,1.95593 0.03494,0.018 -0.007,-0.0846 -0.03437,-0.11282 -0.01908,-0.0197 -0.07152,0.0181 -0.08193,-0.007 -0.0094,-0.0229 0.04173,-0.0265 0.06259,-0.0398 1.279237,0.0915 3.106915,1.69671 -2.827181,-1.81555 -0.113435,-0.0671 0.234704,0.12385 0.336812,0.20721 0.226227,0.1847 0.426881,0.45455 0.609497,0.6801 z" />
    <path
       style="fill:#504416;stroke:#504416;stroke-width:0.264583"
       id="path37"
       d="m 55.938742,128.23847 c 0.708039,1.13372 1.475677,2.20324 2.426224,3.14486 0.772494,0.82111 1.614345,1.5709 2.411336,2.36736 1.462905,1.42396 3.39862,2.28997 5.163651,3.23849 1.030681,0.55388 -2.035427,-1.15473 -3.053139,-1.7321 1.914777,1.15721 3.896479,2.19691 5.874158,3.23573 -8.185515,-4.71276 0.25323,0.18618 0.397536,0.24412 0.175565,0.0705 0.20541,-0.33868 0.208577,-0.52784 0.0037,-0.21723 -0.644541,-0.57644 -0.782191,-0.6787 -0.86519,-0.66186 -1.437801,-1.59997 -2.089496,-2.45349 -1.755905,-2.29299 -0.737783,-1.46109 -4.587349,-3.06066 -0.118208,-0.0491 0.191373,0.17005 0.28706,0.25508 0.436335,0.5061 0.846913,1.03256 1.324028,1.50174 0.09565,0.0941 0.168153,0.22694 0.293079,0.27585 1.137811,0.44544 2.310177,0.79701 3.465266,1.19552 -0.865378,-1.54485 -2.171276,-2.80881 -3.41105,-4.0578 -1.254633,-1.20775 -1.299113,-1.07419 -4.062789,-1.842 -0.169955,-0.0472 0.203147,0.28848 0.308735,0.42978 0.434832,0.5819 0.341643,0.45208 0.844685,1.00059 0.821491,1.00757 1.754243,1.90096 2.682052,2.80803 0.11806,0.12118 0.236119,0.24235 0.354182,0.36352 0,0 3.626598,1.51297 3.626598,1.51297 v 0 c -0.118668,-0.12787 -0.237334,-0.25575 -0.355999,-0.38363 -0.945682,-0.89226 -1.898261,-1.76887 -2.697488,-2.79943 -0.569756,-0.55427 -0.377918,-0.32587 -0.846556,-0.94156 -0.09839,-0.12925 -0.146415,-0.31555 -0.28989,-0.39172 -6.136196,-3.25778 -4.453948,-2.36949 -3.157006,-1.24389 1.22932,1.20769 2.491793,2.42921 3.426402,3.88622 6.645584,3.46053 3.379689,2.1843 2.14444,0.19359 -1.156706,-1.26081 -0.636191,-0.76124 -4.021728,-2.12829 -0.09444,-0.0381 -0.120094,0.19101 -0.09617,0.29001 0.120081,0.4969 1.003419,1.10325 1.175211,1.59678 0.681818,0.8424 1.217924,1.79216 2.010243,2.5454 0.103312,0.0682 0.70581,0.55559 0.815303,0.50551 0.14056,-0.0643 0.177752,-0.39802 0.319389,-0.33615 0.168841,0.0738 9.181469,5.37473 -0.353579,-0.22625 -0.433464,-0.23233 -0.86918,-0.45776 -1.309846,-0.67617 -0.146182,-0.0725 -0.578514,-0.30106 -0.438885,-0.21667 2.123873,1.28376 4.099813,2.37107 2.621208,1.5543 -7.449735,-4.31931 -2.725163,-1.58797 -0.69869,-0.38572 0.11921,0.0707 -0.250452,-0.12062 -0.36661,-0.19625 -0.382804,-0.24927 -0.745109,-0.5486 -1.095952,-0.83984 -0.756412,-0.85039 -1.676429,-1.53387 -2.424062,-2.3968 -0.974791,-0.88121 -1.772936,-1.89387 -2.414018,-3.04361 z" />
    <path
       style="fill:#504416;stroke:#504416;stroke-width:0.264583"
       id="path38"
       d="m 58.483113,137.68747 c 0.238033,-0.0956 1.40906,1.33272 1.555451,1.37623 0.03549,0.0106 0.129165,-0.33397 0.172149,-0.4716 -0.206613,-0.15855 -0.517734,-0.43206 -0.102211,0.65 0.06707,0.17466 0.294253,0.23172 0.432255,0.35805 0.498779,0.45661 0.974918,0.94769 1.425972,1.45101 0.309932,0.41669 -0.564103,-0.71514 0.122258,-0.44984 1.064035,0.41129 1.965285,1.15956 2.965014,1.70899 0.171828,0.0944 -0.320712,-0.2257 -0.478298,-0.34235 -0.174398,-0.1291 -0.373126,-0.28743 -0.549931,-0.42728 -6.061478,-2.34762 -4.346858,-2.12719 -3.311798,-1.15935 0.56374,0.52713 1.121188,1.0369 1.726383,1.51914 0.419674,0.37572 0.854868,0.73352 1.278897,1.10422 0.08554,0.0748 0.276598,0.2995 0.285449,0.18623 0.008,-0.10212 -0.02503,-0.20332 -0.03755,-0.30498 -1.179391,-0.50719 -3.4168,-1.69507 1.613365,0.99079 0.234416,0.12517 -0.450667,-0.28205 -0.669485,-0.43283 -0.368509,-0.25393 -0.444842,-0.32797 -0.737585,-0.57715 -0.146415,-0.10467 -0.330612,-0.27709 -0.208848,0.36707 0.01699,0.0898 0.602667,0.34683 0.598693,0.34455 -3.466719,-1.99076 -3.907141,-2.30956 -2.59638,-1.41257 0.12741,-0.45889 0.301562,0.46827 0.423178,0.33554 0.08121,-0.0886 -0.02122,-0.3945 0.09012,-0.34917 3.859424,1.57152 3.923594,2.45411 2.277102,0.89594 -0.08423,0.0457 -1.600636,-1.50267 -1.635934,-1.4753 -0.142952,0.11085 -0.05272,0.5598 -0.221729,0.49533 -1.137565,-0.43397 -2.12121,-1.19582 -3.181816,-1.79373 0.828633,0.65342 1.539119,1.43759 2.374294,2.09116 0.423188,0.31106 0.867974,0.5905 1.304481,0.8821 0,0 3.659836,1.43902 3.659836,1.43902 v 0 c -0.428482,-0.30593 -0.880703,-0.56669 -1.307698,-0.87487 -0.883444,-0.58506 -1.610405,-1.34523 -2.338049,-2.1041 -1.220541,-0.69834 -2.360874,-1.56074 -3.661624,-2.09501 -0.171276,-0.0704 -0.277704,0.28439 -0.298646,0.46836 -0.01095,0.0962 0.151262,0.12087 0.224351,0.18431 0.492363,0.4274 0.957387,0.88601 1.470199,1.28987 1.068835,1.09425 4.3478,4.21427 4.894017,2.51683 0.06388,-0.19853 -0.463505,-0.36273 -0.409626,-0.47291 -1.570736,-1.02322 -0.72591,-0.48103 -4.147251,-2.48306 -0.0093,-0.005 -0.610854,-0.32834 -0.685154,-0.29886 -0.471652,0.18717 -0.371546,0.30419 -0.28516,0.56182 0.456449,0.40727 0.915458,0.77646 1.44417,1.09112 1.328756,0.79079 3.364685,2.36683 5.208431,2.7682 0.136147,-0.0927 0.304178,-0.15061 0.408443,-0.27812 0.05624,-0.0688 0.07069,-0.18285 0.03502,-0.26422 -0.04322,-0.0986 -0.162584,-0.14114 -0.243731,-0.21187 -0.431994,-0.37654 -0.895935,-0.71423 -1.29058,-1.13224 -0.478202,-0.3601 -0.950029,-0.7324 -1.395365,-1.13323 -0.110656,-0.0996 -0.220821,-0.20066 -0.319164,-0.31243 -0.07995,-0.0909 -0.103809,-0.24309 -0.213884,-0.29341 -1.244817,-0.56904 -2.53661,-1.02914 -3.804914,-1.54371 1.3897,1.0495 4.246411,4.08049 5.311073,2.72924 0.04766,-0.0605 -0.04723,-0.14661 -0.07085,-0.21992 -0.44137,-0.52639 -0.938533,-0.98826 -1.409906,-1.48792 -0.12691,-0.13453 -0.194705,-0.39377 -0.379312,-0.40492 -0.219417,-0.0133 -0.37338,0.23209 -0.56007,0.34814 0.03307,0.0128 0.06614,0.0256 0.0992,0.0384 0.06191,-0.0551 0.443667,-0.29836 0.37642,-0.50091 -0.02751,-0.0829 -0.137133,-0.10866 -0.199631,-0.16966 -0.440772,-0.43019 -0.834728,-0.91271 -1.349425,-1.26263 z" />
    <path
       style="fill:#806600;stroke:#806600;stroke-width:0.264583"
       id="path39"
       d="m 62.6379,160.74768 c -0.124206,0.0949 -0.242427,0.19812 -0.372618,0.28459 -0.274524,0.18233 -0.694119,0.40268 -0.996493,0.52836 -0.416948,0.1733 -0.86053,0.21001 -1.173853,0.5455 1.18736,0.70863 2.322523,1.51313 3.562083,2.1259 0.142867,0.0706 0.306848,-0.0869 0.457504,-0.13886 0.626563,-0.21619 1.300406,-0.40877 1.877108,-0.73649 0.601364,-0.19066 1.024213,-0.68177 1.603962,-0.92271 0.491456,-0.26365 0.692828,-0.87655 1.17565,-1.13901 0.206195,-0.0264 0.391538,-0.19769 0.582546,-0.24529 0.05325,-0.0133 0.210011,0.0552 0.162169,0.0283 -3.252698,-1.8274 -4.650809,-1.97118 -3.321323,-1.82783 4.250571,2.18781 2.529885,2.70509 4.008969,1.60394 0.09281,-0.0691 0.18015,-0.1498 0.28575,-0.1971 0.28393,-0.12717 0.221875,0.0626 0.531265,-0.20176 0.319374,-0.32068 0.371446,-0.78355 0.578874,-1.16471 0.01765,-0.0324 0.05072,-0.0537 0.07608,-0.0805 0.02984,-0.0728 0.05968,-0.14554 0.08953,-0.21831 -0.08074,-0.52633 0.05764,0.0696 -0.105453,-0.11169 -0.06005,-0.0667 0.06259,-0.38051 0.08364,-0.47986 -0.025,0.20834 0.313706,-0.76686 0.290918,-0.55827 -0.19444,1.77977 -3.007318,-3.53453 -3.513331,-1.45499 -0.132847,0.46052 -0.519938,0.74298 -0.837872,1.07068 -0.703794,0.7254 0.176826,-0.088 -0.543189,0.55889 -0.567759,0.64195 -1.222566,1.21234 -1.915139,1.71708 -0.902941,0.64831 -1.883521,1.1568 -2.824332,1.74388 -0.892942,0.50579 -1.909813,0.61159 -2.913867,0.67867 -0.144634,0.006 -0.289269,0.0119 -0.433906,0.0179 0,0 3.201734,2.29787 3.201734,2.29787 v 0 c 0.142713,-0.0108 0.285429,-0.0215 0.428146,-0.0323 1.053732,-0.0971 2.104625,-0.26781 3.021393,-0.8349 0.943102,-0.60006 1.937652,-1.11042 2.846975,-1.76503 0.696272,-0.52592 1.358114,-1.10041 1.944529,-1.74791 0.565599,-0.53301 1.182367,-1.09174 1.501388,-1.81027 0.504884,-1.54963 0.281379,-0.54397 -3.174412,-2.64923 -0.130694,-0.0796 -0.394356,0.54597 -0.424498,0.60572 -0.04912,0.0974 -0.102478,0.19255 -0.153717,0.28882 -0.03223,0.16225 -0.118671,0.30457 -0.150956,0.45936 -0.0059,0.0285 0.02657,0.0557 0.02207,0.0844 -0.05298,0.33762 -0.1983,0.39072 0.01323,0.26769 0.04044,-0.0505 0.08049,-0.20183 0.121324,-0.15162 0.04232,0.0521 -0.07636,0.11102 -0.105034,0.17166 -0.04142,0.0876 -0.205002,0.54505 -0.238813,0.61713 -0.09061,0.19318 -0.114956,0.2057 -0.234373,0.33871 -0.300733,0.11438 -0.523584,0.24214 -0.793819,0.42328 -1.368861,0.91755 -0.965917,-0.20165 2.877378,2.30198 0.368567,-1.90885 -3.011762,-2.86485 -4.351602,-1.86923 -0.380259,0.35387 -0.652938,0.82227 -1.11248,1.08638 -0.545261,0.30629 -1.037661,0.69624 -1.617411,0.9402 -2.489401,1.38175 -3.857699,-0.2848 0.824206,2.9697 0.132186,-0.17277 0.01971,-0.044 0.465701,-0.22078 0.719161,-0.28505 1.422768,-0.60773 2.028042,-1.10067 z" />
    <path
       style="fill:#806600;stroke:#806600;stroke-width:0.264583"
       id="path40"
       d="m 71.971265,159.40172 c 0.211711,-0.57947 0.274327,-1.22862 0.516231,-1.79553 -0.182875,-0.37192 -0.199795,-0.79052 -0.182132,-1.20006 0.07853,-0.30778 0.199539,-0.58135 0.258686,-0.90088 0.600583,-1.37929 -2.779331,-2.84461 -3.670189,-1.67763 0,0 3.412469,2.02775 3.412469,2.02775 v 0 c 1.20387,-1.59196 -4.443203,-0.99398 -3.258375,-2.21374 -0.04678,0.33354 -0.163404,0.6049 -0.251132,0.9292 -0.04043,0.25184 -0.07712,1.20255 0.05435,1.37652 0.02296,-0.0248 0.04887,-0.10165 0.06892,-0.0744 0.1187,0.16113 -0.399227,1.40312 -0.425903,1.64847 z" />
    <path
       style="fill:#806600;stroke:#806600;stroke-width:0.264583"
       id="path41"
       d="m 73.598754,123.07948 c 1.011169,-0.57988 2.111571,-0.82763 3.242811,-1.04443 0.13711,-0.0191 0.27681,-0.0246 0.41131,-0.0573 0.0573,-0.0139 0.80569,-0.27879 0.86791,-0.2984 0.45542,-0.14351 0.91318,-0.23503 1.38327,-0.31326 1.01841,-0.11662 2.03686,-0.12579 3.05109,-0.27627 0.9165,-0.0546 1.78637,-0.34632 2.61438,-0.73338 0.81136,-0.28977 1.62505,-0.61575 2.35185,-1.08498 0.85586,-0.52136 1.7169,-1.03442 2.5925,-1.52482 0.80012,-0.30181 1.48057,-0.82552 2.20019,-1.26661 0.18302,-0.20814 0.47835,-0.2385 0.69875,-0.37186 0.24015,-0.1453 0.41964,-0.32386 0.68219,-0.44248 0.57411,-0.19143 0.99346,-0.63134 1.48963,-0.959 0.10968,-0.0461 0.21913,-0.0927 0.32904,-0.13817 0.10718,-0.0444 0.38365,-0.13458 0.48375,-0.23953 1.01185,-1.06087 -2.15464,-3.13654 -3.59813,-2.26526 -0.82532,0.33162 -1.61103,0.75204 -2.45232,1.04995 -1.26303,0.42858 -2.62845,0.64764 -3.83135,1.22695 -0.53376,0.26119 -0.99442,0.64842 -1.43098,1.04668 -0.002,0.002 -0.40812,0.42393 -0.43252,0.4274 -0.0419,0.006 -0.009,-0.0843 -0.013,-0.12645 -0.12125,-0.13077 -0.29698,-0.0425 -0.45731,-0.0228 0,0 3.22442,2.31994 3.22442,2.31994 v 0 c 0.17004,0.006 0.30106,0.0554 0.4688,0.0335 0.62763,-0.51177 1.09971,-1.22896 1.90562,-1.51088 1.22885,-0.51128 2.5454,-0.80157 3.81254,-1.20473 0.8363,-0.31208 1.6297,-0.72647 2.48319,-0.9929 1.30162,0.56399 -0.12997,-0.0478 -3.06761,-2.09635 -0.0172,-0.012 0.0679,-0.0485 0.0489,-0.0398 -0.14744,0.0676 -0.29001,0.14528 -0.43585,0.21623 -0.12466,0.0606 -0.24679,0.12632 -0.37019,0.18947 -0.47425,0.3399 -0.92253,0.70232 -1.47581,0.91122 -0.466,0.27714 -0.92668,0.55988 -1.38381,0.85024 -0.7015,0.45576 -1.39085,0.9396 -2.16633,1.26635 -0.87505,0.50332 -1.75998,0.98888 -2.61442,1.52535 -0.74102,0.42337 -1.52831,0.74748 -2.32818,1.03994 -0.81727,0.34531 -1.65383,0.59794 -2.54526,0.64748 -1.01604,0.1364 -2.04256,0.12922 -3.05591,0.29187 -0.90585,0.17828 -1.765462,0.50683 -2.672056,0.67539 -1.136591,0.26094 -2.241793,0.55905 -3.283124,1.09949 z" />
    <path
       style="fill:#cccccc;stroke:#cccccc;stroke-width:0.264583"
       id="path42"
       d="m 57.883435,51.43582 c -0.284607,-0.70835 0.267806,-1.5299 0.190376,-2.20435 0.159369,-0.34518 0.411895,-0.65217 0.593267,-0.98585 0.97753,-1.79844 -1.241512,-1.37923 -3.521022,-2.40583 -0.30154,0.15267 -0.526328,0.41831 -0.81444,0.5895 -0.06334,0.0376 -0.141338,0.0417 -0.212006,0.0625 1.154473,0.59426 2.247263,1.3279 3.463417,1.7828 0.142547,0.0533 0.0991,-0.28912 0.17031,-0.42363 0.06289,-0.11877 0.152993,-0.22101 0.229489,-0.33151 0.04839,-0.0371 0.199382,-0.0833 0.145179,-0.11122 -1.184817,-0.60977 -2.352577,-1.29177 -3.627061,-1.68074 -0.186116,-0.0568 -0.237408,0.30848 -0.350571,0.46678 -0.344598,0.48206 -0.664006,0.96091 -1.051372,1.41013 -0.09216,0.55222 -0.330525,-0.10185 -0.253854,-0.0607 1.139354,0.61119 2.298049,1.20362 3.349432,1.95613 0.09886,0.0708 -0.04447,0.38004 -0.155287,0.33003 -1.181761,-0.53324 -2.202833,-1.38107 -3.379671,-1.92509 -0.10042,-0.0464 -0.06683,0.21093 -0.100251,0.31639 -0.07539,0.2338 -0.222533,0.49526 -0.213288,0.75333 0.0051,0.14211 0.0636,0.12054 0.08209,0.23769 0.006,1.48729 -0.04715,0.67209 3.658291,1.86096 0.159691,0.0512 0.149312,-0.30035 0.224456,-0.45028 0.07112,-0.14191 0.138332,-0.28588 0.214339,-0.42522 0.02349,-0.0431 0.1265,-0.0972 0.08368,-0.12116 -1.190697,-0.66723 -2.427645,-1.24835 -3.641466,-1.87253 -1.227085,1.10206 -0.662072,0.42117 3.227596,2.24457 0.02537,0.0119 0.628227,-0.80396 0.94742,-1.21046 0.483391,-0.56057 0.861952,-1.19834 1.290715,-1.798 0.153762,-0.21505 0.27143,-0.33333 0.360296,-0.57639 0.304821,-0.46123 0.761923,-1.0863 0.697521,-1.67609 0.004,-0.0397 -0.0043,-0.0826 0.01191,-0.11909 0.09341,-0.21027 0.417619,-0.70637 0.511318,-0.86839 0.247415,-0.42781 0.462074,-0.86996 0.74131,-1.27866 -1.170483,-0.63379 -2.295631,-1.35962 -3.51145,-1.90138 -0.09365,-0.0417 -0.220268,0.22991 -0.130103,0.27872 1.150638,0.62282 2.317004,1.2801 3.587493,1.59271 0.223983,0.0551 0.138459,-0.44045 0.222784,-0.65515 0.220343,-0.56101 0.375971,-0.84117 0.641078,-1.36585 0.959456,-1.3365 0.389911,-0.36133 -3.386198,-2.09061 -0.05506,-0.0252 -0.170302,0.11093 -0.11675,0.13921 1.151593,0.60828 2.278467,1.32038 3.534169,1.6659 0.215085,0.0592 0.122002,-0.43009 0.206041,-0.63673 0.110715,-0.27224 0.251352,-0.53133 0.377026,-0.79699 0.365781,-0.53529 0.617472,-1.13572 0.950564,-1.68942 0.667612,-1.10975 0.04193,0.0179 0.151952,-0.0798 0.140484,-0.12464 0.187831,-0.32686 0.304372,-0.47413 1.310719,-0.64711 0.76555,-0.3254 -3.319796,-1.94766 -0.142939,-0.0568 -0.149823,0.26885 -0.232765,0.39836 -0.07979,0.12459 -0.16941,0.2426 -0.254994,0.36328 -0.06093,0.0859 -0.276405,0.20497 -0.184542,0.25649 1.134615,0.63635 2.364264,1.086 3.546396,1.629 0.148359,-0.71906 0.654909,-1.25156 0.982482,-1.87858 0.148193,-0.28367 0.315185,-0.73932 0.429011,-1.032195 0.08675,-0.193408 0.166669,-0.390031 0.260263,-0.580224 0.0016,-0.0031 0.567105,-1.019693 0.533204,-1.038169 -3.658475,-1.993802 -3.017983,-2.968453 -3.792915,-1.395368 0.04196,-0.426492 -0.295757,0.811165 -0.316871,0.589175 -0.0099,-0.103654 0.03413,-0.333722 0.126471,-0.28561 1.180526,0.615098 2.216729,1.481232 3.386733,2.116119 0.0729,0.03955 0.09587,-0.136824 0.156448,-0.193461 0.06522,-0.06097 0.14505,-0.104137 0.217575,-0.156205 0.487976,-0.464777 0.796777,-0.603686 0.882592,-1.303919 0.132447,-1.487961 0.07698,-0.168545 -3.575381,-1.706481 0,0 3.474111,1.883963 3.474111,1.883963 v 0 c -3.465573,-2.223754 -3.41979,-3.543445 -3.413942,-2.009502 -0.03097,0.583102 -0.296746,0.621943 -0.716622,1.027215 -0.26457,0.220957 -0.473141,0.383564 -0.433781,0.418251 3.019893,2.661256 2.663137,3.447411 3.638574,1.57987 0.818311,-1.448975 0.272827,-0.246788 -3.172852,-2.399435 -0.01773,-0.01109 0.05627,0.01754 0.05025,0.03755 -0.04186,0.13925 -0.1166,0.26652 -0.180864,0.396951 -0.08552,0.173564 -0.182626,0.341252 -0.268333,0.514721 -0.09693,0.196194 -0.186314,0.396028 -0.279474,0.59404 -0.414845,1.033737 -1.004049,1.895152 -1.449276,2.914244 1.109681,0.7603 2.164056,1.60839 3.329038,2.28089 0.08987,0.0519 0.109593,-0.17628 0.166719,-0.26291 0.08364,-0.12685 0.169431,-0.25226 0.255519,-0.37745 0.10147,-0.14757 0.442084,-0.32307 0.307141,-0.44081 -2.989487,-2.608313 -2.338985,-3.027535 -3.555862,-2.02771 -0.06154,0.0764 -0.119698,0.15568 -0.184621,0.22924 -0.04419,0.0501 0.158131,-0.21504 0.12233,-0.15866 -0.470749,0.74125 -0.807419,1.56315 -1.308357,2.29113 -0.141549,0.27293 -0.293515,0.54072 -0.424651,0.81881 -0.09728,0.20629 -0.426061,0.47667 -0.259924,0.63293 3.246501,3.05341 5.711095,2.99819 0.207127,-0.0604 -0.103307,-0.0574 -0.107389,0.21058 -0.161084,0.31586 -0.10052,0.21048 -0.951047,1.99066 -0.916535,2.02368 0.968579,0.92682 2.160415,1.59341 3.303735,2.29338 0.06576,0.0403 0.171694,-0.15938 0.108879,-0.2041 -1.075907,-0.76598 -2.236906,-1.4048 -3.355361,-2.1072 -0.374946,0.92386 -1.047268,1.68451 -1.451113,2.59045 0.476335,0.23962 -0.40664,1.16288 -0.587491,1.44682 0.03426,0.20322 -0.116911,0.31056 -0.225446,0.48224 -0.386665,0.61162 -0.764082,1.22973 -1.258914,1.76443 -0.06048,0.0723 -0.649301,0.77941 -0.763299,0.90471 -0.06566,0.0722 -0.285808,0.14554 -0.208664,0.20528 3.764196,2.91487 2.303254,3.00579 3.491953,1.98685 -1.054056,-0.73867 -2.082552,-1.51522 -3.162166,-2.21601 -0.03994,-0.0259 -0.02109,0.0936 -0.04086,0.1369 -0.06494,0.14223 -0.138756,0.2803 -0.21255,0.41815 -0.06511,0.12162 -0.312786,0.27516 -0.20405,0.36005 4.514453,3.52461 4.129421,3.06479 3.277185,2.01623 0.0058,-0.0324 0.05034,-0.25829 0.04156,-0.29467 -0.0066,-0.0275 -0.04243,-0.0375 -0.06365,-0.0563 -0.02223,-0.007 -0.0596,0.002 -0.06668,-0.02 -0.05273,-0.16466 0.08816,-0.4162 0.131942,-0.53223 0.685808,-1.59428 0.443688,-0.68077 -3.164922,-2.70967 -0.113659,-0.0639 -0.328991,0.23699 -0.227176,0.31845 2.174748,1.74008 2.533724,3.06549 3.857151,1.87886 0.36304,-0.46528 0.685176,-0.95741 1.04095,-1.42783 0.124016,-0.16397 0.529752,-0.33268 0.386784,-0.48042 -0.917871,-0.94855 -2.059098,-1.65819 -3.160355,-2.38584 -0.06945,-0.0459 -0.105871,0.12849 -0.158808,0.19273 -0.02633,0.0403 -0.548172,0.8046 -0.485998,0.8599 3.335626,2.96718 2.42424,2.81129 4.373052,1.59945 -1.07524,-0.67419 -2.182156,-1.30032 -3.225718,-2.02257 -0.05525,-0.0382 0.17385,-0.14919 0.183822,-0.0827 0.02056,0.13692 -0.07108,0.27045 -0.137406,0.39198 -0.234632,0.42993 -0.611087,0.77067 -0.805638,1.22484 0.02127,0.0626 0.09656,0.10817 0.09481,0.17429 -0.01654,0.62563 -0.402111,1.38683 -0.252687,2.04963 z" />
    <path
       style="fill:#cccccc;stroke:#cccccc;stroke-width:0.264583"
       id="path43"
       d="m 68.160309,46.74465 c 0.690513,-1.38555 0.288026,-0.42201 -3.531962,-2.02431 -0.103201,-0.0433 -0.162335,0.1619 -0.265295,0.20575 -0.03652,0.0156 -0.144219,-0.0658 -0.109842,-0.046 3.53074,2.03755 2.711857,3.06492 3.635232,1.65041 1.232972,-1.88177 1.283187,-1.6109 -3.017747,-2.6711 -0.224751,-0.0554 -0.233924,0.39955 -0.354613,0.59707 -0.13561,0.22194 -0.276157,0.44083 -0.414235,0.66124 -0.709988,1.26211 -1.406848,2.55913 -2.346526,3.67018 1.208318,0.54838 2.34233,1.3051 3.624958,1.64513 0.219959,0.0583 0.214784,-0.40152 0.333254,-0.5958 0.577403,-0.94692 1.196094,-1.87105 1.782156,-2.81313 0.134533,-0.22774 0.269068,-0.45548 0.403604,-0.68322 0,0 -3.369236,-1.94853 -3.369236,-1.94853 v 0 c -0.131924,0.22606 -0.263845,0.45211 -0.395767,0.67817 -0.666205,1.09142 -2.182566,3.35237 -2.159373,3.37649 0.912905,0.94945 2.113558,1.57234 3.170336,2.35851 0.841729,-1.19784 1.617461,-2.44205 2.319496,-3.72639 0.14229,-0.21921 0.283816,-0.43892 0.426868,-0.65763 0.124764,-0.19075 0.534509,-0.40642 0.376571,-0.57075 -3.51423,-3.65661 -2.527221,-3.05088 -3.776289,-1.32296 -0.0924,0.12278 -0.393499,0.26791 -0.277196,0.36834 1.009695,0.87191 2.171832,1.55377 3.309625,2.25028 0.06094,0.0373 0.124164,-0.0712 0.182367,-0.11262 0.09741,-0.0694 0.375684,-0.14269 0.283882,-0.21932 -3.109193,-2.59509 -2.697988,-3.38277 -3.279963,-2.00729 z" />
    <path
       style="fill:#cccccc;stroke:#cccccc;stroke-width:0.264583"
       id="path44"
       d="m 63.183333,106.26795 c -0.04411,-0.80575 0.04709,-1.60701 -0.03745,-2.40875 -0.126206,-0.78713 -0.109778,-1.58951 -0.193153,-2.37988 -0.0088,-0.083 -0.109958,-0.67662 -0.162595,-0.70079 -1.211744,-0.5565 -2.468356,-1.00959 -3.702534,-1.51438 -0.182912,0.46352 -0.236569,0.96107 -0.318442,1.44857 -0.01953,0.11626 -0.03471,0.23339 -0.05982,0.34857 -0.0072,0.0332 -0.06773,0.0808 -0.03685,0.0949 1.148755,0.52249 2.32473,0.98295 3.487095,1.47443 -0.05335,-1.1812 -0.105005,-2.3712 -0.02529,-3.55262 -0.01392,-0.86786 0.01103,-1.73108 0.07057,-2.59785 -0.09286,-0.046 0.179758,-1.17331 0.157644,-1.18518 -1.167405,-0.62684 -3.198506,-0.49465 -3.559572,-1.76955 -0.343223,-1.21191 2.257195,1.16599 3.477268,1.47894 0.190032,0.0487 -0.0039,-0.39235 -0.0059,-0.58853 -0.03898,-0.73319 0.05941,-1.70727 0.176398,-1.95505 0.10083,-0.84738 -0.08612,-1.72014 0.04861,-2.56286 -1.181116,-0.54473 -2.328968,-1.16831 -3.54335,-1.63418 -0.08632,-0.0331 0.0077,0.18484 0.0063,0.27728 -2.65e-4,0.0262 -0.03578,0.0677 -0.01159,0.0777 1.168144,0.48423 2.305595,1.07745 3.532902,1.38201 0.159753,0.0396 0.03998,-0.32676 0.06234,-0.48983 0.03277,-0.23897 0.06871,-0.4775 0.10306,-0.71625 0.129876,-0.6361 0.09159,-1.31984 0.321107,-1.93624 0.0086,-0.0231 0.04766,-0.0772 0.05181,-0.0529 0.0079,0.0463 -0.02516,0.0904 -0.03773,0.1356 0.04979,-0.15538 0.09957,-0.31076 0.14936,-0.46614 -0.0042,-0.16158 0.0789,-1.44511 0.06258,-1.45372 -3.613526,-1.90503 -3.586864,-2.98658 -3.53627,-1.47661 -0.0029,0.0199 -0.02663,0.0508 -0.0086,0.0597 1.188336,0.58427 2.340994,1.26112 3.589935,1.70119 0.129556,0.0456 0.08329,-0.26205 0.115367,-0.39561 0.142446,-0.59317 0.214132,-1.20251 0.307599,-1.80455 -0.91136,0.0922 0.243988,-0.34557 0.117012,-0.40791 -7.412593,-3.63916 -1.898915,-0.60952 0.08719,-0.21517 0.227446,0.0452 -5.3e-4,-0.46379 0.0024,-0.69566 0.0024,-0.19302 0.009,-0.38597 0.01355,-0.57896 0.05498,-0.65919 -0.0011,-1.32151 -0.01506,-1.98157 -0.0019,-0.24417 -0.0058,-0.48835 -0.0055,-0.73253 3.7e-5,-0.0312 0.0056,-0.80287 0.01995,-0.94361 0.0061,-0.0597 0.0961,-0.14968 0.04174,-0.17502 -3.672236,-1.71142 -3.316655,-2.76622 -3.705286,-1.27692 -0.589113,1.25018 -0.267065,0.48582 3.445598,1.77052 0.157583,0.0545 -0.05775,-0.32882 -0.07358,-0.49482 -0.04171,-0.43719 -0.04486,-0.88399 -0.03641,-1.32304 0.01566,-0.0296 0.04681,-0.0553 0.047,-0.0888 9e-5,-0.0156 -0.04192,0.0194 -0.04651,0.005 -0.02008,-0.0651 -0.01188,-0.13572 -0.01492,-0.20375 -0.01796,-0.40126 -0.01402,-0.80406 -0.01736,-1.20558 0.0087,-0.25868 -0.006,-0.51863 0.02328,-0.77629 0,0 -3.550565,-1.81117 -3.550565,-1.81117 v 0 c 0.02458,0.26601 0.01466,0.53342 0.02024,0.80021 -0.0039,0.39778 -0.0031,0.79604 -0.01619,1.19367 -0.004,0.12315 -0.07902,0.24734 -0.04783,0.36655 0.0075,0.0285 0.04051,-0.0428 0.06077,-0.0641 0.04736,0.44631 0.06337,0.89771 0.06695,1.3464 0.0016,0.18269 -0.156914,0.44238 -0.0079,0.54803 3.447933,2.44414 3.076257,3.22833 3.635732,1.82945 0.402608,-1.52456 0.08691,-0.039 -3.471349,-2.14152 -0.04466,-0.0264 0.103274,-0.13698 0.126539,-0.0906 0.05566,0.11094 0.01151,0.24799 0.01469,0.37206 0.0051,0.19802 0.0087,0.39609 0.0099,0.59416 0.0016,0.24306 -0.0013,0.48612 -0.0019,0.72918 -0.0097,0.65689 -0.04958,1.31491 0.0066,1.97071 9.5e-5,0.19364 0.0047,0.38733 2.65e-4,0.58092 -0.0051,0.21914 -0.199396,0.51929 -0.02883,0.65698 1.06712,0.86142 4.257879,1.00318 3.507232,2.15093 -3.964792,6.06221 -3.260408,-4.4524 -3.673729,-1.53712 -0.07961,0.58206 -0.149648,1.16849 -0.302752,1.73723 -0.03107,0.11543 -0.210196,0.26992 -0.113488,0.34019 1.078436,0.78365 2.273118,1.39376 3.42446,2.06572 0.02074,0.0121 -0.0052,-0.0477 -0.0077,-0.0716 0.04751,-1.54673 0.07393,-0.35843 -3.540363,-2.13891 -0.05531,-0.0273 0.008,0.1231 0.0088,0.18475 0.0016,0.13199 0.0011,0.26404 -0.0019,0.396 -0.0085,0.38767 -0.01752,0.47736 -0.04049,0.83889 0.168986,0.0647 -0.09201,0.21399 -0.130501,0.36114 -0.168664,0.64488 -0.13865,1.33111 -0.292454,1.97892 -0.04234,0.23457 -0.08347,0.46937 -0.127019,0.70372 -0.03347,0.18011 -0.246801,0.42482 -0.104058,0.53964 1.083781,0.87181 2.343296,1.49972 3.533677,2.21918 0.02593,0.0157 -0.01082,-0.0599 -0.01122,-0.0902 -0.0013,-0.0905 0.08281,-0.22295 0.0064,-0.27155 -1.141572,-0.72614 -2.362608,-1.31908 -3.543911,-1.97862 0.104055,0.816 -0.02559,1.65004 -0.01342,2.46943 0.16573,-0.19655 -0.05729,0.11372 -0.06505,0.18727 -0.06577,0.62328 -0.01296,1.25904 -0.08977,1.88206 -0.113049,1.9937 -0.204121,0.49524 3.486631,2.85072 0.316103,1.29339 -2.293749,-1.35345 -3.459625,-1.9965 -0.03135,-0.0173 0.02878,0.0679 0.02792,0.1037 -0.0088,0.36728 -0.111697,0.72894 -0.09534,1.09801 -0.07371,0.86208 -0.164142,1.72494 -0.143193,2.59134 0.05899,1.19513 0.01082,2.39279 0.02228,3.58876 4.739976,2.93881 3.048029,3.12189 3.883303,0.40311 -1.13996,-0.64704 -2.302259,-1.25622 -3.419875,-1.94114 -0.06323,-0.0387 0.170792,-0.0728 0.221668,-0.0188 0.104863,0.1112 0.137245,0.27765 0.164285,0.42808 0.139473,0.7759 0.03581,1.58812 0.143802,2.36814 0.06524,0.7881 0.07176,1.58097 0.04605,2.37137 z" />
    <path
       style="fill:#cccccc;stroke:#cccccc;stroke-width:0.264583"
       id="path45"
       d="m 63.537417,84.71596 c -0.03425,-0.65475 0.0011,-1.27538 0.165441,-1.90919 0.506357,-1.55421 1.702284,0.001 -3.2523,-2.03655 -0.117428,-0.0483 0.01466,0.25374 0.01286,0.3807 0.06147,0.0301 0.0945,-0.20972 0.0226,-0.2151 -0.05839,-0.004 -0.104169,0.0852 -0.160854,0.0705 -0.04689,-0.0121 -0.108966,-0.15228 -0.06636,-0.12926 3.142589,1.69779 4.173414,2.79048 3.202906,1.77855 -4.264147,-2.04136 -3.581881,-2.61395 -3.954992,0.32475 -0.329139,1.21898 -0.578842,2.45224 -0.727667,3.70573 -0.130826,1.17851 -0.142047,2.36496 -0.153969,3.54919 -0.0854,1.11943 -0.213313,2.23426 -0.27854,3.35556 -0.05974,1.14168 -0.0661,2.28549 -0.06339,3.42848 -0.05007,1.19159 0.09413,2.39838 -0.07438,3.58123 -0.441867,1.92858 -1.421317,0.57137 3.086021,2.40486 0.09201,0.0374 -0.07699,-0.184 -0.100856,-0.28042 -0.03135,-0.12667 -0.04274,-0.25745 -0.06412,-0.38617 -0.115104,-1.19438 -0.07375,-2.393 0.01527,-3.58701 0.140766,-1.62147 0.199061,-3.2487 0.243731,-4.8752 -0.0227,-1.25069 0.120473,-2.49055 0.242602,-3.73254 0.09043,-1.27618 0.121684,-2.55535 0.135771,-3.83431 0.01447,-1.30481 0.0037,-2.60973 0.0019,-3.91459 0.005,-1.234 -0.0062,-2.46827 0.01225,-3.70217 0,0 -3.50601,-1.78628 -3.50601,-1.78628 v 0 c 0.01895,1.23868 0.0091,2.47772 0.01564,3.71651 -2.64e-4,1.30187 -0.0056,2.60371 -0.01,3.90557 -0.01302,1.26787 -0.02556,2.53722 -0.128411,3.80169 -0.111286,1.25485 -0.276034,2.50643 -0.230878,3.76946 -0.03042,1.62029 -0.08084,3.24087 -0.234474,4.85501 -0.10396,1.21044 -0.175024,2.42038 -0.09294,3.63543 0.01318,0.16763 0.051,0.75611 0.08893,0.78134 3.16184,2.10311 3.457734,3.32018 3.995282,1.0639 0.196374,-1.20013 0.04465,-2.42608 0.09165,-3.6382 0.0098,-1.13549 0.0089,-2.27147 0.06133,-3.40607 0.06173,-1.12763 0.178168,-2.24919 0.287504,-3.37289 0.0038,-1.17318 0.01532,-2.34824 0.123793,-3.5173 0.138859,-1.25146 0.36739,-2.48745 0.746012,-3.69078 0.356814,-2.80559 0.849066,-1.51119 -3.201464,-3.68913 1.013648,1.09003 0.334161,0.3778 3.610181,2.20515 0.04233,0.0236 0.404516,-0.0428 0.448622,-0.078 0.04579,-0.0366 0.06715,-0.0961 0.100719,-0.14412 0.653987,-1.6761 -3.397977,-4.28408 -3.705849,-2.18016 -0.01524,0.0524 -0.219538,0.74748 -0.230836,0.81811 -0.06157,0.38489 0.05235,0.78991 -0.0013,1.17585 z" />
    <path
       style="fill:#cccccc;stroke:#cccccc;stroke-width:0.264583"
       id="path46"
       d="m 37.531654,112.84252 c 1.124341,-0.0727 2.244209,0.13949 3.306945,0.50128 0.289158,0.14474 0.626139,0.14445 0.922139,0.26575 0.263033,0.10779 0.489026,0.29336 0.750347,0.40524 1.12702,0.4825 -0.22489,-0.16576 0.827517,0.35232 0.809508,0.45672 1.762172,0.3678 2.617705,0.64513 0.908008,0.36842 1.874356,0.48041 2.841927,0.5582 1.107276,0.0896 2.20673,0.0653 3.308932,-0.0548 0.710398,-0.0771 0.367503,-0.0198 1.029652,-0.16594 0,0 -3.22857,-2.24884 -3.22857,-2.24884 v 0 c -0.633741,0.11518 -0.301625,0.0662 -0.997209,0.14101 -1.089324,0.0992 -2.180254,0.087 -3.270319,-0.0102 -0.95989,-0.10014 -1.894578,-0.29252 -2.807195,-0.61308 -0.877181,-0.17961 -1.78036,-0.25564 -2.579137,-0.70362 -0.830225,-0.3615 -1.636257,-0.77471 -2.526884,-0.97365 -1.112341,-0.29257 -2.240222,-0.4798 -3.394975,-0.42311 z" />
    <path
       style="fill:#cccccc;stroke:#cccccc;stroke-width:0.264583"
       id="path47"
       d="m 59.727039,155.93705 c 0.219805,-0.93988 0.677833,-1.75611 1.196268,-2.55417 0.275945,-0.34034 0.627073,-0.59301 0.939295,-0.89808 0,0 -3.356137,-2.06486 -3.356137,-2.06486 v 0 c -0.334838,0.31891 -0.704072,0.6024 -0.980966,0.97718 -0.570402,0.87664 -0.977477,1.6904 -1.300657,2.69242 z" />
  </g>
</svg>
